<?xml version="1.0" standalone="no"?>
<!DOCTYPE svg PUBLIC "-//W3C//DTD SVG 1.1//EN" "http://www.w3.org/Graphics/SVG/1.1/DTD/svg11.dtd" >
<svg xmlns="http://www.w3.org/2000/svg" xmlns:xlink="http://www.w3.org/1999/xlink" version="1.1">
<metadata>
Created by FontForge 20201107 at Sat Jan  6 13:26:10 2024
 By 
Digitized data copyright (c) 2019-2024 Chitrajakumar R, Hussain KH, Rajeesh KV, Rachana Institute of Typography (http://rachana.org.in)
</metadata>
<defs>
<font id="RITRachana" horiz-adv-x="2002" >
  <font-face 
    font-family="RIT Rachana"
    font-weight="400"
    font-stretch="normal"
    units-per-em="2048"
    panose-1="2 0 6 3 0 0 0 0 0 0"
    ascent="1638"
    descent="-410"
    x-height="879"
    cap-height="1204"
    bbox="-1282 -991 3586 1661"
    underline-thickness="34"
    underline-position="-970"
    unicode-range="U+000C-F739"
  />
<missing-glyph horiz-adv-x="626" 
d="M160 0v932h466v-932h-466zM206 46h374v838h-374v-838z" />
    <glyph glyph-name=".notdef" horiz-adv-x="626" 
d="M160 0v932h466v-932h-466zM206 46h374v838h-374v-838z" />
    <glyph glyph-name=".null" horiz-adv-x="0" 
 />
    <glyph glyph-name=".null" horiz-adv-x="0" 
 />
    <glyph glyph-name="nonmarkingreturn" horiz-adv-x="0" 
 />
    <glyph glyph-name="CR" unicode="&#xd;" horiz-adv-x="0" 
 />
    <glyph glyph-name="space" unicode=" " horiz-adv-x="496" 
 />
    <glyph glyph-name="exclam" unicode="!" horiz-adv-x="421" 
d="M419 1066q0 -67 -27.5 -204t-34.5 -237t-9 -325h-59q-2 232 -9.5 329.5t-38 234t-30.5 203.5q0 160 104 160t104 -161zM390.5 136.5q30.5 -27.5 30.5 -66.5t-30.5 -66.5t-75 -27.5t-75 27.5t-30.5 66.5t31 66.5t75 27.5t74.5 -27.5z" />
    <glyph glyph-name="quotedbl" unicode="&#x22;" horiz-adv-x="627" 
d="M320.5 1204.5q18.5 -20.5 18.5 -45t-1 -32.5l-46 -296h-34l-47 296q-1 5 -1 31.5t18.5 46.5t46 20t46 -20.5zM608.5 1204.5q18.5 -20.5 18.5 -45t-2 -32.5l-47 -296h-33l-46 296q-1 5 -1 31t18.5 46.5t46 20.5t46 -20.5z" />
    <glyph glyph-name="numbersign" unicode="#" horiz-adv-x="1018" 
d="M1019 702h-182l-32 -229h169v-84h-181l-57 -389h-97l56 389h-217l-55 -389h-98l56 389h-171v84h183l33 229h-171v85h183l51 357h98l-51 -357h216l52 357h98l-52 -357h169v-85zM740 702h-217l-32 -229h216z" />
    <glyph glyph-name="dollar" unicode="$" horiz-adv-x="950" 
d="M951 336q0 -156 -91 -250t-250 -103v-199h-71v198q-151 7 -240 77t-89 185q0 61 30.5 101t73 40t68.5 -29.5t26 -69.5t-15.5 -64t-40.5 -40.5t-25 -27.5q0 -39 61.5 -70t150.5 -37v469q-168 52 -238.5 124.5t-70.5 202t81 211.5t228 101v180h71v-178q132 -9 214 -76.5
t82 -166.5q0 -53 -25 -84t-67 -31t-66.5 27t-24.5 63.5t10.5 55t43.5 44.5q9 11 9 17q0 26 -53.5 51t-122.5 31v-415q104 -36 163.5 -64t102.5 -67t59 -86.5t16 -119.5zM539 699v386q-88 -7 -144.5 -59.5t-56.5 -126.5t45.5 -119t155.5 -81zM776 121q64 61 64 147.5
t-56.5 139t-173.5 85.5v-445q102 12 166 73z" />
    <glyph glyph-name="percent" unicode="%" horiz-adv-x="1414" 
d="M847 1066q164 0 261 138h76l-670 -1204h-83l580 1053q-79 -43 -138.5 -43t-112.5 18q4 -42 4 -53q0 -104 -49 -204.5t-130.5 -165t-169.5 -64.5t-146.5 58t-58.5 151t53.5 194.5t142 170t178 68.5t146.5 -80q61 -37 117 -37zM668.5 801.5q40.5 89.5 40.5 152t-10 95.5
q-62 21 -102 68q-52 -19 -79 -45.5t-80 -119.5q-98 -172 -98 -255q0 -44 26 -71.5t79.5 -27.5t118 57t105 146.5zM1361.5 613q53.5 -55 53.5 -131t-27 -153t-72 -143t-111.5 -110t-147.5 -44t-141 56.5t-60 149t52.5 194t139.5 169t173.5 67.5t140 -55zM1316 292.5
q42 89.5 42 163t-30 113t-71 39.5q-75 0 -146 -116q-127 -209 -127 -305q0 -41 27.5 -68.5t79.5 -27.5t117.5 56t107.5 145.5z" />
    <glyph glyph-name="ampersand" unicode="&#x26;" horiz-adv-x="1363" 
d="M916 264q114 139 114 259q0 41 -29 60.5t-98 19.5h-32v64h460v-64h-35q-78 -3 -122 -57q-4 -5 -8 -9.5t-8.5 -12t-8.5 -14.5t-12 -22t-14.5 -28t-21 -40t-40 -76.5t-95.5 -138.5q95 -105 184 -105q54 0 93.5 46t54.5 128l66 -10q-19 -135 -95 -208.5t-188 -73.5
q-67 0 -119 22.5t-110 77.5q-148 -108 -302.5 -108t-247 100t-92.5 225q0 240 264 380q-63 151 -63 268t75.5 199t193 82t186 -62.5t68.5 -168.5t-65 -177.5t-211 -140.5q140 -268 258 -415zM768.5 860q45.5 57 45.5 135.5t-37.5 123.5t-94.5 45t-94 -47.5t-37 -129.5
t73 -235q99 51 144.5 108zM803 138q-103 125 -160.5 217.5t-140.5 261.5q-69 -45 -100 -95.5t-31 -121.5q0 -127 82 -225t188 -98q67 0 162 61z" />
    <glyph glyph-name="quotesingle" unicode="'" horiz-adv-x="339" 
d="M320.5 1204.5q18.5 -20.5 18.5 -45t-1 -32.5l-48 -296h-32l-46 296q-2 10 -2 34t18.5 44t46 20t46 -20.5z" />
    <glyph glyph-name="parenleft" unicode="(" horiz-adv-x="598" 
d="M598 -204q-388 249 -388 714t388 715v-59q-125 -110 -179 -262t-54 -393t54 -393t179 -262v-60z" />
    <glyph glyph-name="parenright" unicode=")" horiz-adv-x="598" 
d="M501.5 918.5q96.5 -183.5 96.5 -408t-97 -407.5t-291 -307v60q125 110 179 261.5t54 393t-54 393.5t-179 262v59q195 -123 291.5 -306.5z" />
    <glyph glyph-name="asterisk" unicode="*" horiz-adv-x="840" 
d="M841 714q0 -25 -20.5 -42t-46 -17t-40.5 9.5t-51 57.5t-90 80l-52 29v-60q0 -56 23.5 -118.5t23.5 -85t-19.5 -44.5t-43.5 -22t-43.5 22.5t-19.5 43.5t23.5 83t23.5 121v60l-50 -29q-56 -34 -91.5 -81.5t-50.5 -56.5t-41 -9t-46 17t-20 42q0 63 85 73q58 6 84.5 14.5
t62.5 30.5l51 31l-51 33q-52 34 -142 43.5t-90 74.5q0 24 20.5 41.5t46 17.5t40.5 -9.5t51.5 -58t90.5 -78.5l50 -29v59q0 59 -23 119t-23 82t19 44.5t43 22.5t43.5 -22t19.5 -45.5t-23.5 -82.5t-23.5 -118v-59l52 29q54 32 90 79t51 57t40.5 10t46 -17.5t20.5 -41.5
q0 -63 -85 -72q-58 -7 -85.5 -15.5t-61.5 -30.5l-51 -33l51 -32q31 -21 57 -28t90 -16q85 -10 85 -73z" />
    <glyph glyph-name="plus" unicode="+" horiz-adv-x="1074" 
d="M1074 356h-372v-378h-120v378h-372v121h372v378h120v-378h372v-121z" />
    <glyph glyph-name="comma" unicode="," horiz-adv-x="457" 
d="M457 2q0 -164 -196 -307l-51 44q168 119 168 229q0 15 -10 15h-5q-3 -1 -36.5 -1t-62 24t-28.5 63t29 65t77 26t81.5 -43.5t33.5 -114.5z" />
    <glyph glyph-name="hyphen" unicode="-" horiz-adv-x="584" 
d="M584 331h-374v125h374v-125z" />
    <glyph glyph-name="period" unicode="." horiz-adv-x="397" 
d="M370 136.5q27 -27.5 27 -66.5t-27.5 -66.5t-66.5 -27.5t-66 27.5t-27 66.5t27.5 66.5t66.5 27.5t66 -27.5z" />
    <glyph glyph-name="slash" unicode="/" horiz-adv-x="751" 
d="M751 1227l-444 -1251h-97l444 1251h97z" />
    <glyph glyph-name="zero" unicode="0" horiz-adv-x="847" 
d="M752 124.5q-98 -145.5 -250 -145.5t-250 149t-98 379t101 380.5t253.5 150.5t247 -153.5t94.5 -384t-98 -376zM674 756q-23 143 -102 196q-35 23 -74.5 23t-77 -30.5t-61.5 -83.5q-41 -89 -41 -297.5t11 -293.5q19 -149 102 -205q34 -23 73.5 -23t77 31t62 82.5t33 134
t8.5 237.5t-11 229z" />
    <glyph glyph-name="one" unicode="1" horiz-adv-x="820" 
d="M528 1038q-10 -158 -10 -248v-656q0 -34 14 -49.5t118 -15.5h81v-69h-584v69h96q90 0 111 11.5t21 58.5v634q0 65 -14 79t-78 14h-130v63q155 0 269 67q34 19 53 42h53z" />
    <glyph glyph-name="two" unicode="2" horiz-adv-x="820" 
d="M745 319l-28 -319h-665v41q24 32 57.5 78t86.5 104l202 215q93 99 133.5 178t40.5 166t-52 140t-138 53t-147 -47t-61 -105q0 -19 18.5 -27t41 -18t37 -33t14.5 -57t-25 -58.5t-73 -24.5t-80 43t-32 107q0 124 96.5 203.5t238.5 79.5t235.5 -82t93.5 -211.5t-101 -230.5
q-55 -55 -158.5 -135.5t-148.5 -121t-119 -118.5h331q68 0 88 16t34 88l15 76h65z" />
    <glyph glyph-name="three" unicode="3" horiz-adv-x="820" 
d="M510 543q224 -62 224 -247q0 -155 -96.5 -236t-247.5 -81t-239.5 67.5t-88.5 173.5q0 57 29 93t73 36t70.5 -26t26.5 -73t-40.5 -70.5t-45 -28.5t-4.5 -18t17 -30.5t62 -39.5t129 -22t138 62t54 177q0 224 -168 224l-105 -3q-46 0 -46 38.5t47 38.5l92 -4
q162 0 162 200.5t-162 200.5q-101 0 -155 -55q-15 -16 -15 -29.5t32.5 -36.5t32.5 -65t-24 -66t-64.5 -24t-68 29t-27.5 76q0 100 87.5 167t220 67t214.5 -69t82 -185q0 -172 -196 -241z" />
    <glyph glyph-name="four" unicode="4" horiz-adv-x="820" 
d="M606 1038q-7 -98 -7 -106v-591h178v-83h-178v-119q0 -49 15.5 -59.5t102.5 -10.5h20v-69h-430v69h31q87 0 101 9.5t15.5 23.5t1.5 37v119h-415v83l502 697h63zM456 341v446l-325 -446h325z" />
    <glyph glyph-name="five" unicode="5" horiz-adv-x="820" 
d="M143 448q-47 0 -47 55q0 26 41 71q28 241 40 464q160 -39 214 -41.5t128.5 -2.5t120.5 22t57 22t11 -14t-29.5 -64t-96.5 -82t-150 -32t-190 25l-25 -250q102 44 183 44q156 0 248 -92t92 -248.5t-102 -251t-255.5 -94.5t-235 70t-81.5 171q0 51 31 87.5t73.5 36.5
t68.5 -26.5t26 -61t-12 -52.5t-42.5 -36t-30.5 -35q0 -34 56.5 -63t123.5 -29q220 0 220 280q0 128 -56 199t-148.5 71t-166.5 -53q-9 -90 -66 -90z" />
    <glyph glyph-name="six" unicode="6" horiz-adv-x="820" 
d="M226 499q99 133 234 133t218 -86.5t83 -224.5t-96.5 -241t-251 -103t-253 129.5t-98.5 357.5t117 400t314 172q103 0 172 -50.5t69 -126.5q0 -47 -27.5 -76.5t-68 -29.5t-66 24.5t-25.5 57t15 60.5t15 35q0 43 -77 43q-172 0 -240 -220q-20 -66 -34 -254zM588 202
q12 52 12 137t-45.5 144t-130.5 59t-136.5 -65t-51.5 -176.5t55.5 -186.5t133.5 -75q123 0 163 163z" />
    <glyph glyph-name="seven" unicode="7" horiz-adv-x="820" 
d="M133 1035q225 -15 369.5 -15t246.5 9v-43q-7 -14 -10 -23.5t-5 -11.5l-66 -139q-107 -222 -142.5 -344.5t-35.5 -259.5v-76q2 -155 -91 -155q-98 0 -98 108q0 144 162 468q25 50 66 133l101 202l-92 -2l-284 10q-32 0 -44.5 -18t-31.5 -94l-26 -116l-65 10z" />
    <glyph glyph-name="eight" unicode="8" horiz-adv-x="820" 
d="M276 504q-167 89 -167 230t87.5 221t220 80t215 -67t82.5 -167q0 -140 -163 -229q205 -93 205 -257t-97 -251.5t-257 -87.5t-251 73.5t-91 195.5q0 91 51 153t165 106zM553 922q-52 50 -137.5 50t-139 -43t-53.5 -110.5t40.5 -112t130.5 -76.5l97 -36q66 58 90 99.5
t24 110t-52 118.5zM622 151q16 36 16 95q0 123 -159 180l-135 49q-86 -40 -123.5 -94t-37.5 -144t57.5 -144.5t160.5 -54.5q169 0 221 113z" />
    <glyph glyph-name="nine" unicode="9" horiz-adv-x="820" 
d="M242 74q0 -37 78.5 -37t135.5 45q98 78 128 314q5 45 12 112q-61 -77 -115 -106t-125 -29q-134 0 -216 87.5t-82 227.5t97.5 243t251 103t251.5 -132.5t98 -363.5t-115.5 -397t-317.5 -166q-100 0 -169.5 48t-69.5 120t60 99q19 9 48 9t54 -25t25 -52t-3.5 -37t-14.5 -33
t-11 -30zM568 594q14 44 14 104q0 122 -49 197.5t-132.5 75.5t-133 -72.5t-49.5 -192t45.5 -182t130.5 -62.5q129 0 174 132z" />
    <glyph glyph-name="colon" unicode=":" horiz-adv-x="347" 
d="M320 186.5q27 -27.5 27 -66.5t-27.5 -66.5t-66.5 -27.5t-66 27.5t-27 66.5t27.5 66.5t66.5 27.5t66 -27.5zM320 751q27 -27 27 -66t-27 -67q-28 -27 -67 -27t-66 27q-27 28 -27 67t27 66q28 27 67 27t66 -27z" />
    <glyph glyph-name="semicolon" unicode=";" horiz-adv-x="408" 
d="M408 2q0 -163 -196 -307l-52 44q168 119 168 229q0 15 -10 15h-5q-3 -1 -36.5 -1t-61.5 24t-28 63t28.5 65t76.5 26t82 -43.5t34 -114.5zM200 523q0 39 27 66.5t66 27.5t66.5 -27.5t27.5 -66.5t-27.5 -66.5t-66.5 -27.5t-66 27.5t-27 66.5z" />
    <glyph glyph-name="less" unicode="&#x3c;" horiz-adv-x="931" 
d="M932 -16l-772 372v122l772 372v-144l-590 -289l590 -289v-144z" />
    <glyph glyph-name="equal" unicode="=" horiz-adv-x="1036" 
d="M1036 506h-876v121h876v-121zM1036 206h-876v121h876v-121z" />
    <glyph glyph-name="greater" unicode="&#x3e;" horiz-adv-x="931" 
d="M932 356l-772 -372v144l590 289l-590 289v144l772 -372v-122z" />
    <glyph glyph-name="question" unicode="?" horiz-adv-x="766" 
d="M766 921q0 -88 -37 -152t-132.5 -154t-116 -144t-20.5 -181h-66v56q0 104 13.5 144.5t17 49t6 16.5t8.5 18t10.5 18t17 26t21.5 32t30 45t39 57q52 76 52 180.5t-48.5 160.5t-121 56t-118 -26.5t-45.5 -59.5q0 -8 33.5 -50.5t33.5 -82t-24.5 -66.5t-63.5 -27t-67 36.5
t-28 92.5q0 109 87 180t220.5 71t216 -81.5t82.5 -214.5zM490 124.5q27 -27.5 27 -66.5t-27 -66.5t-66.5 -27.5t-66.5 27.5t-27 66.5t27.5 66.5t66.5 27.5t66 -27.5z" />
    <glyph glyph-name="at" unicode="@" horiz-adv-x="1218" 
d="M729 54q248 0 386 254h94q-58 -139 -195 -235.5t-294.5 -96.5t-285.5 80.5t-201 222.5t-73 317t74 320.5t200.5 228t279.5 82.5q102 0 195.5 -39.5t161.5 -107t108 -160t40 -200.5t-52 -220t-137 -183t-176 -71q-49 0 -79.5 28.5t-30.5 62t2 45.5q-47 -70 -86 -98.5
t-87 -28.5q-84 0 -142.5 69.5t-58.5 172.5t46.5 197t121 151.5t159.5 57.5t117 -102l23 89h146l-123 -487q-6 -24 -6 -46q0 -45 47 -45t104 60.5t95 156t38 196.5t-54 201t-151 162t-223 62t-235 -70.5t-171 -195.5t-62 -282.5t62.5 -282.5t172.5 -195t250 -70zM508 450
q0 -135 83 -135q42 0 90 68t77 163t29 162q0 133 -74 133q-54 0 -103.5 -73t-75.5 -163t-26 -155z" />
    <glyph glyph-name="A" unicode="A" horiz-adv-x="1352" 
d="M1352 0h-517v70h70q47 0 75.5 12.5t28.5 33.5q0 11 -13 47l-91 231h-441l-55 -152q-16 -46 -16 -73q0 -99 135 -99h34v-70h-442v70h23q62 0 92 32.5t75 145.5l384 979h69l425 -1049q29 -72 50.5 -90t81.5 -18h32v-70zM870 475l-188 479l-185 -479h373z" />
    <glyph glyph-name="B" unicode="B" horiz-adv-x="1147" 
d="M1072.5 524.5q75.5 -73.5 75.5 -212t-118.5 -225.5t-326.5 -87h-583v70h31q122 0 139 27q10 16 10 53v903q0 54 -24 67t-125 13h-31v71h580q185 0 288.5 -75.5t103.5 -218.5q0 -106 -63.5 -180t-188.5 -102q157 -30 232.5 -103.5zM849 711.5q68 53.5 68 178.5t-62.5 184
t-207.5 59h-67q-65 0 -88.5 -18t-23.5 -68v-389h151q162 0 230 53.5zM888 126q75 56 75 201t-77.5 203t-270.5 58h-147v-410q0 -71 17 -89.5t80 -18.5h71q177 0 252 56z" />
    <glyph glyph-name="C" unicode="C" horiz-adv-x="1129" 
d="M1129 409q-28 -208 -147.5 -321.5t-295.5 -113.5t-301 79t-195 220t-70 314.5t75 321t202 233.5t275 86q82 0 142 -21.5t146 -81.5l67 90h81v-479h-66q-52 175 -97 253.5t-119.5 123.5t-162.5 45q-173 0 -259 -147.5t-86 -423.5t90 -408.5t274 -132.5q307 0 377 376z" />
    <glyph glyph-name="D" unicode="D" horiz-adv-x="1251" 
d="M1252 609q0 -296 -148.5 -452.5t-442.5 -156.5h-541v70h32q98 0 119 11.5t25 25.5t4 43v903q0 54 -24.5 67t-123.5 13h-32v71h512q262 0 382 -80q238 -160 238 -515zM966 194q88 124 88 406.5t-95 407.5t-309 125h-86q-63 0 -79.5 -16.5t-16.5 -78.5v-874q0 -62 16.5 -78
t79.5 -16h112q202 0 290 124z" />
    <glyph glyph-name="E" unicode="E" horiz-adv-x="1140" 
d="M1141 446l-31 -446h-990v70h30q101 0 125.5 13.5t24.5 66.5v903q0 54 -24.5 67t-125.5 13h-30v71h992v-428h-64q-25 151 -54.5 209t-56.5 81.5t-82.5 45t-197.5 21.5h-86q-66 0 -84.5 -15.5t-18.5 -70.5v-389h40q119 0 173.5 54.5t60.5 179.5h71v-550h-71
q-5 163 -64.5 204.5t-175.5 41.5h-34v-435q0 -51 25.5 -67t92.5 -16h109q96 0 159.5 18.5t107 65t68.5 114t45 178.5h66z" />
    <glyph glyph-name="F" unicode="F" horiz-adv-x="1102" 
d="M1102 776h-66q-26 170 -76 248t-172 99q-56 10 -141 10h-76q-66 0 -84.5 -15.5t-18.5 -70.5v-389h40q119 0 173.5 54.5t60.5 179.5h71v-550h-71q-3 127 -35.5 172t-80.5 59.5t-124 14.5h-34v-437q0 -29 4 -43t24.5 -26t121.5 -12h56v-70h-554v70h30q101 0 125.5 13.5
t24.5 66.5v903q0 54 -24.5 67t-125.5 13h-30v71h982v-428z" />
    <glyph glyph-name="G" unicode="G" horiz-adv-x="1298" 
d="M1298 473h-25q-119 0 -140 -23q-7 -9 -8.5 -22.5t-1.5 -81.5v-370h-63l-56 145q-79 -79 -157 -113t-185.5 -34t-208.5 45t-174.5 123.5t-116 192t-42.5 229.5q0 332 222 533q144 131 345 131q88 0 151 -23t144 -85l58 97h79v-471h-64q-103 412 -386 412
q-171 0 -261 -147.5t-90 -420t92.5 -408.5t267.5 -136q138 0 214 84.5t76 239.5q0 72 -23 87.5t-128 15.5h-33v71h514v-71z" />
    <glyph glyph-name="H" unicode="H" horiz-adv-x="1375" 
d="M1376 0h-529v70h30q123 0 140 27q10 16 10 54v433h-559v-433q0 -65 37 -73t113 -8h32v-70h-530v70h30q101 0 125.5 13.5t24.5 66.5v903q0 54 -24.5 67t-125.5 13h-30v71h530v-71h-32q-122 0 -136 -20t-14 -61v-388h559v388q0 42 -10 55q-20 26 -140 26h-24v71h523v-71
h-31q-101 0 -125.5 -13t-24.5 -67v-903q0 -37 10 -53q18 -27 140 -27h31v-70z" />
    <glyph glyph-name="I" unicode="I" horiz-adv-x="653" 
d="M653 0h-533v70h33q122 0 140 27q10 16 10 53v903q0 54 -24 67t-126 13h-33v71h533v-71h-33q-71 0 -100 -5.5t-39 -21t-10 -53.5v-903q0 -64 36.5 -72t112.5 -8h33v-70z" />
    <glyph glyph-name="J" unicode="J" horiz-adv-x="978" 
d="M228 248q-18 0 -18 -31q0 -67 60 -119t142 -52q148 0 196 147q22 67 22 266v594q0 29 -4 43.5t-27.5 25.5t-129.5 11h-34v71h543v-71h-32q-101 0 -117.5 -8.5t-24 -21t-7.5 -49.5v-604q0 -272 -90 -377q-46 -54 -110 -76.5t-158 -22.5q-151 0 -235 79t-84 202
q0 88 42.5 145t100 57t89 -30.5t31.5 -77.5t-27 -78t-59 -31t-64 8h-5z" />
    <glyph glyph-name="K" unicode="K" horiz-adv-x="1390" 
d="M959 1082q0 51 -109 51h-41v71h514v-71q-157 0 -283 -135l-248 -253l403 -589q37 -56 65.5 -71t98.5 -15h32v-70h-571v70h52q114 0 114 39q0 22 -34 71l-289 432l-195 -198v-264q0 -37 11 -53q17 -27 140 -27h32v-70h-531v70h31q122 0 139 27q10 16 10 53v903
q0 54 -24 67t-125 13h-31v71h531v-71h-32q-100 0 -121.5 -11t-25.5 -25.5t-4 -43.5v-508l410 416q81 81 81 121z" />
    <glyph glyph-name="L" unicode="L" horiz-adv-x="1112" 
d="M1113 454l-32 -454h-961v70h30q122 0 139 27q11 16 11 53v903q0 54 -24.5 67t-125.5 13h-30v71h527v-71h-29q-100 0 -121 -11t-25 -25.5t-4 -43.5v-901q0 -51 26 -66.5t94 -15.5h70q204 0 285 95q43 51 66 117.5t38 171.5h66z" />
    <glyph glyph-name="M" unicode="M" horiz-adv-x="1577" 
d="M1577 0h-529v70h30q123 0 137 20t14 60v954l-372 -1104h-66l-397 1104v-748q0 -89 7 -140.5t30 -85t57.5 -45.5t97.5 -15v-70h-466v70q94 5 127 30t50 74.5t17 181.5v697q0 54 -25 67t-126 13h-32v71h421l320 -893l305 893h400v-71h-31q-101 0 -125 -13t-24 -67v-903
q0 -29 3.5 -43.5t24.5 -25.5t121 -11h31v-70z" />
    <glyph glyph-name="N" unicode="N" horiz-adv-x="1392" 
d="M1392 1133q-62 -3 -97.5 -14.5t-58 -45t-29.5 -84.5t-7 -142v-871h-63l-742 1010v-628q0 -90 7.5 -142t30 -85.5t57.5 -45.5t97 -15v-70h-465v70q94 5 127 30t49.5 74.5t16.5 183.5v719q-22 32 -55.5 44t-98.5 12h-41v71h334l665 -890v531q0 90 -7 142t-30 85.5t-58 45.5
t-97 15v71h465v-71z" />
    <glyph glyph-name="O" unicode="O" horiz-adv-x="1223" 
d="M1181.5 848.5q42.5 -116.5 42.5 -247.5t-42.5 -247t-115.5 -199.5t-175 -132t-237 -48.5t-262 82t-199.5 226t-72.5 316t69 315t198 229t292 86q113 0 214.5 -48t173.5 -131.5t114.5 -200zM318 602q0 -556 354 -556q177 0 265.5 135t88.5 420q0 557 -349 557
q-179 0 -269 -135t-90 -421z" />
    <glyph glyph-name="P" unicode="P" horiz-adv-x="1116" 
d="M1116 876q0 -99 -46 -175q-77 -126 -247 -152q-64 -10 -172 -10h-183v-388q0 -38 11 -54q17 -27 139 -27h43v-70h-541v70h30q101 0 125.5 13.5t24.5 66.5v903q0 54 -24.5 67t-125.5 13h-30v71h561q218 0 326.5 -85.5t108.5 -242.5zM867 673.5q64 63.5 64 197t-62.5 198
t-192.5 64.5h-106q-69 0 -85.5 -14t-16.5 -73v-436h202q133 0 197 63.5z" />
    <glyph glyph-name="Q" unicode="Q" horiz-adv-x="1238" 
d="M1238 -35q0 -131 -53 -205.5t-149 -74.5t-152.5 82t-61.5 230q-72 -23 -141 -23q-154 0 -282.5 83.5t-203.5 227.5t-75 315q0 304 217 501q141 127 329 127q114 0 216 -48t175.5 -130.5t116.5 -197t43 -240.5q0 -330 -241 -548q40 -140 70.5 -199t60.5 -59t44 36t20 123
h67zM1019 606q0 274 -84.5 413t-269.5 139t-266 -155.5t-81 -422.5t99 -399q-2 13 -2 30q0 100 66.5 162.5t170 62.5t176.5 -62t104 -179q48 80 67.5 171.5t19.5 239.5zM816 84v16q0 127 -45.5 196t-123 69t-121 -46.5t-43.5 -120.5t47 -113t132 -39t154 38z" />
    <glyph glyph-name="R" unicode="R" horiz-adv-x="1220" 
d="M1089 89q59 0 68 170h63q-4 -146 -52 -215.5t-145.5 -69.5t-146 62.5t-62.5 203.5l-8 86q-14 143 -73 201t-171 58h-94v-435q0 -29 4 -43t25 -25.5t121 -11.5h30v-70h-528v70h30q122 0 139 27q11 16 11 53v903q0 54 -24.5 67t-125.5 13h-30v71h555q202 0 313 -78.5
t111 -213t-83 -208t-253 -99.5q94 -25 144 -84.5t77 -177.5l26 -107q21 -91 35.5 -119t43.5 -28zM848 714.5q66 58.5 66 183t-58 180t-182 55.5h-91q-79 0 -97 -9t-18 -48v-420h184q130 0 196 58.5z" />
    <glyph glyph-name="S" unicode="S" horiz-adv-x="989" 
d="M894 584q95 -96 95 -254.5t-106.5 -257t-286.5 -98.5q-106 0 -183.5 26.5t-159.5 91.5l-68 -107h-58l-7 473h65q19 -98 47.5 -163.5t83.5 -128.5q108 -123 284 -123q68 0 112.5 16t85.5 53q75 69 75 171t-77 164q-27 20 -52.5 30t-117.5 34l-158 43q-177 47 -249.5 121.5
t-72.5 218.5t99 239t269 95t288 -108l66 94h55l19 -433h-64q-34 132 -101 227q-102 148 -278 148q-105 0 -170.5 -57t-65.5 -142.5t53 -137.5t165 -82l178 -50q175 -44 235 -103z" />
    <glyph glyph-name="T" unicode="T" horiz-adv-x="1135" 
d="M544 1072q0 61 -78 61q-172 0 -237 -188q-29 -85 -45 -203h-64l23 462h970l23 -462h-65q-19 145 -53 226q-67 165 -227 165q-78 0 -78 -61v-922q0 -29 3.5 -43t25 -25.5t119.5 -11.5h43v-70h-553v70h44q100 0 121 11.5t24.5 25.5t3.5 43v922z" />
    <glyph glyph-name="U" unicode="U" horiz-adv-x="1395" 
d="M1395 1133q-62 -3 -98 -14.5t-58.5 -45t-29.5 -84.5t-7 -142v-381q0 -257 -115.5 -374.5t-333 -117.5t-337 90t-119.5 274v716q0 38 -10 53q-18 26 -138 26h-29v71h527v-71h-32q-101 0 -125.5 -13t-24.5 -67v-617q0 -191 71.5 -286t254.5 -95t256.5 113.5t73.5 302.5v374
q0 90 -7 142t-29.5 85.5t-57 45.5t-97.5 15v71h465v-71z" />
    <glyph glyph-name="V" unicode="V" horiz-adv-x="1352" 
d="M574 1133q-104 0 -104 -43q0 -16 13 -50l306 -783l258 694q20 57 20 96.5t-35.5 62.5t-99.5 23h-31v71h451v-71h-30q-69 0 -100 -31.5t-69 -132.5l-383 -995h-67l-422 1065q-24 58 -48 76t-80 18h-33v71h520v-71h-66z" />
    <glyph glyph-name="W" unicode="W" horiz-adv-x="1705" 
d="M1706 1133h-24q-67 0 -94 -33.5t-57 -140.5l-276 -985h-56l-276 858l-253 -858h-70l-348 1093q-15 44 -31.5 55t-68.5 11h-32v71h460v-71h-79q-43 0 -60 -7.5t-17 -27t8 -41.5l248 -776l200 682l-43 121q-9 28 -31 38.5t-74 10.5h-37v71h476v-71h-28q-110 0 -123 -20
q-5 -8 -5 -21.5t11 -51.5l241 -748l194 694q11 32 11 69q0 78 -124 78h-29v71h387v-71z" />
    <glyph glyph-name="X" unicode="X" horiz-adv-x="1322" 
d="M1323 0h-547v70h47q76 0 94 5.5t18 25.5t-21 53l-249 356l-194 -284q-26 -42 -26 -77t29 -57t79 -22h41v-70h-472v70h23q61 0 104 30.5t97 105.5l270 381l-328 482q-28 42 -53 53t-87 11h-28v71h515v-71h-64q-47 0 -63.5 -4.5t-16.5 -18.5t19 -41l221 -325l181 265
q23 34 23 64.5t-20.5 45t-78.5 14.5h-40v71h458v-71h-25q-67 0 -113.5 -32t-115.5 -127l-222 -306l350 -510q24 -35 36 -49t32 -25t40 -12.5t64 -1.5h23v-70z" />
    <glyph glyph-name="Y" unicode="Y" horiz-adv-x="1312" 
d="M1312 1133h-27q-73 0 -115 -36t-101 -146l-249 -455v-346q0 -29 4 -43.5t24 -25.5t120 -11h44v-70h-553v70h43q123 0 140 27q10 16 10 53v327l-360 578q-29 47 -55 62.5t-80 15.5h-37v71h535v-71h-98q-65 0 -65 -33q0 -18 18 -47l267 -458l203 374q27 49 27 88.5
t-30 57.5t-99 18h-39v71h473v-71z" />
    <glyph glyph-name="Z" unicode="Z" horiz-adv-x="1024" 
d="M1025 461l-28 -461h-877v55l676 1078h-217q-87 0 -140 -14.5t-93.5 -55t-64 -104.5t-44.5 -174h-68l31 419h815v-55l-678 -1079h278q175 0 239 88q67 83 99 303h72z" />
    <glyph glyph-name="bracketleft" unicode="[" horiz-adv-x="489" 
d="M490 -178h-370v1379h370v-57h-235v-1266h235v-56z" />
    <glyph glyph-name="backslash" unicode="\" horiz-adv-x="883" 
d="M884 0h-98l-666 1228h96z" />
    <glyph glyph-name="bracketright" unicode="]" horiz-adv-x="488" 
d="M489 -178h-369v57h233v1267h-233v55h369v-1379z" />
    <glyph glyph-name="asciicircum" unicode="^" horiz-adv-x="957" 
d="M958 531h-146l-271 518l-275 -518h-146l349 671h142z" />
    <glyph glyph-name="underscore" unicode="_" horiz-adv-x="953" 
d="M953 -219h-833v91h833v-91z" />
    <glyph glyph-name="grave" unicode="`" horiz-adv-x="546" 
d="M546 993h-77l-301 183q-48 28 -48 64t19.5 55t44 19t43.5 -11.5t54 -46.5z" />
    <glyph glyph-name="a" unicode="a" horiz-adv-x="1028" 
d="M963 98q32 11 48.5 11t16.5 -29t-52 -61t-114 -32t-99 28.5t-59 95.5q-123 -140 -318 -140q-121 0 -193.5 60t-72.5 160q0 139 127.5 217.5t447.5 134.5v77q0 123 -51 170.5t-137 47.5t-136.5 -23t-50.5 -54q0 -2 19 -44t19 -74.5t-26 -61t-68.5 -28.5t-70 32t-27.5 86
q0 103 101 171.5t258.5 68.5t244 -63.5t86.5 -242.5v-385q0 -72 16 -102.5t56 -30.5q3 0 35 11zM695 380v90q-306 -54 -370 -139q-33 -44 -33 -113t43 -112.5t105.5 -43.5t122 33.5t89 80.5t36.5 81.5t7 122.5z" />
    <glyph glyph-name="b" unicode="b" horiz-adv-x="1053" 
d="M1053 445q0 -204 -112 -339t-279 -135t-276 143l-84 -141h-68q34 154 34 492v741q0 61 -14.5 78.5t-67.5 17.5h-66v73l309 21v-628q53 77 109 108.5t140 31.5q166 0 270.5 -129.5t104.5 -333.5zM817.5 144q56.5 100 56.5 286.5t-57.5 288.5t-167.5 102t-169.5 -102.5
t-59.5 -288t63 -286t170.5 -100.5t164 100z" />
    <glyph glyph-name="c" unicode="c" horiz-adv-x="819" 
d="M819 242q-58 -147 -132.5 -209t-193.5 -62q-166 0 -269.5 126.5t-103.5 333.5t111.5 343.5t284.5 136.5q118 0 198.5 -65t80.5 -160q0 -57 -29.5 -92.5t-74.5 -35.5t-73.5 30t-28.5 67t7 55t22 40t15 37.5t-31 33t-73 17.5q-104 0 -167 -108t-63 -282t63.5 -273.5
t172.5 -99.5q71 0 121.5 46t94.5 151z" />
    <glyph glyph-name="d" unicode="d" horiz-adv-x="1051" 
d="M739 129q-85 -158 -249 -158t-267 129t-103 331.5t105.5 339.5t260 137t253.5 -130v429q0 61 -15 78t-66 17h-112v73l353 21v-1183q0 -90 20.5 -115t97.5 -25h34v-73l-312 -12v141zM676.5 164.5q60.5 101.5 60.5 257.5t-30.5 235t-81 119t-109 40t-107.5 -38.5
t-79.5 -119.5t-30.5 -246.5t57.5 -257t158.5 -91.5t161.5 101.5z" />
    <glyph glyph-name="e" unicode="e" horiz-adv-x="894" 
d="M894 236q-110 -265 -367 -265q-182 0 -294.5 123t-112.5 329.5t114.5 347t284 140.5t272.5 -134.5t103 -346.5h-593q0 -181 68.5 -274t174.5 -93t170 48.5t121 162.5zM712 576q0 119 -52.5 190.5t-141.5 71.5t-152.5 -91t-63.5 -244h332q46 0 62 15t16 58z" />
    <glyph glyph-name="f" unicode="f" horiz-adv-x="866" 
d="M866 1220q0 -51 -26.5 -83t-67.5 -32t-68.5 30t-27.5 59t6.5 49.5t13 35.5t6.5 17q0 32 -63 32q-95 0 -143 -79.5t-48 -257.5v-111h208v-73h-208v-655q0 -58 25.5 -74t117.5 -16h34v-62h-488v62h27q89 0 104.5 14.5t17 28t1.5 47.5v655h-167v73h167v60q0 235 91 345.5
t255 110.5q108 0 170.5 -47t62.5 -129z" />
    <glyph glyph-name="g" unicode="g" horiz-adv-x="1004" 
d="M220.5 823.5q98.5 87.5 240.5 87.5t247 -65q61 54 94.5 71.5t81 17.5t79.5 -27.5t32 -66.5t-23.5 -63t-57 -24t-53.5 22t-28.5 43.5t-15.5 21.5q-20 0 -60 -41q35 -48 48.5 -90t13.5 -120.5t-44.5 -152t-126.5 -113.5q-45 -22 -87 -28t-153.5 -9t-152 -24.5t-40.5 -63
t19.5 -53.5t39.5 -16.5t90 -4.5h185q162 0 221 -23q117 -47 117 -196q0 -291 -449 -291q-180 0 -279 50.5t-99 144.5q0 117 158 180q-60 23 -87.5 60.5t-27.5 105.5q0 138 163 178q-66 35 -105 103.5t-39 153.5q0 145 98.5 232.5zM611 417.5q51 65.5 51 180.5t-48.5 177.5
t-140.5 62.5t-144 -64t-52 -178t52 -179t141.5 -65t140.5 65.5zM768 -139q0 47 -32 76.5t-74 34.5t-206 5h-137q-64 -37 -90.5 -72t-26.5 -92t63 -92.5t198 -35.5t220 46.5t85 129.5z" />
    <glyph glyph-name="h" unicode="h" horiz-adv-x="1179" 
d="M453 735q120 174 290 174q82 0 147.5 -39t95.5 -98t37 -101.5t7 -144.5v-375q0 -43 6 -59q12 -30 117 -30h26v-62h-462v62h27q106 0 115.5 23t9.5 68v389q0 133 -42 195q-52 68 -146 68q-49 0 -107 -41t-89.5 -108t-31.5 -226v-277q0 -74 30 -82.5t94 -8.5h26v-62h-461
v62h27q105 0 117 30q6 16 6 60v1054q0 61 -14.5 78.5t-67.5 17.5h-90v73l333 21v-661z" />
    <glyph glyph-name="i" unicode="i" horiz-adv-x="616" 
d="M616 0h-474v62h24q89 0 110.5 15.5t21.5 74.5v538q0 61 -14.5 79t-66.5 18h-97v73l339 20v-729q0 -41 9 -58q15 -31 125 -31h23v-62zM438.5 1225.5q25.5 -25.5 25.5 -61t-25.5 -60t-60 -24.5t-60 25.5t-25.5 60t25.5 60t60 25.5t60 -25.5z" />
    <glyph glyph-name="j" unicode="j" horiz-adv-x="523" 
d="M171 -285q0 -22 38 -22q80 0 113.5 69.5t33.5 279.5v646q0 61 -14.5 78.5t-66.5 17.5h-108v74l350 23v-746q0 -159 -16 -244t-55.5 -145t-103.5 -93t-145 -33t-135.5 39t-54.5 92t27 82t65 29t65 -24t27 -55zM496.5 1215.5q25.5 -25.5 25.5 -61t-25.5 -60.5t-60 -25
t-60 26t-25.5 60.5t25.5 60t60 25.5t60 -25.5z" />
    <glyph glyph-name="k" unicode="k" horiz-adv-x="1187" 
d="M723 62q84 0 84 28q0 13 -14 39l-226 320l-114 -110v-187q0 -44 6 -60q12 -30 119 -30h26v-62h-462v62h27q105 0 117 30q6 16 6 60v1054q0 61 -14.5 78.5t-67.5 17.5h-90v73l333 21v-938l255 249q43 43 43 77.5t-88 34.5h-59v61h498v-61q-96 -11 -167 -48.5t-153 -119.5
l-85 -84l269 -373q59 -75 100.5 -100t120.5 -32v-62h-499v62h35z" />
    <glyph glyph-name="l" unicode="l" horiz-adv-x="610" 
d="M610 0h-473v62h32q105 0 117 30q6 16 6 60v1054q0 62 -14 79t-65 17h-93v73l333 21v-1245q0 -43 6 -59q12 -30 119 -30h32v-62z" />
    <glyph glyph-name="m" unicode="m" horiz-adv-x="1668" 
d="M1357 549q0 258 -161 258q-98 0 -157.5 -86.5t-59.5 -231.5v-336q0 -34 2 -48t17 -28.5t104 -14.5h27v-62h-462v62h27q106 0 115 23.5t9 67.5v417q0 122 -37 173q-17 28 -52.5 46t-72.5 18q-93 0 -154.5 -85.5t-61.5 -214.5v-352q0 -66 12 -74q30 -19 111 -19h26v-62
h-459v62h27q89 0 104 15t16.5 29t1.5 49v541q0 63 -14.5 80.5t-66.5 17.5h-78v73l320 18v-136q105 162 265 162q92 0 161.5 -49t92.5 -129q60 92 128 135t157 43q135 0 216 -109q35 -49 46.5 -92t11.5 -131v-426q0 -44 6 -60q12 -31 118 -31h26v-62h-461v62h26
q106 0 115 23.5t9 67.5v396z" />
    <glyph glyph-name="n" unicode="n" horiz-adv-x="1157" 
d="M431 741q118 170 290 170q81 0 147 -39.5t96 -98t37 -101.5t7 -145v-376q0 -43 6 -59q12 -30 117 -30h26v-62h-462v62h27q106 0 115.5 23t9.5 68v392q0 262 -188 262q-49 0 -107 -41t-89.5 -109t-31.5 -224v-280q0 -74 30.5 -82.5t94.5 -8.5h26v-62h-462v62h27
q89 0 104 14.5t17 28.5t2 48v543q0 63 -14.5 80.5t-67.5 17.5h-68v73l311 18v-144z" />
    <glyph glyph-name="o" unicode="o" horiz-adv-x="898" 
d="M846.5 677q51.5 -108 51.5 -236.5t-51.5 -236.5t-141 -170.5t-196.5 -62.5t-196.5 62.5t-141 170t-51.5 235.5q0 199 113.5 335.5t278.5 136.5q105 0 194 -63t140.5 -171zM665 146q54 102 54 294t-54 295t-153 103q-213 0 -213 -399q0 -191 54 -293t156 -102t156 102z
" />
    <glyph glyph-name="p" unicode="p" horiz-adv-x="1044" 
d="M939.5 776q104.5 -135 104.5 -334.5t-105.5 -335t-265.5 -135.5q-84 0 -140 33.5t-102 111.5v-349q0 -57 23.5 -72.5t114.5 -15.5h26v-62h-475v62h27q105 0 117 31q6 15 6 59v927q0 62 -14.5 79.5t-67.5 17.5h-68v73l311 19v-125q49 80 108 115.5t144 35.5
q152 0 256.5 -135zM809 166q56 103 56 282.5t-54.5 274.5t-157.5 95t-163.5 -102.5t-60.5 -277t61 -275t162 -100.5t157 103z" />
    <glyph glyph-name="q" unicode="q" horiz-adv-x="1052" 
d="M1052 -383h-474v62h24q91 0 115.5 15.5t24.5 72.5v333q-55 -73 -109.5 -101t-140.5 -28q-161 0 -266.5 127.5t-105.5 330t112 342.5t280 140t276 -151l81 125h66q-25 -119 -30 -162l-2 -137v-818q0 -43 6 -58q12 -31 118 -31h25v-62zM742 461q0 158 -33 232
q-65 145 -187 145q-223 0 -223 -408q0 -175 57.5 -271t163.5 -96q222 0 222 398z" />
    <glyph glyph-name="r" unicode="r" horiz-adv-x="864" 
d="M821.5 869q42.5 -37 42.5 -94t-28.5 -89t-72.5 -32t-70.5 26.5t-26.5 68t31 76.5q-119 -14 -187 -178q-72 -169 -72 -399v-96q0 -58 25 -74t116 -16h36v-62h-488v62h27q91 0 106 15t17 28.5t2 47.5v539q0 62 -14.5 79.5t-67.5 17.5h-77v73l318 18v-211q44 113 114 175
t148.5 62t121 -37z" />
    <glyph glyph-name="s" unicode="s" horiz-adv-x="797" 
d="M721 445q76 -64 76 -190.5t-83 -205t-222 -78.5t-252 85l-60 -69h-60v356h68q34 -145 115 -222t182 -77t153.5 44.5t52.5 110t-45 101t-157 63.5l-100 24q-81 19 -121 37q-136 60 -136 217q0 122 74.5 196t201.5 74t222 -68l54 61h60v-316h-60q-24 69 -42.5 104.5
t-49.5 66.5q-78 77 -170.5 77t-141.5 -39t-49 -87q0 -88 66 -120q25 -14 41 -19t98 -25l94 -23q83 -18 121 -33.5t70 -44.5z" />
    <glyph glyph-name="t" unicode="t" horiz-adv-x="768" 
d="M768 296q0 -141 -69 -233t-197 -92q-158 0 -206 124q-21 52 -21 225v486h-155v66q218 16 245 386h70v-379h277v-73h-277v-529q0 -116 23.5 -159t88.5 -43q139 0 148 264h72q1 -9 1 -43z" />
    <glyph glyph-name="u" unicode="u" horiz-adv-x="1171" 
d="M1171 0l-327 -12v146q-61 -86 -128.5 -124.5t-158.5 -38.5q-172 0 -248 122q-21 32 -28 72t-7 115v413q0 62 -14.5 79t-67.5 17h-72v73l314 20v-586q0 -79 5 -106t24 -55q39 -60 120 -60q261 0 261 376v240q0 63 -14.5 80.5t-67.5 17.5h-97v73l339 20v-669
q0 -92 20.5 -116t98.5 -24h48v-73z" />
    <glyph glyph-name="v" unicode="v" horiz-adv-x="1061" 
d="M1079 821h-26q-51 0 -83.5 -39.5t-73.5 -140.5l-269 -670h-67l-326 768q-23 52 -42 67t-71 15h-27v61h447v-61h-26q-58 0 -80.5 -9.5t-22.5 -33t10 -41.5l216 -509l174 445q13 33 17 81q0 67 -103 67h-25v61h378v-61z" />
    <glyph glyph-name="w" unicode="w" horiz-adv-x="1494" 
d="M475 821q-78 0 -78 -41q0 -20 8 -46l183 -482l168 448l-18 50q-14 42 -33.5 56.5t-64.5 14.5h-32v61h424v-61h-46q-47 0 -63 -9t-16 -33.5t8 -41.5l185 -494l161 437q16 53 16 72q0 69 -94 69h-31v61h358v-61h-25q-49 0 -72.5 -28.5t-56.5 -116.5l-265 -705h-59l-231 602
l-226 -602h-66l-284 756q-20 57 -39 75.5t-59 18.5h-34v61h416v-61h-34z" />
    <glyph glyph-name="x" unicode="x" horiz-adv-x="1105" 
d="M550 821q-80 0 -80 -35q0 -18 20 -42l145 -189l120 145q37 46 37 79q0 42 -85 42h-36v61h392v-61h-28q-64 0 -131 -81l-216 -257l239 -327q38 -52 70.5 -73t81.5 -21h26v-62h-478v62h25q52 0 70.5 8t18.5 28.5t-24 55.5l-144 195l-159 -195q-16 -16 -16 -41.5t18 -38
t75 -12.5h29v-62h-400v62h30q70 0 152 100l218 258l-231 297q-48 61 -76.5 80.5t-80.5 23.5v61h448v-61h-30z" />
    <glyph glyph-name="y" unicode="y" horiz-adv-x="1099" 
d="M529 817q-87 0 -87 -43q0 -20 11 -47l208 -500l173 440q18 46 18 81q0 69 -101 69h-31v62h379v-62h-22q-52 0 -80.5 -31.5t-64.5 -121.5l-211 -534q-62 -157 -98 -232q-138 -285 -334 -285q-72 0 -120.5 37.5t-48.5 89t28.5 81t69.5 29.5t66 -21.5t25 -54.5l-12 -59
q0 -17 37.5 -17t97 64.5t112.5 168.5l32 62l-296 719q-25 59 -50.5 82t-69.5 23h-23v62h431v-62h-39z" />
    <glyph glyph-name="z" unicode="z" horiz-adv-x="854" 
d="M854 337l-12 -337h-722v61l509 748h-165q-116 0 -171.5 -56.5t-68.5 -187.5h-68l15 317h671v-61l-511 -748h193q128 0 188.5 60.5t73.5 203.5h68z" />
    <glyph glyph-name="braceleft" unicode="{" horiz-adv-x="523" 
d="M523 -178h-41q-111 0 -158 53t-47 196v193q0 155 -40 184q-28 20 -87 37v54q69 22 92.5 40t29 68t5.5 112v192q0 144 47 197t158 53h41v-52q-81 -4 -108 -46.5t-27 -164.5v-217q0 -87 -19.5 -127.5t-81.5 -82.5q62 -41 81.5 -81.5t19.5 -126.5v-219q0 -121 27 -163.5
t108 -47.5v-51z" />
    <glyph glyph-name="bar" unicode="|" horiz-adv-x="269" 
d="M270 -179h-120v1381h120v-1381z" />
    <glyph glyph-name="braceright" unicode="}" horiz-adv-x="523" 
d="M523 485q-69 -23 -93 -40.5t-29 -67.5t-5 -113v-193q0 -145 -48 -197t-158 -52h-40v51q80 5 107 48t27 163v219q0 86 19.5 126.5t81.5 81.5q-62 42 -81.5 82.5t-19.5 127.5v217q0 121 -27 164t-107 47v52h40q74 0 116 -20q90 -42 90 -230v-192q0 -151 34 -179
q24 -18 57 -29.5t36 -11.5v-54z" />
    <glyph glyph-name="asciitilde" unicode="~" horiz-adv-x="991" 
d="M991 456q-45 -80 -109 -127.5t-125 -47.5t-164 52l-77 38q-79 39 -96 42.5t-38 4.5q-72 0 -143 -112l-89 58q46 80 110 127.5t109.5 47.5t80 -11.5t100.5 -42.5l76 -36q70 -34 89 -41t44 -6q72 0 143 111z" />
    <glyph glyph-name="nbsp" unicode="&#xa0;" horiz-adv-x="536" 
 />
    <glyph glyph-name="exclamdown" unicode="&#xa1;" horiz-adv-x="337" 
d="M337 -283q0 -158 -92.5 -158t-92.5 159q0 71 23.5 203.5t30.5 230t8 315.5h59q2 -227 8.5 -322t31 -228t24.5 -200zM310.5 761.5q26.5 -27.5 26.5 -66.5t-27 -66.5t-66 -27.5t-66.5 27.5t-27.5 66.5t27.5 66.5t67 27.5t66 -27.5z" />
    <glyph glyph-name="cent" unicode="&#xa2;" horiz-adv-x="762" 
d="M485 69q147 0 213 169l65 -24q-84 -240 -310 -240q-36 0 -86 10l-87 -219h-67l90 238q-96 45 -149.5 141.5t-53.5 225.5q0 190 106.5 310t274.5 120q66 0 125 -19l77 194h72l-89 -221q35 -25 58.5 -68.5t23.5 -86.5t-32.5 -75.5t-72 -32.5t-68.5 26l-165 -434
q46 -14 75 -14zM576 707q-31 29 -93 29q-107 0 -167 -89.5t-60 -268t93 -261.5z" />
    <glyph glyph-name="sterling" unicode="&#xa3;" horiz-adv-x="926" 
d="M470 170q117 -65 197 -65t126 34t81 119l52 -26q-27 -125 -96 -191.5t-176.5 -66.5t-240.5 89q-85 -89 -177 -89q-59 0 -97.5 36t-38.5 94.5t40.5 96t99 37.5t141.5 -34q10 51 10 75q0 101 -49 263h-213v70h192q-38 153 -38 227q0 149 87.5 242t219 93t211 -68t79.5 -171
q0 -61 -30 -100.5t-73.5 -39.5t-69 29t-25.5 68.5t15 61t46.5 38.5t31.5 41.5t-47.5 50.5t-120.5 26t-124 -54.5t-51 -129t50 -314.5h288v-70h-275q15 -83 15 -182t-40 -190zM354 111q-72 66 -123 66q-28 0 -48.5 -20.5t-20.5 -50t22.5 -51t55.5 -21.5q69 0 114 77z" />
    <glyph glyph-name="currency" unicode="&#xa4;" horiz-adv-x="912" 
d="M912 238l-75 -77l-80 77q-107 -75 -247 -75t-251 78l-82 -80l-77 77l80 84q-78 121 -78 260t75 249l-77 79l77 79l80 -77q110 75 244.5 75t251.5 -79l84 81l75 -79l-79 -83q78 -114 78 -256.5t-74 -251.5zM705.5 370q82.5 84 82.5 203.5t-82.5 204.5t-199 85t-199 -85
t-82.5 -203t82.5 -203.5t199 -85.5t199 84z" />
    <glyph glyph-name="yen" unicode="&#xa5;" horiz-adv-x="1012" 
d="M448 1133q-45 0 -45 -33q0 -21 12 -48l195 -461l147 377q64 165 -56 165h-29v71h341v-71h-24q-53 0 -77.5 -32.5t-72.5 -150.5l-162 -401h168v-70h-191v-153h191v-71h-191v-51q0 -93 11 -113.5t103 -20.5h32v-70h-458v70h32q75 0 93 14.5t18 71.5v99h-193v71h193v153
h-193v70h158l-229 505q-23 52 -37 65.5t-51 13.5h-33v71h388v-71h-40z" />
    <glyph glyph-name="brokenbar" unicode="&#xa6;" horiz-adv-x="269" 
d="M270 650h-120v552h120v-552zM270 -179h-120v551h120v-551z" />
    <glyph glyph-name="section" unicode="&#xa7;" horiz-adv-x="727" 
d="M727 473q0 -99 -55.5 -167t-135.5 -68q-14 0 -26 2q85 -75 119.5 -133t34.5 -142.5t-71 -147t-171.5 -62.5t-170.5 54.5t-70 128.5q0 38 24 64.5t59.5 26.5t58.5 -24t23 -53.5t-9 -46.5t-26 -31.5t-17 -22.5q0 -16 36 -31t89.5 -15t97.5 33t44 80t-29.5 86t-120.5 116
l-129 106q-99 83 -140.5 150t-41.5 153t54 149t133 63h27q-62 66 -88 100q-56 71 -56 165.5t68 156t168.5 61.5t170 -54t69.5 -127q0 -38 -24 -65t-59 -27t-58 24t-23 50.5t13 48t26 36.5t13 18q0 18 -34.5 32t-88 14t-96 -33.5t-42.5 -75.5t26 -78.5t88 -88.5l181 -154
q159 -139 159 -271zM594 314.5q34 36.5 34 85.5q0 96 -155 226q-91 74 -149 74t-91.5 -35t-33.5 -84.5t23.5 -87.5t93.5 -102q122 -113 199 -113q45 0 79 36.5z" />
    <glyph glyph-name="dieresis" unicode="&#xa8;" horiz-adv-x="565" 
d="M228 1069.5q22 -22.5 22 -53.5t-22 -53t-52.5 -22t-53 22.5t-22.5 53t22.5 53t53 22.5t52.5 -22.5zM543.5 1069.5q22.5 -22.5 22.5 -53.5t-22 -53t-52.5 -22t-53.5 22.5t-23 53t23 53t53 22.5t52.5 -22.5z" />
    <glyph glyph-name="copyright" unicode="&#xa9;" horiz-adv-x="1228" 
d="M1228 557q0 -118 -45 -225.5t-120.5 -185t-180 -124t-219 -46.5t-219 46.5t-179.5 124t-120 185t-45 225.5t45 226t120 185.5t179.5 124t219 46.5t219 -46.5t180 -124t120.5 -185.5t45 -226zM1162 557q0 140 -67 259t-182 188t-249.5 69t-249.5 -69t-181.5 -188
t-66.5 -259t66.5 -258.5t181.5 -187.5t250 -69t249.5 69t181.5 187.5t67 258.5zM955 458q-33 -230 -279 -230q-125 0 -215 90.5t-90 229t95.5 236.5t226.5 98q47 0 80.5 -10t81.5 -40l36 44h53v-256h-45q-30 95 -55 135q-54 84 -159 84q-185 0 -185 -293q0 -139 47.5 -207
t150.5 -68q173 0 210 197z" />
    <glyph glyph-name="ordfeminine" unicode="&#xaa;" horiz-adv-x="619" 
d="M429 1064q0 111 -107 111q-51 0 -79.5 -11t-28.5 -28l21 -55q0 -23 -15 -37.5t-39.5 -14.5t-40 16.5t-15.5 43.5q0 54 57.5 89.5t149 35.5t140.5 -34t49 -126v-202q0 -69 40 -69l46 11q12 0 12 -15t-30.5 -32t-64.5 -17q-66 0 -89 65q-73 -72 -183 -72q-69 0 -110.5 31.5
t-41.5 94t73 104t256 70.5v41zM199 862q0 -91 99 -91q49 0 90 39.5t41 126.5v48q-133 -22 -181.5 -50.5t-48.5 -72.5zM543 551h-417v61h417v-61z" />
    <glyph glyph-name="guillemotleft" unicode="&#xab;" horiz-adv-x="733" 
d="M573 405q159 -223 159 -244q0 -7 -7 -12.5t-11 -5.5h-7q-6 0 -17.5 11t-14.5 14l-213 205q-22 22 -34 32l183 176q65 62 79.5 74.5t23 12.5t14 -6t5.5 -12t-11.5 -26t-29 -46t-38 -57t-38 -55t-30.5 -43zM295 405q159 -223 159 -242t-22 -21q-9 -1 -21.5 11.5l-14.5 14.5
l-213 205q-22 22 -33 32l246 238q29 25 37.5 25t14.5 -6t6 -11t-0.5 -7.5t-2.5 -7t-4 -8.5t-6 -10t-7.5 -12t-10 -15t-12.5 -17t-14.5 -21t-16.5 -24z" />
    <glyph glyph-name="logicalnot" unicode="&#xac;" horiz-adv-x="1014" 
d="M1014 627v-359h-120v238h-744v121h864z" />
    <glyph glyph-name="uni00AD" unicode="&#xad;" horiz-adv-x="474" 
d="M474 331h-374v125h374v-125z" />
    <glyph glyph-name="registered" unicode="&#xae;" horiz-adv-x="1215" 
d="M1171.5 783q44.5 -108 44.5 -245.5t-75.5 -271.5t-204 -212t-279.5 -78t-279 78t-203 212t-75 271.5t44 245.5t119 185.5t178 124t216.5 46.5t216.5 -46.5t178 -124t119.5 -185.5zM1084 298.5q66 118.5 66 241t-39 218t-105 164.5t-158 110t-191 41t-190.5 -41
t-157.5 -110t-104.5 -164.5t-38.5 -218t65.5 -241t179 -187.5t247 -69t247 69t179.5 187.5zM970 389q-1 -153 -115 -153q-58 0 -88.5 32.5t-37.5 109.5l-4 44q-8 70 -39.5 100t-90.5 30h-43v-223q0 -25 12.5 -31.5t62.5 -6.5h19v-44h-302v44h19q51 0 64 6.5t13 30.5v468
q0 24 -12.5 30t-64.5 6h-19v44h316q118 0 182.5 -40t64.5 -116q0 -125 -174 -155q45 -16 70 -46.5t40 -89.5l14 -53q11 -47 17.5 -60.5t18.5 -13.5q31 0 34 87h43zM646 595q140 0 140 120q0 62 -30.5 89.5t-96.5 27.5h-52q-38 0 -46.5 -3.5t-8.5 -21.5v-212h94z" />
    <glyph glyph-name="macron" unicode="&#xaf;" horiz-adv-x="569" 
d="M570 976h-470v82h470v-82z" />
    <glyph glyph-name="degree" unicode="&#xb0;" horiz-adv-x="581" 
d="M581 888q0 -106 -69.5 -178.5t-170.5 -72.5t-171 73.5t-70 178.5t72 177.5t173 72.5t168.5 -72.5t67.5 -178.5zM451.5 770.5q44.5 47.5 44.5 117t-44.5 117t-109.5 47.5t-111.5 -47.5t-46.5 -116t47 -117t111.5 -48.5t109 47.5z" />
    <glyph glyph-name="plusminus" unicode="&#xb1;" horiz-adv-x="1014" 
d="M1014 491h-372v-244h-120v244h-372v121h372v376h120v-376h372v-121zM1014 0h-864v121h864v-121z" />
    <glyph glyph-name="uni00B2" unicode="&#xb2;" horiz-adv-x="587" 
d="M263 957q0 -73 -68 -73q-33 0 -55.5 30.5t-22.5 79.5q0 80 66.5 135t166 55t165 -56.5t65.5 -135.5t-40 -132.5t-137 -125.5t-179 -152h223q44 0 56 10.5t22 55.5l12 55h51l-18 -216h-470v33q17 21 50 63.5t193 202.5q120 120 120 222q0 59 -35.5 92.5t-94 33.5t-101 -30
t-42.5 -66q0 -5 18 -15q55 -29 55 -66z" />
    <glyph glyph-name="uni00B3" unicode="&#xb3;" horiz-adv-x="567" 
d="M435 849q132 -38 132 -190q0 -79 -67.5 -135t-171 -56t-166 47.5t-62.5 120.5q0 42 20.5 68t50.5 26t48.5 -20.5t18.5 -54.5t-28 -52.5t-29 -23.5q0 -20 43 -40t87 -20q139 0 139 151t-115 151l-75 -2q-37 0 -37 28.5t41 28.5h23l41 -2q112 -4 112 128t-110 132
q-41 0 -78.5 -17t-37.5 -35q0 -4 20.5 -28t20.5 -47t-17 -42t-45.5 -19t-47.5 21t-19 54q0 69 61 116t154 47t150.5 -47.5t57.5 -115.5t-28.5 -104.5t-85.5 -67.5z" />
    <glyph glyph-name="acute" unicode="&#xb4;" horiz-adv-x="474" 
d="M458 1139.5q17 -16.5 17 -48t-41 -56.5l-265 -161h-69l233 231q51 51 79.5 51t45.5 -16.5z" />
    <glyph glyph-name="mu" unicode="&#xb5;" horiz-adv-x="1024" 
d="M737 118q-101 -144 -252 -144q-120 0 -191 84q0 -62 2.5 -83t23 -100t20.5 -125.5t-20 -80.5t-52.5 -34t-54 34t-21.5 82.5t22 142t22 142.5v574q0 54 -13 69t-60 15h-63v65l276 17v-516q0 -69 4.5 -93t21.5 -48q34 -53 105 -53q230 0 230 331v211q0 56 -12.5 71
t-59.5 15h-85v65l298 17v-589q0 -81 18 -102t87 -21h42v-64l-288 -11v129z" />
    <glyph glyph-name="paragraph" unicode="&#xb6;" horiz-adv-x="904" 
d="M904 -238h-578v55h7q94 0 115 23q7 10 8 25.5t1 97.5v579h-46q-153 0 -232 84t-79 242.5t71 245.5t204 87h529v-55q-74 -4 -91.5 -16.5t-17.5 -62.5v-1105q0 -82 1.5 -97t12.5 -28t95 -20v-55zM304 801q0 -209 134 -209h19v554q-85 0 -119 -46t-34 -161v-138zM697 -181
v1327h-141v-1327h141z" />
    <glyph glyph-name="periodcentered" unicode="&#xb7;" horiz-adv-x="335" 
d="M336 415.5q0 -38.5 -27 -65.5t-65.5 -27t-66 27.5t-27.5 65.5t27.5 65.5t65.5 27.5t65.5 -27.5t27.5 -66z" />
    <glyph glyph-name="cedilla" unicode="&#xb8;" horiz-adv-x="434" 
d="M398.5 -134q35.5 -31 35.5 -86.5t-53.5 -95.5t-132.5 -40t-148 26l23 53q61 -20 103.5 -20t68.5 18.5t26 49t-22 49.5t-51 19t-63 -9l-15 4l74 171h58l-40 -112q37 4 45 4q56 0 91.5 -31z" />
    <glyph glyph-name="uni00B9" unicode="&#xb9;" horiz-adv-x="512" 
d="M513 484h-413v54h71q72 0 80 8t8 60v399q0 42 -8 49.5t-51 7.5h-98v50q72 0 136 20.5t91 51.5h42q-8 -99 -8 -170v-408v-29q0 -23 8 -31t78 -8h64v-54z" />
    <glyph glyph-name="ordmasculine" unicode="&#xba;" horiz-adv-x="547" 
d="M547 963.5q0 -106.5 -63 -173.5t-162 -67t-160.5 69t-61.5 175t65 176.5t159.5 70.5t158.5 -72t64 -178.5zM326 1175q-123 0 -123 -206t121 -206t121 215q0 95 -31 146t-88 51zM532 551h-414v61h414v-61z" />
    <glyph glyph-name="guillemotright" unicode="&#xbb;" horiz-adv-x="731" 
d="M308 405q-158 226 -158 238q0 25 18 25t39 -25l247 -238l-247 -237q-22 -25 -39.5 -25t-17.5 19.5t158 242.5zM586 405q-158 227 -158 239q0 24 18 24t39 -25l247 -238l-247 -237q-22 -25 -34 -25q-23 0 -23 18.5t158 243.5z" />
    <glyph glyph-name="onequarter" unicode="&#xbc;" horiz-adv-x="1336" 
d="M1197 1181l-826 -1181h-82l828 1181h80zM1336 173h-128v-78q0 -30 12.5 -35t85.5 -7v-53h-307v53h19q61 0 74.5 6.5t13.5 35.5v78h-295v56l354 475h48q-5 -100 -5 -205v-266h128v-60zM513 484h-413v53h71q63 0 75.5 9t12.5 60v402q0 42 -8 50t-51 8h-98v49q72 0 136 20
t91 51h42q-8 -98 -8 -170v-411q0 -51 12 -59.5t74 -8.5h64v-53zM1106 233v279l-211 -279h211z" />
    <glyph glyph-name="onehalf" unicode="&#xbd;" horiz-adv-x="1368" 
d="M1189 1181l-828 -1181h-81l814 1181h95zM513 481h-413v53h71q63 0 75.5 9.5t12.5 60.5v403q0 42 -8 50t-51 8h-98v49q73 0 136.5 20.5t90.5 51.5h42q-8 -99 -8 -171v-412q0 -51 12 -60t74 -9h64v-53zM1044 474q0 -73 -68 -73q-32 0 -55 30.5t-23 78.5q0 81 67 135.5
t166.5 54.5t165 -56t65.5 -135.5t-41 -134t-137 -126.5t-178 -154h222q44 0 56.5 10.5t21.5 56.5l13 56h50l-18 -217h-470v33q103 131 191.5 214.5t130.5 147.5t42 126t-35.5 96t-94 34t-101 -30t-42.5 -67q0 -4 18 -14q54 -29 54 -66z" />
    <glyph glyph-name="threequarters" unicode="&#xbe;" horiz-adv-x="1341" 
d="M1218 1181l-811 -1181h-93l823 1181h81zM1342 173h-129v-78q0 -30 13 -35t86 -7v-53h-307v53h18q61 0 74.5 6.5t13.5 35.5v78h-295v56l353 478h49q-5 -102 -5 -207v-267h129v-60zM435 851q133 -41 133 -191q0 -79 -68 -135.5t-172 -56.5t-166 47.5t-62 121.5
q0 41 20.5 67t50.5 26t49 -19.5t19 -54t-28 -53t-30 -25.5q0 -20 42.5 -40t99 -20t92.5 41t36 117q0 148 -116 148l-75 -2q-37 0 -37 28t30.5 28t33.5 -1l41 -1q113 -4 113 129t-111 133q-41 0 -78.5 -17t-37.5 -35q0 -4 20.5 -28.5t20.5 -48t-17 -42t-45.5 -18.5t-47.5 21
t-19 53q0 70 61 117t155 47t151.5 -47t57.5 -115.5t-29.5 -105.5t-86.5 -68zM1111 233v278l-212 -278h212z" />
    <glyph glyph-name="questiondown" unicode="&#xbf;" horiz-adv-x="755" 
d="M755 -202q0 -107 -86.5 -176t-220 -69t-216 80.5t-82.5 210.5q0 87 36.5 150t132 152t116 142t20.5 178h66v-54q0 -103 -13.5 -143t-16 -48t-5.5 -16t-9.5 -18t-10.5 -18t-16.5 -25.5t-28.5 -41t-64.5 -94t-48.5 -174t47.5 -158.5t120.5 -55t118 26t45 59q0 7 -33.5 48.5
t-33.5 79t25 64.5t63.5 27t66.5 -36.5t28 -90.5zM558.5 763.5q27.5 -27.5 27.5 -67t-27.5 -66.5t-66.5 -27t-66.5 27t-27.5 66.5t27.5 67t66.5 27.5t66.5 -27.5z" />
    <glyph glyph-name="Agrave" unicode="&#xc0;" horiz-adv-x="1332" 
d="M1332 0h-517v70h70q47 0 75.5 12.5t28.5 33.5q0 10 -13 46l-91 231h-441l-55 -151q-16 -46 -16 -73q0 -99 135 -99h34v-70h-442v70h23q62 0 92 32.5t75 145.5l384 977h69l425 -1047q29 -72 50.5 -90t81.5 -18h32v-70zM850 474l-188 478l-185 -478h373zM879 1280h-82
l-319 160q-50 22 -50 52q0 20 21 33t47 13t46 -9t56 -37z" />
    <glyph glyph-name="Aacute" unicode="&#xc1;" horiz-adv-x="1332" 
d="M1332 0h-517v70h70q47 0 75.5 12.5t28.5 33.5q0 10 -13 46l-91 231h-441l-55 -151q-16 -46 -16 -73q0 -99 135 -99h34v-70h-442v70h23q62 0 92 32.5t75 145.5l384 977h69l425 -1047q29 -72 50.5 -90t81.5 -18h32v-70zM850 474l-188 478l-185 -478h373zM989 1492
q0 -30 -50 -52l-319 -160h-82l280 212q60 46 94.5 46t55.5 -13t21 -33z" />
    <glyph glyph-name="Acircumflex" unicode="&#xc2;" horiz-adv-x="1332" 
d="M1332 0h-517v70h70q47 0 75.5 12.5t28.5 33.5q0 10 -13 46l-91 231h-441l-55 -151q-16 -46 -16 -73q0 -99 135 -99h34v-70h-442v70h23q62 0 92 32.5t75 145.5l384 977h69l425 -1047q29 -72 50.5 -90t81.5 -18h32v-70zM850 474l-188 478l-185 -478h373zM1022 1287h-74
l-240 152l-241 -152h-72l250 249h127z" />
    <glyph glyph-name="Atilde" unicode="&#xc3;" horiz-adv-x="1319" 
d="M1320 0h-512v70h68q45 0 72.5 12.5t27.5 33.5q0 9 -12 46l-85 231h-437l-54 -151q-15 -43 -15 -73q0 -99 130 -99h33v-70h-436v70h23q61 0 90.5 32t73.5 146l380 977h70l421 -1047q29 -72 49.5 -90t80.5 -18h32v-70zM844 474l-188 478l-185 -478h373zM973 1499
q-9 -75 -58 -121.5t-108 -46.5t-134 31.5t-110 31.5q-60 0 -78 -63h-52q16 70 60.5 111t89 41t68 -6.5t92 -35t95.5 -28.5t51 25t31 61h53z" />
    <glyph glyph-name="Adieresis" unicode="&#xc4;" horiz-adv-x="1299" 
d="M1299 0h-502v70h64q43 0 69 12.5t26 27.5t-12 52l-85 231h-415l-55 -151q-16 -46 -16 -73q0 -99 128 -99h33v-70h-434v70h22q61 0 90 32t73 146l372 977h70l413 -1047q28 -72 48.5 -90t80.5 -18h30v-70zM828 474l-182 478l-171 -478h353zM588 1470.5q22 -22.5 22 -53
t-22 -52.5t-52.5 -22t-53 23t-22.5 52.5t22 52t53 22.5t53 -22.5zM903 1470.5q22 -22.5 22 -53t-22 -52.5t-52 -22t-52.5 23t-22.5 52.5t22.5 52t52.5 22.5t52 -22.5z" />
    <glyph glyph-name="Aring" unicode="&#xc5;" horiz-adv-x="1320" 
d="M1321 0h-512v70h68q45 0 72.5 12.5t27.5 28t-13 50.5l-90 229h-431l-54 -151q-16 -45 -16 -71q0 -98 134 -98h34v-70h-441v70h23q61 0 90.5 32.5t74.5 146.5l380 980h70l421 -1051q29 -72 49.5 -90t80.5 -18h32v-70zM841 472l-185 482l-180 -482h365zM817 1554
q47 -48 47 -116t-47 -115t-114 -47t-113.5 47.5t-46.5 115t47.5 115.5t113.5 48t113 -48zM779 1361q30 31 30 76.5t-30.5 77.5t-74 32t-75.5 -32t-32 -76.5t31.5 -76.5t76 -32t74.5 31z" />
    <glyph glyph-name="AE" unicode="&#xc6;" horiz-adv-x="1668" 
d="M1668 450l-30 -450h-940v70h32q101 0 121.5 12t24.5 26.5t4 43.5v301h-398l-118 -223q-24 -47 -24 -84q0 -76 115 -76h33v-70h-388v70q44 9 75.5 39t72.5 105l412 751q22 43 22 86.5t-27 62.5t-110 19h-45v71h1124l20 -427h-64q-24 151 -54.5 209t-57 82t-83 44.5
t-194.5 20.5h-39q-67 0 -85 -15.5t-18 -70.5v-389h45q102 0 152.5 54.5t56.5 178.5h70v-546h-70q-3 124 -33 169t-72.5 59.5t-109.5 14.5h-39v-435q0 -51 25.5 -67t91.5 -16h57q148 0 225 49.5t119 181.5q19 59 37 149h64zM880 534v554q0 25 -3 31.5t-15 6.5t-27 -30
l-306 -562h351z" />
    <glyph glyph-name="Ccedilla" unicode="&#xc7;" horiz-adv-x="1097" 
d="M637 1158q-339 0 -339 -575q0 -272 88 -404.5t270 -132.5q302 0 371 376l70 -13q-27 -207 -145 -321t-306 -114q-34 0 -66 3l-31 -90q39 5 46 5q57 0 91.5 -30.5t34.5 -86.5t-54 -95.5t-137 -39.5t-143 25l24 53q63 -22 104.5 -22t66.5 19.5t25 50.5t-21.5 50t-51.5 19
t-63 -11l-12 9l65 153q-125 22 -222.5 110.5t-149.5 217.5t-52 288t74 306.5t199.5 233.5t270.5 86q81 0 140 -21.5t144 -81.5l67 90h81v-479h-66q-52 177 -96 254.5t-117.5 122.5t-159.5 45z" />
    <glyph glyph-name="Egrave" unicode="&#xc8;" horiz-adv-x="1120" 
d="M1121 445l-31 -445h-990v70h30q101 0 125.5 13.5t24.5 66.5v902q0 53 -24.5 66t-125.5 13h-30v71h992v-428h-64q-25 152 -54.5 209t-56.5 81.5t-82.5 45.5t-197.5 21h-86q-66 0 -84.5 -15t-18.5 -70v-389h40q119 0 173.5 54.5t60.5 179.5h71v-550h-71q-5 161 -63.5 203.5
t-176.5 42.5h-34v-434q0 -51 25.5 -67t92.5 -16h109q96 0 159.5 18.5t107 65t68.5 114t45 177.5h66zM797 1280h-74l-310 160q-49 21 -49 52q0 20 19.5 33t53.5 13t91 -46z" />
    <glyph glyph-name="Eacute" unicode="&#xc9;" horiz-adv-x="1120" 
d="M1121 445l-31 -445h-990v70h30q101 0 125.5 13.5t24.5 66.5v902q0 53 -24.5 66t-125.5 13h-30v71h992v-428h-64q-25 152 -54.5 209t-56.5 81.5t-82.5 45.5t-197.5 21h-86q-66 0 -84.5 -15t-18.5 -70v-389h40q119 0 173.5 54.5t60.5 179.5h71v-550h-71q-5 161 -63.5 203.5
t-176.5 42.5h-34v-434q0 -51 25.5 -67t92.5 -16h109q96 0 159.5 18.5t107 65t68.5 114t45 177.5h66zM907 1492q0 -31 -48 -52l-312 -160h-83l276 212q58 46 92 46t54.5 -13t20.5 -33z" />
    <glyph glyph-name="Ecircumflex" unicode="&#xca;" horiz-adv-x="1120" 
d="M1121 445l-31 -445h-990v70h30q101 0 125.5 13.5t24.5 66.5v902q0 53 -24.5 66t-125.5 13h-30v71h992v-428h-64q-25 152 -54.5 209t-56.5 81.5t-82.5 45.5t-197.5 21h-86q-66 0 -84.5 -15t-18.5 -70v-389h40q119 0 173.5 54.5t60.5 179.5h71v-550h-71q-5 161 -63.5 203.5
t-176.5 42.5h-34v-434q0 -51 25.5 -67t92.5 -16h109q96 0 159.5 18.5t107 65t68.5 114t45 177.5h66zM940 1287h-73l-232 152l-237 -152h-65l239 249h126z" />
    <glyph glyph-name="Edieresis" unicode="&#xcb;" horiz-adv-x="1120" 
d="M1121 445l-31 -445h-990v70h30q101 0 125.5 13.5t24.5 66.5v902q0 53 -24.5 66t-125.5 13h-30v71h992v-428h-64q-25 152 -54.5 209t-56.5 81.5t-82.5 45.5t-197.5 21h-86q-66 0 -84.5 -15t-18.5 -70v-389h40q119 0 173.5 54.5t60.5 179.5h71v-550h-71q-5 161 -63.5 203.5
t-176.5 42.5h-34v-434q0 -51 25.5 -67t92.5 -16h109q96 0 159.5 18.5t107 65t68.5 114t45 177.5h66zM521.5 1470.5q22.5 -22.5 22.5 -53t-22.5 -52.5t-53 -22t-53 23t-22.5 52.5t22 52t53 22.5t53.5 -22.5zM847.5 1470.5q22.5 -22.5 22.5 -53t-23 -52.5t-53 -22t-52 23
t-22 52.5t22 52t52.5 22.5t53 -22.5z" />
    <glyph glyph-name="Igrave" unicode="&#xcc;" horiz-adv-x="638" 
d="M639 0h-535v70h34q123 0 140 27q10 16 10 53v902q0 29 -4 43t-25 25t-121 11h-34v71h535v-71h-34q-71 0 -99.5 -5.5t-39 -21t-10.5 -52.5v-902q0 -64 37 -72t112 -8h34v-70zM100 1486q0 52 72 52q34 0 91 -46l269 -212h-82l-303 160q-47 21 -47 46z" />
    <glyph glyph-name="Iacute" unicode="&#xcd;" horiz-adv-x="638" 
d="M634 0h-534v70h33q122 0 140 27q10 16 10 53v902q0 53 -24 66t-126 13h-33v71h534v-71h-33q-101 0 -125.5 -13t-24.5 -66v-902q0 -53 24.5 -66.5t125.5 -13.5h33v-70zM639 1492q0 -30 -48 -52l-304 -160h-81l270 212q57 46 90.5 46t53 -13t19.5 -33z" />
    <glyph glyph-name="Icircumflex" unicode="&#xce;" horiz-adv-x="708" 
d="M670 0h-534v70h34q122 0 140 27q10 16 10 53v902q0 29 -4 43t-25.5 25t-120.5 11h-34v71h534v-71h-33q-71 0 -100 -5.5t-39 -21t-10 -52.5v-902q0 -64 36.5 -72t112.5 -8h33v-70zM709 1287h-74l-231 152l-233 -152h-71l246 249h115z" />
    <glyph glyph-name="Idieresis" unicode="&#xcf;" horiz-adv-x="618" 
d="M618 0h-518v70h33q122 0 140 27q10 16 10 53v902q0 53 -24 66t-126 13h-33v71h518v-71h-30q-92 0 -114.5 -13t-22.5 -66v-902q0 -53 22.5 -66.5t114.5 -13.5h30v-70zM270 1470.5q22 -22.5 22 -53t-22 -52.5t-52.5 -22t-53 23t-22.5 52.5t22 52t53 22.5t53 -22.5z
M569 1470.5q22 -22.5 22 -53t-22.5 -52.5t-53 -22t-52.5 23t-22 52.5t22 52t53 22.5t53 -22.5z" />
    <glyph glyph-name="Eth" unicode="&#xd0;" horiz-adv-x="1231" 
d="M1232 601q0 -291 -149.5 -446t-441.5 -155h-541v70h32q121 0 138 28q10 16 10 53v437h-180v70h180v394q0 30 -4 44t-25 25.5t-119 11.5h-32v71h512q265 0 382 -79t177.5 -215.5t60.5 -308.5zM946.5 193q87.5 123 87.5 406.5t-95 408.5t-307 125h-88q-63 0 -79.5 -16.5
t-16.5 -78.5v-380h301v-70h-301v-423q0 -63 16.5 -79t79.5 -16h112q203 0 290.5 123z" />
    <glyph glyph-name="Ntilde" unicode="&#xd1;" horiz-adv-x="1361" 
d="M1361 1131q-62 -3 -98 -15t-58.5 -45t-29.5 -84.5t-7 -140.5v-870h-62l-731 1008v-627q0 -136 16.5 -184t49 -73.5t121.5 -29.5v-70h-460v70q91 4 125.5 29t51 75t16.5 183v718q-22 32 -55.5 44t-98.5 12h-41v71h334l653 -889v531q0 134 -15.5 183.5t-48.5 75t-121 28.5
v71h459v-71zM593 1394q-60 0 -79 -63h-51q16 70 60 111t88.5 41t68 -6.5t92 -35t95.5 -28.5t51.5 25t31.5 61h53q-9 -75 -58.5 -121.5t-108.5 -46.5t-134 31.5t-109 31.5z" />
    <glyph glyph-name="Ograve" unicode="&#xd2;" horiz-adv-x="1203" 
d="M1161.5 846.5q42.5 -116.5 42.5 -247.5t-42.5 -247t-115.5 -199t-175 -131t-237 -48t-262 82t-199.5 225.5t-72.5 315.5t69 314.5t198 229t292 86.5q113 0 214.5 -49t173.5 -132t114.5 -199.5zM298 602q0 -556 354 -556q177 0 265.5 134.5t88.5 419.5q0 556 -349 556
q-179 0 -269 -134.5t-90 -419.5zM822 1280h-82l-318 160q-50 22 -50 52q0 20 20.5 33t55.5 13t95 -46z" />
    <glyph glyph-name="Oacute" unicode="&#xd3;" horiz-adv-x="1203" 
d="M1161.5 846.5q42.5 -116.5 42.5 -247.5t-42.5 -247t-115.5 -199t-175 -131t-237 -48t-262 82t-199.5 225.5t-72.5 315.5t69 314.5t198 229t292 86.5q113 0 214.5 -49t173.5 -132t114.5 -199.5zM298 602q0 -556 354 -556q177 0 265.5 134.5t88.5 419.5q0 556 -349 556
q-179 0 -269 -134.5t-90 -419.5zM932 1492q0 -29 -51 -52l-317 -160h-82l280 212q60 46 94.5 46t55 -13t20.5 -33z" />
    <glyph glyph-name="Ocircumflex" unicode="&#xd4;" horiz-adv-x="1203" 
d="M1161.5 846.5q42.5 -116.5 42.5 -247.5t-42.5 -247t-115.5 -199t-175 -131t-237 -48t-262 82t-199.5 225.5t-72.5 315.5t69 314.5t198 229t292 86.5q113 0 214.5 -49t173.5 -132t114.5 -199.5zM298 602q0 -556 354 -556q177 0 265.5 134.5t88.5 419.5q0 556 -349 556
q-179 0 -269 -134.5t-90 -419.5zM966 1287h-74l-239 152l-242 -152h-73l250 249h127z" />
    <glyph glyph-name="Otilde" unicode="&#xd5;" horiz-adv-x="1192" 
d="M1150 846.5q42 -116.5 42 -269.5t-71 -296.5t-196 -225t-278 -81.5t-278.5 82t-197 225.5t-71.5 294t40.5 265t112 200t175.5 136t220.5 50.5t216.5 -49t171.5 -132t113.5 -199.5zM298 602q0 -556 348 -556q174 0 261 134.5t87 419.5q0 556 -342 556
q-177 0 -265.5 -134.5t-88.5 -419.5zM507 1394q-59 0 -78 -63h-52q17 70 61.5 111t89 41t67 -6.5t91.5 -35t96 -28.5t51.5 25t31.5 61h53q-9 -75 -59 -121.5t-108.5 -46.5t-133.5 31.5t-110 31.5z" />
    <glyph glyph-name="Odieresis" unicode="&#xd6;" horiz-adv-x="1170" 
d="M1129 846.5q41 -116.5 41 -247.5t-41 -247t-111.5 -199t-169.5 -131t-230.5 -48t-254 82t-193 225.5t-70.5 315.5t67 314.5t192 229t282 86.5q110 0 208 -49t168.5 -132t111.5 -199.5zM298 604q0 -558 337 -558t337 555t-332 555q-171 0 -256.5 -134.5t-85.5 -417.5z
M531 1470.5q22 -22.5 22 -53t-22 -52.5t-52.5 -22t-52.5 23t-22 52.5t22 52t52.5 22.5t52.5 -22.5zM846.5 1470.5q22.5 -22.5 22.5 -53t-22.5 -52.5t-52.5 -22t-52.5 23t-22.5 52.5t22 52t52.5 22.5t53 -22.5z" />
    <glyph glyph-name="multiply" unicode="&#xd7;" horiz-adv-x="813" 
d="M814 151l-94 -90l-263 259l-263 -259l-94 90l262 265l-262 265l94 91l263 -260l263 260l94 -91l-262 -265z" />
    <glyph glyph-name="Oslash" unicode="&#xd8;" horiz-adv-x="1229" 
d="M1057 1077q172 -192 172 -483q0 -146 -69 -291t-199.5 -237t-303 -92t-323.5 115l-150 -216h-84l185 266q-74 87 -117.5 209t-43.5 244.5t42.5 237.5t116.5 202t180 139.5t226 52.5q169 0 316 -98l100 145h81zM932 1029q-91 124 -260.5 124t-259.5 -144t-90 -423
q0 -205 51 -320zM1031 618q0 218 -58 342l-562 -766q93 -148 269 -148q351 0 351 572z" />
    <glyph glyph-name="Ugrave" unicode="&#xd9;" horiz-adv-x="1375" 
d="M1375 1131q-62 -3 -98 -15t-58.5 -45t-29.5 -84.5t-7 -140.5v-380q0 -258 -115.5 -375t-341.5 -117q-281 0 -390 157q-58 82 -58 206v715q0 38 -10 53q-18 26 -138 26h-29v71h527v-71h-32q-101 0 -125.5 -13t-24.5 -66v-616q0 -191 71.5 -286t248.5 -95q280 0 326 279
q10 60 10 136v373q0 91 -7 143t-29.5 85t-57 45t-97.5 15v71h465v-71zM902 1280h-81l-319 160q-50 22 -50 52q0 20 20.5 33t55 13t94.5 -46z" />
    <glyph glyph-name="Uacute" unicode="&#xda;" horiz-adv-x="1375" 
d="M1375 1131q-62 -3 -98 -15t-58.5 -45t-29.5 -84.5t-7 -140.5v-380q0 -258 -115.5 -375t-341.5 -117q-281 0 -390 157q-58 82 -58 206v715q0 38 -10 53q-18 26 -138 26h-29v71h527v-71h-32q-101 0 -125.5 -13t-24.5 -66v-616q0 -191 71.5 -286t248.5 -95q280 0 326 279
q10 60 10 136v373q0 91 -7 143t-29.5 85t-57 45t-97.5 15v71h465v-71zM1014 1492q0 -29 -51 -52l-317 -160h-82l280 212q59 46 94 46t55.5 -13t20.5 -33z" />
    <glyph glyph-name="Ucircumflex" unicode="&#xdb;" horiz-adv-x="1375" 
d="M1375 1131q-62 -3 -98 -15t-58.5 -45t-29.5 -84.5t-7 -140.5v-380q0 -258 -115.5 -375t-341.5 -117q-281 0 -390 157q-58 82 -58 206v715q0 38 -10 53q-18 26 -138 26h-29v71h527v-71h-32q-101 0 -125.5 -13t-24.5 -66v-616q0 -191 71.5 -286t248.5 -95q280 0 326 279
q10 60 10 136v373q0 91 -7 143t-29.5 85t-57 45t-97.5 15v71h465v-71zM1047 1287h-74l-239 152l-242 -152h-69l247 249h127z" />
    <glyph glyph-name="Udieresis" unicode="&#xdc;" horiz-adv-x="1342" 
d="M1343 1131q-63 -3 -98.5 -15t-58 -45t-29.5 -84.5t-7 -140.5v-380q0 -258 -112 -375t-329 -117q-271 0 -377 157q-55 82 -55 206v715q0 38 -10 53q-18 26 -138 26h-29v71h513v-71h-29q-93 0 -116 -13t-23 -66v-616q0 -191 68 -286t242 -95t244 113t70 302v373
q0 91 -6.5 143t-28 85t-55.5 45t-94 15v71h458v-71zM611 1470.5q22 -22.5 22 -53t-22 -52.5t-52 -22t-53 23t-23 52.5t22.5 52t53 22.5t52.5 -22.5zM926.5 1470.5q22.5 -22.5 22.5 -53t-22.5 -52.5t-52.5 -22t-52.5 23t-22.5 52.5t22 52t52.5 22.5t53 -22.5z" />
    <glyph glyph-name="Yacute" unicode="&#xdd;" horiz-adv-x="1292" 
d="M1292 1131h-27q-73 0 -115 -35.5t-101 -145.5l-249 -455v-345q0 -29 4 -43t23.5 -25.5t120.5 -11.5h44v-70h-553v70h43q123 0 140 27q10 16 10 53v326l-360 577q-29 47 -55 62.5t-80 15.5h-37v71h535v-71h-98q-65 0 -65 -33q0 -17 18 -46l267 -458l203 373q27 49 27 89
t-30 57.5t-99 17.5h-39v71h473v-71zM987 1492q0 -30 -47 -52l-303 -160h-82l269 212q57 46 90.5 46t53 -13t19.5 -33z" />
    <glyph glyph-name="Thorn" unicode="&#xde;" horiz-adv-x="1097" 
d="M963 870q134 -86 134 -245t-140 -244.5t-413 -85.5h-92v-142q0 -30 4 -44.5t24.5 -26.5t119.5 -12h33v-70h-533v70h33q72 0 101.5 6t39.5 22t10 54v901q0 29 -4 43.5t-25.5 25.5t-121.5 11h-33v71h533v-71h-33q-99 0 -120 -12t-24.5 -26.5t-3.5 -44.5v-94h106
q271 0 405 -86zM829.5 421.5q82.5 58.5 82.5 203.5t-76.5 203t-261.5 58h-38q-58 0 -71 -13t-13 -75v-435h77q218 0 300.5 58.5z" />
    <glyph glyph-name="germandbls" unicode="&#xdf;" horiz-adv-x="892" 
d="M537 1165q-77 0 -120 -60t-43 -170v-935h-274v55h23q93 0 104 27q5 14 5 53v685q0 118 12.5 176.5t49.5 113.5t101.5 86.5t143.5 31.5q136 0 216.5 -79t80.5 -210q0 -86 -37.5 -144t-125.5 -107q220 -90 220 -364q0 -155 -70.5 -252.5t-183.5 -97.5q-84 0 -133.5 41.5
t-49.5 99.5q0 112 83 112q34 0 57.5 -26t23.5 -56.5t-10.5 -53.5t-10.5 -32q0 -27 31 -27q46 0 75.5 80.5t29.5 231t-50 230.5t-160 87q-25 1 -34 7.5t-9 22.5q0 33 69 33q143 0 143 220.5t-157 220.5z" />
    <glyph glyph-name="agrave" unicode="&#xe0;" horiz-adv-x="1008" 
d="M943 98q32 11 48.5 11t16.5 -29t-52 -61t-114 -32t-99 28.5t-59 95.5q-123 -140 -318 -140q-121 0 -193.5 60t-72.5 160q0 138 127.5 216t447.5 134v77q0 123 -51 169.5t-136.5 46.5t-136.5 -23t-51 -54q0 -2 19 -43.5t19 -74t-26 -60.5t-68.5 -28t-70 32t-27.5 86
q0 103 101 170.5t258.5 67.5t244 -63t86.5 -241v-384q0 -72 16 -102t56 -30q3 0 35 11zM675 378v90q-306 -52 -370 -138q-33 -44 -33 -113t43 -112t105.5 -43t122 33.5t89 80t36.5 81t7 121.5zM644 992h-79l-294 184q-46 28 -46 64.5t19 56t43 19.5t43.5 -11.5t53.5 -46.5z
" />
    <glyph glyph-name="aacute" unicode="&#xe1;" horiz-adv-x="1008" 
d="M943 98q32 11 48.5 11t16.5 -29t-52 -61t-114 -32t-99 28.5t-59 95.5q-123 -140 -318 -140q-121 0 -193.5 60t-72.5 160q0 138 127.5 216t447.5 134v77q0 123 -51 169.5t-136.5 46.5t-136.5 -23t-51 -54q0 -2 19 -43.5t19 -74t-26 -60.5t-68.5 -28t-70 32t-27.5 86
q0 103 101 170.5t258.5 67.5t244 -63t86.5 -241v-384q0 -72 16 -102t56 -30q3 0 35 11zM675 378v90q-306 -52 -370 -138q-33 -44 -33 -113t43 -112t105.5 -43t122 33.5t89 80t36.5 81t7 121.5zM753.5 1296.5q19.5 -19.5 19.5 -56t-46 -64.5l-297 -184h-79l263 266
q35 35 53.5 46.5t42.5 11.5t43.5 -19.5z" />
    <glyph glyph-name="acircumflex" unicode="&#xe2;" horiz-adv-x="1008" 
d="M943 98q32 11 48.5 11t16.5 -29t-52 -61t-114 -32t-99 28.5t-59 95.5q-123 -140 -318 -140q-121 0 -193.5 60t-72.5 160q0 138 127.5 216t447.5 134v77q0 123 -51 169.5t-136.5 46.5t-136.5 -23t-51 -54q0 -2 19 -43.5t19 -74t-26 -60.5t-68.5 -28t-70 32t-27.5 86
q0 103 101 170.5t258.5 67.5t244 -63t86.5 -241v-384q0 -72 16 -102t56 -30q3 0 35 11zM675 378v90q-306 -52 -370 -138q-33 -44 -33 -113t43 -112t105.5 -43t122 33.5t89 80t36.5 81t7 121.5zM785 999h-61l-226 192l-225 -192h-62l225 314h122z" />
    <glyph glyph-name="atilde" unicode="&#xe3;" horiz-adv-x="1008" 
d="M943 98q32 11 48.5 11t16.5 -29t-52 -61t-114 -32t-99 28.5t-59 95.5q-123 -140 -318 -140q-121 0 -193.5 60t-72.5 160q0 138 127.5 216t447.5 134v77q0 123 -51 170t-136.5 47t-136.5 -23t-51 -54q0 -2 19 -43.5t19 -74t-26 -61t-68.5 -28.5t-70 32t-27.5 86
q0 103 101 171t258.5 68t244 -63t86.5 -241v-384q0 -72 16.5 -102.5t55.5 -30.5q3 0 35 11zM675 378v90q-306 -52 -370 -138q-33 -44 -33 -113t43 -112t105.5 -43t122 33.5t89 80t36.5 81t7 121.5zM800 1256q-10 -81 -64.5 -131t-133.5 -50q-36 0 -65 8.5t-92 35.5t-103 27
q-66 0 -87 -71h-59q18 80 67.5 126t116.5 46q31 0 56 -7.5t102.5 -39.5t108.5 -32t58 25.5t35 62.5h60z" />
    <glyph glyph-name="adieresis" unicode="&#xe4;" horiz-adv-x="1008" 
d="M943 98q32 11 48.5 11t16.5 -29t-52 -61t-114 -32t-99 28.5t-59 95.5q-123 -140 -318 -140q-121 0 -193.5 60t-72.5 160q0 138 127.5 216t447.5 134v77q0 123 -51 170t-136.5 47t-136.5 -23t-51 -54q0 -2 19 -43.5t19 -74t-26 -61t-68.5 -28.5t-70 32t-27.5 86
q0 103 101 171t258.5 68t244 -63t86.5 -241v-384q0 -72 16.5 -102.5t55.5 -30.5q3 0 35 11zM675 378v90q-306 -52 -370 -138q-33 -44 -33 -113t43 -112t105.5 -43t122 33.5t89 80t36.5 81t7 121.5zM367.5 1225.5q25.5 -25.5 25.5 -61t-25 -60t-59.5 -24.5t-60 25.5t-25.5 60
t25.5 60t59.5 25.5t59.5 -25.5zM747.5 1225.5q25.5 -25.5 25.5 -61t-25.5 -60t-60 -24.5t-60 25.5t-25.5 60t25.5 60t60 25.5t60 -25.5z" />
    <glyph glyph-name="aring" unicode="&#xe5;" horiz-adv-x="1002" 
d="M937 98q32 11 48.5 11t16.5 -29t-52 -61t-114 -32t-99 28.5t-59 95.5q-121 -140 -315 -140q-119 0 -191 60t-72 160q0 138 126.5 216t442.5 134v77q0 123 -50.5 169.5t-134.5 46.5t-134 -23t-50 -54q0 -2 19 -43.5t19 -74t-26 -60.5t-68.5 -28t-70 32t-27.5 86
q0 103 100 170.5t251 67.5q255 0 311 -153q22 -61 22 -151v-384q0 -72 16 -102t56 -30q3 0 35 11zM669 378v90q-301 -52 -365 -138q-32 -44 -32 -113t42.5 -112t104 -43t120.5 33.5t88 79.5t35.5 80.5t6.5 122.5zM627.5 1290.5q54.5 -54.5 54.5 -132.5t-54.5 -132t-131 -54
t-130.5 54.5t-54 132t54 132t130.5 54.5t131 -54.5zM584 1069.5q36 36.5 36 88t-36.5 88.5t-86.5 37t-86.5 -37t-36.5 -88t36 -88t87 -37t87 36.5z" />
    <glyph glyph-name="ae" unicode="&#xe6;" horiz-adv-x="1411" 
d="M1411 237q-61 -136 -151 -201t-219 -65q-80 0 -156.5 25.5t-126.5 70.5q-8 6 -63 64q-71 -86 -146 -123t-188 -37t-187 58t-74 155q0 186 216 271q69 28 127.5 42.5t206.5 41.5v92q0 113 -41.5 160t-125.5 47t-133 -22.5t-49 -53.5q0 -10 18.5 -40t18.5 -72.5t-26 -71.5
t-69 -29t-70 32.5t-27 87.5q0 101 100 171.5t245 70.5q94 0 168 -26.5t111 -74.5q112 101 264 101q85 0 158 -38.5t120 -104.5q97 -138 97 -304v-34h-595q4 -165 45 -237q75 -130 214 -130q91 0 155.5 49t121.5 162zM650 363v103q-199 -35 -267 -72q-111 -64 -111 -173
q0 -70 40 -115.5t100.5 -45.5t114.5 28.5t82 72t34.5 77.5t6.5 125zM1225 576q0 117 -52 188.5t-139 71.5q-135 0 -191 -175q-27 -75 -27 -158h332q46 0 61.5 15t15.5 58z" />
    <glyph glyph-name="ccedilla" unicode="&#xe7;" horiz-adv-x="799" 
d="M799 242q-52 -142 -128 -206.5t-191 -64.5l-37 -97q42 5 51 5q65 0 106 -35t41 -98t-62 -108t-155 -45t-168 28l27 60q65 -23 116.5 -23t81.5 21.5t30 56t-25.5 56.5t-56 22t-77.5 -10l-15 3l73 169q-140 24 -225 147.5t-85 319t111.5 332t284.5 136.5q118 0 198.5 -65
t80.5 -160q0 -57 -29.5 -92.5t-74.5 -35.5t-73.5 30t-28.5 67t7 55t22 40t15 37.5t-31 33t-73 17.5q-104 0 -167 -108t-63 -282t63.5 -273.5t173.5 -99.5q70 0 120.5 46t94.5 151z" />
    <glyph glyph-name="egrave" unicode="&#xe8;" horiz-adv-x="874" 
d="M874 235q-110 -264 -367 -264q-182 0 -294.5 123t-112.5 328.5t114.5 345.5t284 140t272.5 -134t103 -346h-593q0 -180 68.5 -272.5t174.5 -92.5t170 48.5t121 161.5zM692 574q0 118 -52.5 189.5t-141.5 71.5t-152.5 -91t-63.5 -243h332q46 0 62 15t16 58zM648 992h-78
l-296 184q-47 29 -47 65t19.5 55.5t43.5 19.5t42.5 -11.5t53.5 -46.5z" />
    <glyph glyph-name="eacute" unicode="&#xe9;" horiz-adv-x="874" 
d="M874 235q-110 -264 -367 -264q-182 0 -294.5 123t-112.5 328.5t114.5 345.5t284 140t272.5 -134t103 -346h-593q0 -180 68.5 -272.5t174.5 -92.5t170 48.5t121 161.5zM692 574q0 118 -52.5 189.5t-141.5 71.5t-152.5 -91t-63.5 -243h332q46 0 62 15t16 58zM757.5 1296.5
q19.5 -19.5 19.5 -55.5t-47 -65l-292 -184h-78l260 266q34 35 52.5 46.5t42 11.5t43 -19.5z" />
    <glyph glyph-name="ecircumflex" unicode="&#xea;" horiz-adv-x="874" 
d="M874 235q-110 -264 -367 -264q-182 0 -294.5 123t-112.5 328.5t114.5 345.5t284 140t272.5 -134t103 -346h-593q0 -180 68.5 -272.5t174.5 -92.5t170 48.5t121 161.5zM692 574q0 118 -52.5 189.5t-141.5 71.5t-152.5 -91t-63.5 -243h332q46 0 62 15t16 58zM789 999h-62
l-223 192l-228 -192h-62l230 314h119z" />
    <glyph glyph-name="edieresis" unicode="&#xeb;" horiz-adv-x="864" 
d="M864 235q-109 -264 -362 -264q-180 0 -291 123t-111 328.5t113.5 345.5t280.5 140t268.5 -134t101.5 -346h-583q0 -180 67 -272.5t171 -92.5t167.5 48.5t118.5 161.5zM682 574q0 118 -51 189.5t-138 71.5t-149 -91t-62 -243h324q45 0 60.5 15t15.5 58zM371.5 1225.5
q25.5 -25.5 25.5 -61t-25.5 -60t-60 -24.5t-60 25.5t-25.5 60t25.5 60t60 25.5t60 -25.5zM742.5 1225.5q25.5 -25.5 25.5 -61t-26 -60t-60.5 -24.5t-59.5 25.5t-25 60t25.5 60t60 25.5t60 -25.5z" />
    <glyph glyph-name="igrave" unicode="&#xec;" horiz-adv-x="612" 
d="M612 0h-474v62h23q89 0 111 15.5t22 74.5v538q0 61 -15 79t-67 18h-96v73l338 20v-729q0 -41 8 -58q16 -31 126 -31h24v-62zM509 993h-75l-288 184q-46 29 -46 64.5t19 55t42.5 19.5t42.5 -12t52 -46z" />
    <glyph glyph-name="iacute" unicode="&#xed;" horiz-adv-x="632" 
d="M596 0h-474v62h24q89 0 110.5 15.5t21.5 74.5v538q0 61 -14.5 79t-66.5 18h-97v73l339 20v-729q0 -41 9 -58q15 -31 125 -31h23v-62zM613 1296.5q19 -19.5 19 -55.5t-45 -64l-288 -184h-75l254 265q55 58 85.5 58t49.5 -19.5z" />
    <glyph glyph-name="icircumflex" unicode="&#xee;" horiz-adv-x="675" 
d="M626 0h-474v62h24q89 0 110.5 15.5t21.5 74.5v538q0 61 -15 79t-67 18h-96v73l339 20v-729q0 -41 9 -58q15 -31 125 -31h23v-62zM675 1000h-69l-217 192l-221 -192h-68l234 313h107z" />
    <glyph glyph-name="idieresis" unicode="&#xef;" horiz-adv-x="613" 
d="M580 0h-444v62h21q81 0 100.5 15.5t19.5 74.5v538q0 61 -13 79t-61 18h-88v73l323 20v-729q0 -58 19.5 -73.5t101.5 -15.5h21v-62zM245.5 1225.5q25.5 -25.5 25.5 -61t-25.5 -60t-60 -24.5t-60 25.5t-25.5 60t25.5 60t60 25.5t60 -25.5zM587 1225.5q26 -25.5 26 -61
t-26 -60t-60.5 -24.5t-59.5 25.5t-25 60t25.5 60t59.5 25.5t60 -25.5z" />
    <glyph glyph-name="eth" unicode="&#xf0;" horiz-adv-x="878" 
d="M878 447q0 -132 -51.5 -241.5t-141 -172t-196.5 -62.5t-196.5 62.5t-141 170.5t-51.5 236q0 196 114.5 332t279.5 136q33 0 78 -8q-52 64 -84.5 97.5t-141.5 134.5l-207 -132l-39 74l174 113l-156 116l44 72q111 -53 217 -124l231 134l47 -67l-199 -119
q223 -172 321.5 -351t98.5 -401zM645 146q54 102 54 293t-54 293.5t-153 102.5q-213 0 -213 -397q0 -191 54 -292.5t156 -101.5t156 102z" />
    <glyph glyph-name="ntilde" unicode="&#xf1;" horiz-adv-x="1137" 
d="M411 739q118 170 290 170q81 0 147 -39.5t96 -98t37 -101t7 -144.5v-375q0 -43 6 -59q12 -30 117 -30h26v-62h-462v62h27q106 0 115.5 23t9.5 68v391q0 261 -188 261q-49 0 -107 -41t-89.5 -108t-31.5 -224v-279q0 -74 30.5 -82.5t94.5 -8.5h26v-62h-462v62h27
q89 0 104 14.5t17 28.5t2 48v541q0 62 -15 80t-67 18h-68v73l311 18v-144zM915 1256q-10 -81 -65.5 -131t-134.5 -50q-35 0 -63.5 8.5t-92.5 35.5t-104 27q-66 0 -87 -71h-59q18 79 67.5 125.5t117.5 46.5q31 0 55.5 -7.5t102.5 -39.5t108.5 -32t58.5 25.5t36 62.5h60z" />
    <glyph glyph-name="ograve" unicode="&#xf2;" horiz-adv-x="878" 
d="M878 440q0 -128 -51.5 -236t-141 -170.5t-196.5 -62.5t-196.5 62.5t-141 169.5t-51.5 235q0 199 113.5 334.5t276 135.5t275.5 -137t113 -331zM645 146q54 102 54 293t-54 293.5t-153 102.5q-213 0 -213 -397q0 -191 54 -292.5t156 -101.5t156 102zM637 992h-78l-296 184
q-46 28 -46 64.5t19.5 56t43.5 19.5t43 -11.5t53 -46.5z" />
    <glyph glyph-name="oacute" unicode="&#xf3;" horiz-adv-x="878" 
d="M878 440q0 -128 -51.5 -236t-141 -170.5t-196.5 -62.5t-196.5 62.5t-141 169.5t-51.5 235q0 199 113.5 334.5t276 135.5t275.5 -137t113 -331zM645 146q54 102 54 293t-54 293.5t-153 102.5q-213 0 -213 -397q0 -191 54 -292.5t156 -101.5t156 102zM748 1296.5
q19 -19.5 19 -56t-46 -64.5l-295 -184h-78l261 266q56 58 88 58t51 -19.5z" />
    <glyph glyph-name="ocircumflex" unicode="&#xf4;" horiz-adv-x="878" 
d="M878 440q0 -128 -51.5 -236t-141 -170.5t-196.5 -62.5t-196.5 62.5t-141 169.5t-51.5 235q0 199 113.5 334.5t276 135.5t275.5 -137t113 -331zM645 146q54 102 54 293t-54 293.5t-153 102.5q-213 0 -213 -397q0 -191 54 -292.5t156 -101.5t156 102zM780 1000h-62
l-226 192l-227 -192h-61l228 313h120z" />
    <glyph glyph-name="otilde" unicode="&#xf5;" horiz-adv-x="878" 
d="M826.5 675q51.5 -108 51.5 -235.5t-51.5 -235.5t-141 -170.5t-196.5 -62.5t-196.5 62.5t-141 169.5t-51.5 235q0 199 113.5 335t278.5 136q105 0 194 -63t140.5 -171zM645 146q54 102 54 293.5t-54 294t-153 102.5q-213 0 -213 -398q0 -191 54 -292.5t156 -101.5t156 102
zM795 1256q-10 -81 -65 -131t-135 -50q-35 0 -63.5 8.5t-92.5 35.5t-105 27q-65 0 -86 -71h-60q18 79 67.5 125.5t117.5 46.5q31 0 56 -7.5t103 -39.5t109 -32t58.5 25.5t35.5 62.5h60z" />
    <glyph glyph-name="odieresis" unicode="&#xf6;" horiz-adv-x="878" 
d="M826.5 675q51.5 -108 51.5 -235.5t-51.5 -235.5t-141 -170.5t-196.5 -62.5t-196.5 62.5t-141 169.5t-51.5 235q0 199 113.5 335t278.5 136q105 0 194 -63t140.5 -171zM645 146q54 102 54 293.5t-54 294t-153 102.5q-213 0 -213 -398q0 -191 54 -292.5t156 -101.5t156 102
zM361 1225.5q26 -25.5 26 -61t-26 -60t-60.5 -24.5t-59.5 25.5t-25 60t25.5 60t59.5 25.5t60 -25.5zM741.5 1225.5q25.5 -25.5 25.5 -61t-25.5 -60t-60 -24.5t-60 25.5t-25.5 60t25.5 60t60 25.5t60 -25.5z" />
    <glyph glyph-name="divide" unicode="&#xf7;" horiz-adv-x="1122" 
d="M1122 404h-972v138h972v-138zM711 891.5q31 -31.5 31 -76t-31 -75t-75 -30.5t-74.5 30.5t-30.5 75t31 76t74.5 31.5t74.5 -31.5zM711 207q31 -31 31 -75.5t-31 -75t-75 -30.5t-74.5 30.5t-30.5 75t31 75.5t74.5 31t74.5 -31z" />
    <glyph glyph-name="oslash" unicode="&#xf8;" horiz-adv-x="878" 
d="M246 53q-146 140 -146 386q0 197 115 334t280 137q85 0 166 -39l89 181h85l-107 -224q70 -67 110 -171.5t40 -220.5q0 -204 -112.5 -334.5t-288.5 -130.5q-95 0 -162 32l-88 -175h-85zM614 781q-52 56 -123 56q-212 0 -212 -404q0 -145 36 -246zM699 458q0 135 -34 236
l-299 -593q47 -57 121 -57q212 0 212 414z" />
    <glyph glyph-name="ugrave" unicode="&#xf9;" horiz-adv-x="1151" 
d="M1151 0l-327 -12v146q-61 -86 -128.5 -124.5t-153.5 -38.5q-176 0 -253 122q-21 32 -28 71.5t-7 113.5v411q0 62 -14.5 79t-67.5 17h-72v73l314 20v-583q0 -79 5 -106t24 -54q39 -60 120 -60q261 0 261 374v238q0 62 -15 80t-67 18h-97v73l339 20v-666q0 -91 20.5 -115
t98.5 -24h48v-73zM763 992h-78l-294 184q-47 29 -47 65t19.5 55.5t43 19.5t43 -11.5t53.5 -46.5z" />
    <glyph glyph-name="uacute" unicode="&#xfa;" horiz-adv-x="1151" 
d="M1151 0l-327 -12v146q-61 -86 -128.5 -124.5t-153.5 -38.5q-176 0 -253 122q-21 32 -28 71.5t-7 113.5v411q0 62 -14.5 79t-67.5 17h-72v73l314 20v-583q0 -79 5 -106t24 -54q39 -60 120 -60q261 0 261 374v238q0 62 -15 80t-67 18h-97v73l339 20v-666q0 -91 20.5 -115
t98.5 -24h48v-73zM874 1296.5q20 -19.5 20 -56t-46 -64.5l-295 -184h-78l261 266q34 35 52.5 46.5t42 11.5t43.5 -19.5z" />
    <glyph glyph-name="ucircumflex" unicode="&#xfb;" horiz-adv-x="1151" 
d="M1151 0l-327 -12v146q-61 -86 -128.5 -124.5t-153.5 -38.5q-176 0 -253 122q-21 32 -28 71.5t-7 113.5v411q0 62 -14.5 79t-67.5 17h-72v73l314 20v-583q0 -79 5 -106t24 -54q39 -60 120 -60q261 0 261 374v238q0 62 -15 80t-67 18h-97v73l339 20v-666q0 -91 20.5 -115
t98.5 -24h48v-73zM906 999h-62l-225 192l-227 -192h-61l227 314h120z" />
    <glyph glyph-name="udieresis" unicode="&#xfc;" horiz-adv-x="1151" 
d="M1151 0l-327 -12v146q-61 -86 -128.5 -124.5t-153.5 -38.5q-176 0 -253 122q-21 32 -28 71.5t-7 113.5v411q0 62 -14.5 79t-67.5 17h-72v73l314 21v-583q0 -79 5 -106.5t24 -54.5q39 -60 120 -60q261 0 261 374v238q0 63 -14.5 80.5t-65.5 17.5h-96v73l336 21v-666
q0 -92 20.5 -116t98.5 -24h48v-73zM487.5 1225.5q25.5 -25.5 25.5 -61t-25.5 -60t-60 -24.5t-60 25.5t-25.5 60t26 60t60 25.5t59.5 -25.5zM868 1225.5q26 -25.5 26 -61t-26 -60t-60.5 -24.5t-59.5 25.5t-25 60t25.5 60t59.5 25.5t60 -25.5z" />
    <glyph glyph-name="yacute" unicode="&#xfd;" horiz-adv-x="1079" 
d="M509 817q-87 0 -87 -43q0 -20 11 -47l208 -500l173 440q18 46 18 81q0 69 -101 69h-31v62h379v-62h-22q-52 0 -80.5 -31.5t-64.5 -121.5l-211 -534q-62 -157 -98 -232q-138 -285 -334 -285q-72 0 -120.5 37.5t-48.5 89t28.5 81t69.5 29.5t66 -21.5t25 -54.5l-12 -59
q0 -17 37.5 -17t97 64.5t112.5 168.5l32 62l-296 719q-25 59 -50.5 82t-69.5 23h-23v62h431v-62h-39zM886.5 1295q19.5 -19 19.5 -55t-47 -64l-301 -183h-78l266 263q35 35 53.5 46.5t43 11.5t44 -19z" />
    <glyph glyph-name="thorn" unicode="&#xfe;" horiz-adv-x="1024" 
d="M919 772q105 -135 105 -333.5t-105.5 -333t-265.5 -134.5q-84 0 -140 33.5t-102 110.5v-348q0 -57 23.5 -72.5t114.5 -15.5h26v-62h-475v62h27q105 0 117 31q6 15 6 59v1437q0 61 -14.5 78.5t-67.5 17.5h-68v75l311 19v-645q49 83 108 119.5t144 36.5q151 0 256 -135z
M789 165.5q56 102.5 56 281t-55 273t-157 94.5t-163 -102.5t-61 -276t61 -273t162 -99.5t157 102.5z" />
    <glyph glyph-name="ydieresis" unicode="&#xff;" horiz-adv-x="1042" 
d="M494 817q-80 0 -80 -43q0 -20 11 -47l198 -500l162 440q18 49 18 83q0 67 -93 67h-28v62h360v-62h-21q-50 0 -78 -32t-62 -121l-203 -534q-60 -158 -94 -232q-133 -285 -321 -285q-69 0 -116 37.5t-47 89t28.5 81t69.5 29.5t66 -21.5t25 -54.5l-12 -59q0 -17 35 -17
t90.5 64.5t104.5 168.5l30 62l-283 719q-23 59 -48 82t-67 23h-22v62h413v-62h-36zM486 1215.5q26 -25.5 26 -61t-26 -60.5t-60.5 -25t-59.5 26t-25 60.5t25.5 60t59.5 25.5t60 -25.5zM844 1215.5q26 -25.5 26 -61t-25.5 -60.5t-60 -25t-60 26t-25.5 60.5t25.5 60t59.5 25.5
t60 -25.5z" />
    <glyph glyph-name="dotlessi" unicode="&#x131;" horiz-adv-x="596" 
d="M596 0h-474v62h24q89 0 110.5 16t21.5 75v539q0 61 -14.5 79t-66.5 18h-97v73l339 20v-731q0 -41 9 -58q15 -31 125 -31h23v-62z" />
    <glyph glyph-name="OE" unicode="&#x152;" horiz-adv-x="1645" 
d="M1645 446l-30 -446h-946q-130 0 -223 35.5t-172.5 119.5t-126.5 206t-47 248t38.5 233.5t111 188t183.5 127t250 46.5h917l22 -428h-66q-27 157 -56 212t-55 78.5t-81 45t-196 21.5h-43q-67 0 -85 -15.5t-18 -70.5v-389h38q116 0 163 53t54 181h70v-550h-70
q-3 112 -14 138.5t-22 44.5q-38 63 -187 63h-32v-435q0 -51 25.5 -67t91.5 -16h61q93 0 154 17.5t105 61.5q80 80 120 297h66zM625 1133q-327 0 -327 -531.5t329 -531.5q65 0 116.5 25.5t74 64t29 85.5t6.5 147v460q0 95 -8 133t-35 72q-59 76 -185 76z" />
    <glyph glyph-name="oe" unicode="&#x153;" horiz-adv-x="1489" 
d="M1489 236q-110 -265 -373 -265q-98 0 -182 36t-137 101q-116 -137 -297.5 -137t-290.5 131t-109 337q0 130 52.5 238.5t144 171t190.5 62.5t181 -43t132 -117q121 160 300 160t284 -134t105 -347h-600q0 -188 70.5 -277.5t176 -89.5t171.5 49.5t123 161.5zM708 452
q0 186 -55 286t-157 100q-217 0 -217 -405q0 -188 54.5 -288.5t158.5 -100.5q216 0 216 408zM1305 576q0 118 -53.5 190t-143 72t-151.5 -88.5t-67 -246.5h335q47 0 63.5 15t16.5 58z" />
    <glyph glyph-name="circumflex" unicode="&#x2c6;" horiz-adv-x="749" 
d="M745 1004h-68l-229 192l-230 -192h-69l238 316h120z" />
    <glyph glyph-name="ring" unicode="&#x2da;" horiz-adv-x="483" 
d="M483 1076q0 -65 -48.5 -108t-113 -43t-113 41t-48.5 106.5t47 109t112 43.5t114.5 -43t49.5 -106zM409 1075q0 39 -25.5 63t-63.5 24t-63 -24.5t-25 -63.5t25.5 -61t63.5 -22t63 22.5t25 61.5z" />
    <glyph glyph-name="tilde" unicode="&#x2dc;" horiz-adv-x="792" 
d="M160 1044q43 192 203 192q54 0 113 -30t89 -43.5t66 -13.5q68 0 105 96h56q-6 -83 -66.5 -142t-129 -59t-129.5 29.5t-91.5 43t-58.5 13.5q-67 0 -102 -86h-55z" />
    <glyph glyph-name="anusvaraabove" unicode="&#xd00;" horiz-adv-x="490" 
d="M320.5 943q-73.5 0 -122 52t-48.5 124t48 124t122 52t122 -52t48 -125q0 -72 -48 -123.5t-121.5 -51.5zM301 1233q-70 0 -99 -67q-8 -20 -8 -54t30.5 -66t75.5 -32t75.5 32.5t30.5 77.5t-30 77t-75 32z" />
    <glyph glyph-name="mlchandrabindu" unicode="&#xd01;" horiz-adv-x="63" 
d="M178 1250q0 -35 -25 -60t-60 -25t-59.5 25t-24.5 60t25 60t60 25t59.5 -25t24.5 -60zM360 1303q8 -32 8 -89q0 -116 -91.5 -187.5t-220.5 -71.5t-222.5 69t-93.5 192q0 52 14 87h150q-9 -29 -9 -66q0 -79 52 -127.5t136 -48.5t143 53.5t59 142.5q0 22 -6 46h81z" />
    <glyph glyph-name="anusvara" unicode="&#xd02;" horiz-adv-x="745" 
d="M656.5 66q-88.5 -85 -212.5 -85t-209 87t-85 211q0 125 87.5 211t211.5 86q123 0 209.5 -88.5t86.5 -212.5t-88.5 -209zM603 278q0 78 -55.5 135t-134.5 57t-135.5 -56.5t-56.5 -134.5q0 -77 55 -133.5t135 -56.5q77 0 134.5 55.5t57.5 133.5z" />
    <glyph glyph-name="visarga" unicode="&#xd03;" horiz-adv-x="522" 
d="M470.5 581.5q-51.5 -47.5 -133.5 -47.5q-127 0 -173 102q-14 32 -14 72q0 76 55 120.5t131 44.5t131 -44.5t55 -122t-51.5 -125zM470.5 61.5q-51.5 -47.5 -133.5 -47.5q-127 0 -173 102q-14 32 -14 72q0 76 55 120.5t131 44.5t131 -44.5t55 -122t-51.5 -125zM380 644
q28 26 28 67t-27.5 70t-69.5 29q-40 0 -68.5 -28.5t-28.5 -70t27 -67.5t69 -26t70 26zM380 124q28 26 28 67t-27.5 70t-69.5 29q-40 0 -68.5 -28.5t-28.5 -70t27 -67.5t69 -26t70 26z" />
    <glyph glyph-name="vedicanusvara" unicode="&#xd04;" horiz-adv-x="889" 
d="M880 412q4 -28 4 -46q0 -175 -101.5 -278t-266.5 -103q-164 0 -266 109.5t-102 286.5v15t2 27l129 -22q-2 -18 -2 -57t21.5 -91.5t58.5 -90.5q77 -78 197.5 -78t194.5 81.5t74 214.5v6t-1 11zM498 782h113v-532h-113v532z" />
    <glyph glyph-name="ml_a" unicode="&#xd05;" horiz-adv-x="2156" 
d="M1366 771q103 151 335 151q197 0 326 -155t129 -340.5t-68 -302.5q-82 -142 -240 -142q-119 0 -188.5 103.5t-69.5 238t92.5 232.5t235.5 120q-74 140 -238 140q-82 0 -167 -53t-85 -131v-632h-162v598q0 106 -87.5 162t-199.5 56h-10q103 -87 103 -214q0 -64 -25.5 -106
t-73.5 -82q80 -59 94 -135q5 -27 5 -69q0 -92 -60.5 -160t-152.5 -68q-167 0 -255 116.5t-88 283.5q0 262 169 416q-47 6 -110.5 6t-129 -35t-111.5 -92q-98 -120 -98 -294t104 -299q36 -44 86 -70l-68 -32q-100 50 -154 175t-54 243q0 230 135 376t354 146q102 0 197 -33
q93 33 199 33t187 -33t144 -118zM1948 612q-190 -20 -258 -160q-23 -48 -23 -119.5t47 -149t128.5 -77.5t124.5 111q31 79 31 186t-50 209zM915 159q11 22 11 65.5t-45.5 80.5t-106.5 37h-60v96h50q62 0 97 24q65 46 65 112q0 140 -139 197q-153 -81 -193 -269
q-12 -56 -12 -110q0 -120 50.5 -209t150 -89t132.5 65z" />
    <glyph glyph-name="ml_aa" unicode="&#xd06;" horiz-adv-x="2399" 
d="M1344 771q97 147 315 147q130 0 229.5 -64t158.5 -179q164 -33 258 -163.5t94 -303.5q0 -217 -131.5 -377t-344.5 -160q-172 0 -296 79l37 81q101 -63 203 -63q186 0 294.5 141t108.5 313t-98 276q-34 36 -80 60q22 -82 22 -160q0 -167 -71 -282q-84 -135 -235 -135
q-120 0 -188 92.5t-68 231.5t89.5 246t239.5 129q-86 135 -243 135q-81 0 -156.5 -52t-75.5 -131v-632h-162v598q0 106 -76.5 162t-188.5 56h-10q103 -87 103 -214q0 -64 -25.5 -106t-73.5 -82q80 -59 94 -135q5 -27 5 -69q0 -92 -60.5 -160t-152.5 -68q-167 0 -255 116.5
t-88 283.5q0 262 169 416q-47 6 -110.5 6t-129 -35t-111.5 -92q-98 -120 -98 -294t104 -299q36 -44 86 -70l-68 -32q-100 50 -154 175t-54 243q0 230 135 376t354 146q102 0 197 -33q93 33 198 33t175 -31.5t135 -119.5zM1923 594q-125 -6 -203.5 -84.5t-78.5 -201.5
q0 -77 27 -121q52 -82 131.5 -82t124.5 100q33 76 33 184.5t-34 204.5zM914 159q12 22 12 65.5t-45.5 80.5t-106.5 37h-60v96h50q62 0 97 24q65 46 65 112q0 140 -139 197q-153 -81 -193 -269q-12 -56 -12 -110q0 -120 50.5 -209t149.5 -89t132 65z" />
    <glyph glyph-name="ml_i" unicode="&#xd07;" horiz-adv-x="1614" 
d="M938 778q95 147 280 147t290.5 -144.5t105.5 -330.5t-76 -310q-89 -148 -256 -148h-878q-78 0 -108 -42q-12 -15 -12 -49t36 -55.5t84 -21.5h1196v-130h-1196q-157 0 -211 99q-19 35 -19 85q0 94 66.5 143t163.5 49h740q151 0 229.5 103t78.5 254.5t-74.5 270t-205 118.5
t-172.5 -90q-14 -30 -14 -70v-512h-161v470q0 86 -78.5 138t-157.5 52q-300 0 -351 -254l5 -1q23 57 76 84t111 27q110 0 174 -74.5t64 -186t-71.5 -189.5t-186.5 -78t-187.5 98t-72.5 211q0 215 136.5 349.5t340.5 134.5t311 -147zM532 402q0 110 -68 156q-23 16 -57 16
q-62 0 -91.5 -51t-29.5 -118q0 -109 68 -158q23 -17 57 -17q62 0 91.5 53t29.5 119z" />
    <glyph glyph-name="ml_ii" unicode="&#xd08;" horiz-adv-x="2992" 
d="M2351 808q89 110 265.5 110t276 -138.5t99.5 -314.5q0 -216 -138 -350t-354 -134q-139 0 -258 59q-142 71 -150 199h92q4 -84 96.5 -131t182.5 -47q171 0 265.5 118.5t94.5 269.5t-57 249q-68 118 -187.5 118t-160.5 -92q-14 -29 -14 -66v-276h-158v244q0 135 -98 182
q-33 15 -86 15t-94 -30t-74 -93.5t-33 -159.5t16 -156l-73 -7q-20 60 -20 145q0 179 80 288.5t235.5 109.5t251.5 -112zM938 778q95 147 280 147t290.5 -144.5t105.5 -330.5t-76 -310q-89 -148 -256 -148h-878q-78 0 -108 -42q-12 -15 -12 -49t36 -55.5t84 -21.5h1196v-130
h-1196q-157 0 -211 99q-19 35 -19 85q0 94 66.5 143t163.5 49h740q151 0 229.5 103t78.5 254.5t-74.5 270t-205 118.5t-172.5 -90q-14 -30 -14 -70v-512h-162v470q0 88 -79 139t-157 51q-299 0 -350 -254l5 -1q23 57 76 84t111 27q110 0 174 -74.5t64 -186t-71.5 -189.5
t-186.5 -78t-187.5 98t-72.5 211q0 215 136.5 349.5t340.5 134.5t311 -147zM532 402q0 110 -68 156q-23 16 -57 16q-62 0 -91.5 -51t-29.5 -118q0 -109 68 -158q23 -17 57 -17q62 0 91.5 53t29.5 119z" />
    <glyph glyph-name="ml_u" unicode="&#xd09;" horiz-adv-x="1169" 
d="M252 585q44 109 202 109q43 0 87 -21.5t73 -58.5q61 -74 61 -187.5t-70 -187t-190.5 -73.5t-192.5 81.5t-72 199.5q0 222 145 348.5t362 126.5t364.5 -129.5t147.5 -333t-120 -336t-314 -132.5h-336q-83 0 -115 -41q-13 -16 -13 -42q0 -84 128 -84h750v-130h-750
q-110 0 -154 29q-82 54 -82 142t47.5 146t119.5 58h370q142 0 223.5 111t81.5 264t-104 264.5t-262 111.5q-220 0 -326 -122q-39 -45 -68 -112zM410 606q-65 0 -100 -52t-35 -119q0 -65 26 -103q48 -68 112 -68q63 0 94.5 52t31.5 119.5t-32.5 119t-96.5 51.5z" />
    <glyph glyph-name="ml_uu" unicode="&#xd0a;" horiz-adv-x="2469" 
d="M1828 808q89 110 265.5 110t276 -138.5t99.5 -314.5q0 -216 -138 -350t-354 -134q-139 0 -258 59q-142 71 -150 199h92q4 -84 96.5 -131t182.5 -47q171 0 265.5 118.5t94.5 269.5t-57 249q-68 118 -187.5 118t-161.5 -92q-13 -29 -13 -66v-276h-158v244q0 135 -99 182
q-32 15 -85 15t-94 -30t-74 -93.5t-33 -159.5t16 -156l-73 -7q-20 60 -20 145q0 179 80 288.5t235.5 109.5t251.5 -112zM252 585q44 109 202 109q43 0 87 -21.5t73 -58.5q61 -74 61 -187.5t-70 -187t-190.5 -73.5t-192.5 81.5t-72 199.5q0 222 145 348.5t362 126.5
t364.5 -129.5t147.5 -333t-120 -336t-314 -132.5h-336q-83 0 -115 -41q-13 -16 -13 -42q0 -84 128 -84h750v-130h-750q-110 0 -154 29q-82 54 -82 142t47.5 146t119.5 58h370q142 0 223.5 111t81.5 264t-104 264.5t-262 111.5q-220 0 -326 -122q-39 -45 -68 -112zM410 606
q-65 0 -100 -52t-35 -119q0 -65 26 -103q48 -68 112 -68q63 0 94.5 52t31.5 119.5t-32.5 119t-96.5 51.5z" />
    <glyph glyph-name="ml_r" unicode="&#xd0b;" horiz-adv-x="1368" 
d="M819 -370q-669 0 -669 306q0 188 244 238q-244 81 -244 374q0 150 73.5 260t214.5 110q107 0 177.5 -72.5t70.5 -179.5q0 -183 -138 -244q-46 -20 -106 -20q-123 0 -196 126v-20q0 -200 188 -264q100 -33 199.5 -35.5t166.5 -2.5q170 0 283 44t153.5 111t39.5 167
q-82 -126 -197.5 -126t-181 74t-65.5 181.5t67 184t156 76.5q159 0 236 -107t77 -263q0 -292 -246 -370q246 -44 246 -247q0 -116 -98.5 -185t-231.5 -92.5t-219 -23.5zM966 668q0 -180 128 -180q60 0 92 52t32 117t-26 103q-48 72 -107.5 72t-89 -50.5t-29.5 -113.5z
M426 488q124 0 124 180q0 106 -62 148q-22 16 -52 16q-57 0 -96.5 -50.5t-39.5 -93.5q0 -86 30 -143t96 -57zM786 104q-541 0 -541 -190q0 -145 297 -190q86 -13 148 -13q267 0 417 77q85 44 85 120q0 132 -250 180q-87 16 -156 16z" />
    <glyph glyph-name="ml_l" unicode="&#xd0c;" horiz-adv-x="1714" 
d="M962 809q90 110 272 110q225 0 352.5 -156t127.5 -402.5t-146 -342.5q-54 -36 -126 -36q-127 0 -195 82.5t-68 200t73 206t189.5 88.5t181.5 -86q-16 145 -120 240t-245 95q-91 0 -142.5 -28t-75 -59t-23.5 -77v-617h-160v607q0 84 -80.5 129t-161.5 45
q-152 0 -256 -96.5t-118 -238.5q65 86 181 86t189 -88.5t73 -206t-68 -200t-183 -82.5q-153 0 -225 130q-58 104 -58 240q0 255 127.5 411t354 156t330.5 -110zM1613 258q0 193 -140 193q-70 0 -112 -53.5t-42 -127.5t27 -114q50 -71 121 -71q69 0 107.5 60.5t38.5 112.5z
M290 146q38 -61 107.5 -61t108.5 54.5t39 129.5t-42 128.5t-111.5 53.5t-104.5 -50.5t-35 -122t38 -132.5z" />
    <glyph glyph-name="ml_e" unicode="&#xd0e;" horiz-adv-x="2050" 
d="M766 70h252q0 654 324 812q80 40 178 40q178 0 295.5 -94t176 -242t58.5 -280q0 -245 -74.5 -415.5t-241.5 -286.5l-102 42q248 215 248 600q0 200 -82 362q-100 198 -299 198q-164 0 -265 -127q-84 -106 -111.5 -265t-27.5 -344h281v594h160v-806q0 -101 -55.5 -177.5
t-148.5 -76.5q-165 0 -246 124q-68 105 -68 272h-496v14q148 88 148 254q0 94 -59 153t-158 59t-159 -76t-60 -178q0 -148 100 -196l-62 -48q-122 94 -122 261t91.5 266t242 99t253.5 -90t103 -225.5t-74 -222.5zM1376 -124v124h-281q0 -200 91 -254q23 -14 53 -14
q66 0 101.5 39.5t35.5 104.5z" />
    <glyph glyph-name="ml_ee" unicode="&#xd0f;" horiz-adv-x="2022" 
d="M766 70h252q0 235 24 359q45 242 152 357q129 138 335.5 138t349.5 -113t143 -299q0 -127 -78 -224q-26 -31 -58 -46q111 -65 128 -184q6 -38 6 -93q0 -132 -72.5 -237t-210.5 -105q-54 0 -103 21l-23 126q36 -25 78 -25q76 0 114.5 69.5t38.5 127.5q0 111 -39.5 182.5
t-120.5 71.5h-40v120h40q71 0 109.5 61t38.5 136q0 144 -93 220.5t-241 76.5q-262 0 -349 -262q-45 -135 -51 -323q-2 -83 -2 -155h282v594h160v-806q0 -172 -134 -228q-44 -18 -109.5 -18t-119 37t-87.5 94q-68 112 -68 257h-496v14q148 89 148 254q0 94 -59 153t-158 59
t-159 -76t-60 -178q0 -148 100 -196l-62 -48q-122 95 -122 262t92.5 265.5t242 98.5t252.5 -90t103 -225t-74 -223zM1376 -124v124h-282q0 -163 72 -238q29 -30 84 -30t90.5 40t35.5 104z" />
    <glyph glyph-name="ml_ai" unicode="&#xd10;" horiz-adv-x="3103" 
d="M1819 70h252q0 654 323 812q81 40 180 40q177 0 294.5 -94t176 -242t58.5 -280q0 -244 -75 -415t-241 -287l-102 42q248 215 248 600q0 200 -82 362q-100 198 -299 198q-164 0 -265 -127q-85 -107 -112 -266t-27 -343h281v594h160v-806q0 -101 -55.5 -177.5t-148.5 -76.5
q-165 0 -246 124q-68 105 -68 272h-496v14q148 88 148 254q0 94 -59 153t-158 59t-159 -76t-60 -178q0 -148 100 -196l-62 -48q-122 94 -122 261t91.5 266t242 99t253.5 -90t103 -225.5t-74 -222.5zM766 22q177 134 177 405q0 154 -89 267t-243 113t-256 -102t-114 -251
q34 46 85 75.5t110 29.5q112 0 180 -88t68 -206t-68 -200.5t-183 -82.5q-153 0 -225 130q-58 104 -58 240q0 255 127.5 411t343 156t350.5 -139q63 -64 98 -152.5t35 -174.5q0 -154 -69.5 -277.5t-188.5 -197.5zM2429 -124v124h-281q0 -200 92 -254q22 -14 52 -14
q66 0 101.5 39.5t35.5 104.5zM381 451q-67 0 -103.5 -48t-36.5 -119q0 -75 28 -119q52 -81 120 -81t110.5 58.5t42.5 126.5t-46 125t-115 57z" />
    <glyph glyph-name="ml_o" unicode="&#xd12;" horiz-adv-x="1180" 
d="M1180 235q0 -252 -258 -252q-91 0 -141 15l-23 110q43 -27 107 -27q157 0 157 158q0 60 -52 98t-116 38h-62v114h61q62 0 97.5 42.5t35.5 104.5q0 106 -119 158q-90 38 -189 38q-184 0 -303.5 -98.5t-133.5 -260.5q65 86 181 86t189 -88.5t73 -206t-68 -200t-183 -82.5
q-153 0 -225 130q-58 104 -58 251q0 276 147.5 417.5t410.5 141.5q358 0 450 -175q22 -43 22 -104.5t-36 -122t-94 -90.5q130 -53 130 -195zM502 394q-46 57 -115 57q-100 0 -137 -137q-4 -17 -4 -27t3.5 -24.5t11 -51.5t41.5 -81.5t81 -44.5q78 0 121.5 57.5t43.5 126
t-46 125.5z" />
    <glyph glyph-name="ml_oo" unicode="&#xd13;" horiz-adv-x="1977" 
d="M1313 558q-2 10 -2 48.5t21 100.5t60 110q87 105 225 105q225 0 321 -246q39 -99 39 -185q0 -307 -152 -442q-80 -71 -204 -71q-129 0 -216.5 97.5t-91.5 228.5h72q11 -85 46 -128q65 -78 146 -78q151 0 213 206q23 77 23 143q0 150 -43 248q-58 129 -180 129
q-93 0 -150 -76.5t-57 -171.5v-6.5t2 -11.5h-72zM1180 234q0 -251 -275 -251q-74 0 -124 15l-23 110q45 -27 107 -27q157 0 157 158q0 60 -52 98t-116 38h-62v114h61q62 0 97.5 42.5t35.5 104.5q0 106 -119 158q-90 38 -189 38q-184 0 -303.5 -98.5t-133.5 -260.5
q65 86 181 86t189 -88.5t73 -206t-68 -200t-183 -82.5q-153 0 -225 130q-58 104 -58 251q0 277 148.5 418t409.5 141q358 0 450 -175q22 -43 22 -106.5t-35 -121t-95 -89.5q63 -24 96.5 -76.5t33.5 -119.5zM502 394q-46 57 -115 57q-100 0 -137 -137q-4 -17 -4 -27
t3.5 -24.5t11 -51.5t41.5 -81.5t81 -44.5q78 0 121.5 57.5t43.5 126t-46 125.5z" />
    <glyph glyph-name="ml_au" unicode="&#xd14;" horiz-adv-x="2398" 
d="M1813 816q82 107 241 107t250 -140t91 -318q0 -218 -125.5 -353.5t-322.5 -135.5q-123 0 -218 51q-149 81 -154 217h5h83h5q3 -86 84.5 -132t161.5 -46q152 0 235.5 116.5t83.5 296t-93 277.5q-52 55 -124 55q-102 0 -138 -88q-12 -29 -12 -65v-276v-5h-5h-155h-5v5v214
q0 145 -73 202q-27 20 -74 20q-91 0 -139 -103q-38 -80 -38 -175t16 -160l-6 -1l-65 -7h-5q-19 64 -19 150q0 282 163 371q58 32 139 32q127 0 213 -109zM1050 430q130 -48 130 -188.5t-70 -199.5t-205 -59q-74 0 -124 15l-23 110q43 -27 107 -27q157 0 157 158q0 60 -52 98
t-116 38h-62v114h61q62 0 97.5 42.5t35.5 104.5q0 106 -119 158q-90 38 -189 38q-184 0 -303.5 -98.5t-133.5 -260.5q65 86 181 86t189 -88.5t73 -206t-68 -200t-183 -82.5q-153 0 -225 130q-58 104 -58 251q0 276 147.5 417.5t410.5 141.5q358 0 450 -175q22 -43 22 -106
t-35 -121.5t-95 -89.5zM502 394q-46 57 -115 57q-100 0 -137 -137q-4 -17 -4 -27t3.5 -24.5t11 -51.5t41.5 -81.5t81 -44.5q78 0 121.5 57.5t43.5 126t-46 125.5z" />
    <glyph glyph-name="k1" unicode="&#xd15;" horiz-adv-x="1578" 
d="M620 104q-50 -122 -183 -122t-210 73.5t-77 198.5q0 179 130 242q77 37 156.5 41.5t131.5 4.5q0 153 72 264.5t219 111.5q146 0 231 -120q70 -98 84 -256h126q123 0 200.5 -83t77.5 -197.5t-62 -197t-155 -82.5t-151 36l-10 96q43 -26 84 -26q72 0 109 61.5t37 136.5
t-52 129t-127 54h-69q0 -177 -67 -315q-83 -172 -247 -172q-187 0 -248 122zM1034 542q0 103 -52 182.5t-152 79.5q-98 0 -143 -77.5t-45 -184.5h392zM640 408q0 -328 181 -328q213 0 213 389h-392q-2 -30 -2 -61zM440 80q128 0 128 196v193h-68q-90 0 -146 -57.5
t-56 -145.5q0 -122 77 -170q27 -16 65 -16z" />
    <glyph glyph-name="k2" unicode="&#xd16;" horiz-adv-x="1464" 
d="M950 70h354v832h160v-902h-688v52q119 105 142 248q7 48 7 113q0 158 -84.5 278.5t-235.5 120.5t-250.5 -98t-113.5 -241q65 86 181 86t189 -88.5t73 -206t-68 -200t-183 -82.5q-153 0 -225 130q-58 104 -58 239q0 257 122.5 414.5t338.5 157.5t344.5 -139t128.5 -353.5
t-134 -360.5zM290 145q38 -60 108.5 -60t108.5 55t38 128.5t-42.5 128.5t-111 55t-104 -50.5t-35.5 -123.5t38 -133z" />
    <glyph glyph-name="k3" unicode="&#xd17;" horiz-adv-x="1414" 
d="M1340 182q-74 -140 -221 -204l-53 48q181 81 231 292q15 63 15 124q0 135 -67 243.5t-183 108.5t-168 -103q-38 -77 -38 -201v-209q0 -126 -96 -212.5t-227 -86.5q-173 0 -278 141t-105 323q0 341 254 481l50 -52q-115 -66 -163 -163.5t-48 -232t71.5 -250.5t200.5 -116
q102 0 152 89q39 71 39 183v198q0 142 103 241t255.5 99t251 -131t98.5 -300.5t-74 -309.5z" />
    <glyph glyph-name="k4" unicode="&#xd18;" horiz-adv-x="2131" 
d="M1051 398h586v82q0 251 -171 323q-60 25 -140 25q-145 0 -210 -86t-65 -232v-112zM767 556q0 -79 -70 -158h204v112q0 296 208 382q71 30 177 30q212 0 320 -127t108 -353v-112h-663v-260h920v832h160v-902h-1230v330h-438v47q72 18 107 71.5t35 109.5q0 96 -52 144.5
t-113 48.5q-103 0 -153 -62.5t-50 -163t85 -160.5l-57 -52q-115 92 -115 235.5t84.5 234t220.5 90.5t224 -84t88 -233z" />
    <glyph glyph-name="ng" unicode="&#xd19;" horiz-adv-x="1622" 
d="M1486 464q136 -74 136 -212t-99.5 -205.5t-218 -67.5t-206.5 47l1 111q58 -62 177 -62t160 91q14 29 14 66q0 73 -48 119.5t-118 46.5h-114v94h38q242 0 242 153q0 81 -76.5 129.5t-159 48.5t-131.5 -24.5t-71.5 -52.5t-22.5 -69v-677h-150v612q0 91 -70.5 145.5
t-152.5 54.5q-153 0 -257 -96.5t-118 -238.5q65 86 181.5 86t189 -88.5t72.5 -206.5t-67.5 -200t-183.5 -82q-153 0 -225 129q-58 103 -58 240q0 258 128 413t352 155q99 0 168.5 -27.5t131.5 -99.5q88 107 230 123q44 5 98 5q129 0 246.5 -72t117.5 -196q0 -99 -81 -162
q-25 -20 -55 -30zM501.5 400q-46.5 55 -114.5 55q-100 0 -137 -137q-4 -17 -4 -27t3.5 -24.5t11 -52t42.5 -81.5t81 -44q77 0 120.5 57.5t43.5 128t-46.5 125.5z" />
    <glyph glyph-name="ch1" unicode="&#xd1a;" horiz-adv-x="1458" 
d="M838 70h460v832h160v-902h-1308v70h430q89 0 145.5 63t56.5 154q0 128 -82 177q-29 17 -80.5 17t-102.5 -44.5t-51 -102.5t20 -100h-90q-24 59 -24 116q0 113 84 184.5t210 71.5t205 -86.5t79 -222.5t-112 -227z" />
    <glyph glyph-name="ch2" unicode="&#xd1b;" horiz-adv-x="2012" 
d="M1201 70q-117 130 -117 341t119 358.5t331.5 147.5t345 -141t132.5 -361q0 -158 -66 -279q-79 -144 -219 -144t-219.5 94t-79.5 229q0 228 130 355q46 45 111 74q-64 35 -149 35q-158 0 -248 -124t-90 -285q0 -199 158 -322v-45v-3h-1190v70h430q89 0 145.5 63t56.5 154
q0 128 -82 177q-29 17 -80.5 17t-102.5 -44.5t-51 -102.5t20 -100h-90q-24 59 -24 116q0 113 84 184.5t210 71.5t205 -86.5t79 -222.5t-112 -227h363zM1851 396q0 178 -100 285q-109 -29 -170 -123.5t-61 -196t30 -152t62 -72.5t78 -22q82 0 127 103q34 78 34 178z" />
    <glyph glyph-name="ch3" unicode="&#xd1c;" horiz-adv-x="1443" 
d="M846 806q68 114 235 114q247 0 330 -164q29 -57 29 -140q0 -155 -142 -230q-110 -58 -286 -58h-494q-140 0 -201 -74q-23 -27 -23 -72t52 -72q84 -44 235.5 -2.5t281.5 98t135 58.5l94 37.5t160 37.5t128.5 -52t62.5 -134.5t-58.5 -127.5t-143.5 -45q-130 0 -184 93
q-18 31 -18 70.5t27 77.5l-2 4q-81 -37 -166 -80q-329 -165 -536 -165q-88 0 -150 47.5t-62 133.5q0 201 300 233q43 4 80 4h456q195 0 258 128q22 45 22 99q0 99 -52.5 157t-138 58t-136.5 -61t-51 -147v-179h-162v216q0 151 -154 168q-45 5 -95 5q-110 0 -185 -79l3 -6
q25 18 80.5 18t103 -49.5t47.5 -101.5q0 -95 -47 -154.5t-131.5 -59.5t-137 54.5t-52.5 140.5q0 157 119 236t296 79t273 -114zM1220 76q65 0 94 46q10 15 10 48t-27 63.5t-72.5 30.5t-78.5 -27t-33 -70q0 -64 69 -85q20 -6 38 -6zM318 488q86 0 86 107t-86 107
q-39 0 -62.5 -33.5t-23.5 -71.5q0 -68 49 -99q16 -10 37 -10z" />
    <glyph glyph-name="ch4" unicode="&#xd1d;" horiz-adv-x="2624" 
d="M370 -18q-220 154 -220 462q0 83 32 173.5t92 158.5q130 147 337 147q115 0 213 -47q104 49 251 49t286.5 -104t139.5 -263v-288q0 -75 44 -131t118 -56q135 0 187 100q17 33 17 77v642h158v-564q0 -99 72.5 -167.5t170.5 -68.5q214 0 230 294q3 44 3 84q0 265 -228 386
l46 52q223 -92 285 -326q20 -73 20 -158q0 -191 -100.5 -325t-292.5 -134q-150 0 -254 81q-36 28 -60 66q-85 -143 -277 -143q-122 0 -210.5 77t-88.5 200v284q0 129 -97.5 215.5t-227.5 86.5q-64 0 -111 -14q158 -117 204 -330q14 -65 14 -132q0 -150 -80 -266t-221.5 -116
t-219 110t-77.5 255q0 208 105 363q36 53 86 95q-48 16 -118.5 16t-139 -35t-116.5 -94q-96 -118 -96 -295t109 -309q36 -43 83 -76zM927 608q-49 107 -138 164q-140 -102 -177 -296q-12 -59 -12 -108q0 -105 44 -183.5t138 -78.5t144 87t50 197.5t-49 217.5z" />
    <glyph glyph-name="nj" unicode="&#xd1e;" horiz-adv-x="2225" 
d="M1562 825q203 -160 203 -461q0 -148 -80 -264t-222.5 -116t-219 110t-76.5 255q0 205 105 359q35 53 85 95q-50 15 -95 15q-92 0 -169 -51t-77 -131v-636h-161v633q0 81 -81.5 128t-161.5 47q-149 0 -253 -96.5t-118 -238.5q65 86 181.5 86t189 -88.5t72.5 -206.5
t-67.5 -200t-183.5 -82q-153 0 -225 129q-58 103 -58 240q0 257 128 413.5t353.5 156.5t324.5 -116q82 116 317 116q110 0 204 -43q97 43 212 43q233 0 384.5 -126.5t151.5 -346.5q0 -139 -61.5 -269.5t-177.5 -196.5l-102 32q128 101 166 311q11 60 11 133.5t-28.5 147
t-81.5 124.5q-110 106 -293 106q-52 0 -96 -11zM1570 604q-48 106 -138 164q-140 -97 -178 -292q-12 -59 -12 -108q0 -108 43.5 -185t138 -77t144.5 87t50 196t-48 215zM548 269.5q0 69.5 -46 125.5t-115 56q-100 0 -137 -137q-4 -17 -4 -27t3.5 -24.5t11 -52t42.5 -81.5
t81 -44q77 0 120.5 57.5t43.5 127z" />
    <glyph glyph-name="t1" unicode="&#xd1f;" horiz-adv-x="952" 
d="M286 662q0 -141 186 -141q19 0 106 1q177 2 262 -46q112 -61 112 -200t-112.5 -216.5t-256.5 -77.5q-285 0 -429 144l50 60q109 -116 358 -116q167 0 234 86q26 32 26 78q0 78 -83 112q-57 24 -146 24l-99.5 -1.5t-153 12.5t-96.5 43q-94 64 -94 181q0 153 106.5 234.5
t264.5 81.5q287 0 429 -149l-54 -56q-112 116 -306.5 116t-273.5 -88q-30 -34 -30 -82z" />
    <glyph glyph-name="t2" unicode="&#xd20;" horiz-adv-x="1068" 
d="M1068 453q0 -202 -129 -336.5t-330.5 -134.5t-330 126.5t-128.5 329t124 342.5t326.5 140t335 -132.5t132.5 -334.5zM906 440q0 145 -100 248.5t-248 103.5t-240 -95.5t-92 -245t92.5 -253.5t240 -104t247.5 100t100 246z" />
    <glyph glyph-name="t3" unicode="&#xd21;" horiz-adv-x="2008" 
d="M1740 918q268 -142 268 -482q0 -188 -100.5 -323t-287 -135t-290.5 144q-81 -144 -294 -144q-162 0 -254.5 106t-92.5 267v209q0 108 -25 152.5t-59 64t-95 19.5q-118 0 -185.5 -110t-67.5 -243q0 -311 214 -415l-61 -46q-260 128 -260 476q0 171 100.5 317.5
t267.5 146.5q233 0 297 -197q20 -62 20 -138v-191q0 -217 117 -292q45 -28 119.5 -28t141.5 42.5t67 119.5v664h160v-564q0 -100 56.5 -168t157.5 -68q137 0 205 130q55 104 55 252q0 189 -132 314q-42 41 -96 68z" />
    <glyph glyph-name="t4" unicode="&#xd22;" horiz-adv-x="2118" 
d="M2118 568q0 -590 -476 -590q-114 0 -171 22q-101 38 -161 122q-98 -144 -294 -144q-164 0 -245.5 101.5t-81.5 271.5l4 184q0 261 -177 261q-124 0 -195 -111.5t-71 -241.5q0 -214 124 -341q43 -44 104 -74l-54 -46q-132 63 -203 192t-71 292t100.5 309.5t267.5 146.5
q319 0 319 -380l-1.5 -142t35.5 -219q50 -105 175 -105q78 0 146 52.5t68 129.5v644h160v-604q0 -171 154 -200q48 -9 116 -9q147 0 233 88t98 247q-66 -87 -179 -87t-186 88.5t-73 206.5t68.5 200.5t183.5 82.5q283 0 283 -347zM2001 532.5q21 37.5 21 62t-3.5 39.5t-11 52
t-41.5 81t-82 44q-77 0 -120.5 -57.5t-43.5 -126t46 -125.5t104 -57t84 25t47 62.5z" />
    <glyph glyph-name="nh" unicode="&#xd23;" horiz-adv-x="2244" 
d="M1566 780q82 142 263 142t298 -141.5t117 -332.5q0 -242 -167 -386q-55 -48 -127 -80l-88 40q214 128 214 427q0 133 -69.5 250t-199.5 117t-183 -91q-18 -31 -18 -73v-652h-160v566q0 96 -62.5 167t-155.5 71q-133 0 -185 -76q-19 -28 -19 -68v-660h-163v614
q0 88 -83.5 140t-179.5 52q-181 0 -271.5 -109.5t-110.5 -302.5l6 -1q40 141 220 141q108 0 173 -87.5t65 -201t-73 -190.5t-196 -77t-198 121q-63 101 -63 234q0 266 130 427.5t376 161.5q111 0 167 -24q102 -42 153 -128q91 148 288 148q104 0 157 -22q95 -40 145 -116z
M390 96q99 0 142 91q12 27 12 81.5t-36.5 111t-107.5 56.5t-109.5 -49.5t-38.5 -120.5q0 -115 78 -156q26 -14 60 -14z" />
    <glyph glyph-name="th1" unicode="&#xd24;" horiz-adv-x="1567" 
d="M1232 14q177 140 177 402q0 72 -24 152t-72 140q-105 133 -287 133q-59 0 -117 -16q157 -122 201 -327q13 -65 13 -132q0 -150 -80 -266t-222.5 -116t-219 110t-76.5 255q0 207 110 362q37 52 87 94q-51 18 -123.5 18t-141 -35t-115.5 -94q-96 -119 -96 -295.5
t109 -308.5q36 -43 83 -76l-68 -32q-158 108 -206 315q-14 63 -14 146.5t32 174t92 158.5q130 147 337 147q118 0 220 -49q108 49 226 49q229 0 369.5 -146t140.5 -369q0 -135 -57 -246.5t-176 -179.5zM929 603.5q-47 106.5 -135 165.5q-143 -102 -182 -293
q-12 -59 -12 -108q0 -108 43.5 -185t138 -77t144.5 87t50 195.5t-47 215z" />
    <glyph glyph-name="th2" unicode="&#xd25;" horiz-adv-x="1427" 
d="M1427 0h-1277v902h161v-832h274v432q0 184 124 302t306 118t297 -106.5t115 -283.5v-532zM1269 70v422q0 135 -86 229.5t-226 94.5t-213 -102t-73 -256v-388h598z" />
    <glyph glyph-name="th3" unicode="&#xd26;" horiz-adv-x="996" 
d="M860 464q136 -74 136 -212t-99.5 -205.5t-218 -67.5t-206.5 47l1 111q58 -62 177 -62t160 91q14 29 14 66q0 73 -48 119.5t-118 46.5h-124v94h46q244 0 244 153q0 81 -76.5 129.5t-150.5 48.5q-130 0 -214 -73q-147 -126 -147 -411q0 -136 60 -339l-82 -18
q-23 95 -43.5 190.5t-20.5 200.5q0 228 124.5 389.5t353.5 161.5q133 0 250.5 -72t117.5 -196q0 -69 -35.5 -119t-100.5 -73z" />
    <glyph glyph-name="th4" unicode="&#xd27;" horiz-adv-x="1500" 
d="M504 856q-205 -130 -205 -415q0 -127 70.5 -244t191.5 -117q87 0 156 48.5t69 131.5v642h160v-564q0 -161 104 -215q37 -19 98.5 -19t112.5 36.5t84 91.5q65 110 65 248q0 195 -128 318q-43 40 -100 68l56 52q262 -149 262 -478q0 -182 -105.5 -322t-292 -140t-276.5 144
q-87 -144 -274 -144t-294.5 145.5t-107.5 324.5q0 240 158 386q53 49 124 84z" />
    <glyph glyph-name="n1" unicode="&#xd28;" horiz-adv-x="1516" 
d="M836 768q88 154 276 154t296 -141t108 -335q0 -233 -169 -384q-54 -49 -123 -80l-68 62q194 126 194 412q0 145 -69 252.5t-207 107.5q-76 0 -130 -44.5t-54 -119.5v-652h-158v566q0 90 -57.5 158t-137.5 68q-145 0 -222 -103t-77 -248q0 -301 230 -409l-58 -50
q-260 136 -260 471q0 189 112 329t298 140q141 0 230 -86q30 -29 46 -68z" />
    <glyph glyph-name="n2" unicode="&#xd29;" horiz-adv-x="1596" 
d="M936 788q56 131 250 131t302 -139.5t108 -333.5q0 -234 -170 -384q-54 -49 -122 -80l-68 62q194 126 194 412q0 145 -69 252.5t-207 107.5q-77 0 -115.5 -45t-38.5 -119v-652h-158v566q0 113 -61 177.5t-189.5 64.5t-232.5 -96.5t-118 -238.5q65 86 181 86t189 -88.5
t73 -206.5t-67.5 -200t-183.5 -82q-153 0 -225 129q-58 103 -58 240q0 256 127.5 412t352.5 156q111 0 162 -18q96 -34 144 -113zM502 394q-46 57 -115 57q-100 0 -137 -137q-4 -17 -4 -27t3.5 -24.5t11 -52t42.5 -81.5t81 -44q77 0 120.5 57.5t43.5 126t-46 125.5z" />
    <glyph glyph-name="p1" unicode="&#xd2a;" horiz-adv-x="1581" 
d="M851 275q0 -113 -79 -205h651v832h158v-902h-1032v44q100 42 131 152q9 34 9 75q0 89 -56.5 149t-155 60t-166.5 -70t-68 -189t108 -191l-58 -48q-67 49 -105 122.5t-38 153.5q0 157 100.5 252t253 95t250 -90t97.5 -240z" />
    <glyph glyph-name="p2" unicode="&#xd2b;" horiz-adv-x="1925" 
d="M850 278q0 -111 -79 -208h322v462q0 171 115.5 280.5t294.5 109.5t300.5 -119.5t121.5 -302.5v-500h-1368v34q63 32 97 93t34 119q0 108 -59 171t-158 63t-164 -71t-65 -177q0 -61 27.5 -115t79.5 -87l-57 -48q-67 48 -104.5 121.5t-37.5 154.5q0 157 98.5 251.5
t251 94.5t251.5 -89.5t99 -236.5zM1766 70v388q0 246 -160 326q-57 29 -130 29q-136 0 -214.5 -94.5t-78.5 -226.5v-422h583z" />
    <glyph glyph-name="p3" unicode="&#xd2c;" horiz-adv-x="2014" 
d="M241 473q65 86 181 86t189 -88.5t73 -206t-68 -200t-183 -82.5q-153 0 -225 130q-58 104 -58 240q0 255 127.5 411t352.5 156q108 0 179 -31t137 -110q49 75 112.5 109.5t157.5 34.5q184 0 289.5 -132t105.5 -320.5t-79 -319.5q-29 -47 -71 -80h393v832h160v-902h-758v44
q194 84 194 412q0 145 -69 252.5t-207 107.5q-75 0 -119.5 -44.5t-44.5 -119.5v-652h-163v566q0 114 -63.5 178t-192 64t-232.5 -96.5t-118 -238.5zM289 145q38 -60 108 -60t109 54.5t39 129.5t-42 128.5t-112.5 53.5t-105 -51.5t-34.5 -123t38 -131.5z" />
    <glyph glyph-name="p4" unicode="&#xd2d;" horiz-adv-x="1014" 
d="M664 336l167 16q72 0 127.5 -52t55.5 -126q0 -132 -184.5 -177t-455.5 15l-18 96q125 -38 276 -38t206 60q14 16 14 48t-38 57t-82 25l-146 -8q-75 0 -132.5 51t-57.5 124t54.5 118t127.5 45q24 0 47 -3.5l46 -7l46 -7t51.5 -3.5t57 26.5t28.5 66.5q0 79 -80 118.5
t-179 39.5q-185 0 -283 -144q-86 -125 -86 -320q0 -92 19.5 -180t42.5 -176l-86 -18q-52 250 -52 377q0 257 124 410t366 153q140 0 257 -71t117 -204q0 -77 -47 -122t-123 -45q-34 0 -89 15t-81 15q-118 0 -118 -82q0 -42 32 -67t76 -25z" />
    <glyph glyph-name="m1" unicode="&#xd2e;" horiz-adv-x="1060" 
d="M1060 0h-910v410q0 263 89 380q102 135 358 135q356 0 437 -283q26 -92 26 -210v-432zM902 70v388q0 185 -60 276q-74 111 -250 109q64 -43 103 -109t39 -146q0 -141 -120 -292q-76 -97 -236 -226h524zM236 70q350 249 350 552q0 116 -79 163q-27 16 -68 16
q-78 0 -129 -66q-74 -97 -74 -303v-362z" />
    <glyph glyph-name="y1" unicode="&#xd2f;" horiz-adv-x="1596" 
d="M1416 926q180 -159 180 -420q0 -226 -136 -375t-362 -149q-86 0 -168 35q-140 -35 -229.5 -35t-195.5 36.5t-185 105.5q-170 148 -170 396q0 159 82.5 282t233.5 123t244 -176q45 86 126.5 131t164.5 45q145 0 232 -113t87 -250q0 -326 -286 -480q38 -12 111.5 -12
t142.5 38.5t117 100.5q99 128 99 297q0 235 -154 368zM1140 384q12 56 12 108q0 124 -44 210q-57 109 -160 109q-107 0 -164.5 -96t-57.5 -209q0 -191 122 -316q41 -42 94 -72q156 76 198 266zM832 82q-102 55 -171 180t-69 245q0 216 -110 277q-26 15 -68.5 15t-77 -30
t-64.5 -92t-30 -166q0 -203 131.5 -322t338.5 -119q76 0 120 12z" />
    <glyph glyph-name="r3" unicode="&#xd30;" horiz-adv-x="1071" 
d="M356 -14q-206 140 -206 429q0 212 117.5 360t332 148t343 -144.5t128.5 -367.5q0 -164 -61 -280q-76 -145 -217 -145t-219 99.5t-78 232.5q0 323 239 428q-66 36 -151 36q-158 0 -247 -124t-89 -287q0 -212 166 -344zM818 682q-110 -27 -170.5 -119.5t-60.5 -198
t31 -156.5q58 -97 142 -97q81 0 124 105q33 79 33 165q0 191 -99 301z" />
    <glyph glyph-name="rh" unicode="&#xd31;" horiz-adv-x="1041" 
d="M419 -18q-269 127 -269 466q0 202 122.5 339t321.5 137t323 -141t124 -342q0 -243 -179 -386q-57 -46 -130 -73l-48 80q148 72 193 241q14 52 14 113q0 141 -89 259t-233.5 118t-236.5 -120t-92 -271q0 -192 128 -306q42 -38 98 -62z" />
    <glyph glyph-name="l3" unicode="&#xd32;" horiz-adv-x="1440" 
d="M298 398h620v98q0 146 -98 238.5t-237 92.5t-212 -90.5t-73 -226.5v-112zM1440 902v-902h-1290v466q0 198 99.5 328.5t295 130.5t323.5 -113.5t128 -305.5v-176h-698v-260h982v832h160z" />
    <glyph glyph-name="lh" unicode="&#xd33;" horiz-adv-x="1136" 
d="M1136 624q0 -174 -119 -222q119 -57 119 -194q0 -112 -72.5 -179t-185.5 -67h-486q-118 0 -118 -82q0 -66 76 -90q21 -6 42 -6h728v-114h-728q-153 0 -204 99q-18 35 -18 84q0 93 62.5 145t159.5 52h384q129 0 178 92q17 30 17 75t-25.5 83.5t-71.5 38.5h-84v117h76
q48 0 76 49t28 105q0 108 -92 161t-186 53q-178 0 -299 -70.5t-157 -207.5l4 -1q49 111 204 111q43 0 87 -21.5t75 -58.5q62 -76 62 -187t-70.5 -187t-188.5 -76t-188.5 86.5t-70.5 210.5q0 239 145.5 369t384.5 130q154 0 293 -76q99 -53 141 -136q22 -44 22 -86zM276 430
q0 -204 123 -204q60 0 91.5 51t31.5 118q0 106 -70 155q-23 16 -66 16t-76.5 -46.5t-33.5 -89.5z" />
    <glyph glyph-name="zh" unicode="&#xd34;" horiz-adv-x="1073" 
d="M314 189q33 -115 186 -115q41 0 79 24.5t38 73.5t-13 88q-180 0 -317 96t-137 278t172 288l54 -60q-105 -91 -105 -233.5t88.5 -220.5t220.5 -78q-82 120 -82 267t77 236.5t205.5 89.5t210.5 -87.5t82 -217.5t-94 -220t-233 -126q19 -51 19 -100q0 -90 -77 -139t-146 -49
q-118 0 -177 31.5t-103 110.5zM937.5 749q-42.5 63 -114.5 63q-76 0 -125.5 -60t-49.5 -136q0 -173 74 -282q108 21 183 94.5t75 165.5t-42.5 155z" />
    <glyph glyph-name="v1" unicode="&#xd35;" horiz-adv-x="1430" 
d="M704 62q181 102 181 376q0 138 -91 245t-236 107t-231.5 -119t-86.5 -269q0 -192 128 -306q42 -38 98 -62l-47 -52q-269 127 -269 466q0 202 123 339.5t321 137.5q199 0 323 -141t124 -331t-79 -309q-28 -44 -70 -74h378v832h160v-902h-726v62z" />
    <glyph glyph-name="z1" unicode="&#xd36;" horiz-adv-x="1586" 
d="M451 873q-208 -120 -208 -394q0 -137 70.5 -252t198.5 -115q102 0 150 88q39 70 39 181v186q0 158 125 257t286 99q217 0 345.5 -145t128.5 -367q0 -161 -64 -283q-79 -148 -219.5 -148t-219 102t-78.5 236q0 331 249 432q-71 46 -145 46q-132 0 -196 -92.5t-64 -218.5
v-207q0 -127 -96.5 -212.5t-204.5 -85.5q-190 0 -294 141.5t-104 320.5q0 342 252 483zM1329 682q-110 -27 -171.5 -119.5t-61.5 -196.5t31 -156.5t63.5 -75.5t78.5 -23q81 0 124 105q33 79 33 165q0 178 -97 301z" />
    <glyph glyph-name="sh" unicode="&#xd37;" horiz-adv-x="1805" 
d="M767 70h414v284q-123 0 -224.5 90.5t-101.5 205.5t72 194.5t164 79.5q159 0 209 -107q33 -69 33 -239q0 -35 -1.5 -69t-2.5 -69q136 41 240.5 173t153.5 289h82v-902h-1232v44q118 64 118 230q0 92 -57 149t-155 57t-164.5 -70t-66.5 -190t107 -190l-62 -48
q-143 105 -143 268.5t100 258t253 94.5t251.5 -90t98.5 -222.5t-86 -220.5zM1655 588q-144 -180 -326 -222v-296h326v518zM1181 678q0 132 -112 132q-50 0 -79 -47t-29 -99q0 -97 62.5 -159.5t157.5 -70.5v244z" />
    <glyph glyph-name="s1" unicode="&#xd38;" 
d="M1716 915q286 -139 286 -512q0 -168 -90 -294t-252.5 -126t-262.5 89.5t-100 251.5v216q0 196 -113 262q-43 24 -94 24q-91 0 -156.5 -55.5t-65.5 -132.5v-637h-159v571q0 159 -121 212q-39 18 -95 18t-104.5 -34t-82.5 -85q-68 -104 -68 -225q0 -318 236 -425l-56 -50
q-268 140 -268 494q0 181 106.5 316t281.5 135t290 -152q99 148 264 148t259 -92t94 -245v-224q0 -176 112 -237q40 -21 103 -21q124 0 186 100.5t62 236.5q0 222 -137 352q-47 44 -111 73z" />
    <glyph glyph-name="h1" unicode="&#xd39;" horiz-adv-x="1953" 
d="M1197 70q-158 146 -158 359t133.5 355t337.5 142t323.5 -137.5t119.5 -344.5q0 -253 -167 -390q-57 -47 -133 -72l-58 80q140 70 184 246q13 53 13 116q0 144 -89 251t-236 107t-242.5 -108.5t-95.5 -250.5q0 -206 141 -311q48 -36 111 -58v-54h-858v34q107 36 140 152
q10 35 10 76q0 89 -56.5 149.5t-152 60.5t-157 -67t-61.5 -166q0 -137 109 -209l-62 -48q-68 49 -105.5 122.5t-37.5 153.5q0 152 99.5 244t244.5 92t250 -87.5t105 -214.5t-82 -222h430z" />
    <glyph glyph-name="rh_half" unicode="&#xd3a;" horiz-adv-x="773" 
d="M544 0q-28 0 -28 -28l-3 -207q0 -43 -42 -49q-13 -1 -30 -1t-34 14.5t-16 35.5l9 209q2 26 -38 26h-96q-79 0 -107 76q-8 23 -8 40.5t-1 29.5t1 21l120 652q18 95 97 95q16 0 31.5 -0.5t31.5 -0.5l-186 -767q-1 -4 -1 -16.5t10 -25t27 -11.5q95 3 190 8t153.5 5t79 -7.5
t45 -29t24.5 -67.5z" />
    <glyph glyph-name="verticalbarvirama" unicode="&#xd3b;" horiz-adv-x="0" 
d="M-713 1511l-45 -423h-76l-42 431v9q-2 37 14 71q32 62 69.5 62t59 -47.5t21.5 -70t-1 -32.5z" />
    <glyph glyph-name="circularvirama" unicode="&#xd3c;" horiz-adv-x="184" 
d="M454 1051q0 -65 -48.5 -108t-113 -43t-113 41t-48.5 106.5t47 109t112 43.5t114.5 -43t49.5 -106zM380 1050q0 39 -25.5 63t-63.5 24t-63 -24.5t-25 -63.5t25.5 -61t63.5 -22t63 22.5t25 61.5z" />
    <glyph glyph-name="avagraha" unicode="&#xd3d;" horiz-adv-x="1043" 
d="M1000 976q-19 -15 -56.5 -15t-64 39t-26.5 82t16 72q-74 -4 -123 -249q-29 -138 -78.5 -523.5t-101.5 -571.5q-90 -313 -265 -313q-161 0 -161 160q0 88 62 125q21 12 57.5 12t61 -37.5t24.5 -81t-21 -74.5q52 2 90 147q53 206 71 352q62 523 87 642q53 245 118 360
q88 156 213 156q69 0 110.5 -37t41.5 -120t-55 -125z" />
    <glyph glyph-name="a2" unicode="&#xd3e;" horiz-adv-x="824" 
d="M157 558q-2 10 -2 48.5t21 100.5t60 110q87 105 225 105q225 0 321 -246q39 -99 39 -185q0 -307 -152 -442q-80 -71 -204 -71q-129 0 -216.5 97.5t-91.5 228.5h72q11 -85 46 -128q65 -78 146 -78q151 0 213 206q23 77 23 143q0 150 -43 248q-58 129 -180 129
q-93 0 -150 -76.5t-57 -171.5v-6.5t2 -11.5h-72z" />
    <glyph glyph-name="i1" unicode="&#xd3f;" horiz-adv-x="366" 
d="M-158 958q-2 24 -2 64.5t19 87.5t53 81q69 71 183 71t191.5 -70t77.5 -182v-1009h-159v992q0 67 -42.5 117t-95.5 50q-87 0 -123.5 -61t-31.5 -139z" />
    <glyph glyph-name="i2" unicode="&#xd40;" horiz-adv-x="365" 
d="M365 1061l-6 -1060h-151l-1 1043q0 130 -89 174q-30 15 -68.5 15t-71.5 -9q105 -11 149 -85q15 -25 15 -71.5t-45 -84t-114.5 -37.5t-121 45.5t-51.5 109.5q0 111 79.5 165t159.5 54q146 0 231 -69t85 -190zM-28 1180q-72 0 -72 -77q0 -36 25 -63t53 -27q45 0 72 25.5
t27 61.5t-35 58t-70 22z" />
    <glyph glyph-name="u1" unicode="&#xd41;" horiz-adv-x="654" 
d="M626 448q0 -272 -150 -402q123 -28 164 -137q14 -35 14 -83q0 -103 -69.5 -167t-180.5 -64q-173 0 -234 138q-20 44 -20 95q0 92 57 150.5t143 72.5q174 106 174 351q0 208 -138 316q-46 36 -110 51l-24 152q277 -54 350 -301q24 -79 24 -172zM350 -297q110 0 145 80
q11 25 11 68.5t-40 85t-99 41.5q-91 0 -128 -86q-11 -25 -11 -69.5t38 -82t84 -37.5z" />
    <glyph glyph-name="u2" unicode="&#xd42;" horiz-adv-x="730" 
d="M666 448q0 -260 -137 -390q89 -24 145 -93t56 -144q0 -134 -84 -212t-206 -78t-206 78t-84 192t77 187t190 81q148 110 148 325.5t-137 323.5q-47 36 -111 51l-24 152q183 -35 278 -159t95 -314zM482 -98q0 36 -25 61.5t-61 25.5t-61 -25.5t-25 -61.5t25.5 -60.5
t60.5 -24.5t60.5 24.5t25.5 60.5zM293 -28q-73 -56 -73 -141.5t55 -139t133 -53.5q77 0 132 53t55 115t-20 102q1 -5 1 -6v-26q0 -53 -45.5 -94.5t-111.5 -41.5q-105 0 -145 88q-12 27 -12 67t31 77zM423 -15l1 -1z" />
    <glyph glyph-name="r1" unicode="&#xd43;" horiz-adv-x="818" 
d="M818 -123.5q0 -61.5 -31 -117t-83 -86.5q-92 -54 -267 -54t-257 89q-30 34 -30 82q0 82 84 122q66 31 141 31q159 0 246 -85l-41 -60q-47 78 -161 78q-75 0 -103 -46q-11 -16 -11 -42q0 -50 43 -71.5t103 -21.5q109 0 158.5 48.5t49.5 158.5q0 78 -110 196t-110 221v538
h139v-503q0 -113 120 -246q74 -82 97 -126t23 -105.5z" />
    <glyph glyph-name="r2" unicode="&#xd44;" horiz-adv-x="821" 
d="M591 -221q-52 88 -192 88q-39 0 -76 -25t-37 -67q0 -121 160 -121q127 0 180.5 58t53.5 184q0 72 -49 146q-21 31 -45 62q-94 119 -94 215v536h134v-501q0 -112 98 -242q58 -78 77.5 -126.5t19.5 -118.5t-27.5 -131t-77.5 -96q-87 -60 -277 -60t-261 96q-28 37 -28 90
q0 93 67 134t149 41q172 0 267 -97zM432 -180q21 15 54.5 15t57 -22.5t23.5 -60t-31.5 -59.5t-59.5 -22q-102 0 -105 55h36q2 -29 38 -29q72 0 72 59q0 18 -10.5 33.5t-27.5 15.5t-23 -7.5t-7 -18t0.5 -22.5t1.5 -22h-51v19q3 52 -24 52q-33 0 -33 -44q0 -5 6 -26l-32 -2
q-6 15 -6 31q0 70 74 70q26 0 47 -15z" />
    <glyph glyph-name="e1" unicode="&#xd46;" horiz-adv-x="1104" 
d="M766 22q177 134 177 405q0 154 -89 267t-243 113t-256 -102t-114 -251q34 46 85 75.5t110 29.5q112 0 180 -88t68 -206t-68 -200.5t-183 -82.5q-153 0 -225 130q-58 104 -58 240q0 255 127.5 411t343 156t350.5 -139q63 -64 98 -152.5t35 -174.5q0 -154 -69.5 -277.5
t-188.5 -197.5zM381 451q-67 0 -103.5 -48t-36.5 -119q0 -75 28 -119q52 -81 120 -81t110.5 58.5t42.5 126.5t-46 125t-115 57z" />
    <glyph glyph-name="e2" unicode="&#xd47;" horiz-adv-x="902" 
d="M620 67q-75 52 -75 139.5t53.5 140t133.5 52.5t124.5 -47.5t44.5 -147.5t-95.5 -163.5t-205.5 -63.5q-206 0 -327.5 131t-121.5 343.5t119.5 342t312.5 129.5q121 0 209 -58q109 -71 109 -198.5t-104 -167.5q-32 -12 -70 -12q-78 0 -129 49t-51 134.5t74 160.5
q-28 12 -72 12q-81 0 -138 -61.5t-85 -152.5t-28 -170q0 -165 68.5 -284.5t201.5 -119.5q28 0 52 12zM728 563q102 0 102 125q0 67 -70 107q-18 11 -36 16q-73 -48 -73 -164q0 -52 49 -77q13 -7 28 -7zM821 175.5q9 22.5 9 58t-26 62.5t-65 27t-63.5 -27.5t-24.5 -70.5
q0 -93 73 -140q43 11 65.5 39.5t31.5 51z" />
    <glyph glyph-name="ai1" unicode="&#xd48;" horiz-adv-x="2169" 
d="M1831 22q177 134 177 405q0 154 -89 267t-243 113t-256 -102t-114 -251q34 46 85 75.5t109 29.5q113 0 181 -88t68 -206t-68 -200.5t-183 -82.5q-153 0 -225 130q-58 104 -58 240q0 255 127.5 411t343 156t350.5 -139q63 -64 98 -152.5t35 -174.5q0 -154 -69.5 -277.5
t-188.5 -197.5zM766 22q177 134 177 405q0 154 -89 267t-243 113t-256 -102t-114 -251q34 46 85 75.5t110 29.5q112 0 180 -88t68 -206t-68 -200.5t-183 -82.5q-153 0 -225 130q-58 104 -58 240q0 255 127.5 411t343 156t350.5 -139q63 -64 98 -152.5t35 -174.5
q0 -154 -69.5 -277.5t-188.5 -197.5zM1446 451q-67 0 -103.5 -48t-36.5 -119q0 -75 28 -119q52 -81 120 -81t110.5 58.5t42.5 126.5t-46 125t-115 57zM381 451q-67 0 -103.5 -48t-36.5 -119q0 -75 28 -119q52 -81 120 -81t110.5 58.5t42.5 126.5t-46 125t-115 57z" />
    <glyph glyph-name="o1" unicode="&#xd4a;" horiz-adv-x="2296" 
d="M2296 190q0 -126 -88 -212t-214 -86h-1544q-126 0 -213 87t-87 211v686q0 126 87 213t213 87h1544q124 0 213 -87.5t89 -212.5v-686zM2208 282v506q0 125 -87 213.5t-213 88.5h-1372q-126 0 -212 -88t-86 -214v-506q0 -122 87 -209t211 -87h1372q125 0 212.5 85.5
t87.5 210.5zM1790 890q288 0 288 -366q0 -388 -274 -388q-132 0 -191.5 61.5t-58.5 192.5h62q12 -79 30 -104q35 -48 102 -48q117 0 158 94q26 60 26 194q0 286 -150 286q-127 0 -154 -124q-8 -37 -12 -78h-62v4q0 137 51 206.5t185 69.5zM1478 446h-176v84h176v-84z
M418 464q81 118 200 118q94 0 160 -72.5t66 -166.5t-60 -150.5t-141 -56.5t-132.5 20t-88.5 68q-70 90 -70 192q0 201 119 337.5t301.5 136.5t321 -103.5t138.5 -276.5q0 -214 -238 -386l-94 38q176 125 176 322q0 135 -94 225.5t-231 90.5t-228.5 -93.5t-110.5 -234.5z
M560 230q109 0 148 77q12 25 12 70.5t-38.5 86t-96 40.5t-84.5 -22q-57 -48 -57 -104t27 -88q49 -60 89 -60z" />
    <glyph glyph-name="o2" unicode="&#xd4b;" horiz-adv-x="2114" 
d="M2114 190q0 -124 -87 -211t-213 -87h-1364q-126 0 -213 87t-87 211v686q0 126 87 213t213 87h1364q125 0 212.5 -87.5t87.5 -212.5v-686zM2042 258v530q0 127 -87.5 214.5t-214.5 87.5h-1196q-126 0 -213 -87t-87 -215v-530q0 -124 88 -210t212 -86h1196q126 0 214 86
t88 210zM1588 890q286 0 286 -368q0 -390 -272 -390q-134 0 -192.5 63t-57.5 195h60q21 -123 80 -144q24 -8 78 -8q98 0 134 101q24 65 24 185q0 284 -152 284q-129 0 -152 -122q-7 -36 -12 -78h-60v6q0 137 52 206.5t184 69.5zM1276 446h-178v82h178v-82zM772 206
q-56 37 -56 112.5t44.5 114.5t115.5 39q99 0 136 -76q12 -25 12 -68.5t-28.5 -81.5t-91.5 -72t-162 -34q-190 0 -287 99t-97 276t96 277t277.5 100t262.5 -100q30 -37 30 -94q0 -148 -140 -148q-119 0 -156 84q-12 29 -12 68q0 78 56 122q-22 12 -62 12q-214 0 -214 -321
t214 -321q32 0 62 12zM884 606q80 0 80 94.5t-94 111.5q-39 -17 -52 -80q-4 -16 -4 -30q0 -96 70 -96zM884 418q-70 0 -70 -84t56 -116q94 24 94 122q0 52 -50 72q-14 6 -30 6z" />
    <glyph glyph-name="au1" unicode="&#xd4c;" horiz-adv-x="1358" 
d="M717 808q89 110 265.5 110t276 -138.5t99.5 -314.5q0 -216 -138 -350t-354 -134q-136 0 -240 50q-162 80 -168 208h92q4 -84 96.5 -131t182.5 -47q171 0 265.5 118.5t94.5 269.5t-57 249q-68 118 -187.5 118t-160.5 -92q-14 -29 -14 -66v-276h-172v214q0 147 -84 206
q-31 21 -85 21q-105 0 -160 -106q-42 -81 -42 -177t16 -156l-73 -7q-20 60 -20 145q0 179 80 288.5t235.5 109.5t251.5 -112z" />
    <glyph glyph-name="xx" unicode="&#xd4d;" horiz-adv-x="42" 
d="M313 1272q9 -36 9 -88q0 -107 -84 -173t-202 -66t-204 63.5t-86 177.5q0 53 15 86h153q-13 -29 -13 -64q0 -70 44 -110.5t96 -40.5q92 0 141 45.5t49 119.5q0 24 -8 50h90z" />
    <glyph glyph-name="dotreph" unicode="&#xd4e;" horiz-adv-x="0" 
d="M-897 1257q52 50 89 50t92 -50v-62q-36 -107 -88.5 -107t-92.5 107v62z" />
    <glyph glyph-name="para" unicode="&#xd4f;" horiz-adv-x="1590" 
d="M997 805q71 165 239 165q118 0 199 -75t115.5 -190t34.5 -231q0 -230 -74 -412t-227.5 -291t-359.5 -109q-379 0 -577.5 227t-198.5 572q0 210 67 386l64 -51q-58 -149 -58 -310q0 -315 169 -508t476 -193q300 0 456 197q138 175 138 467q0 155 -58 266q-72 141 -212 141
q-68 0 -108.5 -51t-40.5 -121v-685h-136v594q0 118 -30 165.5t-67.5 68t-101.5 20.5q-121 0 -200.5 -109.5t-88.5 -241.5q50 90 149.5 90t154 -99.5t54.5 -209.5t-34.5 -174t-73 -93t-91.5 -29q-95 0 -152 75q-81 109 -81 332t85 384q105 198 311.5 198t257.5 -165z
M452.5 160.5q31.5 -72.5 89.5 -72.5t90.5 64.5t32.5 129t-35 128t-90 63.5t-87 -58t-32 -120t31.5 -134.5z" />
    <glyph glyph-name="m1cil" unicode="&#xd54;" horiz-adv-x="1074" 
d="M719 384q143 -174 352 -331v-53h-912v443q0 349 132 463q-79 205 -104 367h148q18 -131 72 -307q46 11 103 11q113 0 203 -110t90 -231.5t-84 -251.5zM617 520q23 75 23 152t-41 135.5t-117 58.5q-22 0 -40 -4q72 -190 175 -342zM253 76q223 156 318 333
q-142 182 -234 388q-84 -103 -84 -330v-391zM900 76q-128 103 -241 228q-92 -106 -249 -228h490z" />
    <glyph glyph-name="y1cil" unicode="&#xd55;" horiz-adv-x="1562" 
d="M954 86q38 -12 101 -12t124.5 31t105.5 86q92 115 92 288q0 130 -112.5 288.5t-112.5 272t66.5 178t157.5 64.5q57 0 100.5 -18t84.5 -67l-45 -64q-43 45 -87 45q-78 0 -124 -52t-46 -117t35.5 -124.5t59.5 -100.5q96 -160 96 -292q0 -249 -118.5 -379.5t-320.5 -130.5
q-77 0 -151 36q-113 -36 -199.5 -36t-182 38.5t-166.5 111.5q-154 155 -154 414q0 168 75 296.5t211 128.5t218 -185q60 133 191 172q41 13 93.5 13t103 -34.5t86.5 -89.5q75 -115 75 -257q0 -343 -257 -504zM1048 404q12 60 12 114q0 129 -40 219q-50 115 -144 115
q-95 0 -147.5 -101t-52.5 -192q0 -306 195 -435q139 78 177 280zM772 86q-95 61 -155.5 188.5t-60.5 257.5q0 191 -77 274q-30 33 -76 33q-82 0 -127 -108q-35 -85 -35 -193q0 -212 118.5 -338t304.5 -126q68 0 108 12z" />
    <glyph glyph-name="zhcil" unicode="&#xd56;" horiz-adv-x="1256" 
d="M346 787q-74 -92 -74 -213q0 -206 177 -281q99 -42 194.5 -47.5t154.5 -5.5q139 0 248.5 67.5t109.5 212t-78 205.5q-26 21 -64 21q-73 0 -114 -58t-41 -136t23.5 -135.5t54 -112t59.5 -111t39 -125.5q18 -128 -88 -209t-209 -81q-180 0 -272 120t-92 312.5t146 460.5
q37 69 91 168t54 143q0 80 -39.5 123t-97.5 43q-114 0 -161 -112l-51 29q27 150 154 197q39 15 82 15q91 0 153.5 -64.5t62.5 -168.5q0 -138 -157 -384.5t-157 -407.5t63 -271.5t185 -110.5q74 0 138.5 66t53.5 129t-28.5 109t-37.5 83t-40 69t-47 87.5t-27 129.5
q0 142 69 233t193.5 91t202 -105.5t77.5 -251.5q0 -180 -158 -277q-134 -83 -353 -83t-383 80q-126 62 -179 185q-27 63 -27 150q0 169 113 284z" />
    <glyph glyph-name="au2" unicode="&#xd57;" horiz-adv-x="1248" 
d="M671 816q82 107 241 107t250 -140t91 -318q0 -218 -125.5 -353.5t-322.5 -135.5q-123 0 -218 51q-149 81 -154 217h5h83h5q3 -86 84.5 -132t161.5 -46q152 0 235.5 116.5t83.5 296t-93 277.5q-52 55 -124 55q-102 0 -138 -88q-12 -29 -12 -65v-276v-5h-5h-155h-5v5v214
q0 145 -73 202q-27 20 -74 20q-91 0 -139 -103q-38 -80 -38 -175t16 -160l-6 -1l-65 -7h-5q-19 64 -19 150q0 282 163 371q58 32 139 32q127 0 213 -109z" />
    <glyph glyph-name="arakaani" unicode="&#xd58;" horiz-adv-x="1797" 
d="M774 131q-77 -150 -242 -150q-97 0 -167 77t-102 187t-32 196q0 168 52.5 309t159.5 217l57 -53q-141 -86 -177 -308q-10 -63 -10 -132.5t20 -144.5q57 -213 209 -213q74 0 110.5 67.5t36.5 148.5v566h128v-599q0 -69 27 -115q51 -88 123 -88t116 65.5t44 149.5v587h128
v-593q0 -78 48 -144.5t112 -66.5t101.5 27.5t73.5 88t54.5 177t18.5 199.5q0 347 -165 512q-89 89 -228 89q-64 0 -128 -25l-38 86q75 27 162 27q173 0 295 -97t181 -254.5t59 -355.5t-57 -350q-89 -240 -279 -240q-162 0 -254 153q-31 -69 -91.5 -109.5t-115.5 -40.5
q-155 0 -230 150z" />
    <glyph glyph-name="aramaa" unicode="&#xd59;" horiz-adv-x="1389" 
d="M326 -23q-173 165 -173 455q0 368 211 495q74 45 176 45q195 0 301.5 -123t106.5 -322h98q-21 60 -21 117q0 105 53.5 172t137 67t130.5 -66t47 -162.5t-45.5 -164t-123.5 -67.5h-271v-191q0 -101 -55.5 -176t-149.5 -75t-151.5 89.5t-57.5 203t57 183.5t151 70h69v12
q3 222 -154 293q-52 24 -129 24t-133 -40q-151 -107 -151 -411q0 -246 129 -386zM1276 652q0 83 -52 118q-17 12 -48 12t-56 -39t-25 -89q0 -79 53 -114q16 -11 37 -11q41 0 66 36.5t25 86.5zM823 243v180h-100q-50 0 -75 -44t-25 -106q0 -111 52 -160q19 -18 57.5 -18
t64.5 44t26 104z" />
    <glyph glyph-name="muunnukaani" unicode="&#xd5a;" horiz-adv-x="1401" 
d="M494 972q113 0 203 -104q93 98 223 102q40 2 83 2q319 0 382 -314q20 -101 20 -227v-433h-678v73q281 251 281 571q0 120 -64 174q-23 18 -61 18q-78 0 -118 -64.5t-38 -169.5h-90q5 238 -161 238q-117 0 -182 -122q-54 -102 -54 -251q0 -203 92 -350q32 -50 75 -85
l-50 -51q-148 122 -189 364q-13 73 -13 155q0 190 88.5 332t250.5 142zM1022 868q109 -94 109 -254t-79.5 -287.5t-207.5 -255.5h425v377q0 190 -34.5 269.5t-83 115.5t-129.5 35z" />
    <glyph glyph-name="orumaa" unicode="&#xd5b;" horiz-adv-x="1387" 
d="M887 887q-163 -107 -163 -395q0 -143 82 -256t212 -113t208.5 124.5t78.5 282.5q0 201 -114 321q-38 40 -89 66l42 54q242 -136 242 -489q0 -212 -111 -356t-289.5 -144t-290 147.5t-111.5 347.5q0 289 134 402h-420v-874h-144v947h733v-65z" />
    <glyph glyph-name="rantumaa" unicode="&#xd5c;" horiz-adv-x="2198" 
d="M362 -18q-207 165 -207 504q0 175 83.5 331t235.5 156q115 0 196 -108t81 -255v-239q0 -186 97 -263q35 -27 88 -27q99 0 146 103q36 80 36 201v204q0 151 79 267.5t203.5 116.5t211.5 -98.5t87 -240.5v-193q0 -213 89 -291q34 -30 80 -30q80 0 140 66q110 119 110 358.5
t-172 373.5l45 55q166 -129 200 -349q11 -71 11 -153q0 -181 -92.5 -335t-232.5 -154t-225.5 115.5t-85.5 270.5v228q0 158 -92 216q-30 20 -76 20q-87 0 -138.5 -90t-51.5 -203v-189q0 -155 -83 -263.5t-220 -108.5t-210 118t-73 276v222q0 93 -28 144q-54 96 -128 96
q-138 0 -193 -204q-22 -80 -22 -160q0 -302 166 -440z" />
    <glyph glyph-name="muunnumaa" unicode="&#xd5d;" horiz-adv-x="2911" 
d="M2705 973q206 -143 206 -495q0 -189 -84.5 -343.5t-225.5 -154.5q-104 0 -183 95.5t-79 229.5v220q0 205 -81 280q-32 29 -83 29q-98 0 -151.5 -86t-53.5 -215v-231q0 -148 -75 -235t-205.5 -87t-201.5 111t-71 288v219q0 110 -27 155.5t-57 64t-77 18.5q-91 0 -130 -84
q-29 -65 -29 -196v-224q0 -157 -80.5 -254.5t-198.5 -97.5t-200 90q-27 29 -46 68q-38 -80 -100 -119t-128 -39q-120 0 -207 122l86 77q53 -85 129 -85t131.5 51t55.5 138v664h130v-582q0 -164 94 -228q31 -21 72 -21q79 0 123.5 75.5t44.5 178.5v223q0 263 144 349
q49 30 113 30q129 0 202 -92t73 -254v-200q0 -228 85 -311q34 -34 85 -34q92 0 139.5 82t47.5 194v225q0 170 77.5 280t200.5 110t207 -100.5t84 -249.5v-208q0 -191 79 -259q30 -26 72 -26q75 0 125.5 61t74.5 151t24 177q0 275 -171 401z" />
    <glyph glyph-name="naalumaa" unicode="&#xd5e;" horiz-adv-x="1876" 
d="M1582 923q-103 -50 -103 -200q0 -71 41.5 -122t114 -51t122 60.5t49.5 162.5t-79 162l42 41q105 -88 105 -229.5t-73.5 -222.5t-186 -81t-183.5 77t-71 190t58 190h-208v-228q0 -93 -44.5 -161t-122.5 -68h-115v-211q0 -101 -55.5 -176t-148 -75t-149.5 88.5t-57 205.5
t57.5 194.5t148.5 77.5h68q6 72 -17 132t-59 98q-76 79 -194 79q-147 0 -219 -124.5t-72 -306.5q0 -255 128 -396l-52 -42q-171 165 -171 465q0 222 102 371t276 149t291.5 -119t117.5 -306l82 2q62 3 83 79q6 21 6 44v288h488v-37zM800 243v200h-100q-48 0 -73.5 -53
t-25.5 -117q0 -111 52 -160q19 -18 57 -18t64 44t26 104z" />
    <glyph glyph-name="archaic_ii" unicode="&#xd5f;" horiz-adv-x="2198" 
d="M533 250q0 70 -48 121.5t-114 51.5t-114.5 -50.5t-48.5 -122t47.5 -121t113.5 -49.5t115 50.5t49 119.5zM578.5 60q-74.5 -76 -180.5 -76t-178 78t-72 189t74.5 189t179 78t178 -79.5t73.5 -191t-74.5 -187.5zM1479.5 306q7.5 48 7.5 104.5t-22.5 134t-76.5 137.5
q-110 -27 -170.5 -119.5t-60.5 -198t30.5 -158t63 -76t79 -23.5t76.5 31t48 75.5t25.5 92.5zM926 -13q-206 140 -206 428q0 212 117.5 360t332 148t343 -144.5t128.5 -367.5q0 -164 -61 -281q-76 -147 -217 -147t-219 100.5t-78 234.5q0 323 239 428q-66 36 -151 36
q-158 0 -247 -124t-89 -287q0 -210 166 -344zM2073 250q0 70 -48 121.5t-114 51.5t-114.5 -50.5t-48.5 -122t47.5 -121t113.5 -49.5t115 50.5t49 119.5zM2118.5 60q-74.5 -76 -180.5 -76t-178 77.5t-72 189.5q0 111 74.5 189t179 78t178 -79.5t73.5 -191t-74.5 -187.5z" />
    <glyph glyph-name="ml_rr" unicode="&#xd60;" horiz-adv-x="1368" 
d="M1122 178q246 -44 246 -252q0 -125 -119 -196.5t-362 -94.5q-52 -5 -103 -5q-352 0 -514 103q-120 76 -120 203q0 188 244 238q-244 81 -244 374q0 148 78.5 259t219.5 111q106 0 172 -72t66 -180q0 -183 -138 -244q-46 -20 -106 -20q-123 0 -196 126v-20
q0 -200 188 -264q100 -33 199.5 -35.5t166.5 -2.5q168 0 282 44t154.5 111t39.5 167q-82 -126 -197.5 -126t-181 74t-65.5 182t62 184t151 76q160 0 241.5 -108t81.5 -262q0 -292 -246 -370zM966 668q0 -180 128 -180q60 0 92 52t32 117t-26 103q-48 72 -107.5 72t-89 -50.5
t-29.5 -113.5zM426 488q124 0 124 180q0 106 -62 148q-22 16 -52 16q-57 0 -96.5 -50.5t-39.5 -93.5q0 -86 30 -143t96 -57zM823 136q-515 0 -515 -202q0 -83 88 -137q127 -78 365 -78q144 0 260.5 35.5t164.5 97.5q24 33 24 88.5t-48.5 96t-111.5 58.5q-143 41 -227 41z
M570 39q-151 0 -151 -109q0 -6 6 -27h-53q-10 15 -10 45.5t20.5 59t64 52t138 23.5t155.5 -45q66 47 156.5 47t144.5 -27q104 -52 104 -129q0 -135 -253 -155q-32 -2 -65 -2t-80 5q-164 18 -164 76v16h57v-16q0 -40 180 -40q67 0 125 23q80 32 80 88.5t-48 84t-99 27.5
t-72.5 -7.5t-28.5 -24t-5 -42t2 -62.5h-122v41q0 59 -19.5 78.5t-62.5 19.5z" />
    <glyph glyph-name="ml_ll" unicode="&#xd61;" horiz-adv-x="1983" 
d="M832 566q0 242 -234 242q-135 0 -239 -96.5t-118 -238.5q66 86 181.5 86t188.5 -89t73 -206t-68 -199.5t-183 -82.5q-153 0 -225 130q-58 104 -58 240q0 255 127.5 411t352.5 156q106 0 176.5 -28.5t129.5 -102.5q100 131 285 131q135 0 242.5 -61.5t170.5 -182.5
q163 -35 256 -165.5t93 -301.5q0 -216 -132 -376.5t-344 -160.5q-172 0 -296 79l37 81q101 -63 203 -63q186 0 294.5 142t108.5 311t-98 275q-32 36 -77 60q20 -82 20 -158q0 -165 -73 -280q-86 -137 -234 -137q-121 0 -188.5 93t-67.5 230.5t89 244t236 130.5
q-95 146 -259 146q-82 0 -142 -46t-60 -127v-652h-168v566zM1504 594q-123 -6 -201 -85.5t-78 -200.5q0 -77 27 -121q52 -82 132 -82t124 99q33 76 33 182.5t-37 207.5zM502 394q-46 57 -115 57q-100 0 -137 -137q-4 -17 -4 -27t3.5 -24.5t11 -51.5t41.5 -81.5t81 -44.5
q78 0 121.5 57.5t43.5 126t-46 125.5z" />
    <glyph glyph-name="l1" unicode="&#xd62;" horiz-adv-x="135" 
d="M-390 -109q66 61 202 61t230.5 -88.5t94.5 -244.5t-109 -210q-39 -19 -105 -19t-118 48t-52 126q0 77 56 127.5t128 50.5t119 -36q-19 77 -88.5 122t-158.5 45t-135 -45q-18 -17 -18 -43v-368h-125v362q0 47 -63 74q-86 36 -174 11q-140 -40 -170 -158q47 36 119.5 36
t127.5 -51t55 -127q0 -78 -51.5 -126t-117.5 -48q-115 0 -164.5 67t-49.5 157q0 161 94.5 249.5t247 88.5t225.5 -61zM-52 -535q76 0 98 67q7 19 7 49t-22.5 56.5t-66 26.5t-72 -27t-28.5 -70.5t26 -72.5t58 -29zM-710.5 -506.5q25.5 28.5 25.5 72t-28 71t-71.5 27.5
t-65.5 -26t-22 -68t25 -73.5t68 -31.5t68.5 28.5z" />
    <glyph glyph-name="l2" unicode="&#xd63;" horiz-adv-x="15" 
d="M-731 -74q72 74 197 74q200 0 291 -144q108 -20 176 -97t68 -166q0 -158 -98 -250t-228 -92t-226 50l33 61q72 -39 139 -39q122 0 199 77t77 193t-102 172q9 -41 9 -86q0 -99 -59.5 -172.5t-150.5 -73.5t-142.5 55t-51.5 119q0 111 62.5 172t156.5 78q-63 73 -156.5 73
t-128.5 -51q-13 -18 -13 -43v-391h-131v340q0 135 -142 135t-214 -98q-24 -31 -34 -71q46 38 119 38t128.5 -51.5t55.5 -128.5q0 -78 -52 -126.5t-118 -48.5q-114 0 -164.5 68t-50.5 158q0 163 96 251.5t243 88.5q62 0 114.5 -14t97.5 -60zM-324.5 -376q5.5 27 5.5 70.5
t-24 99.5q-74 -4 -112 -35q-68 -54 -68 -126t56 -101q18 -10 44.5 -10t46.5 15t33 37.5t18.5 49.5zM-1199 -391q20 -99 95 -99q38 0 67.5 29.5t29.5 70.5t-31.5 70.5t-72.5 29.5q-71 0 -88 -101z" />
    <glyph glyph-name="ml_0" unicode="&#xd66;" horiz-adv-x="853" 
d="M853 453q0 -160 -97 -266.5t-255 -106.5q-159 0 -255 106.5t-96 266.5q0 159 96 266.5t255 107.5t255.5 -108t96.5 -266zM711 453q0 116 -62.5 197.5t-175.5 81.5q-114 0 -182 -82t-68 -197t68 -197t182 -82q113 0 175.5 81.5t62.5 197.5z" />
    <glyph glyph-name="ml_1" unicode="&#xd67;" horiz-adv-x="1225" 
d="M1225 0h-848q-42 0 -67 -30t-25 -75t18 -67.5t46.5 -31.5t63.5 -8.5t68 0.5v-106h-124q-90 0 -148.5 58.5t-58.5 148.5q0 89 58 145.5t149 56.5h28v366q0 209 110 360t309.5 151t310 -149.5t110.5 -350.5v-468zM1065 91v355q0 259 -153 364q-55 37 -136 37
q-145 0 -220 -131q-60 -106 -60 -263v-362h569z" />
    <glyph glyph-name="ml_2" unicode="&#xd68;" horiz-adv-x="1139" 
d="M320 -15q-170 170 -170 489q0 79 25.5 170.5t77.5 163.5q116 160 315.5 160t310.5 -148t111 -358.5t-104 -370.5h253v-91h-415v55q91 117 102 285q4 51 4 112q0 146 -66 260q-79 135 -221.5 135t-218.5 -133q-63 -111 -63 -278t71 -310q25 -51 60 -91z" />
    <glyph glyph-name="ml_3" unicode="&#xd69;" horiz-adv-x="1579" 
d="M1326 91h253v-91h-415v55q106 137 106 348q0 141 -22 230.5t-79.5 150t-157.5 60.5q-61 0 -103.5 -40.5t-42.5 -100.5v-703h-160v681q0 69 -55.5 116t-132.5 47q-142 0 -207 -130q-49 -96 -49 -268.5t71 -319.5q24 -51 60 -91l-72 -50q-170 174 -170 472q0 203 96 347
q110 166 304 166q167 0 253 -138q74 138 255.5 138t283.5 -160q88 -138 88 -346.5t-104 -372.5z" />
    <glyph glyph-name="ml_4" unicode="&#xd6a;" horiz-adv-x="1040" 
d="M1040 297q0 -121 -69 -212.5t-185.5 -91.5t-177 90.5t-60.5 213.5v546h-17q-131 0 -206 -135q-64 -115 -64 -275t71 -307q24 -51 60 -91l-72 -50q-170 170 -170 472q0 194 104.5 351t293.5 157v171h113v-171q182 0 287 -163q92 -144 92 -334v-171zM880 297v149
q0 130 -39 228q-62 154 -180 168v-545q0 -109 47 -159q18 -19 49 -19q56 0 89.5 58t33.5 120z" />
    <glyph glyph-name="ml_5" unicode="&#xd6b;" horiz-adv-x="1256" 
d="M894 234q77 -75 77 -213t-99.5 -228t-254.5 -90q-325 0 -427 332q-40 132 -40 262q0 244 51 409.5t174 268.5t329 103q277 0 422 -190q130 -171 130 -446t-141 -457l-101 41q98 156 98 370q0 456 -274 560q-63 24 -146 24q-152 0 -246.5 -103.5t-135 -254.5t-40.5 -289.5
t30.5 -255t109 -194t217 -77.5t190.5 111q17 36 17 83q0 170 -87 170h-69v121h60q71 0 71 145q0 74 -29 115q-55 75 -118 75q-109 0 -156 -77t-47 -199.5t44 -363.5l-88 -15q-46 262 -46 367q0 190 85 298t239 108q118 0 195.5 -91.5t77.5 -220.5t-72 -198z" />
    <glyph glyph-name="ml_6" unicode="&#xd6c;" horiz-adv-x="1826" 
d="M1400 968q426 0 426 -553q0 -242 -80 -417q-103 -225 -328 -225q-93 0 -183 46l36 91q70 -37 132 -37q111 0 175 93q96 138 96 412q0 469 -293 469q-45 0 -84 -32.5t-39 -76.5v-711h-155v680q0 56 -47.5 98t-97 42t-88 -30.5t-38.5 -70.5v-719h-162v692q0 54 -48 91
t-100 37q-98 0 -160 -65q-101 -109 -101 -352t131 -395l-72 -50q-170 174 -170 472q0 207 93 349q106 162 307 162q134 0 210 -102q80 102 214.5 102t215.5 -109q79 109 210 109z" />
    <glyph glyph-name="ml_7" unicode="&#xd6d;" horiz-adv-x="1023" 
d="M267 532q63 52 131 52q123 0 189.5 -87.5t66.5 -205.5t-72.5 -207.5t-186.5 -89.5q-173 0 -225 218q-20 81 -20 161q0 348 188 510q97 85 251 85q290 0 393 -302q41 -122 41 -269q0 -221 -90 -403q-110 -221 -324 -221q-84 0 -174 46l36 91q70 -37 130 -37q104 0 163 87
t82.5 202t23.5 188q0 292 -118 426q-66 75 -180 75t-196 -95.5t-109 -223.5zM468.5 413q-31.5 56 -90.5 56q-36 0 -71 -21t-56 -50v-17q0 -161 64 -235q26 -30 63 -30q62 0 92 57t30 120.5t-31.5 119.5z" />
    <glyph glyph-name="ml_8" unicode="&#xd6e;" horiz-adv-x="1258" 
d="M1258 0q0 -307 -340 -307q-83 0 -173 46l36 91q70 -37 128 -37q107 0 164 55.5t57 152.5l-446 -1v55q91 117 102 285q4 51 4 100q0 233 -110 345q-61 62 -149 62q-151 0 -218 -135q-52 -104 -52 -272.5t71 -313.5q25 -51 60 -91l-72 -50q-170 170 -170 488q0 78 22 169.5
t70 163.5q107 162 306.5 162t307.5 -156q94 -138 94 -348.5t-104 -372.5h284v879h128v-970z" />
    <glyph glyph-name="ml_9" unicode="&#xd6f;" horiz-adv-x="1500" 
d="M320 -15q-170 170 -170 487q0 196 87 334q103 162 303 162q137 0 237 -89q95 86 231 86v171h113v-171q182 0 287 -163q92 -144 92 -334v-171q0 -121 -69 -212.5t-185.5 -91.5t-177 90.5t-60.5 213.5v546h-17q-52 0 -87 -22q-65 -41 -65 -91v-723h-153v705q0 64 -55 99.5
t-114 35.5q-103 0 -158.5 -60.5t-76.5 -148.5t-21 -162q0 -291 131 -441zM1340 297v149q0 130 -39 228q-62 154 -180 168v-545q0 -109 47 -159q18 -19 49 -19q56 0 89.5 58t33.5 120z" />
    <glyph glyph-name="ml_10" unicode="&#xd70;" horiz-adv-x="1656" 
d="M621 354q0 -249 200 -249q93 0 139 67q15 22 15 54v699h144v-657q0 -73 58.5 -118t128.5 -45q128 0 196 133q56 111 56 277.5t-63 310.5q-22 51 -54 91l64 51q153 -176 153 -473q0 -208 -98 -358.5t-279 -150.5q-147 0 -244 103q-55 -59 -100 -81.5t-118 -22.5
q-82 0 -132.5 18t-94.5 78q-47 -171 -115 -244t-216 -73q-85 0 -164 46l32 101q63 -37 131 -37q127 0 184 140q41 100 41 270v633h136v-563z" />
    <glyph glyph-name="ml_100" unicode="&#xd71;" horiz-adv-x="1342" 
d="M770 859q74 113 198 113q262 0 342 -287q32 -115 32 -267t-32.5 -297.5t-114 -246t-220.5 -100.5q-83 0 -165 46l33 91q63 -37 119 -37q99 0 158 93q85 136 85 411q0 469 -263 469q-40 0 -75.5 -37.5t-35.5 -81.5v-701h-139v661q0 59 -50.5 108t-108.5 49
q-110 0 -171 -115q-49 -95 -49 -232q0 -199 85 -362q28 -55 66 -95l-60 -54q-136 124 -178 368q-13 71 -13 160t37.5 200t111.5 184t177 73q148 0 231 -113z" />
    <glyph glyph-name="ml_1000" unicode="&#xd72;" horiz-adv-x="1881" 
d="M1284 231v211h-101q-48 0 -74 -60.5t-26 -123t25 -115t75 -52.5q74 0 95 89q6 25 6 51zM1673 784q-90 0 -90 -135q0 -35 23.5 -70.5t66.5 -35.5q91 0 91 131q0 36 -24 73t-67 37zM601 971q134 0 212 -99q45 59 102 79t132.5 20t144 -33t116.5 -91q101 -122 101 -306h124
q-20 57 -20 111q0 103 51.5 165.5t139.5 62.5q84 0 130.5 -61.5t46.5 -158.5q0 -148 -95 -200q-31 -18 -74 -18h-298v-221q0 -100 -55.5 -169.5t-150 -69.5t-151.5 83t-57 196.5t56.5 196.5t151.5 83h45h24q-20 158 -52 215q-63 112 -154.5 112t-151 -32.5t-59.5 -91.5v-717
h-127v653q0 69 -48 120.5t-103 51.5q-93 0 -150 -66q-91 -107 -91 -353.5t118 -397.5l-65 -49q-153 172 -153 471q0 210 83 351q96 163 277 163z" />
    <glyph glyph-name="ml_quarter" unicode="&#xd73;" horiz-adv-x="964" 
d="M654 446q0 222 -87 337q-48 63 -125 63q-141 0 -190 -228q-18 -80 -18 -165q0 -202 82 -303q50 -63 120 -63q118 0 174 129q44 102 44 230zM674 839q100 -139 100 -351.5t-67 -346.5q-81 -161 -242 -161q-210 0 -285 264q-29 103 -29 223q0 275 127 407q75 76 185 76h504
v-111h-293z" />
    <glyph glyph-name="ml_half" unicode="&#xd74;" horiz-adv-x="1137" 
d="M361.5 447q-54.5 0 -80.5 -38.5t-26 -99.5t33 -136t82.5 -75t72.5 55.5t23 119.5t-25 119t-79.5 55zM999 309q8 51 8 111t-20 143.5t-67 155.5q-26 -46 -54 -91q-108 -170 -108 -305t46 -199q20 -26 57 -26t65.5 33t46.5 80t26 98zM977 841q160 -156 160 -417
q0 -160 -56 -288q-69 -156 -203 -156q-103 0 -160.5 97t-57.5 200t18.5 166t47 118.5t63.5 110.5t68 122q-90 78 -222.5 78t-232 -100.5t-132.5 -260.5q53 51 112 51q103 0 159 -89t56 -205t-57 -202t-161 -86q-224 0 -224 400q0 254 136 421.5t362 167.5q131 0 240 -64
q3 16 3 43q0 65 -39.5 120t-93.5 55q-109 0 -152 -89l-47 31q39 115 152 149q34 11 74 11q86 0 148 -70.5t62 -156t-23 -157.5z" />
    <glyph glyph-name="ml_3quarter" unicode="&#xd75;" horiz-adv-x="1512" 
d="M360 107q82 0 105 121q6 32 6 78t-28.5 102t-81.5 56q-32 0 -63.5 -21.5t-51.5 -50.5v-17q0 -162 58 -238q23 -30 56 -30zM1381.5 338q3.5 31 3.5 85.5t-21.5 141t-63.5 158.5q-26 -47 -54 -93q-109 -173 -109 -307.5t47 -194.5q19 -25 49 -25t51.5 15t38 39t28.5 55
t19.5 63t11 63zM845 846q71 132 258 132q93 0 170 -53q8 133 -81 179q-27 14 -65.5 14t-77.5 -23t-60 -67l-47 31q25 73 86.5 117.5t121.5 44.5q104 0 166 -66t62 -151t-21 -152q112 -124 147 -313q11 -59 11 -110q0 -248 -110 -377q-58 -68 -155.5 -68t-154.5 92.5t-57 196
t19.5 169t49.5 124t65 115.5t67 123q-79 77 -178 77q-123 0 -157 -125q-11 -39 -11 -84v-651h-137v638q0 84 -63.5 139t-133.5 55q-121 0 -193.5 -95t-101.5 -227q54 49 115 49q111 0 170.5 -88.5t59.5 -207t-66 -209t-176 -90.5t-167 137q-44 103 -44 255q0 235 94 402
q108 193 310 193q98 0 160 -25t125 -101z" />
    <glyph glyph-name="maakaani" unicode="&#xd76;" horiz-adv-x="1730" 
d="M1242 162q83 124 83 236.5t-19 152.5q-37 76 -118 76q-42 0 -68 -42.5t-26 -89.5v-417h38q53 0 110 84zM1295 78h303v497q0 118 -72.5 199t-166.5 81q-169 0 -245 -176q44 37 104 37q117 0 172.5 -81.5t55.5 -201.5q0 -218 -151 -355zM647 78h354v469q0 182 107 302.5
t259 120.5t257.5 -105.5t105.5 -261.5v-603h-1232v29q76 59 76 214q0 64 -23 97q-40 58 -101 58t-99.5 -48t-38.5 -120q0 -135 63 -216l-67 -17q-75 107 -75 233.5t63.5 207t166.5 80.5t170 -78t67 -184t-53 -178z" />
    <glyph glyph-name="arakkaal" unicode="&#xd77;" horiz-adv-x="2451" 
d="M1081 62q-143 147 -143 440q0 187 69 314q82 153 248 153q93 0 152 -55q21 -19 42 -47q77 102 229 102t246 -121.5t94 -310.5q114 2 182 2t85.5 10t34.5 35.5t17 74.5t-24 86.5t-67 37.5q-16 0 -29 -6l-35 77q43 26 91 26q88 0 134.5 -62t46.5 -160q0 -149 -94 -203
q-32 -18 -75 -18h-262v-214q0 -100 -55.5 -170.5t-150 -70.5t-151.5 84.5t-57 197.5t56.5 193t151.5 80h69q-8 64 -18 123q-32 203 -203 203q-101 0 -151 -69q-18 -24 -18 -57v-315h-128v256q0 70 -39.5 119t-90.5 49q-86 0 -136 -64q-77 -102 -77 -280.5t59 -296
t172 -160.5l-9 -53h-763v33q96 36 126 153q9 36 9 78q0 88 -50.5 150t-136 62t-141.5 -67.5t-56 -168.5q0 -140 98 -211l-56 -47q-62 48 -95.5 123t-33.5 155q0 153 89.5 246t220 93t225 -88t94.5 -218t-74 -223h378zM1893 233v204h-101q-49 0 -74.5 -56.5t-25.5 -119.5
t25 -116t75 -53q73 0 95 90q6 25 6 51z" />
    <glyph glyph-name="muntaani" unicode="&#xd78;" horiz-adv-x="2869" 
d="M1256 840q-159 0 -159 -293v-212q0 -159 -80.5 -257.5t-199 -98.5t-199.5 90q-27 30 -46 69q-38 -80 -100 -119.5t-128 -39.5q-121 0 -207 123l86 78q52 -86 128 -86t132 51.5t56 139.5v671h130v-588q0 -166 94 -230q31 -21 72 -21q79 0 123.5 71t44.5 175v222
q0 268 144 356q49 30 113 30q129 0 202 -94.5t73 -258.5v-199q0 -338 175 -338q125 0 156 181q9 50 9 97v199q0 162 62 278q73 135 208 135q78 0 153 -103q74 96 182 102q31 1 66 1q258 0 309 -333q16 -103 16 -228v-419h-549v72q159 176 210 411q18 83 18 162.5t-24.5 139
t-70.5 59.5q-133 0 -133 -232h-73q5 236 -130 236q-88 0 -132 -117q-33 -89 -33 -229v-189q0 -130 -70 -227.5t-198 -97.5t-198.5 107t-70.5 285v219q0 174 -84 230q-30 20 -77 20zM2649 611q0 -259 -232 -548h344v363q0 447 -200 442q88 -92 88 -257z" />
    <glyph glyph-name="datemark" unicode="&#xd79;" horiz-adv-x="1667" 
d="M1249 240v199h-108q-52 0 -79.5 -55t-27.5 -116.5t26 -113.5t79.5 -52t81.5 40t28 98zM745 867q88 101 232 101q185 0 298 -121.5t113 -305.5h279v-99h-274v-212q0 -100 -62 -169.5t-167 -69.5t-168 83.5t-63 195.5t62 191.5t169 79.5h50h27q-22 157 -58 213
q-70 109 -184 109q-86 0 -143.5 -37t-57.5 -97v-702h-142v653q0 67 -43.5 117t-103.5 50q-104 0 -163 -66q-85 -94 -85 -345.5t131 -400.5l-72 -49q-170 174 -170 471q0 397 252 490q56 21 128 21t121 -24t94 -77z" />
    <glyph glyph-name="nhcil" unicode="&#xd7a;" horiz-adv-x="2324" 
d="M507.5 379q-36.5 57 -107.5 57t-109.5 -49.5t-38.5 -120.5q0 -115 78 -156q26 -14 74 -14t94 44t46 113t-36.5 126zM2167 281.5q10 45.5 10 107t-25.5 147t-75.5 154.5q-118 -118 -154 -170q-78 -110 -78 -233t81 -168q29 -16 74 -16t79.5 26.5t56.5 66.5t32 85.5z
M2160 807q118 -115 153 -283q11 -54 11 -104q0 -247 -128 -375q-68 -68 -182 -68t-187.5 82t-73.5 208q0 196 166 377q48 53 99 107q-77 61 -171.5 61t-145.5 -31.5t-73 -63.5t-22 -75v-642h-160v566q0 94 -62.5 166t-155.5 72q-130 0 -184 -76q-20 -28 -20 -68v-660h-160
v614q0 88 -84.5 140t-180.5 52q-182 0 -274 -111t-109 -301l6 -1q36 141 220 141q109 0 173.5 -88.5t64.5 -200.5t-73 -189t-196 -77t-198 121q-63 101 -63 233q0 263 129.5 426t369 163t327.5 -152q94 152 288 152q94 0 171 -30.5t131 -111.5q82 142 284 142q139 0 251 -71
q31 49 31 109t-47.5 106t-108.5 46q-118 0 -175 -88l-54 29q38 125 171 159q41 11 86 11q96 0 166.5 -54.5t70.5 -154.5t-81 -207z" />
    <glyph glyph-name="n1cil" unicode="&#xd7b;" horiz-adv-x="1578" 
d="M1098 305q0 -202 152 -202q88 0 134.5 84.5t46.5 173.5q0 189 -100 330q-121 -121 -156 -170q-77 -106 -77 -216zM1415 808q115 -115 151 -284q12 -54 12 -104q0 -247 -128 -375q-68 -68 -182 -68t-187.5 82t-73.5 208q0 196 167 379q48 52 100 106q-75 59 -166 59
t-141.5 -32t-72 -63.5t-21.5 -73.5v-642h-151v566q0 89 -52.5 157.5t-132.5 68.5q-144 0 -216.5 -103.5t-72.5 -247.5q0 -215 124 -338q44 -43 106 -71l-68 -49q-260 138 -260 470q0 189 112 329t298 140q137 0 220 -85q29 -29 46 -69q64 113 208 144q43 10 87 10
q127 0 236 -68q29 47 29 88q0 79 -47 124.5t-123 45.5q-104 0 -161 -88l-54 29q38 125 171 159q41 11 86 11q98 0 167.5 -55t69.5 -153.5t-80 -206.5z" />
    <glyph glyph-name="r3cil" unicode="&#xd7c;" horiz-adv-x="1088" 
d="M923 554q-21 87 -87 146q-115 -115 -153 -172q-79 -118 -79 -241.5t80 -167.5q29 -16 74 -16q86 0 136 81.5t50 182t-21 187.5zM373 -23q-223 145 -223 456q0 82 33 174t94 163q133 153 339 153q140 0 249 -65q27 45 27 86q0 78 -47 123t-123 45q-104 0 -161 -88l-54 29
q38 125 171 159q41 11 86 11q99 0 173 -55t74 -148t-85 -206q118 -109 152 -282q10 -53 10 -129.5t-31.5 -182t-99.5 -174.5t-183.5 -69t-188 82t-72.5 208q0 200 165 384q47 53 99 107q-71 50 -162 50q-170 0 -273.5 -126t-103.5 -296t106 -297q35 -41 80 -71z" />
    <glyph glyph-name="l3cil" unicode="&#xd7d;" horiz-adv-x="1780" 
d="M820 749q-214 -127 -214 -400q0 -157 91 -220q33 -23 84 -23q95 0 145 87t50 192q0 163 -88 289q-29 43 -68 75zM1624 287q10 47 10 109t-31 142.5t-88 143.5q-109 -114 -142 -166q-70 -108 -70 -228t80 -167q29 -17 74.5 -17t79.5 27.5t55.5 68t31.5 87.5zM370 -17
q-220 147 -220 461q0 83 32.5 173t92.5 157q130 147 336 147q125 0 237 -59q142 61 332.5 61t349.5 -94q44 63 44 128t-48.5 109.5t-109.5 44.5q-119 0 -175 -93l-54 28q35 129 173 166q41 11 86 11q98 0 171.5 -55.5t73.5 -162.5t-91 -225q180 -146 180 -380
q0 -158 -66 -279q-78 -143 -230 -143q-114 0 -192.5 84t-78.5 199q0 195 147 370q43 52 93 106q-128 91 -312 91q-111 0 -204 -28q176 -157 176 -433q0 -154 -75.5 -268t-216 -114t-218.5 111t-78 253q0 294 212 451q-56 23 -133.5 23t-146 -35t-115.5 -94
q-96 -119 -96 -293t110 -310q35 -44 82 -77z" />
    <glyph glyph-name="lhcil" unicode="&#xd7e;" horiz-adv-x="1566" 
d="M1325 686q-43 -42 -85 -84q-155 -153 -155 -295q0 -202 153 -202q86 0 133.5 82.5t47.5 171.5q0 182 -94 327zM1422 792q144 -152 144 -377q0 -165 -68 -287q-82 -150 -234 -150q-123 0 -197 82.5t-74 205.5q0 195 175 378q49 52 101 105q-68 57 -146 57
q-135 0 -202 -94.5t-74 -221.5q-2 -52 -1 -104t-3 -110q-8 -123 -100 -209.5t-222 -86.5q-174 0 -272.5 146t-98.5 323q0 246 144 397q49 52 119 89l48 -53q-216 -117 -216 -395q0 -130 61 -243q71 -134 194 -134q92 0 141 78t52.5 153t2.5 124.5t2.5 116t39 133t92.5 113.5
q118 97 268 97t257 -75q29 45 29 85q0 77 -46.5 123.5t-120.5 46.5q-103 0 -163 -85l-53 30q37 120 171 156q40 10 84 10q99 0 173.5 -56.5t74.5 -160t-82 -207.5z" />
    <glyph glyph-name="k1cil" unicode="&#xd7f;" horiz-adv-x="1694" 
d="M440 80q128 0 128 196v193h-68q-88 0 -145 -57t-57 -162t77 -153q27 -17 65 -17zM640 408q0 -328 181 -328q158 0 200 226q13 70 13 163h-392q-2 -30 -2 -61zM642 542h392q0 104 -52.5 183t-151 79t-143.5 -77.5t-45 -184.5zM1338 469q-42 -82 -42 -169q0 -130 66 -182
q25 -19 62 -19q67 0 104 52.5t37 108.5q0 99 -51.5 154t-135.5 55h-40zM620 104q-46 -121 -180.5 -121t-212 73.5t-77.5 184t36 168t94 87.5q93 46 288 46q0 154 72.5 265t218.5 111q145 0 223 -110t92 -266h112q47 78 113.5 150t94.5 108q65 86 65 147q0 72 -48.5 122.5
t-110.5 50.5q-114 0 -177 -109l-55 26q32 134 172 174q43 12 90 12q101 0 172 -55t71 -141.5t-30 -149t-74.5 -119t-94.5 -109t-90 -107.5h23q127 0 207 -86t80 -206t-66 -197.5t-181 -77.5t-178.5 86t-63.5 196.5t42 211.5h-65q0 -177 -67 -315q-83 -171 -247 -171
q-191 0 -248 121z" />
    <glyph glyph-name="ZWNJ" unicode="&#x200c;" horiz-adv-x="320" 
d="M320 44h-160v988h160v-988z" />
    <glyph glyph-name="ZWJ" unicode="&#x200d;" horiz-adv-x="637" 
d="M637 834h-106l-58 88l2 -878h-160v870l-52 -80h-103l185 272l-171 248h107q80 -124 114 -180l124 180h106l-178 -244zM403 1030l-6 10l-6 -10h12zM473 922v108h-70zM391 1030l-76 2v-118z" />
    <glyph glyph-name="endash" unicode="&#x2013;" horiz-adv-x="1167" 
d="M1167 429h-957v111h957v-111z" />
    <glyph glyph-name="emdash" unicode="&#x2014;" horiz-adv-x="2125" 
d="M2125 429h-1915v111h1915v-111z" />
    <glyph glyph-name="quoteleft" unicode="&#x2018;" horiz-adv-x="477" 
d="M477 1177q-176 -143 -176 -271q0 -17 12 -17q2 0 5 1l31 2q49 2 80.5 -28t31.5 -74t-31.5 -74t-87 -30t-94 50t-38.5 141q0 183 224 350z" />
    <glyph glyph-name="quoteright" unicode="&#x2019;" horiz-adv-x="492" 
d="M453 1179q39 -49 39 -147.5t-71 -204.5q-47 -69 -153 -138l-58 51q191 127 191 267q0 18 -11 19h-5q-7 -2 -43.5 -2t-69 27t-32.5 72t32.5 75t87 30t93.5 -49z" />
    <glyph glyph-name="quotesinglbase" unicode="&#x201a;" horiz-adv-x="526" 
d="M210 -317q207 137 207 278q0 19 -14 19h-6q-6 -3 -51 -3t-83.5 33t-38.5 86.5t38.5 89t104.5 35.5t112.5 -55.5t46.5 -155.5q0 -200 -269 -385z" />
    <glyph glyph-name="quotedblleft" unicode="&#x201c;" horiz-adv-x="786" 
d="M786 1180q-176 -143 -176 -271q0 -17 12 -17q2 0 5 1l31 2q49 2 80.5 -28t31.5 -74t-31.5 -74t-87 -30t-94 50t-38.5 141q0 184 224 350zM481 1180q-80 -56 -130 -131.5t-50 -139.5q0 -17 12 -17q2 0 5 1l31 2q49 2 80.5 -28t31.5 -74t-31.5 -74t-87 -30t-94 50
t-38.5 141q0 183 224 350z" />
    <glyph glyph-name="quotedblright" unicode="&#x201d;" horiz-adv-x="800" 
d="M453.5 1177q38.5 -50 38.5 -140q0 -180 -224 -351l-58 53q191 143 191 267q0 18 -11 19h-5q-3 -2 -42 -2t-71 27.5t-32 72.5t32.5 74.5t87.5 29.5t93.5 -50zM761.5 1177q38.5 -50 38.5 -140q0 -183 -223 -351l-44 53q177 143 177 267q0 19 -12 19h-5q-3 -2 -41.5 -2
t-70.5 27.5t-32 73t32 74.5t87 29t93.5 -50z" />
    <glyph glyph-name="quotedblbase" unicode="&#x201e;" horiz-adv-x="902" 
d="M479.5 165.5q46.5 -55.5 46.5 -155.5q0 -200 -269 -385l-47 58q207 145 207 278q0 19 -14 19h-6q-6 -3 -51 -3t-83.5 33t-38.5 86.5t38.5 89t104.5 35.5t112.5 -55.5zM855.5 165.5q46.5 -55.5 46.5 -155.5q0 -201 -268 -385l-47 58q207 145 207 278q0 19 -15 19h-6
q-6 -3 -50.5 -3t-83 33t-38.5 87t38 89t104 35t112.5 -55.5z" />
    <glyph glyph-name="bullet" unicode="&#x2022;" horiz-adv-x="976" 
d="M976 489q0 -174 -106 -278.5t-277 -104.5t-277 104.5t-106 278.5q0 172 105.5 277.5t277.5 105.5t277.5 -105.5t105.5 -277.5z" />
    <glyph glyph-name="ellipsis" unicode="&#x2026;" horiz-adv-x="1551" 
d="M1551 125q0 -52 -32 -83.5t-83.5 -31.5t-83 31.5t-31.5 83.5t31.5 83.5t83 31.5t83.5 -31.5t32 -83.5zM995 125q0 -52 -31.5 -83.5t-83 -31.5t-83 31.5t-31.5 83.5t31.5 83.5t83 31.5t83 -31.5t31.5 -83.5zM440 125q0 -52 -31.5 -83.5t-83.5 -31.5t-83.5 31.5t-31.5 83.5
t31.5 83.5t83.5 31.5t83.5 -31.5t31.5 -83.5z" />
    <glyph glyph-name="rupee" unicode="&#x20b9;" horiz-adv-x="818" 
d="M475 824q-41 114 -167 114h-149l49 91l611 -1l-40 -90h-181q34 -49 44 -114h177l-40 -91h-135q-16 -125 -94 -201t-193 -84l294 -446h-117l-339 418v103l62 -1q158 0 209 108q19 41 19 103h-326l49 91h267z" />
    <glyph glyph-name="dottedcirc" unicode="&#x25cc;" horiz-adv-x="956" 
d="M870 670l-90 -62q-38 66 -60 78h-2q-30 22 -50 32l62 84q66 -42 94 -68l2 -2q30 -40 44 -62zM578 864l-16 -100q-54 8 -80 8q-32 0 -84 -8l-18 100q60 12 100 12q42 0 98 -12zM920 540q12 -46 12 -92t-12 -94l-104 16q8 54 8 76q0 30 -8 78zM870 226q-46 -68 -70 -90h-2
q-4 -4 -28 -20q-24 -14 -40 -24l-62 84q60 36 78 58q28 42 34 52zM294 718q-68 -38 -78 -58l-12 -16q-12 -18 -22 -36l-90 62q44 64 68 86q10 8 72 46zM148 370l-108 -16q-20 92 0 186l108 -16q-10 -28 -10 -78q0 -46 10 -76zM578 30q-40 -10 -98 -10q-56 0 -100 10l18 102
q52 -10 84 -10q26 0 80 10zM294 176l-62 -84q-78 50 -94 70h-2l-44 64l90 60q42 -62 60 -76q8 -6 52 -34z" />
    <glyph glyph-name="zero.oldstyle" unicode="&#xf730;" horiz-adv-x="670" 
d="M670 389q0 -189 -77.5 -316t-207.5 -127q-85 0 -148 58q-134 122 -134 391q0 196 80 324q26 41 59 69q68 62 151 62q82 0 146 -63q131 -128 131 -398zM522 358q0 180 -8.5 243.5t-31.5 102.5q-43 72 -102 72t-106 -103q-26 -57 -26 -231t8.5 -243t33.5 -111
q42 -71 102.5 -71t104.5 105q25 57 25 236z" />
    <glyph glyph-name="one.oldstyle" unicode="&#xf731;" horiz-adv-x="558" 
d="M420 98q0 -20 92 -20h77v-77h-477v77h88q78 0 85 10.5t7 33.5v521q0 48 -8 56t-53 8h-115v72q181 4 254 89h58q-9 -116 -9 -214v-498q0 -52 1 -58z" />
    <glyph glyph-name="two.oldstyle" unicode="&#xf732;" horiz-adv-x="738" 
d="M713 0h-569v38q21 28 47 63.5t76 91.5l172 184q146 155 146 285q0 78 -43 122.5t-115.5 44.5t-123 -39.5t-50.5 -87.5q0 -14 14.5 -21t34 -15t32.5 -28.5t13 -50t-22.5 -51.5t-63.5 -22t-69 37.5t-28 92.5q0 106 82 175t203 69t202 -70t81 -169q0 -139 -125 -248
q-29 -25 -110 -89t-117 -97.5t-91 -91.5h274q57 0 73 13.5t28 73.5l13 66h60z" />
    <glyph glyph-name="three.oldstyle" unicode="&#xf733;" horiz-adv-x="801" 
d="M656 45q0 234 -172 230l-107 -3q-47 -2 -47 34.5t49 35.5l94 -4q166 -8 166 200.5t-165 208.5q-62 0 -117 -28t-55 -60q0 -14 29.5 -36.5t29.5 -65t-22 -67.5t-58.5 -25t-60.5 29t-24 74q0 99 83 167q85 68 211.5 68t206 -69t79.5 -183q0 -172 -182 -241
q208 -63 208 -264q0 -135 -92 -216t-236 -81t-229 67t-85 173q0 57 25.5 93t64 36t63.5 -28t25 -73t-51 -81q-20 -14 -24.5 -19t-4.5 -14q0 -36 61 -67t144.5 -31t138 64t54.5 176z" />
    <glyph glyph-name="four.oldstyle" unicode="&#xf734;" horiz-adv-x="863" 
d="M247 77h317v442zM697 762q-7 -107 -7 -290v-395h174v-73h-174v-121q0 -57 27 -64t87 -7h21v-61h-406v61h30q94 0 104.5 18t10.5 53v121h-404v81l481 677h56z" />
    <glyph glyph-name="five.oldstyle" unicode="&#xf735;" horiz-adv-x="790" 
d="M258 782q176 -43 263.5 -43t124.5 7.5t71.5 23.5t44.5 9t-23 -61q-67 -108 -253 -108q-74 0 -171 21l-23 -254q100 39 181 39q141 0 229.5 -89t88.5 -242t-95.5 -244.5t-238.5 -91.5t-220 68.5t-77 167.5q0 50 27 84.5t62.5 35.5t60.5 -26.5t25 -60t-10.5 -50.5
t-37.5 -36t-27 -37q0 -35 55 -63t120 -28q214 0 214 279q0 126 -55.5 197t-145 71t-162.5 -52q-8 -90 -58 -90q-30 0 -41.5 35t35.5 90q28 268 36 448z" />
    <glyph glyph-name="six.oldstyle" unicode="&#xf736;" horiz-adv-x="822" 
d="M316 300q0 -114 54.5 -190t134 -76t126.5 77t47 196t-45.5 180t-130.5 61q-130 0 -172 -145q-14 -46 -14 -103zM306 503q96 125 225.5 125t210 -86t80.5 -221.5t-91 -238.5t-238.5 -103t-240 129.5t-92.5 353t106 393.5q51 81 129.5 129.5t175 48.5t162.5 -51t66 -126
q0 -47 -25.5 -76t-61.5 -29t-58.5 25.5t-22.5 59t13.5 62t13.5 34.5q0 45 -77 45q-153 0 -220 -166q-28 -75 -35 -112q-10 -57 -20 -196z" />
    <glyph glyph-name="seven.oldstyle" unicode="&#xf737;" horiz-adv-x="780" 
d="M780 729q-14 -31 -14 -34l-65 -136q-139 -290 -167 -467q-9 -61 -7 -125l2 -54q7 -172 -82 -172q-43 0 -64 28.5t-21 111t90 296.5l12 31l18 40l21 46l68 147l92 200l-84 -1l-267 9q-29 1 -41.5 -19.5t-28.5 -91.5l-25 -115l-57 10l39 339q232 -15 354.5 -15t226.5 9v-37
z" />
    <glyph glyph-name="eight.oldstyle" unicode="&#xf738;" horiz-adv-x="825" 
d="M562 426l-135 49q-84 -40 -120.5 -94t-36.5 -145.5t56.5 -146.5t160.5 -55t168.5 52.5t64.5 134t-28 117.5q-46 58 -130 88zM478 631l97 -36q61 50 88 96.5t27 116.5t-52.5 119.5t-139 49.5t-139.5 -44t-53 -112.5t41 -112.5t131 -77zM359 505q-155 87 -155 248
q0 121 85.5 200.5t211.5 79.5t206 -66t80 -167q0 -139 -151 -227q99 -48 144.5 -114.5t45.5 -162.5q0 -142 -92.5 -229.5t-247.5 -87.5t-240.5 73t-85.5 179t47 168.5t152 105.5z" />
    <glyph glyph-name="nine.oldstyle" unicode="&#xf739;" horiz-adv-x="822" 
d="M349 283.5q45 -64.5 129.5 -64.5t136 62t51.5 182.5t-49.5 197t-131.5 76.5t-131.5 -73.5t-49.5 -194.5t45 -185.5zM716 -90q-51 -79 -129.5 -125t-175.5 -46t-162 49.5t-65 120t52 97.5q16 8 34 8q54 0 75 -52q6 -15 6 -39.5t-13 -51.5t-13 -40.5t23 -24.5t78.5 -11
t113.5 45q86 69 114 236q9 51 24 190q-57 -70 -110 -98t-127 -28q-122 0 -201.5 85.5t-79.5 224.5t93 241t238 102t238 -131.5t93 -360t-106 -391.5z" />
    <glyph glyph-name="r4" horiz-adv-x="705" 
d="M788 -303q-11 -1 -12 -1h-33q-257 0 -414 163t-171 422q-3 64 -3 178q0 274 167 467l75 -49q-123 -136 -143 -327q-7 -59 -7 -119.5t4.5 -142t42 -175t103.5 -161.5q141 -144 366 -134z" />
    <glyph glyph-name="y2" horiz-adv-x="508" 
d="M38 -170q83 0 78 100h114q8 -29 8 -61q0 -62 -50 -87q-24 -12 -96.5 -20.5t-90.5 -27.5q-32 -34 -32 -70q0 -63 80 -92q55 -20 119 -20q127 0 208.5 60.5t81.5 163t-83 242t-128 242.5q-85 200 -85 412v228h159v-344q0 -181 143 -402q87 -132 115.5 -206.5t28.5 -148.5
q0 -155 -108.5 -242t-282.5 -87q-304 0 -380 132q-20 34 -20 89t44.5 101t107.5 46z" />
    <glyph glyph-name="y2u1" horiz-adv-x="502" 
d="M38 -170q83 0 78 100h114q8 -29 8 -61q0 -61 -50 -87q-26 -14 -97 -21t-90 -27q-32 -34 -32 -70q0 -63 80 -92q55 -20 119 -20q127 0 208.5 60.5t81.5 163t-86 246.5q-149 252 -188 440q-22 101 -22 210v228h159v-344q0 -181 143 -402q87 -132 115.5 -206.5t28.5 -133.5
q0 -167 -109 -258q93 -57 93 -173q0 -106 -67 -167.5t-173 -61.5t-175 61.5t-69 167.5q0 47 23 90q-314 26 -314 211q0 62 44.5 108t107.5 46zM358 -762q116 0 152 84q12 27 12 73t-42 89.5t-104 43.5t-104 -43.5t-42 -105.5t40 -101.5t88 -39.5z" />
    <glyph glyph-name="y2u2" horiz-adv-x="496" 
d="M496 -446q121 -72 121 -198t-80 -199.5t-196 -73.5q-115 0 -195 73.5t-80 187.5q0 74 39 132q-189 16 -260 113q-28 38 -28 97.5t44.5 105.5t107.5 46l69 -8q83 0 78 100h114q8 -29 8 -61q0 -61 -50 -87q-26 -14 -97 -21t-90 -27q-32 -34 -32 -70q0 -63 80 -92
q55 -20 119 -20q127 0 208.5 60.5t81.5 164t-86 245.5q-148 248 -188 440q-22 101 -22 210v228h164v-344q0 -180 141 -401q86 -134 113.5 -208t27.5 -133q0 -169 -112 -260zM402.5 -620.5q25.5 24.5 25.5 60t-25.5 61t-61 25.5t-60.5 -25.5t-25 -61t25 -60t60.5 -24.5
t61 24.5zM489 -638q0 40 -18 76v-6q2 -60 -42 -100.5t-107 -40.5q-98 0 -137 83q-12 26 -12 51.5t6 45.5h-8q-39 -50 -39 -99q0 -86 52.5 -136.5t126 -50.5t126 50.5t52.5 126.5z" />
    <glyph glyph-name="v2" horiz-adv-x="331" 
d="M320 892v-1026h-510v72h360v954h150z" />
    <glyph glyph-name="k1u1" horiz-adv-x="1544" 
d="M1313 313q75 0 75 91q0 49 -62 68q-33 10 -109 10h-35q0 -180 -67 -320q-82 -174 -252.5 -174t-242.5 120q-35 -59 -78.5 -89.5t-109.5 -30.5q-130 0 -206 72.5t-76 182.5t36 168.5t94 90.5q99 54 288 54q0 244 160 334q55 32 132 32q144 0 229 -109.5t85 -256.5h56
q314 0 314 -152q0 -45 -12 -78.5t-50 -59.5q35 -24 47.5 -49t12.5 -67q0 -78 -59.5 -120t-140 -42t-132.5 18l-14 98q45 -38 98 -38q116 0 116 79q0 85 -89 83h-51v86zM634 556h400q0 168 -112 230q-39 22 -92 22q-99 0 -147.5 -74t-48.5 -178zM634 484q-4 -45 -4 -111
q0 -115 54 -202t142 -87q208 0 208 400h-400zM440 84q128 0 128 196v204h-68q-89 0 -145.5 -53t-56.5 -132t27 -126q51 -89 115 -89z" />
    <glyph glyph-name="k1u2" horiz-adv-x="1566" 
d="M1562 464q0 -111 -80 -152q84 -47 84 -134.5t-53 -133.5t-135 -46h-1014q-37 0 -66.5 -26t-29.5 -64q0 -37 29 -62.5t67 -25.5h1180v-116h-1180q-85 0 -143.5 50t-58.5 133t59.5 133t142.5 50h924q94 0 128 52q12 19 12 49q0 102 -118 102q-32 0 -62 -3v94q10 -2 20 -2
h19q85 0 114 48q11 18 11 45q0 88 -165 80q-39 -2 -65 -2q0 -163 -82 -285t-246 -122t-234 100q-78 -100 -191 -100q-190 0 -256 126q-23 43 -23 104q0 252 418 252q0 216 168 284q54 22 124 22q141 0 227.5 -83t86.5 -223l104 1q284 0 284 -145zM634 608h400
q0 94 -55.5 153t-150.5 59q-143 0 -182 -127q-12 -39 -12 -85zM1034 533h-400q-2 -9 -2 -13v-12q0 -186 91 -266q35 -30 97 -30q214 0 214 321zM568 378v155h-68q-129 0 -184 -81q-18 -27 -18 -79.5t40 -106.5t105 -54t95 46t30 120z" />
    <glyph glyph-name="k1r1" horiz-adv-x="1596" 
d="M839 -209q0 -91 200.5 -91t307 138.5t106.5 332.5t-127 257q-43 22 -103 22h-41q0 -174 -68 -307q-82 -161 -246 -161q-100 0 -138 11q-77 22 -110 91q-42 -57 -83.5 -79.5t-105.5 -22.5q-128 0 -204.5 74.5t-76.5 197.5q0 180 132 234q76 30 155.5 32.5t130.5 1.5
q0 156 66 266q78 130 225 130q189 0 273 -213q33 -82 42 -183h96q136 0 231 -109t95 -245q0 -265 -153.5 -407t-419.5 -142q-347 0 -347 174q0 147 330 147q174 0 336 -62l-51 -65q-118 55 -244.5 55t-182.5 -34q-25 -16 -25 -43zM1034 522q0 106 -52 194t-152 88
q-98 0 -152 -96q-44 -77 -44 -186h400zM634 450q-2 -20 -2 -39v-39q0 -108 32 -170.5t68 -92t86 -29.5q216 0 216 370h-400zM440 80q128 0 128 196v174h-68q-202 0 -202 -164q0 -130 76 -186q27 -20 66 -20z" />
    <glyph glyph-name="k1r2" horiz-adv-x="1614" 
d="M620 98q-77 -116 -201 -116t-196.5 92t-72.5 187t27 143t72 75q77 46 228 46q43 0 87 -3q0 157 67 266q80 130 226 130q149 0 231.5 -120.5t89.5 -275.5h92q167 0 262 -158q82 -136 82 -303q0 -319 -192 -481.5t-510 -162.5q-142 0 -276 53q-170 67 -170 193
q0 168 272 231q95 21 166 21q264 0 398 -134l-80 -66q-32 54 -111.5 89t-149.5 35q-353 0 -353 -178q0 -103 184 -145q61 -13 156 -13t197 36t172 105q143 141 143 402q0 129 -46 244q-57 144 -174 144h-58q0 -249 -136 -378q-78 -74 -169.5 -74t-151 26t-105.5 90z
M903 -246q43 35 100.5 35t105 -33.5t47.5 -79.5q0 -77 -76 -112q-58 -25 -107 -25q-187 0 -190 84h41q3 -50 104.5 -50t141.5 47q15 19 15 50t-31 54t-73.5 23t-52.5 -33q-5 -18 -2 -72h-70l1 44q0 63 -70 63q-39 0 -59.5 -22.5t-20.5 -48t4 -34.5h-38q-6 13 -6 35
q0 50 38.5 79.5t99 29.5t98.5 -34zM1030 522q0 106 -50.5 195t-150 89t-146.5 -88t-47 -196h394zM1030 390v44h-394v-72q0 -103 31 -162t66.5 -86.5t90.5 -27.5q104 0 160 104q46 84 46 200zM568 260v174h-82q-86 0 -122 -26q-66 -46 -66 -126q0 -125 77 -180q27 -20 64 -20
q67 0 98 53t31 125z" />
    <glyph glyph-name="k1l1" horiz-adv-x="1588" 
d="M620 147q-67 -138 -191 -138t-201.5 81t-77.5 203q0 176 137 219q74 24 153.5 23t127.5 -1q0 153 73 268.5t218 115.5q189 0 273 -204q33 -80 42 -180h136q121 0 199.5 -70.5t78.5 -182.5t-62.5 -192t-155 -80t-150.5 36l-10 93q126 -73 194 26q36 52 36 119
q0 118 -66 155q-45 26 -170 26h-22q0 -173 -68 -300q-84 -155 -246 -155q-85 0 -142.5 34.5t-105.5 103.5zM1144 -59q-194 0 -194 -118v-456h-119v396q0 114 -67 161q-24 17 -73.5 17t-95.5 -25q106 -84 140 -214q11 -43 11 -87q0 -98 -54.5 -179.5t-151.5 -81.5t-155 83.5
t-58 170.5q0 164 94 281t241 117t232 -100q94 100 248.5 100t252 -112.5t97.5 -268.5q0 -104 -56.5 -187.5t-154 -83.5t-153.5 79.5t-56 173.5t41.5 174t110.5 135q-42 25 -80 25zM1034 534q0 104 -52 189t-152 85q-98 0 -147 -84.5t-49 -189.5h400zM634 464q-2 -18 -2 -38
v-38q0 -168 95 -248q42 -35 91 -35q87 0 140 62q76 89 76 297h-400zM1265 -114q-147 -115 -147 -270q0 -65 26 -104q47 -71 113 -71t98.5 59t32.5 134q0 154 -123 252zM440 105q128 0 128 190v169h-68q-202 0 -202 -159q0 -125 77 -181q27 -19 65 -19zM554 -114
q-123 -105 -123 -260q0 -116 73 -167q25 -18 58 -18q61 0 100 51t39 127q0 157 -147 267z" />
    <glyph glyph-name="k1k1" horiz-adv-x="2178" 
d="M620 98q-74 -111 -197 -111t-198 76.5t-75 194.5q0 177 133 232q77 31 155.5 33.5t129.5 2.5q0 158 66 266q78 130 225 130q189 0 273 -213q33 -82 42 -183h118q56 280 259 366q71 30 165 30q187 0 324.5 -143t137.5 -331q0 -328 -254 -474l-102 42q188 130 188 398
q0 155 -97 274.5t-247 119.5q-111 0 -195.5 -82.5t-110.5 -199.5q197 0 279 -34q129 -55 129 -239t-130 -245q-45 -22 -100 -22q-94 0 -152 61.5t-85 148t-27 149.5t4 109h-96q0 -173 -68 -306q-50 -99 -140 -140q-47 -22 -106 -22q-182 0 -248 112zM1346 454
q-8 -52 -8 -120t32 -141q41 -95 106.5 -95t110.5 46.5t45 96.5q0 213 -158 213h-128zM1034 526q0 104 -53 193t-151 89t-152 -96q-44 -77 -44 -186h400zM634 454q-2 -20 -2 -39v-39q0 -105 32.5 -168.5t69 -93.5t97 -30t102.5 38q101 91 101 332h-400zM568 280v174h-68
q-140 0 -186 -88q-17 -32 -17 -91t37.5 -125t106.5 -66q98 0 121 132q6 34 6 64z" />
    <glyph glyph-name="k1k1u1" horiz-adv-x="2242" 
d="M2106 406q136 -56 136 -180t-79 -184t-201 -60q-61 0 -126 26l-28 104q45 -40 111.5 -40t108.5 37t42 120.5t-66 116.5q-23 12 -54 12h-84v106q20 1 41 0t44 2q45 7 72 61t27 105q0 94 -74.5 147t-167.5 53q-187 0 -295 -71.5t-173 -240.5h166q114 0 175 -76.5t61 -189.5
t-63.5 -190.5t-170.5 -77.5t-184.5 95t-77.5 263q0 54 4 110h-68q0 -176 -67 -307q-82 -161 -247 -161q-87 0 -142.5 21.5t-105.5 80.5q-46 -59 -85.5 -80.5t-104.5 -21.5q-127 0 -203.5 78.5t-76.5 203.5q0 177 134 227q76 28 155 29.5t129 1.5q0 157 66 266
q79 130 225 130q189 0 273 -213q33 -82 42 -183l90 -4q94 400 516 400q150 0 288 -72q96 -51 138 -134q22 -42 22 -93q0 -161 -122 -217zM1316 454q-8 -32 -8 -64v-65q0 -83 27 -132q51 -95 121.5 -95t107.5 54t37 126t-42 124t-115 52h-128zM1034 526q0 107 -51.5 194.5
t-153.5 87.5q-99 0 -147 -87.5t-48 -194.5h400zM634 454q-2 -20 -2 -38v-51q0 -104 34 -165t70.5 -88.5t86.5 -27.5q211 0 211 370h-400zM440 84q128 0 128 196v174h-68q-202 0 -202 -164q0 -127 77 -186q27 -20 65 -20z" />
    <glyph glyph-name="k1k1u2" horiz-adv-x="2172" 
d="M863 130q-169 0 -239 90q-63 -71 -133 -85q-26 -5 -71 -5q-108 0 -187 66.5t-79 183.5q0 151 149 190q79 22 154 21t115 -1q0 139 77.5 235.5t216.5 96.5t217 -92t95 -240h70q44 165 172 247.5t298 82.5t294 -54q160 -70 160 -211q0 -98 -74 -159q-24 -20 -53 -38
q66 -36 96.5 -84t30.5 -121q0 -134 -89 -193.5t-225 -59.5h-1498q-68 0 -97 -56q-9 -17 -9 -39q0 -83 106 -83h1806v-116h-1806q-147 0 -194 103q-16 35 -16 83q0 89 58 131.5t152 42.5h1364q211 0 265 108q13 26 13 73.5t-36.5 98t-93.5 50.5h-74v114h66q49 0 82.5 58
t33.5 108q0 88 -96 130q-70 30 -187 30t-219 -59.5t-158 -186.5l84 1.5t132 -7.5q112 -22 155 -126q19 -47 19 -97q0 -100 -69 -162.5t-154 -62.5t-131 27q-126 75 -126 283q0 42 4 82h-48q0 -269 -176 -364q-61 -34 -147 -34zM1300 528q-8 -34 -8 -102t26 -122
q35 -74 100 -74t95 27q53 48 53 113t-41 111.5t-119 46.5h-106zM1038 590q0 95 -55.5 164.5t-150 69.5t-144.5 -69t-50 -165h400zM638 528q-2 -16 -2 -32v-46q0 -91 53 -162.5t130 -71.5q219 0 219 312h-400zM444 216q128 0 128 166v146h-68q-202 0 -202 -138q0 -66 28 -104
q52 -70 114 -70z" />
    <glyph glyph-name="k1k1r1" horiz-adv-x="2175" 
d="M1258.5 239.5q-14.5 65.5 -14.5 117t4 97.5h-66q0 -173 -68 -306q-84 -162 -246 -162q-83 0 -138.5 23t-109.5 79q-41 -53 -86.5 -77t-109.5 -24q-121 0 -197.5 80.5t-76.5 200.5q0 176 134 228q74 28 154 29.5t130 0.5q0 157 66 266q79 130 225 130q189 0 273 -213
q33 -82 42 -183h88q54 268 258 359q70 31 156 31q161 0 274 -90t169 -234t56 -288q0 -288 -170.5 -486.5t-442.5 -198.5q-348 0 -348 174q0 147 332 147q161 0 326 -62l-51 -65q-121 55 -238 55q-204 0 -204 -77q0 -91 203 -91t319.5 174t116.5 379t-88 360
q-103 184 -287.5 184t-274.5 -165q-26 -49 -38 -106q132 0 186 -10q109 -19 165.5 -76.5t56.5 -176.5q0 -193 -130 -255q-45 -22 -111 -22t-114.5 37.5t-79 94t-45 122zM1316 454q-8 -52 -8 -119.5t32 -142.5q41 -94 106 -94t110.5 47t45.5 96q0 96 -38 154.5t-120 58.5
h-128zM1034 526q0 102 -53.5 192t-151.5 90t-146.5 -88.5t-48.5 -193.5h400zM634 454q-2 -20 -2 -39v-39q0 -171 96 -254q43 -38 103 -38t101 38q102 93 102 332h-400zM568 280v174h-68q-140 0 -186 -88q-17 -32 -17 -91.5t37.5 -125t105.5 -65.5t98 61t30 135z" />
    <glyph glyph-name="k1k1r3" horiz-adv-x="2435" 
d="M1542 318q0 31 6 136h-66q0 -177 -67 -308q-82 -160 -249 -160q-82 0 -136.5 22.5t-109.5 79.5q-42 -57 -84 -79.5t-107 -22.5q-125 0 -201 82t-76 210q0 174 136 221q73 25 152.5 26t127.5 1q0 154 66 264q79 132 225 132t231 -130q67 -100 86 -266h86q57 279 256 366
q70 30 170 30q202 0 324.5 -137t122.5 -351q0 -468 -333 -657q-266 -151 -758 -151q-728 0 -1010 298q-184 195 -184 522q0 200 122 366q38 52 86 106l54 -82q-95 -102 -137.5 -193.5t-42.5 -219t42 -231.5q184 -460 1012 -460q1000 0 1000 678q0 165 -95.5 281.5
t-256.5 116.5q-111 0 -194.5 -83.5t-109.5 -198.5h25q124 0 176 -11q103 -22 154 -78t51 -171q0 -196 -127 -258q-45 -22 -102 -22q-137 0 -216 154q-49 96 -49 178zM1618 454q-10 -38 -10 -109t30 -146q39 -101 106.5 -101t112.5 46.5t45 95.5q0 99 -38 156.5t-118 57.5
h-128zM1334 526q0 106 -54 194t-152 88t-150 -96q-42 -77 -42 -186h398zM936 454q-4 -40 -4 -80q0 -107 42 -188q52 -102 150 -102q210 0 210 370h-398zM740 84q128 0 128 196v174h-68q-202 0 -202 -164q0 -127 77 -186q27 -20 65 -20z" />
    <glyph glyph-name="k1k1r3u1" horiz-adv-x="2435" 
d="M1542 318q0 31 6 136h-66q0 -177 -67 -308q-82 -160 -249 -160q-82 0 -136.5 22.5t-109.5 79.5q-42 -56 -83 -79t-107 -23q-126 0 -202 82t-76 210q0 174 136 221q73 25 152.5 26t127.5 1q0 154 66 264q79 132 225 132t231 -130q67 -100 86 -266h86q57 279 256 366
q70 30 170 30q202 0 324.5 -137t122.5 -351q0 -350 -184 -537q67 -22 109 -74.5t42 -115.5q0 -115 -67 -176.5t-175.5 -61.5t-178.5 68t-62 178q-210 -59 -549 -59t-520.5 39t-300.5 93t-207 142q-192 189 -192 516q0 200 122 366q38 52 86 106l54 -82
q-95 -102 -137.5 -193.5t-42.5 -229.5q0 -265 184 -425q260 -226 920 -226q277 0 417 32.5t231 76.5q302 146 302 539q0 165 -95.5 281.5t-256.5 116.5q-111 0 -194.5 -83.5t-109.5 -198.5h25q124 0 176 -11q103 -22 154 -78t51 -171q0 -196 -127 -258q-45 -22 -101 -22
q-138 0 -217 154q-49 96 -49 178zM1618 454q-10 -38 -10 -109t30 -146q39 -101 106.5 -101t112.5 46.5t45 95.5q0 99 -38 156.5t-118 57.5h-128zM2331 -304q0 62 -43 105t-104 43t-104 -43t-43 -89q0 -80 41 -119.5t104.5 -39.5t106 40.5t42.5 102.5zM1334 526
q0 106 -54 194t-152 88t-150 -96q-42 -77 -42 -186h398zM936 454q-4 -40 -4 -80q0 -107 42 -188q52 -102 150 -102q210 0 210 370h-398zM740 84q128 0 128 196v174h-68q-202 0 -202 -164q0 -127 77 -186q27 -20 65 -20z" />
    <glyph glyph-name="k1k1r3u2" horiz-adv-x="2435" 
d="M1542 318q0 31 6 136h-66q0 -177 -67 -308q-82 -160 -249 -160q-82 0 -136.5 22.5t-109.5 79.5q-42 -56 -83 -79t-107 -23q-126 0 -202 82t-76 210q0 174 136 221q73 25 152.5 26t127.5 1q0 154 66 264q79 132 225 132t231 -130q67 -100 86 -266h86q57 279 256 366
q70 30 170 30q202 0 324.5 -137t122.5 -351q0 -359 -194 -546q131 -39 171 -152q14 -38 14 -88q0 -103 -78 -174.5t-189 -71.5q-112 0 -190 71.5t-78 181.5q0 27 6 54q-204 -53 -535 -53t-512.5 39t-300.5 93t-207 142q-192 189 -192 516q0 200 122 366q38 52 86 106l54 -82
q-95 -102 -137.5 -193.5t-42.5 -229.5q0 -265 184 -425q260 -226 920 -226q277 0 417 32.5t231 76.5q302 146 302 539q0 165 -95.5 281.5t-256.5 116.5q-111 0 -194.5 -83.5t-109.5 -198.5h25q124 0 176 -11q103 -22 154 -78t51 -171q0 -196 -127 -258q-45 -22 -101 -22
q-138 0 -217 154q-49 96 -49 178zM1618 454q-10 -38 -10 -109t30 -146q39 -101 106.5 -101t112.5 46.5t45 95.5q0 99 -38 156.5t-118 57.5h-128zM2231 -334q29 28 29 71t-30 70t-73 27t-70 -27t-27 -70t29 -71t71 -28t71 28zM1334 526q0 106 -54 194t-152 88t-150 -96
q-42 -77 -42 -186h398zM2318 -338q0 37 -15 70v-7q0 -68 -47.5 -111.5t-117.5 -43.5q-69 0 -118.5 46t-45.5 116l-12 -4q-14 -33 -14 -68q0 -71 55.5 -119t129.5 -48q76 0 130.5 48t54.5 121zM936 454q-4 -40 -4 -80q0 -107 42 -188q52 -102 150 -102q210 0 210 370h-398z
M740 84q128 0 128 196v174h-68q-202 0 -202 -164q0 -127 77 -186q27 -20 65 -20z" />
    <glyph glyph-name="k1t1" horiz-adv-x="1578" 
d="M1198 163q54 -31 88 -31q66 0 104 52.5t38 119.5t-18 102.5t-50.5 51.5t-77.5 18t-99 2q0 -168 -71 -295q-82 -149 -244 -149q-82 0 -139.5 29t-108.5 94q-53 -94 -126 -115q-28 -8 -76 -8q-112 0 -190 68.5t-78 191.5q0 173 136 223q78 29 155.5 30.5t125.5 1.5
q0 245 159 341q55 34 133 34q143 0 222 -110.5t93 -264.5h125q122 0 200.5 -69t78.5 -179.5t-62.5 -188.5t-156.5 -78t-150 35zM1133 -298l-70 -1q-132 -2 -185.5 43t-53.5 101q0 100 77.5 145.5t183.5 45.5q197 0 303 -92l-48 -42q-79 70 -205.5 70t-180.5 -46
q-22 -19 -22 -48q0 -82 148 -74q36 2 59 2q247 0 247 -153q0 -88 -82.5 -133t-176.5 -45q-199 0 -303 91l44 46q74 -71 245 -71q106 0 151 44q19 18 19 47q0 70 -150 70zM1033 549q0 101 -53 183t-149 82t-146 -81.5t-50 -183.5h398zM635 478q-2 -18 -2 -36v-37
q0 -164 95 -241q41 -34 101 -34t102 34q102 84 102 314h-398zM441 130q126 0 126 184v164h-67q-137 0 -184 -96q-16 -32 -16 -90.5t36 -110t105 -51.5z" />
    <glyph glyph-name="k1t1u1" horiz-adv-x="1578" 
d="M1198 163q54 -31 88 -31q66 0 104 52.5t38 119.5t-18 102.5t-50.5 51.5t-77.5 18t-99 2q0 -168 -71 -295q-82 -149 -244 -149q-82 0 -139.5 29t-108.5 94q-53 -94 -126 -115q-28 -8 -76 -8q-112 0 -190 68.5t-78 191.5q0 173 136 223q78 29 155.5 30.5t125.5 1.5
q0 245 159 341q55 34 133 34q143 0 222 -110.5t93 -264.5h125q122 0 200.5 -69t78.5 -179.5t-62.5 -188.5t-156.5 -78t-150 35zM1133 -298l-70 -1q-132 -2 -185.5 43t-53.5 101q0 100 77.5 145.5t183.5 45.5q197 0 303 -92l-48 -42q-79 70 -205.5 70t-180.5 -46
q-22 -19 -22 -48q0 -82 148 -74q36 2 59 2q247 0 247 -153q0 -106 -130 -156q75 -52 75 -141.5t-56 -141.5t-146 -52q-89 0 -147 52t-58 137t64 137q-99 22 -164 78l44 46q74 -71 245 -71q106 0 151 44q19 18 19 47q0 70 -150 70zM1033 549q0 101 -53 183t-149 82
t-146 -81.5t-50 -183.5h398zM635 478q-2 -18 -2 -36v-37q0 -164 95 -241q41 -34 101 -34t102 34q102 84 102 314h-398zM441 130q126 0 126 184v164h-67q-137 0 -184 -96q-16 -32 -16 -90.5t36 -110t105 -51.5zM1132 -767q99 0 130 71q9 23 9 57.5t-32.5 74.5t-74.5 40
q-10 0 -21.5 0.5t-37 -3.5t-53.5 -41t-28 -84.5t34 -81t74 -33.5z" />
    <glyph glyph-name="k1t1u2" horiz-adv-x="1578" 
d="M1198 163q54 -31 88 -31q66 0 104 52.5t38 119.5t-18 102.5t-50.5 51.5t-77.5 18t-99 2q0 -168 -71 -295q-82 -149 -244 -149q-82 0 -139.5 29t-108.5 94q-53 -94 -126 -115q-28 -8 -76 -8q-112 0 -190 68.5t-78 191.5q0 173 136 223q78 29 155.5 30.5t125.5 1.5
q0 245 159 341q55 34 133 34q143 0 222 -110.5t93 -264.5h125q122 0 200.5 -69t78.5 -179.5t-62.5 -188.5t-156.5 -78t-150 35zM1280 -493q116 -62 116 -189q0 -100 -70.5 -164t-171.5 -64t-171 64t-70 164q0 105 83 169q-103 19 -172 79l44 46q74 -71 245 -71q106 0 151 44
q19 18 19 47q0 70 -150 70l-70 -1q-132 -2 -185.5 44t-53.5 100q0 100 77.5 145.5t183.5 45.5q197 0 303 -92l-48 -42q-79 70 -205.5 70t-180.5 -46q-22 -19 -22 -48q0 -82 148 -74q36 2 59 2q247 0 247 -153q0 -94 -106 -146zM1033 549q0 101 -53 183t-149 82t-146 -81.5
t-50 -183.5h398zM635 478q-2 -18 -2 -36v-37q0 -164 95 -241q41 -34 101 -34t102 34q102 84 102 314h-398zM441 130q126 0 126 184v164h-67q-137 0 -184 -96q-16 -32 -16 -90.5t36 -110t105 -51.5zM1244 -632q8 16 8 47t-27.5 56.5t-69 25.5t-67 -26t-25.5 -65.5t27.5 -67
t66.5 -27.5q62 0 87 57zM1034 -548q-70 -46 -70 -119.5t49.5 -116.5t117.5 -43q66 0 116.5 43t50.5 94.5t-19 86.5q1 -4 1 -5v-33.5t-40 -69.5t-95.5 -36t-95.5 36t-40 84.5t25 78.5z" />
    <glyph glyph-name="k1t1r3" horiz-adv-x="1578" 
d="M620 157q-53 -94 -126 -115q-28 -8 -76 -8q-112 0 -190 68.5t-78 191.5q0 172 136 224q73 28 153 29.5t128 1.5q0 245 159 341q55 34 133 34q143 0 222 -110.5t93 -264.5h125q122 0 200.5 -69t78.5 -179.5t-62.5 -188.5t-156.5 -78t-150 35l-11 94q54 -31 88 -31
q66 0 104 52.5t38 119.5t-18 102.5t-50.5 51.5t-77.5 18t-99 2q0 -168 -71 -295q-82 -149 -247 -149t-245 123zM1180 -318l-89.5 -1.5t-156 34.5t-66.5 123t78.5 132.5t183.5 45.5q204 0 306 -92l-48 -42q-80 70 -208 70t-182 -46q-22 -19 -22 -48q0 -83 152 -74q35 2 57 2
q249 0 249 -153q0 -173 -269 -177h-110t-173.5 33.5t-169 107t-67.5 200.5t114 228l71 -37q-111 -86 -111 -205q0 -168 209 -228q77 -22 166 -22h41q117 0 155 32q19 16 19 47q0 70 -129 70zM1033 549q0 101 -53 183t-149 82t-146 -81.5t-50 -183.5h398zM635 478
q-2 -18 -2 -36v-37q0 -164 95 -241q41 -34 101 -34t102 34q102 84 102 314h-398zM441 130q126 0 126 184v164h-67q-137 0 -184 -96q-16 -32 -16 -90.5t36 -110t105 -51.5z" />
    <glyph glyph-name="k1t1r3u1" horiz-adv-x="1578" 
d="M620 157q-53 -94 -126 -115q-28 -8 -76 -8q-112 0 -190 68.5t-78 191.5q0 172 136 224q73 28 153 29.5t128 1.5q0 245 159 341q55 34 133 34q143 0 222 -110.5t93 -264.5h125q122 0 200.5 -69t78.5 -179.5t-62.5 -188.5t-156.5 -78t-150 35l-11 94q54 -31 88 -31
q66 0 104 52.5t38 119.5t-18 102.5t-50.5 51.5t-77.5 18t-99 2q0 -168 -71 -295q-82 -149 -247 -149t-245 123zM1350 -509q91 -51 91 -152q0 -135 -121 -179q-37 -14 -81 -14q-89 0 -147 52t-58 131t46 127q-172 2 -292 78q-143 89 -143 239.5t114 251.5l71 -37
q-111 -86 -111 -205q0 -168 209 -228q77 -22 166 -22h41q117 0 155 32q19 16 19 47q0 70 -129 70l-89.5 -1.5t-156 34.5t-66.5 123t78.5 132.5t183.5 45.5q204 0 306 -92l-48 -42q-80 70 -208 70t-182 -46q-22 -19 -22 -48q0 -83 152 -74q35 2 57 2q249 0 249 -153
q0 -101 -84 -142zM1033 549q0 101 -53 183t-149 82t-146 -81.5t-50 -183.5h398zM635 478q-2 -18 -2 -36v-37q0 -164 95 -241q41 -34 101 -34t102 34q102 84 102 314h-398zM441 130q126 0 126 184v164h-67q-137 0 -184 -96q-16 -32 -16 -90.5t36 -110t105 -51.5zM1242 -783
q99 0 130 71q9 23 9 63t-37 75.5t-86.5 35.5t-86.5 -35.5t-37 -89t34 -87t74 -33.5z" />
    <glyph glyph-name="k1t1r3u2" horiz-adv-x="1578" 
d="M620 157q-53 -94 -126 -115q-28 -8 -76 -8q-112 0 -190 68.5t-78 191.5q0 172 136 224q73 28 153 29.5t128 1.5q0 245 159 341q55 34 133 34q143 0 222 -110.5t93 -264.5h125q122 0 200.5 -69t78.5 -179.5t-62.5 -188.5t-156.5 -78t-150 35l-11 94q54 -31 88 -31
q66 0 104 52.5t38 119.5t-18 102.5t-50.5 51.5t-77.5 18t-99 2q0 -168 -71 -295q-82 -149 -247 -149t-245 123zM1359 -505q107 -62 107 -173t-70.5 -175t-171.5 -64t-171 64t-70 158t58 152q-159 11 -277.5 94t-118.5 228t114 246l71 -37q-111 -86 -111 -205
q0 -168 209 -228q77 -22 166 -22h41q117 0 155 32q19 16 19 47q0 70 -129 70l-89.5 -1.5t-156 34.5t-66.5 123t78.5 132.5t183.5 45.5q204 0 306 -92l-48 -42q-80 70 -208 70t-182 -46q-22 -19 -22 -48q0 -83 152 -74q35 2 57 2q249 0 249 -153q0 -95 -75 -138zM1033 549
q0 101 -53 183t-149 82t-146 -81.5t-50 -183.5h398zM635 478q-2 -18 -2 -36v-37q0 -164 95 -241q41 -34 101 -34t102 34q102 84 102 314h-398zM441 130q126 0 126 184v164h-67q-137 0 -184 -96q-16 -32 -16 -90.5t36 -110t105 -51.5zM1298 -664.5q27 25.5 27 64t-26.5 63.5
t-65.5 25t-64 -25t-25 -63.5t26.5 -64t63.5 -25.5t64 25.5zM1104 -555q-70 -46 -70 -119.5t49.5 -116.5t117.5 -43q66 0 116.5 43t50.5 94.5t-19 86.5q1 -4 1 -5v-33.5t-40 -69.5t-95.5 -36t-95.5 36t-40 84.5t25 78.5z" />
    <glyph glyph-name="k1nh" horiz-adv-x="1578" 
d="M620 187q-64 -153 -189 -153t-203 68.5t-78 191.5q0 173 136 223q78 29 155.5 30.5t125.5 1.5q0 245 159 341q55 34 133 34q143 0 222 -110.5t93 -264.5h125q122 0 200.5 -69t78.5 -179.5t-62.5 -188.5t-156.5 -78t-150 35l-11 94q54 -31 88 -31q66 0 104 52.5t38 119.5
t-18 102.5t-50.5 51.5t-77.5 18t-99 2q0 -168 -71 -295q-82 -149 -247 -149t-245 153zM1110 -54q53 69 163 69t188.5 -73t78.5 -195.5t-113 -199.5q-35 -24 -77 -40l-71 28q142 72 142 225q0 72 -43.5 129.5t-116.5 57.5t-102 -41q-11 -16 -11 -39v-349h-119v304
q0 79 -81 110q-24 9 -57.5 9t-72.5 -16t-39 -54v-353h-119v329q0 46 -49.5 70.5t-102.5 24.5q-206 0 -232 -206q21 76 133 76q66 0 110.5 -46t44.5 -112.5t-49 -107t-105 -40.5q-95 0 -142.5 58t-47.5 137q0 149 88 231.5t231.5 82.5t202.5 -75q57 73 182.5 73t185.5 -67z
M1033 549q0 101 -53 183t-149 82t-146 -81.5t-50 -183.5h398zM635 478q-2 -18 -2 -36v-37q0 -164 95 -241q41 -34 101 -34t102 34q102 84 102 314h-398zM441 130q126 0 126 184v164h-67q-137 0 -184 -96q-16 -32 -16 -90.5t36 -110t105 -51.5zM368 -419q64 0 90 42
q8 13 8 41.5t-21 55.5t-61 27t-63.5 -22.5t-23.5 -60.5t22 -60.5t49 -22.5z" />
    <glyph glyph-name="k1nhu1" horiz-adv-x="1578" 
d="M620 187q-64 -153 -189 -153t-203 68.5t-78 191.5q0 173 136 223q78 29 155.5 30.5t125.5 1.5q0 245 159 341q55 34 133 34q143 0 222 -110.5t93 -264.5h125q122 0 200.5 -69t78.5 -179.5t-62.5 -188.5t-156.5 -78t-150 35l-11 94q54 -31 88 -31q66 0 104 52.5t38 119.5
t-18 102.5t-50.5 51.5t-77.5 18t-99 2q0 -168 -71 -295q-82 -149 -247 -149t-245 153zM1082 -44q55 65 179.5 65t210.5 -69.5t86 -202t-100 -188.5q-34 -19 -76 -19q-79 0 -130 49t-51 124q0 161 133 219q-93 40 -171 -4q-45 -24 -45 -65v-315h-113v289q0 48 -31 80.5
t-91 32.5t-92 -34q-12 -12 -12 -32v-336h-113v313q0 65 -100 85q-26 5 -45 5q-186 0 -220 -190q36 66 127 66q61 0 104 -43t43 -106t-47 -102.5t-100 -39.5q-91 0 -135.5 56t-44.5 130q0 143 83.5 220.5t219 77.5t193.5 -71q58 69 170 69t168 -64zM1033 549q0 101 -53 183
t-149 82t-146 -81.5t-50 -183.5h398zM635 478q-2 -18 -2 -36v-37q0 -164 95 -241q41 -34 101 -34t102 34q102 84 102 314h-398zM1446 -286q4 24 4 52q0 72 -53 127q-58 -14 -94 -58t-36 -111t55 -96q18 -10 42 -10q64 0 82 96zM441 130q126 0 126 184v164h-66
q-138 0 -185 -96q-16 -32 -16 -90.5t36 -110t105 -51.5zM388 -390q94 0 94 79q0 27 -20 53t-58 26t-60.5 -22t-22.5 -57.5t20.5 -57t46.5 -21.5z" />
    <glyph glyph-name="k1nhu2" horiz-adv-x="1584" 
d="M620 187q-64 -153 -189 -153t-203 68.5t-78 191.5q0 172 136 224q73 28 153 29.5t128 1.5q0 245 159 341q55 34 133 34q143 0 222 -110.5t93 -264.5h125q122 0 200.5 -69t78.5 -179.5t-62.5 -188.5t-156.5 -78t-150 35l-11 94q54 -31 88 -31q66 0 104 52.5t38 119.5
t-18 102.5t-50.5 51.5t-77.5 18t-99 2q0 -168 -71 -295q-82 -149 -247 -149t-245 153zM838 -53q-120 0 -120 -59v-316h-111v295q0 58 -91 77q-23 4 -41 4q-163 0 -200 -159q38 49 105.5 49t107.5 -41.5t40 -101.5t-44.5 -97t-94.5 -37q-86 0 -128.5 52.5t-42.5 122.5
q0 133 77.5 206.5t205.5 73.5t182 -63q56 63 159 63t156 -58q53 58 138 58q173 0 248 -113q139 -26 185 -143q15 -38 15 -89q0 -106 -79 -179.5t-184.5 -73.5t-183.5 42l28 52q62 -32 113 -32q98 0 158 61.5t60 151t-78 132.5q8 -34 8 -69q0 -78 -48 -135.5t-140 -57.5
t-128 92q-11 28 -11 63q0 71 47 120t122 64q-52 52 -122.5 52t-99.5 -38q-11 -13 -11 -32v-312h-111v272q0 45 -28 74t-58 29zM1033 549q0 101 -53 183t-149 82t-146 -81.5t-50 -183.5h398zM635 478q-2 -18 -2 -36v-37q0 -164 95 -241q41 -34 101 -34t102 34q102 84 102 314
h-398zM1234 -362q89 0 89 136q0 33 -19 75q-93 -7 -128 -73q-11 -23 -11 -54t19.5 -57.5t49.5 -26.5zM441 130q126 0 126 184v164h-66q-138 0 -185 -96q-16 -32 -16 -90.5t36 -110t105 -51.5zM350 -367q56 0 79 36q7 11 7 35.5t-18 47.5t-52.5 23t-54.5 -19.5t-20 -51.5
t18.5 -51.5t40.5 -19.5z" />
    <glyph glyph-name="k1th1" horiz-adv-x="2729" 
d="M2374 14q177 140 177 403q0 72 -26 151t-76 138q-109 130 -291 130q-61 0 -116 -16q156 -118 200 -324q13 -64 13 -130q0 -150 -80 -266t-221.5 -116t-219 110t-77.5 255q0 287 196 452q-49 17 -120.5 17t-130.5 -32q-164 -91 -164 -356v-432h-105l2 324q0 70 -30 99
t-102 29h-21q0 -174 -68 -307q-82 -161 -250 -161t-244 162q-63 -162 -189 -162t-203.5 83.5t-77.5 208.5q0 178 134 224q73 25 153.5 25t130.5 -1q0 156 66 266q78 130 225 130q189 0 273 -213q33 -82 42 -183h56.5t108.5 -26q37 294 237 388q71 34 178.5 34t207.5 -49
q106 49 225 49q232 0 387 -144t155 -357t-148 -357q-47 -45 -105 -78zM2060.5 602.5q-47.5 105.5 -134.5 162.5q-142 -99 -182 -290q-12 -58 -12 -107q0 -105 44 -183.5t138 -78.5t144 87t50 195.5t-47.5 214zM1034 522q0 106 -52 194t-152 88q-98 0 -152 -96
q-44 -77 -44 -186h400zM634 450q-2 -20 -2 -39v-39q0 -176 94 -256q44 -36 92 -36q216 0 216 370h-400zM440 80q128 0 128 196v174h-68q-202 0 -202 -164q0 -130 76 -186q27 -20 66 -20z" />
    <glyph glyph-name="k1th1u1" horiz-adv-x="2624" 
d="M1929 875q99 43 222 43q231 0 352 -116t121 -349q0 -177 -82 -317q-58 -98 -156 -139q-49 -21 -110 -21h-1878q-79 0 -108 -39q-12 -15 -12 -39q0 -80 120 -80h2206v-111h-2206q-154 0 -208 91q-19 34 -19 84q0 90 65 133t162 43h1792q132 0 206 132q62 109 62 263
t-90.5 256t-253.5 102q-42 0 -74 -5q82 -69 124.5 -165t42.5 -181q0 -158 -78.5 -256.5t-209.5 -98.5t-205.5 94t-74.5 225q0 238 168 378q-38 9 -97 9q-131 0 -214 -83t-91 -229q-4 -60 -3.5 -119.5t0.5 -134.5t3 -131h-85l0.5 136t-1.5 154q-7 63 -86 102q-11 6 -31 5h-20
q0 -164 -73 -277q-85 -131 -247.5 -131t-241.5 142q-66 -142 -191 -142q-188 0 -256 133q-23 45 -23 105q0 161 143 207q77 24 154 25t121 1q0 143 75.5 243.5t215.5 100.5t221 -100t94 -244h38q67 0 113 -18q35 260 241 338q69 25 166 25t197 -44zM2024.5 633
q-41.5 83 -121.5 131q-97 -49 -145 -137t-48 -185.5t30 -144.5q54 -85 141.5 -85t136 74.5t48.5 169t-41.5 177.5zM1034 574q0 98 -54.5 171.5t-150 73.5t-145.5 -73.5t-50 -171.5h400zM634 511q-2 -16 -2 -34v-34q0 -149 96 -224q39 -30 99 -30q114 0 167 108q40 82 40 214
h-400zM440 189q128 0 128 171v151h-68q-137 0 -185 -87q-17 -30 -17 -86t37.5 -102.5t104.5 -46.5z" />
    <glyph glyph-name="k1th1u2" horiz-adv-x="2590" 
d="M2460 464q130 -48 130 -206q0 -126 -72.5 -204t-199.5 -78h-1918q-75 0 -105 -42q-11 -16 -11 -39q0 -40 35 -58.5t81 -18.5h2166v-112h-2166q-147 0 -203 102q-19 34 -19 80q0 88 66 133t156 45h1842q174 0 174 186q0 104 -74 140q-25 12 -58 12h-54v114h54
q56 0 94 46.5t38 91.5q0 161 -310 161q-68 0 -135 -12q166 -140 166 -367q0 -137 -78.5 -235.5t-209.5 -98.5t-205.5 94t-74.5 225q0 257 180 388q-40 10 -94 10q-119 0 -204.5 -78t-85.5 -205v-418h-93v380q-30 12 -46.5 12t-43.5 -1q0 -164 -73 -277q-85 -131 -247.5 -131
t-241.5 142q-66 -142 -191 -142q-188 0 -256 133q-23 45 -23 105q0 161 143 207q77 24 154 25t121 1q0 143 75.5 243.5t215.5 100.5t221 -100t94 -244h31q33 2 77 -10q0 160 104 256.5t264 96.5q114 0 214 -45q119 45 273.5 45t269.5 -42q183 -66 183 -203q0 -157 -130 -208
zM1849 765q-199 -95 -199 -333q0 -147 82 -201q31 -20 78 -20q89 0 138 74t49 169t-27 155q-49 105 -121 156zM1034 574q0 98 -54.5 171.5t-149.5 73.5q-96 0 -146 -73.5t-50 -171.5h400zM634 511q-2 -16 -2 -34v-34q0 -147 97 -224q38 -30 98 -30q114 0 167 108
q40 82 40 214h-400zM440 189q128 0 128 171v151h-68q-137 0 -185 -87q-17 -30 -17 -86t37.5 -102.5t104.5 -46.5z" />
    <glyph glyph-name="k1th1r1" horiz-adv-x="2777" 
d="M620 144q-61 -162 -204 -162q-112 0 -189 73t-77 199q0 257 286 266q81 2 132 2q0 158 66 266q78 130 225 130q189 0 273 -213q33 -82 42 -183q8 1 9 1h47.5t118.5 -26q28 185 135.5 303t288.5 118q116 0 210 -46q106 49 237 49q258 0 407.5 -176t149.5 -436
q0 -493 -342 -639q-118 -51 -281 -51q-340 0 -340 174q0 147 332 147q174 0 336 -62l-51 -65q-118 55 -244.5 55t-182.5 -34q-25 -16 -25 -43q0 -91 193 -91q228 0 345 166q100 143 100 379.5t-107 400.5q-123 188 -347 188q-55 0 -101 -11q203 -160 203 -458
q0 -149 -80 -265t-221.5 -116t-219 110t-77.5 249q0 295 205 461q-40 14 -107 14q-141 0 -232.5 -104t-91.5 -259v-428h-100v339q0 39 -45 62t-67 23t-47 -1q0 -176 -67 -307q-82 -161 -250 -161t-245 162zM2074.5 607.5q-43.5 106.5 -132.5 163.5q-97 -63 -148.5 -174.5
t-51.5 -222.5t30.5 -165.5t64.5 -78.5t85 -24q96 0 146 88t50 197.5t-43.5 216zM1034 522q0 106 -52 194t-152 88q-99 0 -147.5 -87t-48.5 -195h400zM634 450q-2 -20 -2 -39v-39q0 -174 94 -256q42 -36 92 -36q216 0 216 370h-400zM440 80q128 0 128 196v174h-68
q-142 0 -187 -104q-15 -34 -15 -94t35.5 -116t106.5 -56z" />
    <glyph glyph-name="k1th1r2" horiz-adv-x="2460" 
d="M1476 364q0 250 184 416q-46 22 -115 22q-124 0 -215.5 -116.5t-91.5 -251.5v-434h-86v428q-44 22 -90 22q0 -170 -56 -300q-73 -168 -221.5 -168t-218.5 154q-60 -154 -175 -154t-178 88.5t-63 195.5t29 158t79 74t116.5 26.5t141.5 3.5q0 142 56 256q67 138 202 138
q174 0 246 -220q26 -79 36 -174h6q53 0 94 -18q17 165 122.5 288.5t263.5 123.5q111 0 208 -60q97 60 197 60q178 0 291.5 -108.5t167.5 -270.5t54 -326q0 -345 -195 -579t-537 -234q-140 0 -276 54q-168 67 -168 192q0 92 95 161q129 93 405 93q69 0 166 -33t170 -103
l-80 -66q-27 60 -118.5 92t-163.5 32t-139 -13q-193 -38 -193 -157q0 -117 190 -154q60 -12 143 -12q170 0 295 94t185.5 249t60.5 340t-56 343t-137 235t-164.5 77t-128.5 -20q194 -186 194 -436q0 -144 -63 -255q-77 -135 -208 -135q-174 0 -237 224q-24 84 -24 158z
M1737 -266q43 35 100.5 35t105 -33.5t47.5 -79.5q0 -77 -76 -112q-58 -25 -107 -25q-187 0 -190 84h41q3 -50 104.5 -50t141.5 47q15 19 15 50t-31 54t-73.5 23t-52.5 -33q-5 -18 -2 -72h-70l1 44q0 63 -70 63q-38 0 -59 -23t-21 -48t4 -34h-38q-6 13 -6 35q0 50 38.5 79.5
t99 29.5t98.5 -34zM1718 742q-178 -153 -178 -382q0 -91 29 -144t60.5 -77.5t78.5 -24.5q85 0 128 96q34 73 34 174q0 212 -152 358zM924 528q0 99 -29.5 158.5t-63 87.5t-82.5 28q-88 0 -131 -99q-33 -75 -36 -175h342zM582 448q1 -3 1 -6t-3.5 -87.5t40 -175.5t119.5 -91
q185 0 185 360h-342zM408 88q108 0 108 192v168h-56q-172 0 -172 -158q0 -123 62 -180q23 -22 58 -22z" />
    <glyph glyph-name="k1th1r3" horiz-adv-x="2871" 
d="M852 144q-57 -162 -205 -162q-109 0 -187 83.5t-78 208.5q0 177 136 224q76 27 154.5 26t127.5 -2q0 156 66 266q78 130 224 130t232 -130q72 -110 84 -266h46q56 2 99 -26q35 296 221 388q68 34 175 34t207 -49q106 49 232 49q235 0 367 -178q118 -158 118 -399
q0 -626 -899 -685q-131 -8 -250 -8h-179q-288 0 -431 14q-297 29 -478 97q-227 85 -355.5 248.5t-128.5 443t163 479.5l83 -51q-157 -172 -157 -435q0 -438 468 -599q251 -86 639 -95q104 -3 190 -3q224 0 409 16t364 73.5t295 183.5t116 320t-90 335q-102 161 -280 161
q-60 0 -116 -16q157 -120 200 -324q13 -64 13 -130q0 -150 -80 -266t-221.5 -116t-219 110t-77.5 255q0 205 110 359q37 51 87 93q-50 17 -122 17t-128 -34q-146 -87 -146 -354v-432h-105v248l7 106q0 98 -117 98h-21q0 -172 -68 -306q-82 -162 -258 -162q-72 0 -136.5 43.5
t-99.5 118.5zM2253 601q-47 106 -135 163q-143 -101 -182 -289q-12 -58 -12 -107q0 -105 44 -183.5t138 -78.5t144 88t50 194.5t-47 212.5zM1266 522q0 106 -52 194t-152 88q-99 0 -147.5 -88t-48.5 -194h400zM866 450q-2 -20 -2 -39v-39q0 -173 94 -255q43 -37 103.5 -37
t102.5 38q102 91 102 332h-400zM672 80q128 0 128 196v174h-68q-92 0 -131 -28q-71 -50 -71 -136q0 -130 76 -186q27 -20 66 -20z" />
    <glyph glyph-name="k1th1r3u1" horiz-adv-x="2881" 
d="M852 144q-57 -162 -205 -162q-109 0 -187 83.5t-78 208.5q0 177 136 224q76 27 154.5 26t127.5 -2q0 156 66 266q78 130 224 130t232 -130q72 -110 84 -266h46q56 2 99 -26q35 296 221 388q68 34 175 34t207 -49q106 49 232 49q237 0 366 -169t129 -408q0 -334 -264 -502
q157 -46 157 -209q0 -98 -67 -159.5t-173 -61.5t-175 61.5t-69 167.5q0 43 16 81q-223 -51 -589 -51h-151q-322 0 -539.5 19t-400.5 85q-476 172 -476 668q0 290 163 490l83 -51q-157 -172 -157 -421t140 -400q248 -267 989 -270q105 -1 115 -1h168.5t328 9t315.5 53
q425 119 425 500q0 185 -90 326q-102 161 -280 161q-60 0 -116 -16q157 -120 200 -324q13 -64 13 -130q0 -150 -80 -266t-221.5 -116t-219 110t-77.5 255q0 205 110 359q37 51 87 93q-50 17 -122 17t-128 -34q-146 -88 -146 -354v-432h-105v248l7 106q0 98 -117 98h-21
q0 -172 -68 -306q-82 -162 -258 -162q-72 0 -136.5 43.5t-99.5 118.5zM2253 601q-47 106 -135 163q-143 -101 -182 -289q-12 -58 -12 -107q0 -105 44 -183.5t138 -78.5t144 88t50 194.5t-47 212.5zM2703 -364q0 62 -43 105t-104 43t-104 -43t-43 -89q0 -80 41 -119.5
t104.5 -39.5t106 40.5t42.5 102.5zM1266 522q0 106 -52 194t-152 88q-99 0 -147.5 -88t-48.5 -194h400zM866 450q-2 -20 -2 -39v-39q0 -173 94 -255q43 -37 103.5 -37t102.5 38q102 91 102 332h-400zM672 80q128 0 128 196v174h-68q-92 0 -131 -28q-71 -50 -71 -136
q0 -130 76 -186q27 -20 66 -20z" />
    <glyph glyph-name="k1th1r3u2" horiz-adv-x="2881" 
d="M852 144q-57 -162 -205 -162q-109 0 -187 83.5t-78 208.5q0 177 136 224q76 27 154.5 26t127.5 -2q0 156 66 266q78 130 224 130t232 -130q72 -110 84 -266h46q56 2 99 -26q35 296 221 388q68 34 175 34t207 -49q106 49 232 49q237 0 366 -169t129 -408q0 -343 -275 -508
q127 -38 168 -153q14 -37 14 -86q0 -103 -78 -174.5t-189.5 -71.5t-189.5 71.5t-78 181.5q0 60 29 113q-216 -46 -571 -46h-148q-319 0 -536.5 19t-400.5 85q-476 172 -476 668q0 290 163 490l83 -51q-157 -172 -157 -435q0 -347 267 -499t804 -157q102 -1 112 -1h171
t341.5 9.5t329.5 51.5q456 123 456 501q0 185 -90 326q-102 161 -280 161q-60 0 -116 -16q157 -120 200 -324q13 -64 13 -130q0 -150 -80 -266t-221.5 -116t-219 110t-77.5 255q0 205 110 359q37 51 87 93q-50 17 -122 17t-128 -34q-146 -88 -146 -354v-432h-105v248l7 106
q0 98 -117 98h-21q0 -172 -68 -306q-82 -162 -258 -162q-72 0 -136.5 43.5t-99.5 118.5zM2253 601q-47 106 -135 163q-143 -101 -182 -289q-12 -58 -12 -107q0 -105 44 -183.5t138 -78.5t144 88t50 194.5t-47 212.5zM2508 -222q-94 -19 -94 -96q0 -40 28 -66.5t67.5 -26.5
t67.5 26.5t28 66.5t-28 68t-68 28h-1zM2687 -279q9 -24 9 -55q0 -64 -48.5 -107t-116.5 -43q-99 0 -145 80q-15 25 -18 57q-6 -23 -6 -53q0 -65 54.5 -113t129.5 -48q76 0 130.5 48t54.5 117t-44 117zM1266 522q0 106 -52 194t-152 88q-99 0 -147.5 -88t-48.5 -194h400z
M866 450q-2 -20 -2 -39v-39q0 -173 94 -255q43 -37 103.5 -37t102.5 38q102 91 102 332h-400zM672 80q128 0 128 196v174h-68q-92 0 -131 -28q-71 -50 -71 -136q0 -130 76 -186q27 -20 66 -20z" />
    <glyph glyph-name="k1n1" horiz-adv-x="1578" 
d="M620 187q-64 -153 -189 -153t-203 68.5t-78 191.5q0 173 136 223q78 29 155.5 30.5t125.5 1.5q0 245 159 341q55 34 133 34q143 0 222 -110.5t93 -264.5h125q122 0 200.5 -69t78.5 -179.5t-62.5 -188.5t-156.5 -78t-150 35l-11 94q54 -31 88 -31q66 0 104 52.5t38 119.5
t-18 102.5t-50.5 51.5t-77.5 18t-99 2q0 -168 -71 -295q-82 -149 -247 -149t-245 153zM982 -64q64 82 189 82t206 -79.5t81 -214.5t-127 -225q-38 -27 -83 -45l-59 46q139 75 139 240q0 139 -103 187q-34 16 -79.5 16t-82.5 -23t-37 -66v-388h-130v338q0 53 -36 89t-84 36
q-91 0 -145 -55.5t-54 -142.5q0 -171 166 -237l-54 -41q-188 87 -188 285q0 121 83.5 200.5t214.5 79.5t183 -82zM1033 549q0 101 -53 183t-149 82t-146 -81.5t-50 -183.5h398zM635 478q-2 -18 -2 -36v-37q0 -164 95 -241q41 -34 101 -34t102 34q102 84 102 314h-398z
M441 130q126 0 126 184v164h-67q-137 0 -184 -96q-16 -32 -16 -90.5t36 -110t105 -51.5z" />
    <glyph glyph-name="k1n1u1" horiz-adv-x="1578" 
d="M620 187q-64 -153 -189 -153t-203 68.5t-78 191.5q0 173 136 223q78 29 155.5 30.5t125.5 1.5q0 245 159 341q55 34 133 34q143 0 222 -110.5t93 -264.5h125q122 0 200.5 -69t78.5 -179.5t-62.5 -188.5t-156.5 -78t-150 35l-11 94q54 -31 88 -31q66 0 104 52.5t38 119.5
t-18 102.5t-50.5 51.5t-77.5 18t-99 2q0 -168 -71 -295q-82 -149 -247 -149t-245 153zM941 -59q65 80 203 80t238.5 -83t100.5 -203.5t-54 -196.5t-149 -76t-154 57.5t-59 144.5q0 184 150 255q-46 16 -94.5 16t-93 -21t-44.5 -66v-377h-131v338q0 55 -26 80
q-76 73 -184.5 27.5t-108.5 -180.5q0 -171 166 -237l-54 -40q-188 87 -188 284q0 123 84.5 202t191.5 79q153 0 206 -83zM1033 549q0 101 -53 183t-149 82t-146 -81.5t-50 -183.5h398zM635 478q-2 -18 -2 -36v-37q0 -164 95 -241q41 -34 101 -34t102 34q102 84 102 314h-398
zM1352.5 -344q5.5 27 5.5 61.5t-16.5 78t-49.5 75.5q-66 -19 -106.5 -68t-40.5 -127t64 -114q21 -11 48.5 -11t46.5 16t31 39t17.5 50zM441 130q126 0 126 184v164h-67q-137 0 -184 -96q-16 -32 -16 -90.5t36 -110t105 -51.5z" />
    <glyph glyph-name="k1n1u2" horiz-adv-x="1578" 
d="M620 187q-64 -153 -189 -153t-203 68.5t-78 191.5q0 172 136 224q73 28 153 29.5t128 1.5q0 245 159 341q55 34 133 34q143 0 222 -110.5t93 -264.5h125q122 0 200.5 -69t78.5 -179.5t-62.5 -188.5t-156.5 -78t-150 35l-11 94q54 -31 88 -31q66 0 104 52.5t38 119.5
t-18 102.5t-50.5 51.5t-77.5 18t-99 2q0 -168 -71 -295q-82 -149 -247 -149t-245 153zM843 -47q64 82 197 82q194 0 286 -143q171 -32 228 -178q19 -48 19 -112q0 -131 -97.5 -223t-227.5 -92t-226 50l32 61q74 -40 140 -40q121 0 198 77t77 194t-104 173q10 -39 10 -86
q0 -100 -58.5 -173.5t-150 -73.5t-142.5 54.5t-51 118.5q0 109 61 171t154 79q-63 67 -158 67t-130 -46q-13 -17 -13 -42v-390h-131v340q0 53 -36 89t-85 36q-91 0 -145 -56t-54 -143q0 -172 166 -238l-54 -41q-188 87 -188 286q0 123 84 203t214 80t185 -84zM1033 549
q0 101 -53 183t-149 82t-146 -81.5t-50 -183.5h398zM635 478q-2 -18 -2 -36v-37q0 -164 95 -241q41 -34 101 -34t102 34q102 84 102 314h-398zM1139 -443q114 0 114 180q0 43 -23 93q-119 -7 -166 -94q-15 -29 -15 -71t26.5 -75t63.5 -33zM441 130q126 0 126 184v164h-67
q-137 0 -184 -96q-16 -32 -16 -90.5t36 -110t105 -51.5z" />
    <glyph glyph-name="k1m1" horiz-adv-x="1578" 
d="M620 187q-64 -153 -189 -153t-203 68.5t-78 191.5q0 173 136 223q78 29 155.5 30.5t125.5 1.5q0 245 159 341q55 34 133 34q143 0 222 -110.5t93 -264.5h125q122 0 200.5 -69t78.5 -179.5t-62.5 -188.5t-156.5 -78t-150 35l-11 94q54 -31 88 -31q66 0 104 52.5t38 119.5
t-18 102.5t-50.5 51.5t-77.5 18t-99 2q0 -168 -71 -295q-82 -149 -247 -149t-245 153zM1367 -514h-628v247q0 165 71.5 234t234 69t242.5 -72.5t80 -229.5v-248zM1033 549q0 101 -53 183t-149 82t-146 -81.5t-50 -183.5h398zM635 478q-2 -18 -2 -36v-37q0 -164 95 -241
q41 -34 101 -34t102 34q102 84 102 314h-398zM1074 -26q79 -54 79 -136q0 -119 -153 -240q-40 -31 -75 -56h328v207q0 102 -29 144q-51 75 -150 81zM441 130q126 0 126 184v164h-67q-137 0 -184 -96q-16 -32 -16 -90.5t36 -110t105 -51.5zM812 -453q225 141 225 310
q0 41 -24 67t-65 26q-76 0 -110 -69q-26 -52 -26 -135v-199z" />
    <glyph glyph-name="k1m1u1" horiz-adv-x="1578" 
d="M620 187q-64 -153 -189 -153t-203 68.5t-78 191.5q0 173 136 223q78 29 155.5 30.5t125.5 1.5q0 245 159 341q55 34 133 34q143 0 222 -110.5t93 -264.5h125q122 0 200.5 -69t78.5 -179.5t-62.5 -188.5t-156.5 -78t-150 35l-11 94q54 -31 88 -31q66 0 104 52.5t38 119.5
t-18 102.5t-50.5 51.5t-77.5 18t-99 2q0 -168 -71 -295q-82 -149 -247 -149t-245 153zM1314 -514q60 -52 60 -130q0 -135 -121 -180q-37 -13 -81 -13q-89 0 -147 52t-58 135.5t60 135.5h-288v247q0 166 72.5 234.5t234 68.5t241.5 -72.5t80 -229.5v-248h-53zM1033 549
q0 101 -53 183t-149 82t-146 -81.5t-50 -183.5h398zM635 478q-2 -18 -2 -36v-37q0 -164 95 -241q41 -34 101 -34t102 34q102 84 102 314h-398zM1074 -26q79 -54 79 -136q0 -119 -153 -240q-40 -31 -75 -56h328v207q0 102 -29 144q-51 75 -150 81zM441 130q126 0 126 184v164
h-67q-137 0 -184 -96q-16 -32 -16 -90.5t36 -110t105 -51.5zM812 -453q225 141 225 310q0 41 -24 67t-65 26q-76 0 -110 -69q-26 -52 -26 -135v-199zM1176 -766q98 0 128 72q10 22 10 62t-37 75.5t-86.5 35.5t-86.5 -35.5t-37 -89t34 -87t75 -33.5z" />
    <glyph glyph-name="k1m1u2" horiz-adv-x="1578" 
d="M620 187q-64 -153 -189 -153t-203 68.5t-78 191.5q0 173 136 223q78 29 155.5 30.5t125.5 1.5q0 245 159 341q55 34 133 34q143 0 222 -110.5t93 -264.5h125q122 0 200.5 -69t78.5 -179.5t-62.5 -188.5t-156.5 -78t-150 35l-11 94q54 -31 88 -31q66 0 104 52.5t38 119.5
t-18 102.5t-50.5 51.5t-77.5 18t-99 2q0 -168 -71 -295q-82 -149 -247 -149t-245 153zM1289 -514q92 -65 92 -170t-70.5 -169t-171.5 -64t-171 64t-70 169t92 170h-251v247q0 166 72.5 234.5t234 68.5t241.5 -72.5t80 -229.5v-248h-78zM1033 549q0 101 -53 183t-149 82
t-146 -81.5t-50 -183.5h398zM635 478q-2 -18 -2 -36v-37q0 -164 95 -241q41 -34 101 -34t102 34q102 84 102 314h-398zM1074 -26q79 -54 79 -136q0 -119 -153 -240q-40 -31 -75 -56h328v207q0 102 -29 144q-51 75 -150 81zM441 130q126 0 126 184v164h-67q-137 0 -184 -96
q-16 -32 -16 -90.5t36 -110t105 -51.5zM812 -453q225 141 225 310q0 41 -24 67t-65 26q-76 0 -110 -69q-26 -52 -26 -135v-199zM1235 -615q0 69 -84 86h-2q-36 1 -60.5 -24.5t-24.5 -61.5t25 -60.5t60 -24.5t60.5 24.5t25.5 60.5zM989 -581q-40 -42 -40 -104.5t49.5 -105.5
t117.5 -43t117.5 43t49.5 109q0 20 -6 41q-6 -56 -48 -90.5t-102.5 -34.5t-103 40.5t-42.5 100.5q0 22 8 44z" />
    <glyph glyph-name="k1r3" horiz-adv-x="1773" 
d="M872 144q-63 -162 -190 -162t-203.5 74.5t-76.5 197.5q0 181 132 233q77 30 156 32.5t130 2.5q0 225 120 333q71 63 171 63q189 0 273 -213q33 -82 42 -183h86q127 0 194 -93t67 -212q0 -213 -98 -338q-186 -237 -598 -237t-659 200q-268 215 -268 598q0 290 163 490
l83 -51q-157 -172 -157 -435q0 -218 111 -382q156 -228 476 -290q99 -20 212 -20q258 0 417 112q184 129 184 381q0 137 -100 187q-33 17 -78 17h-27q0 -173 -68 -306q-82 -161 -251 -161t-243 162zM1286 522q0 106 -52 194t-152 88q-98 0 -152 -96q-44 -77 -44 -186h400z
M886 449q-2 -20 -2 -38v-39q0 -176 94 -256q44 -36 92 -36q89 0 140 64q76 95 76 305h-400zM692 80q128 0 128 196v173h-68q-140 0 -186 -103q-16 -34 -16 -94t35.5 -116t106.5 -56z" />
    <glyph glyph-name="k1r3u1" horiz-adv-x="1771" 
d="M870 144q-63 -162 -190 -162t-203.5 74.5t-76.5 197.5q0 181 132 233q77 30 156 32.5t130 2.5q0 156 66 266q78 130 225 130q189 0 273 -213q33 -82 42 -183h86q127 0 194 -93t67 -225q0 -233 -152 -363q61 -26 97 -76.5t36 -110.5q0 -112 -67 -173.5t-173 -61.5
t-175 61.5t-69 167.5q0 27 6 51q-113 -17 -238 -17q-255 0 -454.5 80t-315.5 250.5t-116 444t163 473.5l81 -51q-157 -172 -157 -435q0 -326 235 -503q211 -159 547 -159q487 0 593 302q25 70 25 160t-47 147.5t-131 57.5h-27q0 -173 -68 -306q-82 -161 -251 -161t-243 162z
M1284 522q0 106 -52 194t-152 88q-98 0 -152 -96q-44 -77 -44 -186h400zM884 449q-2 -20 -2 -38v-39q0 -176 94 -256q44 -36 92 -36q89 0 140 64q76 95 76 305h-400zM1516 -497q116 0 154 85q11 27 11 73.5t-43 89.5t-104 43t-104 -43t-43 -89q0 -80 41 -119.5t88 -39.5z
M690 80q128 0 128 196v173h-68q-140 0 -186 -103q-16 -34 -16 -94t35.5 -116t106.5 -56z" />
    <glyph glyph-name="k1r3u2" horiz-adv-x="1771" 
d="M870 144q-63 -162 -190 -162t-203.5 74.5t-76.5 197.5q0 181 132 233q77 30 156 32.5t130 2.5q0 156 66 266q78 130 225 130q189 0 273 -213q33 -82 42 -183h86q127 0 194 -93t67 -225q0 -242 -164 -373q68 -29 108.5 -87t40.5 -124q0 -119 -78 -190.5t-189 -71.5
q-112 0 -190 71.5t-78 181.5q0 42 15 83q-87 -12 -206 -12q-249 0 -448.5 80t-315.5 250.5t-116 444t163 473.5l81 -51q-157 -172 -157 -435q0 -326 235 -503q211 -159 547 -159q487 0 593 302q25 70 25 160t-47 147.5t-131 57.5h-27q0 -173 -68 -306q-82 -161 -251 -161
t-243 162zM1284 522q0 106 -52 194t-152 88q-98 0 -152 -96q-44 -77 -44 -186h400zM884 449q-2 -20 -2 -38v-39q0 -176 94 -256q44 -36 92 -36q89 0 140 64q76 95 76 305h-400zM1561 -378q29 28 29 71t-30 70t-73 27t-70 -27t-27 -70t29 -71t71 -28t71 28zM1648 -382
q0 37 -15 70v-7q0 -68 -47.5 -111.5t-101.5 -43.5q-90 0 -140 52t-38 127l-3 -1q-25 -41 -25 -82q0 -77 54.5 -125t130.5 -48t130.5 48t54.5 121zM690 80q128 0 128 196v173h-68q-140 0 -186 -103q-16 -34 -16 -94t35.5 -116t106.5 -56z" />
    <glyph glyph-name="k1l3" horiz-adv-x="1588" 
d="M620 167q-66 -158 -190 -158t-202 80t-78 204q0 176 137 219q74 24 153.5 23t127.5 -1q0 153 73 268.5t218 115.5t230 -124q71 -104 85 -260h136q121 0 199.5 -70.5t78.5 -182.5t-62.5 -192t-155 -80t-150.5 36l-10 93q126 -73 194 26q36 52 36 121q0 122 -74 157
q-45 22 -184 22q0 -173 -68 -300q-84 -155 -250 -155t-244 158zM775 -104q142 -99 142 -246q0 -80 -52.5 -131t-115.5 -51q-107 0 -159 64.5t-52 147.5q0 149 90 230.5t207.5 81.5t196 -59.5t78.5 -155.5v-62q0 -164 105 -164q62 0 110 50t48 111q0 170 -160 229l44 45
q137 -50 181 -180q14 -41 14 -92q0 -106 -65.5 -177t-164.5 -71t-162 57.5t-63 149.5v76q0 65 -43 116.5t-94 51.5t-85 -21zM1034 534q0 104 -52 189t-152 85q-97 0 -146.5 -84t-49.5 -190h400zM634 464q-2 -18 -2 -38v-38q0 -168 95 -248q42 -35 91 -35q216 0 216 359h-400
zM440 105q128 0 128 190v169h-68q-202 0 -202 -159q0 -75 25 -119q47 -81 117 -81zM696 -143q-64 -64 -64 -161q0 -140 86 -140q45 0 75.5 34.5t30.5 72.5q0 109 -128 194z" />
    <glyph glyph-name="k1l3u1" horiz-adv-x="1588" 
d="M620 167q-66 -158 -190 -158t-202 80t-78 204q0 176 137 219q74 24 153.5 23t127.5 -1q0 153 73 268.5t218 115.5t230 -124q71 -104 85 -260h136q121 0 199.5 -70.5t78.5 -182.5t-62.5 -192t-155 -80t-150.5 36l-10 93q126 -73 194 26q36 52 36 121q0 122 -74 157
q-45 22 -184 22q0 -173 -68 -300q-84 -155 -250 -155t-244 158zM775 -114q142 -99 142 -246q0 -80 -52.5 -131t-115.5 -51q-107 0 -159 64.5t-52 147.5q0 149 90 230.5t207 81.5t196 -58.5t79 -156.5v-62q0 -164 105 -164q62 0 110 50t48 111q0 170 -160 229l44 45
q137 -50 181 -180q14 -41 14 -89q0 -128 -85 -199q94 -49 94 -153q0 -135 -121 -179q-37 -14 -81 -14q-89 0 -147 52t-58 133t54 133q-104 52 -110 180q-1 38 -1 91t-43 104.5t-94 51.5t-85 -21zM1034 534q0 104 -52 189t-152 85q-97 0 -146.5 -84t-49.5 -190h400zM634 464
q-2 -18 -2 -38v-38q0 -168 95 -248q42 -35 91 -35q216 0 216 359h-400zM440 105q128 0 128 190v169h-68q-202 0 -202 -159q0 -75 25 -119q47 -81 117 -81zM1262 -763q102 0 135 75q10 23 10 64.5t-38 79.5t-91 38q-52 0 -91 -37.5t-39 -93.5t35.5 -91t78.5 -35zM696 -153
q-64 -64 -64 -161q0 -140 86 -140q45 0 75.5 34.5t30.5 72.5q0 109 -128 194z" />
    <glyph glyph-name="k1l3u2" horiz-adv-x="1588" 
d="M620 167q-66 -158 -190 -158t-202 80t-78 204q0 176 137 219q74 24 153.5 23t127.5 -1q0 153 73 268.5t218 115.5t230 -124q71 -104 85 -260h136q121 0 199.5 -70.5t78.5 -182.5t-62.5 -192t-155 -80t-150.5 36l-10 93q126 -73 194 26q36 52 36 121q0 122 -74 157
q-45 22 -184 22q0 -173 -68 -300q-84 -155 -250 -155t-244 158zM775 -104q142 -99 142 -246q0 -80 -52.5 -131t-115.5 -51q-107 0 -159 64.5t-52 147.5q0 149 90 230.5t207.5 81.5t196 -59.5t78.5 -155.5v-62q0 -164 105 -164q62 0 110 50t48 111q0 170 -160 229l44 45
q137 -50 181 -180q14 -41 14 -89q0 -123 -79 -194q60 -26 96.5 -78.5t36.5 -111.5q0 -108 -70.5 -172t-171.5 -64t-171 64t-70 165.5t81 165.5q-103 55 -106 179q-1 37 -1 90t-43 104.5t-94 51.5t-85 -21zM1034 534q0 104 -52 189t-152 85q-97 0 -146.5 -84t-49.5 -190h400z
M634 464q-2 -18 -2 -38v-38q0 -168 95 -248q42 -35 91 -35q216 0 216 359h-400zM440 105q128 0 128 190v169h-68q-202 0 -202 -159q0 -75 25 -119q47 -81 117 -81zM1341 -657.5q28 26.5 28 67.5t-27.5 66.5t-69 25.5t-67 -26t-25.5 -66.5t28 -67t66.5 -26.5t66.5 26.5z
M1114 -567q-40 -42 -40 -104.5t49.5 -105.5t117.5 -43q66 0 116.5 43t50.5 109q0 20 -6 40q-9 -84 -94 -115q-25 -9 -70 -9t-88.5 40t-43.5 101q0 22 8 44zM696 -143q-64 -64 -64 -161q0 -140 86 -140q45 0 75.5 34.5t30.5 72.5q0 109 -128 194z" />
    <glyph glyph-name="k1sh" horiz-adv-x="2448" 
d="M1196 38q168 70 168 246q0 58 -40.5 114t-109.5 56h-38q0 -173 -68 -306q-50 -99 -140 -140q-47 -22 -106 -22q-169 0 -248 162q-69 -162 -212 -162q-109 0 -180.5 92t-71.5 212.5t81 178t213 57.5h118q0 158 66 266q78 130 225 130q189 0 273 -213q33 -82 42 -183h66
q116 0 198 -76.5t82 -191.5t-74 -185h352v284q-123 0 -224.5 90.5t-101.5 205t71.5 191.5t163.5 77q159 0 212 -103q37 -72 37 -237q0 -35 0.5 -69t-0.5 -69q140 42 248.5 176.5t155.5 285.5h94v-902h-1252v35zM2286 591q-142 -178 -336 -222v-296h336v518zM1792 681
q0 126 -112 126q-51 0 -79.5 -44.5t-28.5 -95.5q0 -97 62.5 -159.5t157.5 -70.5v244zM1028 526q0 104 -53 193t-151 89t-152 -96q-44 -77 -44 -186h400zM628 454q-2 -20 -2 -39v-39q0 -126 57 -209t129 -83q216 0 216 370h-400zM562 280v174h-58q-141 0 -188 -95
q-17 -33 -17 -89t37 -121t99 -65q98 0 121 132q6 34 6 64z" />
    <glyph glyph-name="k1shu1" horiz-adv-x="2448" 
d="M1196 38q168 70 168 246q0 58 -40.5 114t-109.5 56h-38q0 -173 -68 -306q-50 -99 -140 -140q-47 -22 -106 -22q-169 0 -248 162q-69 -162 -212 -162q-109 0 -180.5 92t-71.5 212.5t81 178t213 57.5h118q0 158 66 266q78 130 225 130q189 0 273 -213q33 -82 42 -183h66
q116 0 198 -76.5t82 -191.5t-74 -185h352v284q-123 0 -224.5 90.5t-101.5 205t71.5 191.5t163.5 77q159 0 212 -103q37 -72 37 -237q0 -35 0.5 -69t-0.5 -69q140 42 248.5 176.5t155.5 285.5h94v-902h-73q72 -62 72 -166.5t-70.5 -169.5t-182.5 -65t-184.5 65t-72.5 169.5
t72 166.5h-813v35zM2286 591q-142 -178 -336 -222v-296h336v518zM1792 681q0 126 -112 126q-51 0 -79.5 -44.5t-28.5 -95.5q0 -97 62.5 -159.5t157.5 -70.5v244zM2364 -213q12 29 12 64q0 69 -47 116t-114.5 47t-115 -47.5t-47.5 -116t44.5 -113t115.5 -44.5q111 0 152 94z
M1028 526q0 104 -53 193t-151 89t-152 -96q-44 -77 -44 -186h400zM628 454q-2 -20 -2 -39v-39q0 -126 57 -209t129 -83q216 0 216 370h-400zM562 280v174h-58q-141 0 -188 -95q-17 -33 -17 -89t37 -121t99 -65q98 0 121 132q6 34 6 64z" />
    <glyph glyph-name="k1shu2" horiz-adv-x="2454" 
d="M1196 38q168 70 168 246q0 58 -40.5 114t-109.5 56h-38q0 -173 -68 -306q-50 -99 -140 -140q-47 -22 -106 -22q-169 0 -248 162q-69 -162 -212 -162q-109 0 -180.5 92t-71.5 212.5t81 178t213 57.5h118q0 158 66 266q78 130 225 130q189 0 273 -213q33 -82 42 -183h66
q116 0 198 -76.5t82 -191.5t-74 -185h352v284q-123 0 -224.5 90.5t-101.5 205t71.5 191.5t163.5 77q159 0 212 -103q37 -72 37 -237q0 -35 0.5 -69t-0.5 -69q140 42 248.5 176.5t155.5 285.5h94v-902h-86q92 -72 92 -190t-82.5 -193t-198.5 -75q-117 0 -199.5 75t-82.5 193
t93 190h-788v35zM2286 591q-142 -178 -336 -222v-296h336v518zM1792 681q0 126 -112 126q-51 0 -79.5 -44.5t-28.5 -95.5q0 -97 62.5 -159.5t157.5 -70.5v244zM2298 -81q0 36 -32 66t-80 30t-78.5 -30t-30.5 -77t33 -78q53 -52 120.5 -23.5t67.5 112.5zM2020 -42
q-69 -56 -69 -135.5t58.5 -130.5t136.5 -51t136 50.5t58 127.5q0 39 -16 72q11 -66 -58 -129q-34 -31 -103.5 -31t-116.5 43.5t-47 97t21 86.5zM1028 526q0 104 -53 193t-151 89t-152 -96q-44 -77 -44 -186h400zM628 454q-2 -20 -2 -39v-39q0 -126 57 -209t129 -83
q216 0 216 370h-400zM562 280v174h-58q-141 0 -188 -95q-17 -33 -17 -89t37 -121t99 -65q98 0 121 132q6 34 6 64z" />
    <glyph glyph-name="k1shr1" horiz-adv-x="2448" 
d="M1196 38q168 70 168 246q0 58 -40.5 114t-109.5 56h-38q0 -173 -68 -306q-50 -99 -140 -140q-47 -22 -106 -22q-181 0 -248 142q-59 -142 -212 -142q-126 0 -189 84t-63 212.5t81 186t213 57.5h118q0 158 66 266q78 130 225 130q189 0 273 -213q33 -82 42 -183h66
q116 0 198 -76.5t82 -191.5t-74 -185h352v284q-123 0 -224.5 90.5t-101.5 205t71.5 191.5t163.5 77q160 0 219 -101q44 -76 44 -239q0 -35 -1.5 -69t-2.5 -69q136 41 240.5 173t153.5 289h94v-902h-1q1 -1 1 -2v-51t-21 -106q-88 -228 -485 -228q-112 0 -187 23.5t-107 43.5
q-71 44 -71 110q0 147 322 147q174 0 336 -62l-51 -65q-118 55 -248 55q-194 0 -194 -78q0 -49 73 -74q53 -19 118 -19q148 0 250.5 70.5t102.5 214.5v18l2 3h-1092v35zM2286 591q-144 -180 -326 -222v-296h326v518zM1792 681q0 126 -112 126q-51 0 -79.5 -44.5t-28.5 -95.5
q0 -97 62.5 -159.5t157.5 -70.5v244zM1028 526q0 104 -53 193t-151 89t-152 -96q-44 -77 -44 -186h400zM628 454q-2 -20 -2 -39v-39q0 -126 57 -209t129 -83q216 0 216 370h-400zM562 280v174h-58q-141 0 -188 -95q-17 -33 -17 -89t37 -121t99 -65q98 0 121 132q6 34 6 64z
" />
    </font>
</defs>
</svg>
