<?xml version="1.0" standalone="no"?>
<!DOCTYPE svg PUBLIC "-//W3C//DTD SVG 1.1//EN" "http://www.w3.org/Graphics/SVG/1.1/DTD/svg11.dtd" >
<svg xmlns="http://www.w3.org/2000/svg" xmlns:xlink="http://www.w3.org/1999/xlink" version="1.1">
<metadata>
Created by FontForge 20201107 at Sat Jan  6 13:25:40 2024
 By 
Digitized data copyright (c) 2019-2024 Chitrajakumar R, Hussain KH, Rajeesh KV, Rachana Institute of Typography (http://rachana.org.in)
</metadata>
<defs>
<font id="RITRachana-Bold" horiz-adv-x="2149" >
  <font-face 
    font-family="RIT Rachana"
    font-weight="700"
    font-stretch="normal"
    units-per-em="2048"
    panose-1="2 0 8 3 0 0 0 0 0 0"
    ascent="1638"
    descent="-410"
    x-height="877"
    cap-height="1204"
    bbox="-1442 -1076 3870 1743"
    underline-thickness="34"
    underline-position="-970"
    unicode-range="U+000C-F739"
  />
<missing-glyph horiz-adv-x="626" 
d="M155 0v932v2v3h3h2h466h2h3v-3v-2v-932v-2v-3h-3h-2h-466h-2h-3v3v2zM211 51h364v828h-364v-828z" />
    <glyph glyph-name=".notdef" horiz-adv-x="626" 
d="M155 0v932v2v3h3h2h466h2h3v-3v-2v-932v-2v-3h-3h-2h-466h-2h-3v3v2zM211 51h364v828h-364v-828z" />
    <glyph glyph-name=".null" horiz-adv-x="0" 
 />
    <glyph glyph-name=".null" horiz-adv-x="0" 
 />
    <glyph glyph-name="nonmarkingreturn" horiz-adv-x="0" 
 />
    <glyph glyph-name="CR" unicode="&#xd;" horiz-adv-x="0" 
 />
    <glyph glyph-name="space" unicode=" " horiz-adv-x="456" 
 />
    <glyph glyph-name="exclam" unicode="!" horiz-adv-x="477" 
d="M481 1091q0 -68 -36 -205q-35 -137 -44 -236t-11 -325v-3v-2h-3h-2h-75h-2h-3v2v3q-3 232 -12 329q-10 97 -48 233q-39 137 -39 206q0 164 137.5 164t137.5 -166zM442.5 157.5q40.5 -36.5 40.5 -88t-41 -88.5q-40 -36 -98.5 -36t-98.5 36q-40 37 -40 88.5t41 88.5
q40 36 98 36t98.5 -36.5z" />
    <glyph glyph-name="quotedbl" unicode="&#x22;" horiz-adv-x="695" 
d="M377 1153l-58 -378v-2l-1 -2h-2h-2h-43h-2h-2l-1 2v2l-60 378q-1 7 -1 41q0 36 25 62.5t62 26.5t62 -28q25 -27 25 -60q0 -31 -2 -42zM676 1255.5q25 -27.5 25 -60.5q0 -31 -2 -42l-60 -378v-2l-1 -2h-2h-2h-42h-2h-2l-1 2v2l-59 378q-1 7 -1 40q0 35 25 62q25 28 62 28
t62 -27.5z" />
    <glyph glyph-name="numbersign" unicode="#" horiz-adv-x="1018" 
d="M1019 675h-177l-31 -197h163h2h3v-2v-3v-107v-2v-3h-3h-2h-177l-56 -362v-2l-1 -2h-2h-2h-97h-3h-3l1 3v3l55 360h-207l-54 -362v-2l-1 -2h-2h-2h-98h-3h-3l1 3v3l55 360h-165h-2h-3v3v2v107v3v2h3h2h179l31 197h-165h-3h-2v3v2v107v3v2h2h3h179l50 353v2l1 2h2h2h98h3h3
l-1 -3v-3l-50 -351h206l51 353v2l1 2h2h2h98h3h3l-1 -3v-3l-51 -351h163h3h2v-2v-3v-107v-2v-3h-2h-3zM734 675h-207l-30 -197h206z" />
    <glyph glyph-name="dollar" unicode="$" horiz-adv-x="1054" 
d="M787 937q11 19 41 45q7 8 7 13q0 23 -47 45q-47 23 -109 29v-396q115 -35 180 -63q66 -29 113 -68q47 -40 65 -89q18 -48 18 -122q0 -159 -101 -254q-49 -47 -117 -73q-70 -26 -158 -31v-194v-3v-2h-2h-3h-91h-3h-3v2v3v192q-168 8 -266 80q-101 73 -101 193q0 64 37 107
t89 43q53 0 85 -30.5t32 -72.5q0 -41 -17 -65q-16 -23 -43 -40q-24 -14 -24 -23q0 -35 60 -64t148 -35v449q-185 53 -262 126q-79 74 -79 206t90 217q88 83 251 104v174v2v3h3h3h91h3h2v-3v-2v-172q144 -11 230 -80q89 -72 89 -176q0 -58 -30 -91q-31 -33 -81 -33t-80 27
q-31 28 -31 66q0 37 11 56zM382 892.5q0 -70.5 44 -113.5q44 -42 151 -76v367q-85 -9 -140 -57q-55 -50 -55 -120.5zM679 486v-423q101 12 163 69q62 58 62 141t-55 133q-55 49 -170 80z" />
    <glyph glyph-name="percent" unicode="%" horiz-adv-x="1534" 
d="M626 1183q100 0 165 -76q66 -34 127 -34q178 0 284 129l1 1l1 1h1h1h78h4h5l-2 -1l-3 -1l-730 -1200v-1l-1 -1h-1h-2h-83h-4h-5l3 1l2 1l626 1041q-82 -46 -145 -46q-65 0 -125 20q5 -36 5 -46q0 -106 -54.5 -208.5t-145.5 -168.5t-190 -66q-97 0 -162.5 60t-65.5 155
t59 198t157 173q99 69 200 69zM486 611q52 0 116 55t105 142.5t41 148.5q0 58 -10 91q-61 22 -100 67q-50 -17 -75 -43q-27 -26 -80 -117q-98 -170 -98 -251q0 -42 24.5 -67.5t76.5 -25.5zM1125 611q98 70 195 70q96 0 155.5 -58t59.5 -138q0 -79 -30 -159q-30 -79 -78 -148
q-50 -69 -123 -114q-75 -46 -166 -46q-92 0 -159 60q-68 60 -68 156t58.5 201.5t155.5 175.5zM1189 104q51 0 115 53q65 54 106.5 139t41.5 155q0 69 -29 106q-28 37 -66 37q-72 0 -143 -110q-128 -200 -128 -292q0 -37 26 -62.5t77 -25.5z" />
    <glyph glyph-name="ampersand" unicode="&#x26;" horiz-adv-x="1495" 
d="M1026 282q114 127 114 236q0 36 -29 53q-31 17 -106 17h-36h-3h-2v2v3v83v2v3h2h3h486h3h2v-3v-2v-83v-3v-2h-2h-3h-45q-76 -3 -117 -51l-8 -10q-4 -3 -8 -10q-5 -8 -9 -14q-5 -7 -13 -21t-14.5 -26t-20.5 -37t-34 -62q-31 -56 -98 -138q92 -94 176 -94q52 0 90 41
q38 42 53 118l1 2v2h2h3l84 -9h2l3 -1l-1 -2v-3q-20 -146 -104 -228q-41 -40 -93 -61q-52 -20 -112 -20q-73 0 -131 30q-55 28 -118 96q-84 -67 -169 -101q-87 -34 -176 -34q-179 0 -286 104q-107 105 -107 236q0 249 324 395q-79 149 -79 265q0 119 87.5 203t222.5 84
t214 -64q80 -65 80 -172q0 -108 -74 -181q-72 -71 -233 -139q152 -260 279 -404zM847 865q44 54 44 127.5t-36 115.5t-90.5 42t-89.5 -44q-36 -45 -36 -122q0 -76 69 -220q95 48 139 101zM877 157q-104 117 -163 203t-145 244q-79 -41 -113 -88q-36 -48 -36 -114
q0 -121 87.5 -213.5t201.5 -92.5q70 0 168 61z" />
    <glyph glyph-name="quotesingle" unicode="'" horiz-adv-x="373" 
d="M354 1255.5q25 -27.5 25 -60.5q0 -31 -2 -42l-60 -378v-2l-1 -2h-2h-2h-42h-2h-2l-1 2v2l-58 378q-2 13 -2 44q0 33 25 59.5t62 26.5t62 -27.5z" />
    <glyph glyph-name="parenleft" unicode="(" horiz-adv-x="639" 
d="M637 -208q-216 125 -324 305t-108 414q0 467 432 718l4 3l4 2v-5v-4v-59v-1v-1l-1 -1l-1 -1q-124 -109 -177 -260q-54 -151 -54 -391t54 -391q53 -151 177 -260l1 -1l1 -1v-1v-1v-60v-4v-5l-4 3z" />
    <glyph glyph-name="parenright" unicode=")" horiz-adv-x="639" 
d="M537.5 921q107.5 -185 107.5 -410.5t-108 -410t-325 -308.5l-3 -2l-4 -3v5v4v60v1v1l1 1l1 1q124 109 177 259q54 151 54 391.5t-54 391.5q-53 151 -177 260l-1 1l-1 1v1v1v59v4v5l4 -3l3 -2q218 -123 325.5 -308z" />
    <glyph glyph-name="asterisk" unicode="*" horiz-adv-x="874" 
d="M880 711q0 -34 -22.5 -57t-51.5 -23q-28 0 -45 12q-17 11 -44 52q-48 70 -103 106l-46 28v-55q0 -40 7 -66t29 -76q23 -52 23 -78q0 -27 -26 -52t-58.5 -25t-59 26t-26.5 51q0 23 23 75q38 82 38 145v55l-44 -28q-37 -24 -58 -46t-47 -61q-27 -41 -44 -52
q-18 -11 -46 -11q-29 0 -51.5 23.5t-22.5 56.5q0 85 92 99h1q58 5 85.5 11.5t64.5 22.5l43 19l-43 19q-53 26 -146 36q-97 9 -97 97q0 32 23 56.5t52 24.5q27 0 45 -11q17 -11 44 -52q49 -72 105 -107l44 -28v55q0 43 -7 68q-7 24 -29 74q-23 51 -23 76q0 26 25.5 51.5
t58 25.5t58.5 -25t26 -53q0 -26 -30 -91q-29 -63 -29 -126v-55l46 28q34 22 55 44t48 62q27 41 44 52q17 12 45 12q29 0 51.5 -23.5t22.5 -57.5q0 -84 -92 -97h-1q-58 -5 -85.5 -11.5t-62.5 -23.5l-43 -20l43 -20q33 -16 58 -21q26 -5 91 -12q92 -14 92 -99z" />
    <glyph glyph-name="plus" unicode="+" horiz-adv-x="1105" 
d="M1106 333h-367v-373v-2v-3h-3h-2h-152h-2h-3v3v2v373h-367h-2h-3v3v2v155v3v2h3h2h367v373v3v2h3h2h152h2h3v-2v-3v-373h367h2h3v-2v-3v-155v-2v-3h-3h-2z" />
    <glyph glyph-name="comma" unicode="," horiz-adv-x="478" 
d="M484 9q0 -184 -220 -344l-2 -1l-1 -1l-2 1l-1 1l-51 44l-3 2l-2 2l3 2l2 2q166 119 166 226q0 10 -6 10h-3q-7 -2 -38 -2q-35 0 -65 32.5t-30 84.5t33 86.5t88 34.5t94 -50q38 -49 38 -130z" />
    <glyph glyph-name="hyphen" unicode="-" horiz-adv-x="685" 
d="M685 308h-475h-2h-3v2v3v160v3v2h3h2h475h3h2v-2v-3v-160v-3v-2h-2h-3z" />
    <glyph glyph-name="period" unicode="." horiz-adv-x="447" 
d="M417 157.5q36 -36.5 36 -88t-36.5 -88t-88.5 -36.5t-88 37q-35 36 -35 88q0 51 36 87.5t88 36.5t88 -36.5z" />
    <glyph glyph-name="slash" unicode="/" horiz-adv-x="750" 
d="M756 1225l-444 -1251l-1 -1v-2h-2h-2h-97h-4h-3l1 3l1 4l444 1251l1 1v2h2h2h97h4h3l-1 -3z" />
    <glyph glyph-name="zero" unicode="0" horiz-adv-x="956" 
d="M854 887q51 -74 78 -174t27 -214q0 -117 -29.5 -214t-82.5 -168q-27 -35 -58.5 -62.5t-68.5 -46.5q-76 -39 -167 -39q-89 0 -163 40q-72 40 -125 112q-52 72 -81.5 169.5t-29.5 213.5q0 117 30 216.5t84.5 172.5t129.5 113q77 41 169 41t165 -43q71 -43 122 -117z
M729.5 296.5q4.5 41.5 7 98t2.5 131.5q0 73 -3 126.5t-9.5 94t-16.5 68.5q-10 29 -25 54q-26 43 -61 65q-33 21 -70 21q-42 0 -79 -29q-38 -29 -64 -83q-11 -23 -18 -50.5t-11.5 -64t-7 -84t-2.5 -109.5q0 -87 3 -150t9 -108t16 -75t26 -55q26 -43 60 -65q33 -21 70 -21
q42 0 79 29q38 30 64 81q11 23 18.5 53.5t12 72z" />
    <glyph glyph-name="one" unicode="1" horiz-adv-x="869" 
d="M780 0h-2h-3h-623h-2h-3v2v3v88v3v2h3h2h96q44 0 70 1q25 1 38 4q12 6 15 17q4 13 4 34v604q0 32 -3 49q-3 15 -10.5 22.5t-24.5 9.5q-17 3 -49 3h-130h-2h-3v2v3v80v2v2h3h2q55 0 108.5 8.5t99.5 23.5t82 34t55 41l1 1l1 1h1h1h65h3h2v-3v-2q-5 -77 -7.5 -132.5
t-2.5 -108.5v-592v-46q0 -16 1 -24q1 -7 2 -9l6 -6v0q8 -10 33 -14q26 -5 85 -5h81h3h2v-2v-3v-88v-3v-2z" />
    <glyph glyph-name="two" unicode="2" horiz-adv-x="914" 
d="M840 355l-1 -3v-3l-36 -345v-2v-2h-3h-2h-741h-3h-2v2v3v51v2l1 2q25 30 43.5 53.5t35.5 43t33.5 37.5t38.5 41l218 206q49 47 85 88.5t58.5 80.5t33 76t10.5 76q0 87 -52 136q-52 50 -144 50q-42 0 -79.5 -12t-64.5 -31t-43 -45q-15 -24 -15 -49q0 -6 1 -9t5 -6
q5 -4 16 -8q12 -5 33 -13q25 -11 41 -34q16 -22 16 -50q0 -40 -31 -65q-29 -24 -79 -24q-63 0 -101 44q-37 44 -37 115q0 58 29 109t79.5 88.5t118.5 58.5q70 21 151 21q84 0 154 -20q68 -21 118 -58t78 -87.5t28 -111.5q0 -102 -78 -194q-13 -16 -33.5 -34t-49.5 -40
t-69 -51q-41 -29 -97 -65q-40 -26 -69 -46t-57 -41.5t-59 -47.5q-27 -23 -62 -55h349q36 0 57 3q20 3 33 12q13 8 20 26q7 19 14 52l16 71l1 2v2h2h2h83h3h3z" />
    <glyph glyph-name="three" unicode="3" horiz-adv-x="913" 
d="M296 211q-16 -20 -53 -37q-12 -7 -19 -11t-10 -7q-3 -2 -3 -4q-1 -2 -1 -6q0 -14 16 -29q16 -17 43 -29q27 -13 61 -21q36 -8 71 -8q101 0 155 57q54 58 54 165q0 104 -41 156t-121 52h-9q-4 -1 -14.5 -2t-29 -1.5t-52.5 -0.5q-50 0 -50 52q0 56 51 56q19 0 47 -3
q27 -2 43 -2q75 0 114 48t39 143q0 87 -38 132q-39 44 -115 44q-30 0 -59 -7t-52 -18q-23 -12 -36 -26q-13 -13 -13 -26q0 -8 16 -20q26 -18 36 -36t10 -41q0 -40 -30 -64q-29 -24 -76 -24q-50 0 -83.5 31t-33.5 78q0 52 25.5 97.5t71.5 78.5q45 32 106 50q64 19 138 19
q78 0 141 -19q61 -18 104.5 -52t67.5 -82t24 -108q0 -94 -63 -154q-57 -55 -159 -89q128 -33 191 -94q67 -66 67 -174q0 -69 -28 -125.5t-81 -96.5q-26 -20 -57.5 -35.5t-68.5 -25.5q-75 -22 -166 -22q-82 0 -150 18q-66 17 -113.5 50.5t-73.5 78.5q-27 46 -27 102
q0 60 36.5 97.5t94.5 37.5q51 0 85 -26q34 -27 34 -67q0 -29 -16 -50z" />
    <glyph glyph-name="four" unicode="4" horiz-adv-x="879" 
d="M836 245h-2h-3h-173v-96q0 -20 1 -32q2 -9 10 -14q11 -3 33 -4q24 -1 69 -1h20h3h2v-2v-3v-88v-3v-2h-2h-3h-478h-3h-2v2v3v88v3v2h2h3h32q46 0 71 1q23 1 34 4q9 5 10 14q2 12 2 32v96h-416h-2h-3v2v3v84v2l1 1l536 713v1l1 1h1h2h78h3h2v-3v-2q-2 -42 -3 -67t-2.5 -52
t-1.5 -66v-108v-394h173h3h2v-2v-3v-105v-2v-3zM462 786l-316 -426h316v426z" />
    <glyph glyph-name="five" unicode="5" horiz-adv-x="914" 
d="M399 59q60 0 103 14q42 18 69 51q26 34 38 83q12 50 12 112q0 122 -55 189t-152 67q-45 0 -83 -13q-36 -13 -73 -36q-13 -89 -89 -89q-29 0 -47 15t-18 38q0 19 12 36q12 16 40 41q20 144 33 265q12 122 18 221v3v3l3 -1h3q62 -11 107 -17q46 -8 82.5 -13.5t69.5 -7.5
t72 -2q35 0 61 2q26 1 50 5.5t47 11.5t50 19q7 1 13 1q7 1 11 1q18 0 17 -21q0 -11 -5 -26q-5 -14 -19 -39q-39 -76 -111.5 -115t-177.5 -39q-23 0 -45 1.5t-44.5 5t-48.5 10.5q-23 5 -53 13l-22 -220q27 14 51 23q28 11 52.5 17.5t49 9t50.5 2.5q84 0 151 -25
q66 -24 113.5 -70t73.5 -110t26 -142q0 -83 -30 -150.5t-85.5 -115t-133.5 -72.5q-80 -25 -181 -25q-78 0 -141 20q-62 20 -105.5 54t-67.5 79t-24 97q0 27 10.5 51.5t28.5 42t42 28t51 10.5q50 0 82 -27q33 -28 33 -67q0 -31 -14 -49q-14 -19 -53 -39q-25 -13 -25 -27
t14 -29q15 -15 40 -27.5t57 -20.5q33 -7 67 -7z" />
    <glyph glyph-name="six" unicode="6" horiz-adv-x="930" 
d="M779.5 559.5q42.5 -42.5 67 -101t24.5 -126.5q0 -73 -29.5 -139.5t-80.5 -116.5t-123 -79q-73 -29 -160 -29q-97 0 -175 35q-75 34 -128.5 97.5t-83 152.5t-29.5 199q0 114 32 221.5t95 189.5t154 132q94 50 216 50q61 0 111.5 -13.5t87 -38t57.5 -58.5q22 -35 22 -75
q0 -50 -35 -82q-35 -31 -89 -31q-50 0 -81 24q-34 25 -34 63q0 16 6 31q5 15 17 35v1q5 6 6 10q1 3 1 7q0 16 -20 25q-21 10 -59 10q-71 0 -127 -42t-88 -117q-12 -29 -20 -54.5t-14 -57.5q-6 -33 -11 -79q-3 -40 -8 -97q54 71 114 105q67 38 152 38q71 0 130.5 -23.5
t102 -66zM483 57q40 0 72 14q32 17 55 51q22 35 34.5 83.5t12.5 108.5q0 100 -45 155t-125 55q-91 0 -143 -61q-51 -61 -51 -169q0 -52 15 -96t40.5 -76.5t60.5 -50.5q34 -14 74 -14z" />
    <glyph glyph-name="seven" unicode="7" horiz-adv-x="909" 
d="M839 996v-1l-1 -1v0q-7 -14 -9.5 -23.5t-5.5 -13.5l-66 -141q-56 -119 -90.5 -205t-53.5 -154.5t-26.5 -129t-7.5 -127.5q0 -14 0.5 -28.5t0.5 -29.5q0 -99 -29 -141q-29 -43 -104 -43q-60 0 -94 31q-33 30 -33 82q0 47 21 115q22 67 62 151q16 33 29.5 58.5t32.5 59
t49.5 83t78.5 131.5l113 192l-93 -2q-30 0 -70 2t-84 4.5t-90 4.5q-44 2 -80 2q-18 0 -28 -4q-10 -3 -19 -14t-16 -32q-6 -22 -16 -59l-29 -116l-1 -2l-1 -2h-2l-2 1l-83 10h-2h-3v3l1 2l59 390v2v2h3h2q65 -1 119 -2q55 0 107 -2q53 -2 102 -3.5t102 -1.5q38 0 67.5 0.5
t58 1.5t58.5 2t67 3h3h3v-1v-2v-52z" />
    <glyph glyph-name="eight" unicode="8" horiz-adv-x="914" 
d="M613 570q123 -49 178 -113q59 -68 59 -167q0 -70 -27.5 -130t-80 -102.5t-127.5 -66.5q-77 -24 -176 -24q-88 0 -159 20q-69 20 -118 56t-75.5 87t-26.5 112q0 94 62 157q59 61 188 105q-99 47 -142 106q-46 62 -46 145q0 62 26 115.5t70.5 92t108.5 59.5q65 22 141 22
q73 0 134 -18q59 -18 102 -50.5t67 -76.5q25 -44 25 -98q0 -75 -47 -132q-44 -54 -136 -99zM623.5 683.5q12.5 22.5 18.5 46t6 50.5q0 38 -12.5 69.5t-36.5 54.5q-25 24 -59 36t-76 12q-43 0 -77.5 -11t-59.5 -31q-25 -19 -37.5 -46.5t-12.5 -60.5q0 -61 38 -103
q40 -43 129 -73l95 -35q29 25 50 46q22 23 34.5 45.5zM626 106q31 24 47.5 58t16.5 76q0 70 -36 114q-37 44 -123 73l-138 48q-90 -39 -128 -90q-39 -53 -39 -131q0 -94 57 -146q58 -52 165 -52q56 0 102 13q45 13 76 37z" />
    <glyph glyph-name="nine" unicode="9" horiz-adv-x="930" 
d="M753.5 908q53.5 -65 83 -156.5t29.5 -203.5q0 -116 -32 -222t-94.5 -185.5t-155.5 -126.5q-95 -48 -218 -48q-60 0 -109.5 13t-87.5 37q-38 23 -58 56q-21 34 -21 71q0 23 9.5 44t27.5 36q17 14 40.5 23.5t50.5 9.5q47 0 79 -25q33 -25 33 -62v-13q0 -7 -3 -14t-7 -15.5
t-10 -20.5q-9 -16 -9 -21q0 -13 20 -21q23 -9 58 -9q76 0 134 44q57 44 87 124q10 27 16.5 51.5t12.5 55.5q6 32 12 77q4 38 10 94q-27 -36 -53 -61q-32 -31 -65 -50t-70 -27t-82 -8q-71 0 -130 24t-101.5 66.5t-67 101t-24.5 127.5q0 77 30 144.5t81.5 117.5t122.5 78
q72 29 156 29q97 0 176 -35q76 -35 129.5 -100zM581 534q25 27 40 67q14 41 14 95q0 57 -13 105t-37 81q-23 34 -56.5 51.5t-74.5 17.5q-42 0 -76 -17.5t-58 -48.5q-23 -32 -36 -78t-13 -103q0 -111 45 -168t131 -57q40 0 74.5 14t59.5 41z" />
    <glyph glyph-name="colon" unicode=":" horiz-adv-x="447" 
d="M417 157.5q36 -36.5 36 -88t-36.5 -88t-88.5 -36.5t-88 37q-35 36 -35 88q0 51 36 87.5t88 36.5t88 -36.5zM417 782.5q36 -36.5 36 -88t-36.5 -88t-88.5 -36.5t-87.5 36.5t-35.5 88t36 88t88 36.5t88 -36.5z" />
    <glyph glyph-name="semicolon" unicode=";" horiz-adv-x="479" 
d="M485 9q0 -183 -251 -344l-3 -2l-2 -1l-1 2l-2 3l-21 44v2l-1 2l1 1l2 1q166 119 166 226q0 10 -8 10h-5q-7 -2 -43 -2q-41 0 -75 32.5t-34 84.5t35.5 86.5t96.5 34.5q60 0 103 -50q42 -49 42 -130zM422 780.5q36 -36.5 36 -88t-36 -88t-88 -36.5t-88 36.5t-36 88t36 88
t88 36.5t88 -36.5z" />
    <glyph glyph-name="less" unicode="&#x3c;" horiz-adv-x="981" 
d="M980 -21l-772 372l-2 1l-1 1v1v2v122v2v1l1 1l2 1l772 372l3 1l4 2v-4v-4v-144v-2v-1l-1 -1h-2l-581 -285l581 -285h2l1 -1v-1v-2v-144v-4v-4l-4 2z" />
    <glyph glyph-name="equal" unicode="=" horiz-adv-x="1085" 
d="M1086 484h-876h-2h-3v2v3v154v3v2h3h2h876h2h3v-2v-3v-154v-3v-2h-3h-2zM1086 184h-876h-2h-3v2v3v155v2v3h3h2h876h2h3v-3v-2v-155v-3v-2h-3h-2z" />
    <glyph glyph-name="greater" unicode="&#x3e;" horiz-adv-x="981" 
d="M984 351l-772 -372l-3 -1l-4 -2v4v4v144v2v1l1 1h2l582 285l-582 285h-2l-1 1v1v2v144v4v4l4 -2l3 -1l772 -372l2 -1l1 -1v-1v-2v-122v-2v-1l-1 -1z" />
    <glyph glyph-name="question" unicode="?" horiz-adv-x="908" 
d="M914 944q0 -89 -43 -153q-42 -63 -152 -153q-108 -89 -131 -141t-23 -177v-2v-3h-3h-2h-84h-2h-3v3v2v54q0 102 15 142q15 39 18 47t6 15q4 8 10 19q7 10 12 17.5t18.5 25t23.5 31t33 43.5t42 55q55 72 55 171t-49.5 151.5t-124.5 52.5t-122 -25q-45 -24 -45 -53
q0 -7 12 -25q41 -62 41 -102q1 -41 -28 -68.5t-74 -27.5q-44 0 -77 39q-32 39 -32 98q0 114 103 188q101 73 256 73q156 0 253 -82t97 -215zM602 155.5q36 -36.5 36 -88t-36 -88t-88 -36.5t-88 36.5t-36 88t36.5 88t88 36.5t87.5 -36.5z" />
    <glyph glyph-name="at" unicode="@" horiz-adv-x="1328" 
d="M789 69q264 0 412 248v1l1 1h2h1h112h4h4l-2 -4l-1 -3q-65 -147 -217 -250q-76 -51 -158 -76.5t-170 -25.5q-175 0 -317.5 82.5t-223.5 228t-81 324.5t82 329t223.5 234t310.5 84q114 0 218.5 -41t180 -110.5t120 -165t44.5 -207t-58 -226.5t-153 -188q-95 -74 -197 -74
q-57 0 -92 33t-35 73q0 20 1 33q-46 -66 -85 -95q-44 -33 -99 -33q-94 0 -160 73t-66 180t53 204.5t138 157.5t183 60q92 0 131 -106l25 85l1 2v2h2h2h149h3h3v-3l-1 -3l-122 -484q-6 -24 -6 -45q0 -39 42 -39q45 0 100 57q57 59 94.5 151t37.5 190t-57.5 194.5
t-160.5 156.5t-237.5 60t-250.5 -68.5t-181.5 -190t-65.5 -275t66.5 -274.5t183.5 -189t267 -68zM823.5 548q29.5 91 29.5 155q0 124 -72 124q-53 0 -104 -68q-51 -70 -78 -157t-27 -148q0 -62 21 -94q20 -32 61 -32q42 0 90 64q50 65 79.5 156z" />
    <glyph glyph-name="A" unicode="A" horiz-adv-x="1360" 
d="M465 111q25 -8 52 -8q29 4 53 4h5v-107h-455v107h32q38 0 62 15q25 14 41 38q18 24 29 53q11 31 23 60l383 951l1 3h84l423 -1027q16 -39 27 -59t25.5 -28t38.5 -10q24 4 66 4h5v-107h-530v107h5q13 0 26 -0.5t26 -0.5q10 0 30 -1q19 0 39 1q19 4 34 11q12 6 12 17
q0 5 -6 22q-5 18 -15.5 41t-22 50t-23 51.5t-20.5 44.5q-8 17 -12 27h-428q-7 -17 -17 -40q-12 -26 -23 -54t-19 -54q-8 -25 -8 -41q0 -31 16 -47t41 -23zM515 493h345l-174 433z" />
    <glyph glyph-name="B" unicode="B" horiz-adv-x="1263" 
d="M986 26q-55 -14 -112 -20t-107 -6h-642h-3h-2v2v3v93v2v3h2h3h28h31q22 0 44 2t40 7q17 5 22 12q6 10 7 21q1 12 1 24v859q0 17 -3 32q-2 14 -16 24q-6 3 -26 6q-20 2 -45 3t-48 1h-35h-3h-2v2v8v95v3v2h2h3h632q50 0 101.5 -5.5t100 -19t91 -35.5t74 -55.5t50 -79
t18.5 -105.5q0 -61 -23 -108t-61 -81.5t-88 -57.5q-39 -17 -83 -29q58 -11 110 -28q62 -21 111 -58q48 -36 76.5 -91t28.5 -135q0 -62 -23 -109.5t-61 -83t-88 -59.5q-50 -23 -105 -38zM884.5 1049.5q-32.5 24.5 -79.5 34.5q-48 10 -108 10h-65q-23 0 -42 -1q-18 -2 -31 -8
q-13 -7 -20 -20q-7 -15 -7 -40v-350h138q58 0 110 7t90 28q38 22 60 62.5t22 107.5q0 63 -17 104q-18 41 -50.5 65.5zM908 529q-47 24 -108 31q-63 6 -130 6h-138v-373q0 -31 2 -49q2 -17 10 -25.5t26 -12.5q18 -3 50 -3h70q67 0 125 6q58 7 102 30q42 24 67.5 69t25.5 124
q0 81 -28 127t-74 70z" />
    <glyph glyph-name="C" unicode="C" horiz-adv-x="1211" 
d="M997 39.5q-36 -23.5 -77 -40.5q-84 -34 -190 -34q-140 0 -253.5 45.5t-192 127.5t-121.5 195t-43 247q0 81 19 160.5t55 151t87.5 133t116.5 105.5q65 45 143.5 70.5t167.5 25.5q47 0 87 -8t77 -24t72 -38q31 -20 66 -47l60 98v1l1 1h2h1h105h2h3v-3v-2v-489v-3v-2h-3h-2
h-91h-2h-2v2l-1 2q-21 70 -48 143q-26 72 -67 130q-41 57 -102 94q-60 36 -148 36q-72 0 -124.5 -24.5t-89.5 -65.5t-60 -96q-23 -54 -36.5 -114t-18 -121.5t-4.5 -115.5q0 -60 5 -120.5t19.5 -117t39.5 -105.5t64 -85t94.5 -57t130.5 -21q86 0 149 27.5t106 76t69 113.5
q27 66 41 143l1 2v3l2 -1h3l97 -15h2l3 -1l-1 -2v-3q-14 -97 -51 -180t-97 -144q-30 -30 -66 -53.5z" />
    <glyph glyph-name="D" unicode="D" horiz-adv-x="1369" 
d="M1197.5 149q-83.5 -75 -204.5 -112q-31 -9 -63 -16t-66.5 -11.5t-71 -7t-74.5 -2.5h-593h-3h-2v2v3v93v2v3h2h3h26q19 0 45 -1t49 3t39 15q15 11 15 35v873q0 17 -3 32q-3 13 -18 24q-6 3 -26 6q-20 2 -45 3t-48 1h-34h-3h-2v2v8v95v3v2h2h3h560q49 0 105.5 -3
t112.5 -11.5t108 -23.5q53 -16 96 -42q71 -44 121 -99.5t81.5 -121t45.5 -139.5t14 -155q0 -156 -44 -270q-44 -115 -127.5 -190zM1025 951q-43 67 -120 105t-202 38h-86q-28 0 -45 -2q-16 -3 -24.5 -10.5t-11.5 -22.5q-4 -16 -4 -45v-832q0 -29 3 -45q3 -15 12 -23
q9 -7 24 -9q17 -2 46 -2h114q80 0 138.5 18t99.5 51t66 78q26 46 40.5 100.5t19.5 117t5 129.5q0 106 -16 197q-15 90 -59 157z" />
    <glyph glyph-name="E" unicode="E" horiz-adv-x="1250" 
d="M1211 0h-3h-2h-1081h-3h-2v2v3v93v2v3h2h3h31h27q18 0 37.5 1t35.5 3q16 3 22 6q14 9 17 24q3 16 3 33v858q0 17 -3 33q-2 13 -16 23q-7 3 -28 6q-20 2 -44.5 3t-47.5 1h-34h-3h-2v2v8v95v3v2h2h3h1083h2h3v-2v-3v-433v-2v-3h-3h-2h-90h-2h-2l-1 2v2q-14 80 -32 135
q-19 56 -43 92q-25 36 -57 57q-34 20 -79 30t-103 13q-58 2 -133 2q-28 0 -53 7q-24 1 -42 -4t-28.5 -19.5t-10.5 -48.5v-354h30q58 0 100 12t69 38t40 66q14 41 17 99v3v2h2h3h99h3h2v-3v-2v-548v-2v-3h-2h-3h-99h-3h-2v2v3q-2 75 -17 119t-45.5 67t-78.5 31q-48 7 -115 7
v-395q0 -27 8 -40q8 -14 22 -20q15 -6 35 -7t42 -1h120q102 0 169 19t109.5 60.5t67.5 106.5q25 66 43 161v2l1 2h2h2h92h3h2v-3v-2l-39 -444v-3v-2z" />
    <glyph glyph-name="F" unicode="F" horiz-adv-x="1204" 
d="M1103 761l-1 2v2q-14 83 -33 139q-19 57 -46 93q-26 36 -62 56q-36 19 -84 29q-49 9 -110 11q-61 1 -139 1q-24 0 -43 -1q-18 -1 -30 -7q-11 -5 -17 -19q-6 -15 -6 -42v-350h30q59 0 101 12q41 12 67.5 38.5t40.5 66.5q14 41 17 98v3v2h3h2h100h2h3v-3v-2v-548v-3v-2h-3
h-2h-100h-2h-3v2v3q-2 75 -16 120q-15 44 -45 67t-79 30q-48 7 -116 7v-407q0 -17 3 -27q3 -9 18 -18q8 -6 32 -8q24 -3 53 -3h56h39h3h2v-3v-2v-93v-3v-2h-2h-3h-608h-3h-2v2v3v93v2v3h2h3h29h28q13 0 27 1q22 1 39 2t28 7q10 6 16 18q6 13 6 39v858q0 17 -3 33
q-2 13 -16 23q-7 3 -28 6q-20 2 -44.5 3t-47.5 1h-34h-3h-2v2v8v95v3v2h2h3h1074h3h2v-2v-3v-433v-2v-3h-2h-3h-92h-2h-2z" />
    <glyph glyph-name="G" unicode="G" horiz-adv-x="1400" 
d="M1230 423q-5 -13 -4 -32q2 -21 2 -51v-364v-2v-3h-2h-3h-87h-2h-2v1l-1 2l-65 146q-39 -38 -77 -65q-40 -29 -84 -48.5t-93.5 -28.5t-108.5 -9q-125 0 -233 47t-185 128t-121 188.5t-44 228.5q0 86 18.5 169t55 157t89 136t119.5 107q68 46 150 71t176 25q49 0 90.5 -7.5
t79 -23.5t72.5 -39q33 -21 68 -51l69 104l1 1l1 1h1h1h106h3h2v-3v-2v-476v-2v-3h-2h-3h-89h-2h-2l-1 2v2q-19 73 -50 144q-31 69 -76 124q-46 54 -109.5 87t-150.5 33q-73 0 -127.5 -23.5t-93 -63t-63.5 -91.5q-26 -52 -41 -111t-20.5 -121t-5.5 -119q0 -58 5.5 -118
t20 -117t40.5 -107q24 -50 63 -87t93 -59t127 -22q70 0 122.5 21t86.5 58.5t52 90.5q17 54 17 120v20q-1 10 -3 21q-2 10 -5 19q-4 8 -11 13t-27 8q-21 2 -46 3.5t-49 1.5q-24 -1 -37 -1h-3h-2v3v2v99v3v2h2h3h560h3h2v-2v-3v-99v-3v-2h-3h-2l-29 1h-30q-15 0 -29 -2
q-39 -4 -56 -11q-16 -7 -21 -18z" />
    <glyph glyph-name="H" unicode="H" horiz-adv-x="1485" 
d="M256 107q15 3 23 6q14 8 17 24q3 17 3 33v858q0 16 -3 33q-3 15 -16 22q-9 4 -29 7q-21 2 -45 3t-46 1h-35h-3h-2v2v8v95v3v2h2h3h584h2h3v-2v-3v-95v-8v-2h-3h-2h-35q-10 0 -30 -0.5t-41.5 -2t-39.5 -4.5q-17 -3 -20 -8q-7 -10 -9 -22q-2 -14 -2 -27v-347h541v347
q0 22 -5 38q-4 14 -27 19q-33 8 -68 7h-70h-2h-3v2v8v95v3v2h3h2h577h2h3v-2v-3v-95v-8v-2h-3h-2h-31h-28q-18 0 -37 -1.5t-36 -3.5q-16 -3 -22 -6q-14 -8 -17 -23q-3 -16 -3 -32v-862q0 -11 1 -23q2 -10 7 -18q6 -9 27 -13q22 -5 48.5 -7t52.5 -2h38h2h3v-3v-2v-93v-3v-2
h-3h-2h-583h-2h-3v2v3v93v2v3h3h2h30h32q21 0 43 2q23 2 41 7q17 4 22 11q5 8 7 19q1 12 1 23v396h-541v-392q0 -19 6 -38q5 -16 25 -21q35 -7 73 -7h73h2h3v-3v-2v-93v-3v-2h-3h-2h-584h-3h-2v2v3v93v2v3h2h3h33h28q17 0 35 1t35 3z" />
    <glyph glyph-name="I" unicode="I" horiz-adv-x="708" 
d="M270 112q17 5 22 12q5 9 7 19q1 12 1 22v867q0 14 -3 30q-3 15 -15 22q-9 4 -29 7q-21 2 -45.5 2.5t-47.5 0.5h-35h-3h-2v2v8v95v3v2h2h3h578h3h2v-2v-3v-95v-8v-2h-2h-3h-77h-22q-15 0 -29 -2.5t-26 -6.5q-10 -4 -14 -10v-1q-4 -7 -5 -15q-1 -10 -1 -19v-870
q0 -19 6 -38q5 -17 25 -22q34 -9 70 -8q38 1 73 1h3h2v-3v-2v-93v-3v-2h-2h-3h-578h-3h-2v2v3v93v2v3h2h3h30h31q22 0 44 2t40 7z" />
    <glyph glyph-name="J" unicode="J" horiz-adv-x="1067" 
d="M810 97q-45 -62 -126 -96q-80 -33 -205 -33q-75 0 -141 21q-64 20 -113 60.5t-77 101t-28 138.5q0 35 9 75.5t29 74.5q19 35 50 58t75 23q65 0 104 -41q38 -41 38 -105q0 -21 -5 -46t-17 -47q-11 -22 -30 -38q-18 -16 -44 -16q-19 0 -36 5q-16 5 -32 5q-6 0 -7 -3
q-1 -7 -1 -13q0 -34 18 -60q19 -26 47 -45t62 -29q35 -10 66 -10q51 0 85.5 15.5t58 41.5t36.5 60q13 35 19 74t7.5 79.5t1.5 79.5v602q0 18 -2 32q-1 11 -19 21q-9 5 -31 8q-24 2 -50.5 3t-51.5 1h-38h-2h-3v2v8v95v3v2h3h2h600h2h3v-2v-3v-95v-8v-2h-3h-2q-17 0 -32.5 0.5
t-32.5 0.5h-25q-16 -1 -31.5 -3.5t-28.5 -7.5q-13 -4 -17 -11q-5 -9 -6 -21q-1 -14 -1 -24v-585q0 -109 -17 -197q-16 -87 -61 -149z" />
    <glyph glyph-name="K" unicode="K" horiz-adv-x="1455" 
d="M269 112q17 5 22 12q5 10 7 21q1 13 1 24v859q0 16 -3 33q-3 15 -17 23q-8 4 -28 7q-20 2 -44 2.5t-47 0.5h-35h-3h-2v2v8v95v3v2h2h3h585h3h2v-2v-3v-95v-8v-2h-2h-3h-35q-23 0 -46.5 -0.5t-44.5 -2.5q-20 -3 -28 -7l-1 -1q-15 -7 -19 -15q-4 -10 -4 -26v-477l393 383
l23 22q13 13 25.5 28.5t21.5 30.5t9 27q0 16 -16 24q-18 9 -43 12t-49 3q-25 -1 -38 -1h-3h-2v2v8v95v3v2h2h3h525h3h2v-2v-3v-95v-8v-2h-2h-3q-84 0 -152 -34q-69 -35 -128 -92l-243 -234l400 -554q24 -33 42 -49t37 -22q21 -6 46 -6h65h2h3v-3v-2v-93v-3v-2h-3h-2h-580h-3
h-2v2v3v93v2v3h2h3h24q12 4 25 4q9 0 28 -4q19 0 38 3t34 10q12 5 12 14q0 14 -11 32q-13 19 -21 31l-284 403l-183 -179v-252q0 -11 1 -22q2 -10 7 -18q6 -9 27 -13q23 -5 51 -7t54 -2h38h3h2v-3v-2v-93v-3v-2h-2h-3h-585h-3h-2v2v3v93v2v3h2h3h29h31q21 0 43 2t41 7z" />
    <glyph glyph-name="L" unicode="L" horiz-adv-x="1196" 
d="M555 1082q-16 -6 -20 -18q-3 -10 -3 -22v-870q0 -28 8.5 -41.5t23.5 -19.5q16 -6 36 -7q21 -1 44 -1h69q103 0 170 22q67 21 109 65.5t65 112.5t37 163v2l1 2h2h2h92h3h2v-3v-2l-40 -460v-3v-2h-3h-2h-1026h-3h-2v2v3v93v2v3h2h3h28h31q22 0 44 2t40 7q17 5 22 12
q6 10 7 21q1 12 1 24v859q0 16 -3 33q-3 15 -16 23q-9 4 -29 7q-20 2 -44 2.5t-46 0.5h-35h-3h-2v2v8v95v3v2h2h3h584h2h3v-2v-3v-95v-8v-2h-3h-2h-30q-13 0 -36 1q-22 0 -46 -3q-23 -3 -42 -10z" />
    <glyph glyph-name="M" unicode="M" horiz-adv-x="1664" 
d="M122 103h3q14 1 31 2t34.5 4t33.5 8t26 13q23 16 36 41q12 25 18 53q6 29 8 59q1 30 1 56v689q0 16 -3 33q-3 15 -17 23q-8 4 -28 7q-21 2 -46 2.5t-48 0.5h-35h-2h-3v2v8v95v3v2h3h2h450h2h2v-2l1 -1l314 -853l296 853l1 1v2h2h2h453h3h2v-2v-3v-95v-8v-2h-2h-3h-29h-28
q-19 0 -38 -1.5t-37 -3.5q-16 -3 -22 -6q-14 -8 -17 -23q-3 -16 -3 -32v-872q0 -16 3 -26q3 -9 17 -17q8 -5 28 -7q21 -3 45 -3h46h35h3h2v-3v-2v-93v-3v-2h-2h-3h-582h-3h-2v2v3v93v2v3h2h3h29h30q21 0 44 2q22 1 41 5q16 3 20 8q8 10 9 24q2 14 2 28v852l-353 -1019l-1 -1
v-2h-2h-2h-75h-1h-2l-1 2v1l-380 1028v-697q0 -43 3 -82q4 -38 18 -68t41.5 -49t76.5 -24h1q12 -2 23 -2q13 0 25 -6h2h2v-3v-2v-93v-3v-2h-2h-3h-497h-3h-2v2v3v93v2v3h2z" />
    <glyph glyph-name="N" unicode="N" horiz-adv-x="1456" 
d="M1264 -23h-2h-3h-85h-2h-1l-1 1v1l-734 964v-608q0 -42 3 -81q4 -38 18 -68q13 -31 41 -50.5t77 -24.5v0q12 -2 24 -2t25 -6h2h2v-3v-2v-93v-3v-2h-2h-3h-496h-3h-2v2v3v93v2v3h2h3q14 0 31 1.5t34.5 4.5t33.5 8t26 13q22 16 34 42q13 26 19 56t8 61q1 31 1 57v703
q-15 19 -37 29t-48 14q-25 3 -52 2h-52h-3h-2v2v8v95v3v2h2h3h362h2h1l1 -2l650 -847v513q0 20 -1 44.5t-4.5 48t-10.5 46.5q-7 21 -18 38q-14 18 -31 28q-18 11 -37 16q-20 6 -41 7q-22 2 -44 3h-3h-2v2v3v95v3v2h2h3h497h3h2v-2v-3v-95v-6v-2h-2l-2 -1q-13 -2 -25 -2
t-23 -2v0q-56 -6 -85 -30.5t-41 -61.5t-13 -81q-1 -45 -1 -90v-846v-2v-3z" />
    <glyph glyph-name="O" unicode="O" horiz-adv-x="1338" 
d="M1163.5 149.5q-82.5 -84.5 -199 -132t-255.5 -47.5q-86 0 -164 24q-77 23 -143 66q-65 42 -117 100.5t-89 128t-56.5 148t-19.5 159.5q0 132 44.5 247t125 200t195 134t252.5 49q134 0 245.5 -50.5t190 -136.5t122 -199.5t43.5 -240.5q0 -135 -46 -250t-128.5 -199.5z
M951 1033.5q-37 38.5 -90.5 61t-126.5 22.5q-76 0 -131 -22t-93.5 -59.5t-62.5 -87.5q-24 -51 -38 -108.5t-18 -118.5q-5 -61 -5 -120q0 -58 5 -120q4 -61 18 -119t37 -110q24 -51 61.5 -89.5t92 -61t129.5 -22.5t129.5 22.5t92 61t61.5 89.5q23 51 37 109t18 119
q5 62 5 120q0 56 -5 117q-4 61 -18 118.5t-37 108.5q-24 51 -61 89.5z" />
    <glyph glyph-name="P" unicode="P" horiz-adv-x="1231" 
d="M850 523q-65 -4 -130 -4h-188v-350q0 -13 1 -24q2 -11 7 -22q5 -8 28 -12q25 -5 55 -7q31 -1 59 -1h40h2h3v-3v-2v-93v-3v-2h-3h-2h-597h-3h-2v2v3v93v2v3h2h3h30h27q13 0 27 1q22 1 39 2q17 2 28 7q10 6 16 18q6 13 6 39v858q0 17 -3 33q-2 13 -16 23q-7 3 -28 6
q-20 2 -44.5 3t-47.5 1h-34h-3h-2v2v8v95v3v2h2h3h620q86 0 173 -14.5t156 -52.5q69 -37 113 -103t44 -169q0 -47 -12 -93.5t-39 -85.5q-39 -59 -92 -93q-52 -33 -112 -49q-60 -17 -126 -21zM978 862q0 122 -61 177t-186 55h-119q-25 0 -41 -1q-15 -2 -23.5 -8.5
t-11.5 -19.5q-4 -15 -4 -41v-394h194q61 0 109 13q47 13 78.5 41t47.5 71q17 44 17 107z" />
    <glyph glyph-name="Q" unicode="Q" horiz-adv-x="1377" 
d="M1324 -230q-29 -42 -74.5 -67t-110.5 -25q-68 0 -116 29q-47 29 -76 76q-29 46 -43 104q-13 53 -17 107q-33 -12 -68 -18q-38 -7 -77 -7q-90 0 -171 22.5t-151 64.5q-69 41 -124.5 98.5t-94.5 127.5t-60 150.5t-21 166.5q0 126 46 240t127.5 200t194.5 137t245 51
q130 0 243 -47.5t197 -130.5q82 -82 129.5 -192.5t47.5 -237.5q0 -171 -77 -306q-76 -133 -211 -232q5 -14 12 -34q8 -22 19 -48t24.5 -52.5t28.5 -48.5t31 -35q15 -12 30 -12q21 0 33 12q13 14 20 33t10 41q2 22 3 39v3v2h3h2h94h2h3v-3v-2q0 -57 -13 -110q-12 -54 -40 -96
zM960 1041q-39 38 -93 60q-55 17 -131 17t-131.5 -24t-94 -64.5t-63.5 -94.5t-38.5 -114.5t-17.5 -124.5q-5 -64 -5 -122q0 -45 3.5 -93.5t13 -96.5t26.5 -93q14 -36 34 -69q-1 53 18 95q20 44 54.5 75t81 48t100.5 17q58 0 106 -18t85 -50.5t64 -76.5q23 -40 38 -86
q22 39 36 81q15 46 23.5 95t11 99t2.5 100q0 60 -4 122q-5 62 -18.5 120.5t-37.5 109.5q-24 50 -63 88zM812 86q36 7 69 23v8q0 38 -7 79t-26 75q-18 33 -49 55q-30 22 -77 22q-68 0 -110 -37t-42 -104q0 -37 13.5 -61.5t36.5 -39.5t53 -21q30 -7 64 -7q38 0 75 8z" />
    <glyph glyph-name="R" unicode="R" horiz-adv-x="1353" 
d="M538 128.5q4 -6.5 15 -14.5q8 -4 28 -7q22 -2 46 -3t47 -1h35h2h3v-3v-2v-93v-3v-2h-3h-2h-584h-3h-2v2v3v93v2v3h2h3h27h31q22 0 44 2t41 7q17 4 22 11q7 10 8 21q1 12 1 24v860q0 17 -3 32q-3 13 -18 24q-6 3 -26 6q-21 2 -45.5 3t-47.5 1h-34h-3h-2v2v8v95v3v2h2h3
h615q49 0 103 -5t106.5 -18t101.5 -34q49 -22 85 -55.5t58 -80t22 -106.5q0 -81 -31.5 -136t-83.5 -90q-53 -35 -119 -55q-56 -16 -113 -26q38 -12 68 -29q37 -22 64.5 -52.5t46.5 -69.5q18 -39 32 -88q5 -15 13.5 -46t18 -63.5t18.5 -60.5t17 -36v0v0q8 -12 17 -17t24 -5
q22 0 34 16q12 17 20 42q7 25 9 50q2 26 3 43v3v2h3h2h89h3h2v-3v-2q-1 -55 -10 -111q-8 -56 -32 -101t-68 -73.5t-113 -28.5q-64 0 -105.5 18t-67 48.5t-37.5 71.5q-13 40 -20 84t-11 91q-4 45 -12 88q-9 43 -25 80q-16 36 -45 61q-21 18 -46 29t-51 17t-54 8q-29 1 -56 1
h-35q-15 -1 -31 -1v-416q0 -13 4 -19.5zM902 1048.5q-29 24.5 -71 34.5q-44 11 -101 11h-91h-21q-14 0 -29 -1t-28 -2q-12 -2 -15 -4q-8 -7 -10 -15q-2 -10 -2 -20v-379h174q57 0 104 11q46 10 79 35t52 66q18 41 18 101q0 59 -15 99q-15 39 -44 63.5z" />
    <glyph glyph-name="S" unicode="S" horiz-adv-x="1071" 
d="M946 57.5q-57 -44.5 -132 -66.5q-76 -22 -161 -22q-55 0 -102.5 7t-91.5 23t-85 41q-38 23 -77 58l-80 -114l-1 -1v-1h-2h-1h-79h-2h-3v2v3l-9 483v2v3h3h2h90h2h2l1 -2v-2q8 -42 19 -82t29 -79q24 -55 61 -98.5t85 -74t103.5 -46.5t118.5 -16q59 0 107 13q47 12 91 51
q72 64 72 159q0 66 -33 111q-34 45 -95 69q-29 12 -60 18q-31 7 -61 15q-47 12 -107 26q-61 14 -121.5 33.5t-113.5 44.5q-54 26 -87 59q-45 45 -61 100q-16 56 -16 116q0 82 31.5 145t85.5 105.5t124 63.5q71 22 151 22q89 0 166 -31q75 -30 135 -88l60 98l1 1v1h2h1h75h2
h3v-2v-3l24 -444v-2v-3h-2h-3h-89h-2h-2v2l-1 2q-18 69 -47 134q-30 64 -74.5 114t-105.5 80t-143 30q-44 0 -85 -11.5t-73 -35.5q-31 -23 -49.5 -57t-18.5 -80q0 -49 18 -82q19 -34 49 -58q31 -24 70 -39q40 -15 83 -27q55 -14 110 -24q56 -10 111 -27q24 -7 53.5 -16
t58.5 -21t56 -27q26 -14 44 -31q54 -51 78 -117q23 -66 23 -138q0 -89 -34 -155.5t-91 -111z" />
    <glyph glyph-name="T" unicode="T" horiz-adv-x="1237" 
d="M1137 720v2l-1 2q-8 62 -22 128q-14 65 -44 120q-29 54 -77 88q-49 34 -127 34q-26 0 -48 -10q-20 -10 -20 -39v-896q0 -12 4 -20t15 -15q8 -6 31 -8q23 -3 49 -3h51h37h3h2v-3v-2v-93v-3v-2h-2h-3h-613h-2h-3v2v3v93v2v3h3h2h42h37q23 0 46 2t41 10q16 6 22 20q1 4 1 10
v12v888q0 29 -20 39q-21 10 -48 10q-53 0 -91.5 -15.5t-66.5 -43t-47 -63.5q-19 -37 -32 -78t-21 -85t-14 -85v-2v-2h-3h-2h-91h-2h-3v3v2l29 474v3l1 2h2h2h1049h3h2v-2v-3l29 -474v-2l1 -3h-3h-3h-91h-2h-2z" />
    <glyph glyph-name="U" unicode="U" horiz-adv-x="1482" 
d="M1290 455q0 -245 -122 -366t-371 -121q-92 0 -181 16q-90 15 -161 56q-71 40 -115 109.5t-44 178.5v701q0 12 -1 24q-2 12 -7 22q-5 8 -25 12q-23 4 -49.5 6t-51.5 2h-37h-3h-2v3v2v100v2v3h2h3h582h2h3v-3v-2v-100v-2v-3h-3h-2h-27h-29q-20 0 -40.5 -1.5t-38.5 -3.5
q-17 -3 -23 -6l-3 -1q-1 -2 -2 -3l-8 -12q-3 -6 -4 -7q-3 -15 -3 -31v-591q0 -83 14 -148q15 -65 50 -109.5t95 -68.5t152 -24q95 0 158 28q63 29 100 80q38 52 54 122q15 70 15 156v392q0 21 -1 45.5t-4.5 49.5t-10.5 47q-8 22 -19 39q-14 18 -31 28.5t-36 15.5
q-20 5 -41 7q-22 1 -43 2h-3l-2 1v2v2v94v2v3h3h2h496h3h2v-3v-2v-94v-2v-2l-2 -1h-3l-44 -2q-21 -2 -41 -7q-19 -4 -37 -15q-18 -10 -31 -29t-20 -45q-7 -27 -10 -56.5t-3.5 -59.5t-0.5 -53v-379z" />
    <glyph glyph-name="V" unicode="V" horiz-adv-x="1372" 
d="M787 -31h-2h-2h-73h-2h-2l-1 2v1l-425 1037q-13 33 -27 51q-12 17 -29 25q-17 7 -41 8t-58 1h-3h-2v2v8v95v3v2h2h3h530h2h3v-2v-3v-95v-8v-2h-3h-2q-14 0 -28.5 0.5t-28.5 0.5h-28q-19 -1 -38 -4q-18 -4 -32 -11q-11 -7 -11 -18t3 -23q4 -12 9 -23v0l298 -740l250 652
q8 20 13 40q5 21 5 42q0 32 -15 49q-15 18 -39 25q-24 8 -52 9q-29 1 -54 1h-2h-3v2v8v95v3v2h3h2h460h3h2v-2v-3v-95v-8v-2h-2h-3q-53 0 -84 -7q-29 -7 -48 -25q-18 -17 -30 -47q-13 -31 -31 -76l-386 -967v-1z" />
    <glyph glyph-name="W" unicode="W" horiz-adv-x="1726" 
d="M1274 -32h-2h-2h-63h-2h-2l-1 2v1l-269 810l-245 -809l-1 -2v-2h-2h-2h-77h-2h-2v2l-1 1l-350 1066q-8 27 -20 39t-26 16q-16 4 -35 3q-21 -1 -45 -1h-3h-2v2v8v95v3v2h2h3h469h3h2v-2v-3v-95v-8v-2h-2h-3h-84h-21q-11 -1 -22 -4t-18 -8q-6 -5 -6 -15q0 -9 2 -18t5 -17
l239 -728l190 631q-11 34 -18 60q-7 25 -14 43q-6 18 -15 28q-8 11 -23 17t-41 9q-27 2 -69 2h-3h-2v2v8v95v3v2h2h3h487h3h2v-2v-3v-95v-8v-2h-2h-3h-32q-8 0 -26 -0.5t-38 -1.5q-19 -2 -35 -5q-14 -3 -15 -7l-1 -1q-4 -6 -4 -12q0 -13 3 -26q4 -12 9 -25v0l230 -699
l186 644q5 17 8 33q3 15 3 32q0 27 -15 40q-15 15 -37 21q-23 6 -50 7h-47h-3h-2v2v8v95v3v2h2h3h396h3h2v-2v-3v-95v-8v-2h-2h-3h-29q-39 0 -62 -13.5t-38 -36.5q-14 -22 -23 -52q-8 -30 -17 -61l-277 -959l-1 -2v-2z" />
    <glyph glyph-name="X" unicode="X" horiz-adv-x="1343" 
d="M856 103h37q18 1 32 7q12 4 12 12q0 12 -6 23q-7 12 -14 23l-242 328l-187 -260q-11 -15 -18 -31t-7 -35q0 -26 14 -40q15 -14 37 -20q22 -7 48 -7h46h3h2v-3v-2v-93v-3v-2h-2h-3h-481h-3h-2v2v3v93v2v3h2h3q43 0 74 7q30 8 54 23t45 38q21 24 46 57l267 357l-324 452
q-18 26 -35 37.5t-36 16.5q-20 4 -42 4q-23 -1 -51 -1h-3h-2v2v8v95v3v2h2h3h525h2h3v-2v-3v-95v-8v-2h-3h-2q-15 0 -30.5 0.5t-30.5 0.5h-19q-13 0 -28 -1.5t-26 -4.5q-8 -2 -8 -5q0 -7 7 -17q7 -11 12 -18l214 -300l173 243q9 12 16 26q6 13 6 28q0 22 -14 32
q-15 11 -35 15q-21 3 -45 2q-25 -1 -41 -1h-3h-2v2v8v95v3v2h2h3h469h2h3v-2v-3v-95v-8v-2h-3h-2q-50 0 -84.5 -9t-62 -26.5t-51.5 -45.5t-52 -66l-219 -286l348 -478q25 -36 42 -53q17 -16 35 -22q19 -5 44 -5h68h2h3v-3v-2v-93v-3v-2h-3h-2h-555h-3h-2v2v3v93v2v3h2h3h46
h27z" />
    <glyph glyph-name="Y" unicode="Y" horiz-adv-x="1377" 
d="M891 128q3 -8 15 -15q9 -4 31 -7q22 -2 49 -3h93v-103h-622v103h76q22 0 45 2t41 7t23 12q5 10 6 21q2 13 2 24v308l-359 548q-19 29 -35 43q-16 15 -34 20q-18 6 -40 6h-62v110h553v-110h-109h-17q-9 -1 -18 -3t-14 -6t-5 -12q0 -10 6 -19q6 -11 12 -20l292 -426
l206 345q11 17 20 38q10 20 10 41q0 25 -18 38q-19 14 -45 19q-27 5 -55 5h-53v110h492v-110h-5q-56 0 -91 -10q-35 -9 -59 -30q-24 -20 -44 -52t-45 -76l-246 -429v-347q0 -13 4 -22z" />
    <glyph glyph-name="Z" unicode="Z" horiz-adv-x="1082" 
d="M1047 0h-3h-2h-917h-3h-2v2v3v74v2l687 1013h-200q-32 0 -63 -1q-31 -2 -60 -8t-55.5 -18.5t-50.5 -35.5q-25 -23 -42 -55q-16 -32 -28 -68t-20.5 -73t-14.5 -69v-2l-1 -2h-2h-2h-95h-3h-2v3v2l40 432v3v2h3h2h852h3h2v-2v-3v-76v-1v-1l-688 -1018h261q31 0 64 3.5
t63.5 12.5t58.5 24q27 16 47 41q21 25 37 61t27.5 76t19.5 80t13 72v2l1 2h2h2h99h3h2v-3v-2l-35 -467v-3v-2z" />
    <glyph glyph-name="bracketleft" unicode="[" horiz-adv-x="576" 
d="M576 -191h-406h-2h-3v3v2v1395v3v2h3h2h406h2h3v-2v-3v-74v-3v-2h-3h-2h-230v-1240h230h2h3v-2v-3v-71v-2v-3h-3h-2z" />
    <glyph glyph-name="backslash" unicode="\" horiz-adv-x="934" 
d="M934 -5h-98h-1h-2l-1 1v2l-666 1228l-2 3l-2 4h4h4h96h1h2l1 -1v-2l668 -1228l2 -3l2 -4h-4h-4z" />
    <glyph glyph-name="bracketright" unicode="]" horiz-adv-x="575" 
d="M575 -191h-405h-2h-3v3v2v72v2v3h3h2h228v1241h-228h-2h-3v2v3v72v3v2h3h2h405h3h2v-2v-3v-1395v-2v-3h-2h-3z" />
    <glyph glyph-name="asciicircum" unicode="^" horiz-adv-x="1008" 
d="M1008 434h-146h-2h-1l-1 2l-1 1l-266 648l-270 -648l-1 -1l-1 -2h-1h-2h-146h-4h-3l1 3l1 4l349 854l1 1l1 2h1h2h142h2h1l1 -2l1 -1l347 -854l1 -4l1 -3h-3h-4z" />
    <glyph glyph-name="underscore" unicode="_" horiz-adv-x="953" 
d="M953 -237h-833h-2h-3v3v2v117v3v2h3h2h833h3h2v-2v-3v-117v-2v-3h-2h-3z" />
    <glyph glyph-name="grave" unicode="`" horiz-adv-x="546" 
d="M546 944h-77h-2l-1 1l-301 233q-50 38 -50 86q0 47 21 72q21 26 48 26q26 0 46 -16q20 -14 55 -60l265 -334l3 -4l3 -4h-5h-5z" />
    <glyph glyph-name="a" unicode="a" horiz-adv-x="1117" 
d="M1042 19q-30 -15 -62 -22.5t-54 -7.5q-76 0 -118 37q-39 34 -61 96q-65 -75 -148 -113q-85 -39 -189 -39q-55 0 -106 13q-52 12 -93 39q-41 28 -66 71.5t-25 104.5q0 77 37 132q36 55 100 93q45 27 105 48q61 21 126 37t129 29q62 12 113 20v60q0 88 -38 136
q-39 48 -134 48q-15 0 -45 -2q-29 -2 -58 -8q-28 -7 -49 -19q-18 -11 -20 -29q11 -25 23 -49q14 -27 14 -56q0 -25 -12 -42q-12 -18 -29 -29q-18 -12 -39.5 -17.5t-41.5 -5.5q-56 0 -90.5 35t-34.5 91q0 46 20 82q19 36 50.5 63t72.5 46q41 18 85.5 29.5t87.5 16.5t80 5
q83 0 153 -13q69 -12 120 -45q50 -34 78 -92q27 -58 27 -149v-366q0 -17 1 -38q1 -20 7 -38q5 -18 18 -29q12 -11 34 -11q19 0 36 9q19 11 40 11t26 -16q5 -14 5 -28q0 -29 -22 -52q-22 -21 -53 -36zM729 311q1 20 1 40v102q-33 -6 -80 -15q-52 -10 -105 -25t-98 -36
q-45 -20 -66 -46q-16 -20 -23 -46t-7 -51q0 -29 10 -53.5t28.5 -42t43.5 -27.5t54 -10q39 0 77 12.5t70.5 35.5t56 54t32.5 69q5 20 6 39z" />
    <glyph glyph-name="b" unicode="b" horiz-adv-x="1144" 
d="M899 12q-40 -20 -85.5 -30t-96.5 -10q-95 0 -171 41q-71 38 -126 108l-98 -144l-1 -1v-1h-2h-1h-84h-3h-3v3l1 3q24 105 30 212q5 107 5 216v763q0 42 -10 60t-28 23q-19 6 -44 4q-26 -3 -57 -3h-3h-2v2v3v101v2v3h2h3l353 21h2h3v-2v-3v-599q21 27 42 48q27 27 60 45
q32 19 70 28.5t84 9.5q101 0 177 -40q75 -39 126 -104.5t76.5 -149t25.5 -173.5q0 -92 -28.5 -178t-83 -152t-133.5 -106zM689 786q-46 0 -79 -12q-34 -16 -58 -44t-39 -65q-16 -37 -24.5 -76t-12 -79.5t-3.5 -75.5t3.5 -75t13 -79.5t25.5 -74.5q16 -36 41 -63.5t58.5 -43.5
t79.5 -16q45 0 78 16.5t56.5 44t37.5 63.5q15 36 23.5 75.5t11.5 79t3 74t-3 75t-11.5 79.5t-24.5 76q-15 37 -39 65t-58 44q-33 12 -79 12z" />
    <glyph glyph-name="c" unicode="c" horiz-adv-x="917" 
d="M783.5 50q-42.5 -39 -100.5 -61q-59 -21 -139 -21q-106 0 -186 37q-78 36 -130.5 99t-80 147t-27.5 178q0 98 30.5 186t88 154t140.5 104q85 39 193 39q53 0 110 -14q56 -13 103 -42t77 -74q30 -44 30 -105q0 -29 -9.5 -54.5t-27 -44t-42 -29t-54.5 -10.5q-21 0 -43.5 6
t-41.5 19q-19 12 -32 31t-13 45q0 28 7 47t16 34q8 15 15 25q6 9 6 18q0 8 -10 15q-12 7 -28 12.5t-32 8t-24 2.5q-65 0 -107 -36q-43 -36 -68 -90q-26 -54 -36 -115q-9 -61 -9 -111q0 -57 11 -116q12 -60 40 -109q28 -48 75 -79q46 -31 117 -31q45 0 78 15t59 40.5t45 58.5
q20 34 36 70l1 2l1 2l3 -1h2l87 -32l2 -1l3 -1l-1 -3l-1 -2q-28 -65 -59 -120q-32 -54 -74.5 -93z" />
    <glyph glyph-name="d" unicode="d" horiz-adv-x="1152" 
d="M782 -8v2v3v124q-20 -32 -43 -57q-25 -28 -56 -49q-66 -45 -159 -45q-101 0 -178 39q-75 38 -125.5 102.5t-75.5 148.5t-25 174q0 86 25 172t75 154.5t123 111.5q76 43 175 43q87 0 155 -38q61 -34 109 -92v389q0 24 -2 40q-1 15 -8 25q-7 9 -20 13q-15 4 -42 4h-116h-2
h-3v2v3v101v2v3h3h2l404 21h2h3v-2v-3v-1142q0 -49 5 -75q6 -25 20 -36q15 -11 43 -12q29 -2 76 -2h3h2v-2v-3v-100v-3v-2h-2h-3l-360 -14h-3h-2zM420 699q-17 -26 -29 -55q-9 -24 -15 -52.5t-9 -58t-4 -59t-1 -55.5q0 -49 8 -105q9 -56 33 -103q23 -46 63 -77
q39 -30 102 -30q60 0 100 32q41 33 66 82q24 49 35 105q10 57 10 105q0 25 -1 53.5t-4 56.5t-9.5 55t-15.5 51q-12 28 -29 54t-39 45t-50 31q-29 6 -62.5 6t-60.5 -6q-28 -11 -50 -30q-22 -20 -38 -45z" />
    <glyph glyph-name="e" unicode="e" horiz-adv-x="996" 
d="M926 131.5q-40 -51.5 -91 -87.5q-101 -73 -254 -73q-107 0 -193 32q-85 33 -144 92.5t-91.5 143t-32.5 185.5q0 96 31 184t88.5 156t140.5 108q84 41 190 41q109 0 190 -42q79 -42 131.5 -111.5t77.5 -158.5q26 -89 26 -184v-3v-2h-3h-2h-627q1 -56 13 -109
q12 -56 41 -101q29 -44 76 -71.5t116 -27.5q58 0 102 12t78 35.5t62 59.5t55 83l1 2l1 3l2 -1l2 -1l81 -39l2 -2l3 -1l-1 -2l-1 -2q-30 -67 -70 -118.5zM709 732q-22 32 -57 51.5t-84 19.5q-56 0 -94 -28q-38 -27 -62 -70q-25 -42 -36 -92q-11 -47 -12 -90h319q19 0 33 2
q12 2 20 7q8 6 11 16q4 11 4 30q0 42 -10 82q-10 41 -32 72z" />
    <glyph glyph-name="f" unicode="f" horiz-adv-x="956" 
d="M503 169q0 -16 3 -34q4 -16 17 -26q9 -5 28 -8q20 -3 44 -4h45h34h3h2v-3v-2v-87v-3v-2h-2h-3h-533h-3h-2v2v3v87v3v2h3h2l65 -1q17 0 31 2t24 8q10 5 16 16q5 11 5 30v613h-157h-3h-2v2v3v99v2v3h2h3h157v46q0 99 22 181q21 82 69 142q48 59 125.5 92t187.5 33
q44 0 91 -9q48 -8 87 -29q40 -20 66 -56t26 -90q0 -27 -9 -49.5t-25 -39.5t-38.5 -26.5t-49.5 -9.5q-19 0 -40 6t-40 18q-18 11 -31 28t-13 40q0 15 4 31q4 15 8.5 29t8.5 23t4 11q0 8 -5 11q-5 4 -13 6q-9 2 -18 3h-16q-43 0 -73 -14.5t-49 -39.5q-21 -24 -33 -57
q-12 -32 -17 -68q-6 -35 -7.5 -71.5t-1.5 -68.5v-39q1 -16 1 -34h202h2h3v-2v-3v-98v-3v-2h-3h-2h-202v-596z" />
    <glyph glyph-name="g" unicode="g" horiz-adv-x="1069" 
d="M1085 752.5q-13 -14.5 -32 -23t-41 -8.5q-27 0 -48 12t-38 34q-1 1 -5 8q-4 6 -9 14q-4 7 -8 12q-1 2 -3 3q-5 0 -11 -3q-9 -4 -16.5 -8.5t-14.5 -11.5q-5 -3 -9 -7q21 -23 35 -44q15 -23 23.5 -48t11.5 -52t3 -61q0 -59 -24 -110q-24 -50 -64 -89t-93 -64t-109 -33
q-43 -6 -85 -7t-85 -2q-17 0 -51 -1t-68 -7q-34 -5 -59 -17q-22 -11 -22 -32q0 -12 2 -19t12 -14t28 -10t39 -4q20 -1 40 -1h34h222q67 0 133 -5t118 -28t84.5 -70.5t32.5 -132.5q0 -69 -24 -119t-63.5 -85t-92.5 -56.5t-111 -33t-117.5 -15.5t-112.5 -4q-32 0 -77 2t-94 9
q-48 6 -95 19q-48 13 -86 35q-37 22 -61 55q-24 32 -24 78q0 38 19 68q18 28 45.5 49.5t61.5 36.5q25 11 50 20q-57 22 -87 57q-35 40 -35 112q0 44 17 76t44.5 55t63.5 37q28 11 58 20q-32 16 -58 38q-32 26 -54.5 58.5t-35 71.5t-12.5 81q0 78 31 138t83 101.5t120.5 63
t142.5 21.5t143 -20q66 -17 126 -55q21 20 41 37q22 18 47 32q25 16 52.5 25t61.5 9q25 0 49 -7t44 -22t32 -35q13 -21 13 -50q0 -21 -7.5 -40t-20.5 -33.5zM665 737q-20 29 -54 46t-84 17t-85 -17.5t-57.5 -46.5t-33.5 -68q-10 -40 -10 -84q0 -42 10 -82q11 -39 33 -69
q22 -31 56.5 -48.5t83.5 -17.5t83.5 18t56 48.5t31.5 70.5t10 82q0 44 -9 83q-10 39 -31 68zM765 -56q-32 9 -68 11q-36 1 -62 1h-130q-65 -1 -130 -1q-24 -11 -47 -22t-42 -27q-18 -15 -29 -36t-11 -50q0 -23 14 -40q15 -17 38 -29q24 -11 55 -18q30 -7 61 -10.5t58.5 -4.5
t45.5 -1q23 0 56.5 2t70 8t71.5 16q35 11 63 27q28 17 44 39q17 23 17 54q0 35 -22 53q-22 19 -53 28z" />
    <glyph glyph-name="h" unicode="h" horiz-adv-x="1285" 
d="M1143 117q3 -9 19 -14q19 -3 41 -4t44 -1h38v-98h-523v98h36q8 0 25.5 0.5t35.5 1.5t33 3q13 4 15 10q5 11 6 26q1 16 1 30v363q0 47 -7 90t-26 75q-20 32 -54 51t-92 19q-29 0 -56 -10q-27 -11 -49 -26q-42 -28 -65 -61t-34 -71q-12 -39 -14 -81q-3 -43 -3 -88v-262
q0 -8 1 -18q0 -9 2 -19q2 -8 6 -16q4 -6 12 -8v-1q12 -4 27 -6q16 -1 33 -2t33 -1q17 1 30 1h5v-98h-521v98h32q9 0 27 0.5t36 2.5q18 3 32 8q13 5 16 13v0q5 10 6 25v27v1007q0 24 -2 40t-9 25q-6 9 -20 13q-15 4 -41 4h-99v112l394 21v-652q24 33 51 61q33 34 71 59
q40 26 87 40q46 14 97 14q57 0 108.5 -16t92.5 -47.5t69 -76t39 -99.5q7 -36 7 -72q1 -37 1 -71v-365v-29q1 -14 6 -24v-1z" />
    <glyph glyph-name="i" unicode="i" horiz-adv-x="669" 
d="M486.5 1049.5q-15.5 -15.5 -36.5 -24.5t-45 -9t-45 9.5t-36.5 25t-25 37t-9.5 45.5q0 23 9.5 44.5t25 38t36.5 26t45 9.5t45 -10t36.5 -26t25 -38t9.5 -45q0 -24 -9.5 -45.5t-25 -37zM517 139q-2 19 -2 29l4 721l-395 -16l-4 -113h105q1 0 40 -4q11 -2 19 -13q7 -9 9 -25
t2 -39v-508q0 -73 -89 -75h-64v-98h527v98h-39q-22 0 -45 1q-64 0 -68 42z" />
    <glyph glyph-name="j" unicode="j" horiz-adv-x="637" 
d="M430 -346q-41 -18 -84.5 -25.5t-87.5 -7.5q-32 0 -71.5 8t-73.5 26q-35 18 -59 46t-24 69q0 56 32 92q33 36 90 36q19 0 40 -5t39 -16q18 -10 31 -27q12 -16 12 -39q0 -17 -11 -36q-9 -17 -9 -31q0 -9 8 -10q12 -1 20 -1q35 0 62 17.5t44 48.5q9 21 15 53q6 34 9 70.5
t4 71.5t1 58v632q0 24 -1 40q-2 16 -9 25q-6 9 -20 13q-14 5 -40 5h-112h-3h-2v3v6v99v2v3h2h3l397 3h2h3v-2v-3v-738q0 -70 -4 -141q-4 -72 -24 -137t-62 -119t-117 -89zM609.5 1039q-15.5 -16 -37 -25.5t-45.5 -9.5t-45 10t-36.5 26t-25 37.5t-9.5 45.5q0 23 9.5 44.5
t25 38t36.5 26t45 9.5t45 -10t36.5 -26t25 -38t9.5 -45q0 -24 -9 -45.5t-24.5 -37.5z" />
    <glyph glyph-name="k" unicode="k" horiz-adv-x="1250" 
d="M520 116q3 -8 20 -13q19 -3 42 -4q24 -1 46 -1h34h2h3v-2v-3v-88v-3v-2h-3h-2h-515h-3h-2v2v3v88v3v2h2h3h28h27q18 1 35 3q18 3 32 8q13 5 16 13q4 9 5 22v25v1012q0 24 -2 40t-8 25q-7 9 -20 13q-15 4 -41 4h-94h-3h-2v3v2v102v2v3h2h3l385 21h3h2v-2v-3v-905l240 224
q14 14 27 32q13 16 13 34q0 8 -16 12q-20 5 -45 7q-25 1 -49 0t-34 -1h-2h-3v2v3v87v2v3h3h2h510h3h2v-3v-2v-85v-2v-2l-2 -1h-2q-72 -8 -125 -28t-98.5 -50.5t-86.5 -69.5t-88 -83l265 -347q24 -32 46 -53.5t46.5 -35.5t54.5 -21t69 -11h3l2 -1v-2v-2v-87v-3v-2h-2h-3h-508
h-3h-2v2v3v88v3v2h2h3h41h20q13 0 25 1q12 2 22 4q7 3 7 9t-5 16q-4 10 -8 15l-221 297l-103 -96v-182q0 -11 1 -24q0 -12 4 -22z" />
    <glyph glyph-name="l" unicode="l" horiz-adv-x="652" 
d="M232 98q18 2 32 5q13 5 16 12l1 1q4 9 4 22v25v1000q0 22 -2 37q-2 14 -8 23q-6 8 -19 11q-14 4 -37 4h-94h-3h-2v2v3v100v2v3h2h3l371 21h2h3v-2v-3v-1193v-27q1 -14 6 -24v-1q3 -9 20 -14q19 -5 42 -7t45 -2q22 1 33 1h3h2v-3v-2v-87v-3v-2h-2h-3h-506h-3h-2v2v3v87v3
v2h3h2l31 -1q9 0 26 0.5t34 1.5z" />
    <glyph glyph-name="m" unicode="m" horiz-adv-x="1822" 
d="M1427 107q13 3 16 9q5 11 5 27q1 16 1 29v362q0 40 -5 80t-22 73q-16 32 -45 53q-30 21 -78 21q-63 0 -102 -26q-40 -26 -64 -66q-24 -41 -35 -91q-11 -51 -11 -99v-329q0 -25 14 -36q15 -11 38 -15t48 -3q25 2 45 2h5v-98h-524v98h36q8 0 24.5 0.5t35.5 2.5q18 2 33 6
q12 3 14 9q5 11 7 27q1 16 1 29v381q0 37 -6 80q-7 42 -29 73q-19 25 -52 40t-65 15q-57 0 -96.5 -24.5t-64.5 -62.5t-37 -85.5t-12 -92.5v-341q0 -8 1 -17.5t2 -16.5q1 -6 3 -8q8 -6 26 -10q18 -3 39 -4.5t40 -1.5q20 1 32 1h5v-98h-520v98h73q17 0 32 1q13 1 23 4
q9 6 15 16q5 11 5 30v517q0 23 -2 39q-2 15 -8 24q-7 9 -20 12q-15 4 -40 4h-88v110l382 24v-133q20 30 43 57q30 33 65 57t79 37q43 14 91 14t92.5 -14t80.5 -40t64 -64q24 -32 38 -72q25 38 54 70q32 37 69.5 63.5t84.5 41.5q48 15 103 15q49 0 95.5 -13.5t85 -39.5
t68 -63t45.5 -84q9 -30 11 -64q2 -35 2 -65v-411v-28q1 -15 6 -25v-1q3 -9 19 -14q19 -3 41 -4q23 -1 45 -1h38v-98h-522v98h34q8 0 25.5 0.5t35 2.5t32.5 6z" />
    <glyph glyph-name="n" unicode="n" horiz-adv-x="1263" 
d="M1121 117q4 -9 20 -14q18 -3 40 -4q23 -1 45 -1h37v-98h-522v98h34q8 0 25.5 0.5t36 2.5t33.5 6q13 3 15 9q5 11 6 27t1 29v358q0 47 -7 89q-8 42 -27 73q-20 32 -54 50.5t-91 18.5q-28 0 -56 -11q-27 -11 -49 -26q-41 -27 -64 -59.5t-35 -69.5q-11 -38 -14 -80t-3 -87
v-261v-18q1 -10 3 -19q2 -8 6 -16q4 -6 12 -8q11 -4 27 -6t33.5 -2.5t33.5 -0.5q17 1 30 1h5v-98h-522v98h77q38 -1 55 11q17 10 17 50v508q0 41 -11 58q-10 16 -28 21q-19 5 -46 2q-28 -2 -59 -2h-5v109l372 24v-141q24 33 51 61q32 34 71 59q40 25 87 39q46 14 97 14
q57 0 108 -16t92 -47t69.5 -75.5t39.5 -99.5q7 -36 7 -71q1 -36 1 -70v-363v-27q1 -15 5 -24z" />
    <glyph glyph-name="o" unicode="o" horiz-adv-x="997" 
d="M875.5 113.5q-57.5 -64.5 -139.5 -102.5q-42 -20 -88 -29.5t-97 -9.5q-95 0 -175 40q-78 39 -135 103.5t-89 147.5t-32 170q0 94 30.5 180.5t87 153t137.5 105.5q83 40 186 40q99 0 181 -40q79 -40 135.5 -105.5t88 -150.5t31.5 -175q0 -93 -32 -178t-89.5 -149.5z
M688 737q-22 30 -53 47q-31 18 -74 18q-46 0 -79 -17t-54 -46q-23 -29 -36 -67q-14 -38 -21 -78t-9 -80.5t-2 -73.5q0 -32 2.5 -71.5t9.5 -79.5t21 -78q13 -37 36 -66q22 -30 53.5 -47t75.5 -17t75.5 17t53.5 47q23 29 36 66q14 38 21.5 78t10 79.5t2.5 71.5q0 31 -2.5 70.5
t-10 79.5t-21.5 79q-14 38 -35 68z" />
    <glyph glyph-name="p" unicode="p" horiz-adv-x="1135" 
d="M1033.5 111.5q-50.5 -67.5 -124.5 -109.5q-76 -37 -175 -37q-92 0 -153 38q-53 33 -96 98v-304q0 -17 4 -35q3 -17 16 -27q7 -5 25 -9q18 -3 39 -4t42 -1h31h3h2v-3v-2v-86v-2v-3h-2h-3h-517h-3h-2v3v2v86v2v3h2h3h27h27q17 1 34 3.5t31 7.5q12 4 17 12q4 9 5 25v28v869
q0 41 -10 59q-10 17 -28 22t-45 3q-27 -3 -58 -3h-3h-2v3v2v99v3v2h2h3l355 25h3h2v-2v-3v-109q20 30 41 55q26 31 59 52q33 19 72 28q39 11 87 11q65 0 120 -20q53 -19 96.5 -53.5t76 -80.5t54.5 -99.5t33 -110t11 -112.5q0 -87 -25.5 -172.5t-76 -153zM823.5 720.5
q-22.5 25.5 -54 41t-74.5 15.5q-64 0 -105 -34q-41 -35 -65 -87q-25 -52 -34 -111q-9 -60 -9 -110q0 -33 4 -71t13 -76t26 -72q16 -34 39 -60t55.5 -42t75 -16t73.5 17q31 16 53.5 43.5t36.5 63.5q15 37 23 75.5t11 77.5t3 70q0 32 -3 69.5t-10.5 74.5t-21.5 71
q-14 35 -36.5 60.5z" />
    <glyph glyph-name="q" unicode="q" horiz-adv-x="1143" 
d="M616 -372v2v3v86v3v2h2h3h18h27q18 0 36 1.5t34 4.5q15 3 21 8v0q15 11 18 27q3 18 3 36v294q-23 -29 -45 -51q-27 -26 -58.5 -43t-69 -25t-83.5 -8q-100 0 -176 34q-74 39 -124.5 103.5t-76 147.5t-25.5 172q0 91 29 179t83 156.5t133 110.5q80 42 182 42q98 0 173 -39
q72 -41 126 -113l94 118l1 1l1 1h1h1h81h3h3v-3l-1 -3q-16 -74 -24 -144t-8 -146v-784v-28q1 -16 6 -26v0q3 -9 18 -14q18 -5 39 -7q22 -2 43 -2h34h2h3v-2v-3v-86v-3v-2h-3h-2h-517h-3h-2zM678.5 764.5q-21.5 17.5 -48 27.5t-59.5 10q-48 0 -82 -17t-57 -47
q-24 -29 -38 -67q-14 -39 -21.5 -80t-10 -82t-2.5 -77q0 -50 8 -109q8 -58 31 -108q23 -49 64 -82q40 -32 106 -32q47 0 80.5 16.5t56.5 45.5q23 28 37 65q15 37 22.5 77t10 81t2.5 75q0 24 -1 52t-4 56t-9.5 55t-16.5 49q-13 27 -30 50.5t-38.5 41z" />
    <glyph glyph-name="r" unicode="r" horiz-adv-x="972" 
d="M497 170q0 -16 3 -34q3 -17 17 -26q8 -5 28 -8q21 -3 44.5 -4t45.5 -1h34h3h3v-3v-2v-87v-3v-2h-3h-3h-537h-2h-3v2v3v87v2v3h3h2h69q19 0 33 1q13 1 23 5q9 6 14 17q5 12 5 33v512q0 42 -12 59q-11 17 -30 22q-20 5 -48 2q-29 -3 -61 -3h-3h-2v2v3v100v3v2h2h3l366 23h3
h3v-2v-3v-214q15 34 35 69q27 49 63.5 89t83.5 66q48 27 103 27q40 0 74.5 -11.5t60 -33.5t40.5 -54.5t15 -74.5q0 -31 -8 -59q-8 -29 -25 -51t-43 -35.5t-60 -13.5q-57 0 -93 33q-38 34 -38 93q0 25 10 49q6 17 16 32q-41 -10 -73 -37q-38 -31 -65.5 -77t-45.5 -101
q-19 -55 -30 -110.5t-15.5 -107t-4.5 -90.5v-91z" />
    <glyph glyph-name="s" unicode="s" horiz-adv-x="861" 
d="M718.5 11.5q-25.5 -13.5 -54.5 -21.5q-59 -18 -126 -18q-76 0 -145 26q-64 25 -118 71l-65 -75l-1 -1l-1 -1h-1h-1h-81h-3h-2v2v3v362v3v2h2h3h92h2h2v-2l1 -2q13 -52 37 -103q23 -50 58.5 -89.5t84.5 -63.5q50 -23 111 -23q35 0 71 7q36 8 64 24q27 16 45 42t18 65
q0 44 -23 71q-24 27 -63 44q-40 18 -92 29q-53 10 -109 22q-55 11 -107 28q-51 16 -91 44q-41 29 -66 74t-25 113q0 64 22 114t60.5 84.5t91.5 52t118 17.5q131 0 231 -80l50 70l1 1v1h2h1h79h3h2v-2v-3v-328v-3v-2h-2h-3h-82h-2h-2v2l-1 1q-9 26 -19 52q-9 25 -23 47v1
q-15 27 -37 51t-49.5 41.5t-58.5 28t-65 10.5q-26 0 -58 -6q-31 -6 -58 -19q-26 -13 -43 -34t-17 -52t9.5 -53t26.5 -37t40 -25q24 -9 54 -16q49 -12 102 -21q53 -10 105 -22q50 -13 94 -30q45 -19 79 -49t54.5 -75t20.5 -109q0 -70 -25.5 -122t-69.5 -88
q-22 -17 -47.5 -30.5z" />
    <glyph glyph-name="t" unicode="t" horiz-adv-x="837" 
d="M768.5 76q-36.5 -50 -93.5 -79t-140 -29q-39 0 -75 6q-37 6 -69 20.5t-56.5 38.5t-41.5 60q-8 19 -13 48t-7 60.5t-2.5 61t-0.5 51.5v459h-145h-3h-2v3v2v96v1v0h2h3q72 5 119 40q47 36 76 89q28 54 42 118q13 65 19 126v3v2h2h3h100h3h3v-3v-2v-364h271h3h2v-2v-3v-101
v-2v-3h-2h-3h-271v-495q0 -29 1 -58q2 -29 12 -52t30.5 -37.5t58.5 -14.5q43 0 69 25t39 62q14 38 19 81q5 42 6 75v3v2h3h2h98h2h2v-2l1 -2q2 -8 2 -16v-16q0 -72 -16 -137t-52.5 -115z" />
    <glyph glyph-name="u" unicode="u" horiz-adv-x="1266" 
d="M880 -10v2v3v135q-25 -34 -51 -60q-32 -32 -69 -55t-81 -34.5t-97 -11.5q-47 0 -96 10.5t-91.5 33.5t-73.5 59t-42 88q-6 28 -7 56t-1 57v394q0 24 -1 40q-2 16 -8.5 24.5t-19.5 12.5q-15 4 -41 4h-76h-3h-2v3v2v99v3v2h2h3l361 20h2h3v-2v-3v-594q0 -34 7 -64
q8 -29 24.5 -50.5t43 -34t64.5 -12.5q76 0 124.5 28.5t76.5 74.5q28 47 39 107q10 60 10 123v219q0 23 -2 39q-2 15 -8 24q-7 8 -21 12q-15 5 -41 5h-102h-2h-3v2v3v98v3v2h3h2l391 20h2h3v-2v-3v-636q0 -53 7 -80q7 -24 24 -34q17 -9 48 -9h80h3h2v-3v-2v-99v-3v-2h-2h-3
l-376 -14h-2h-3z" />
    <glyph glyph-name="v" unicode="v" horiz-adv-x="1105" 
d="M659 -29h-1h-2h-73h-1h-2l-1 2v1l-323 737q-12 30 -23 45q-10 14 -23.5 20.5t-33.5 7.5h-51h-3h-2v2v3v84v3v2h2h3h447h3h2v-2v-3v-84v-3v-2h-2h-3h-40h-25q-15 -1 -28 -5q-12 -3 -21 -11q-8 -7 -8 -20q0 -8 2 -16q3 -8 7 -16v0l205 -471l163 409q7 17 11.5 37t4.5 38
q0 22 -12 33q-12 12 -31 17q-18 5 -39 5h-40h-2h-3v2v3v84v3v2h3h2h379h2h3v-2v-3v-84v-3v-2h-3h-2h-30q-30 0 -52 -16q-22 -17 -39 -43q-18 -25 -30 -55q-12 -29 -21 -53l-267 -643l-1 -1z" />
    <glyph glyph-name="w" unicode="w" horiz-adv-x="1543" 
d="M1126 -31h-2h-2h-65h-1h-2l-1 2v1l-222 568l-217 -568v-1l-1 -2h-2h-1h-73h-2h-2v2l-1 1l-282 731q-12 31 -20 48q-9 17 -21 25t-30 10q-20 2 -54 2h-3h-2v2v3v85v2v3h2h3h421h2h3v-3v-2v-85v-3v-2h-3h-2h-37h-24q-12 -1 -23 -5q-10 -3 -18 -11q-6 -6 -6 -18q0 -10 2 -19
q3 -9 6 -19l174 -445l155 408q-14 38 -21 60q-7 21 -19 31.5t-34 14.5q-23 3 -67 3h-3h-2v2v3v85v2v3h2h3h432h2h3v-3v-2v-85v-3v-2h-3h-2q-15 0 -29 1q-13 1 -27 1q-11 0 -23 -1q-11 -1 -21 -5q-8 -4 -14 -12q-6 -7 -6 -20q0 -15 8 -33l174 -456l151 400q6 16 11 34
q4 17 4 33q0 24 -11 36q-12 12 -29 17q-18 5 -39 5h-40h-3h-2v2v3v85v2v3h2h3h363h2h3v-3v-2v-85v-3v-2h-3h-2h-30q-28 0 -47 -12q-18 -12 -31 -32q-12 -19 -21 -43t-18 -47l-264 -682l-1 -1v-2z" />
    <glyph glyph-name="x" unicode="x" horiz-adv-x="1125" 
d="M627 0v2v3v88v3v2h3h2l42 -1h18q12 1 24 4q11 3 20 8q6 4 6 10q0 10 -7 25q-8 16 -15 25l-138 175l-152 -175q-8 -9 -11 -16t-3 -17q0 -17 12 -25q13 -9 32 -12t40 -2t34 1h3h2v-2v-3v-88v-3v-2h-2h-3h-409h-3h-2v2v3v88v3v2h2h3h35q21 0 40 8q20 9 38.5 22t33.5 29
q16 16 30 31l213 234l-226 272q-17 22 -32 38t-32.5 27.5t-38.5 18.5t-49 9h-3h-2v3v2v85v3v2h2h3h457h3h3v-2v-3v-86v-3v-2h-3h-3h-34h-20q-12 -1 -25 -3q-11 -3 -20 -8q-7 -5 -7 -12q0 -9 6 -17q7 -9 13 -17l139 -169l113 127q13 15 24 33q10 17 10 36q0 13 -12 19
q-15 7 -34 10q-20 2 -40 2q-21 -1 -31 -1h-3h-2v2v3v86v3v2h2h3h402h2h3v-2v-3v-86v-3v-2h-3h-2q-29 0 -49 -3q-20 -4 -37.5 -12.5t-33.5 -22t-34 -33.5l-212 -235l235 -298q21 -26 38 -43q17 -16 35.5 -25t41.5 -13q23 -3 58 -3h2h3v-2v-3v-88v-3v-2h-3h-2h-488h-2h-3z" />
    <glyph glyph-name="y" unicode="y" horiz-adv-x="1167" 
d="M524.5 -306.5q-44.5 -41.5 -99.5 -66.5t-120 -25q-31 0 -63.5 9t-59.5 27q-28 18 -45 46t-17 64q0 59 37.5 94t95.5 35q18 0 40 -4t40 -14q19 -9 32 -25t13 -40q0 -15 -8 -32q-7 -14 -7 -27q0 -4 5 -5q9 -1 15 -1q23 0 46 15q24 15 48 39.5t46 56t41 62t34 59.5
q15 26 25 45l-325 687q-14 30 -27 50q-13 19 -29.5 28.5t-38.5 13.5q-23 4 -57 4h-2h-3v3v2v88v2v3h3h2h485h2h3v-3v-2v-88v-2v-3h-3h-2h-40h-25q-15 -1 -28 -5t-22 -11q-7 -6 -7 -18q0 -10 2 -20q3 -10 8 -20v0l200 -465l166 407q8 18 12.5 36.5t4.5 37.5q0 24 -12 35
q-13 13 -32 18q-20 5 -42 5h-42h-2h-3v3v2v88v2v3h3h2h388h2h3v-3v-2v-88v-2v-3h-3h-2h-28q-32 0 -53 -13q-23 -13 -39 -33q-16 -21 -27 -46q-11 -27 -22 -52l-223 -526q-20 -49 -44.5 -106t-54.5 -114q-30 -58 -66 -111t-80.5 -94.5z" />
    <glyph glyph-name="z" unicode="z" horiz-adv-x="910" 
d="M895 0h-3h-2h-765h-3h-2v2v3v83v2l519 680h-148q-61 0 -103 -14q-41 -14 -67.5 -42t-40.5 -69q-14 -42 -20 -99v-2v-2h-3h-2h-95h-3h-2v3v2l20 330v3v2h3h2h710h2h3v-2v-3v-83v-2l-1 -1l-518 -679h177q68 0 114 15q44 14 73 44t44 75q16 46 22 108v3v2h3h2h94h3h2v-3v-2
l-15 -349v-3v-2z" />
    <glyph glyph-name="braceleft" unicode="{" horiz-adv-x="613" 
d="M614 -191h-46q-127 0 -181.5 55t-54.5 202v195q0 153 -38 182q-26 19 -85 36l-2 1h-2v2v2v53v2v2h2l1 1q69 22 92 40q22 18 27 66q5 50 5 113v194q0 147 54.5 202.5t181.5 55.5h46h2h3v-3v-2v-67v-2v-3h-2h-3q-78 -4 -104 -44q-27 -41 -27 -160v-215q0 -86 -25 -128
q-24 -40 -97 -79q72 -40 96 -78q26 -41 26 -128v-215q0 -119 27 -160q26 -40 104 -44h3h2v-3v-2v-66v-2v-3h-3h-2z" />
    <glyph glyph-name="bar" unicode="|" horiz-adv-x="361" 
d="M362 -184h-152h-2h-3v2v3v1381v2v3h3h2h152h2h3v-3v-2v-1381v-3v-2h-3h-2z" />
    <glyph glyph-name="braceright" unicode="}" horiz-adv-x="613" 
d="M616 479q-70 -22 -93 -40q-22 -17 -27 -64q-5 -50 -5 -114v-195q0 -149 -55 -203t-181 -54h-45h-2h-3v3v2v66v2v3h2h3q77 4 103 45t26 159v215q0 86 26 128q24 39 97 78q-72 40 -97 79q-26 42 -26 128v215q0 118 -26 159t-103 45h-3h-2v3v2v67v2v3h3h2h45q84 0 133 -20
q103 -45 103 -238v-194q0 -152 33 -177q23 -19 56 -30l36 -12l1 -1h2v-2v-2v-53v-2v-2h-2z" />
    <glyph glyph-name="asciitilde" unicode="~" horiz-adv-x="1050" 
d="M442 396q-69 0 -139 -103l-1 -2l-2 -2l-2 1l-2 2l-89 74l-2 1l-1 2l1 2l1 1q46 85 111 136q65 52 113 52q46 0 81 -12q35 -11 100 -42l77 -35q69 -33 88 -42q19 -8 42 -5h1q69 0 139 101l1 2l2 2l2 -1l2 -2l89 -73l2 -1l1 -2l-1 -2l-1 -1q-46 -86 -110 -137
q-65 -52 -129 -52q-62 0 -166 53l-76 39q-79 38 -95 42q-18 3 -37 4z" />
    <glyph glyph-name="nbsp" unicode="&#xa0;" horiz-adv-x="536" 
 />
    <glyph glyph-name="exclamdown" unicode="&#xa1;" horiz-adv-x="447" 
d="M452 -309q0 -163 -122.5 -163t-122.5 163q0 72 30 205t39 230t10 315v3v2h3h2h76h2h3v-2v-3q2 -226 10 -322q9 -95 39 -227q31 -133 31 -201zM417.5 783q35.5 -37 35.5 -88.5t-36 -88t-88 -36.5t-88 36.5t-36 88t36.5 88.5t88.5 37t87.5 -37z" />
    <glyph glyph-name="cent" unicode="&#xa2;" horiz-adv-x="864" 
d="M587 86q145 0 208 161l1 2l1 2h2l3 -1l65 -24l2 -1l2 -1l-1 -2v-3q-43 -131 -121.5 -197t-193.5 -66q-35 0 -83 11l-85 -217l-1 -1l-1 -2h-1h-2h-79h-4h-4l2 3l1 4l101 240q-114 48 -178 145q-66 99 -66 233q0 195 117 318.5t301 123.5q69 0 132 -24l76 196l1 1l1 2h1h2
h71h4h3l-1 -3l-1 -4l-88 -230q34 -26 57 -68q24 -45 24 -88q0 -44 -33.5 -78t-75.5 -34q-37 0 -66 22l-161 -404q42 -16 68 -16zM672 697q-30 24 -87 24q-104 0 -163 -84q-59 -86 -59 -257q0 -164 86 -244z" />
    <glyph glyph-name="sterling" unicode="&#xa3;" horiz-adv-x="1082" 
d="M603 167q118 -40 198 -40q81 0 128 31t82 109l1 2l1 2h3l2 -1l67 -26l2 -1l2 -1l-1 -2v-2q-15 -69 -41.5 -122.5t-65.5 -90.5q-76 -74 -195 -74q-117 0 -260 111q-101 -111 -207 -111q-72 0 -118 41t-46 107.5t48 109.5t117 43q67 0 161 -42q11 45 11 66q0 97 -61 251
h-234h-3h-2v3v2v90v2v3h2h3h203q-46 149 -46 221q0 151 99 245.5t247 94.5q149 0 239 -70q90 -71 90 -178q0 -65 -34 -106q-35 -42 -85 -42t-80 29.5t-30 69.5t15 62q14 22 45 39q26 15 26 35t-45 44q-46 24 -118 24q-71 0 -120.5 -50.5t-49.5 -120.5q0 -71 63 -297h270h2h3
v-3v-2v-90v-2v-3h-3h-2h-251q18 -80 18 -175t-50 -185zM443 124q-76 39 -129 39q-29 0 -50 -18t-21 -44.5t23 -44.5q24 -19 58 -19q71 0 119 87z" />
    <glyph glyph-name="currency" unicode="&#xa4;" horiz-adv-x="1037" 
d="M1042 239l-96 -99l-2 -2l-2 -2l-2 2l-2 2l-88 95q-108 -95 -247 -95t-251 98l-90 -98l-2 -2l-2 -2l-2 2l-2 1l-98 99l-1 2l-2 2l2 2l2 2l97 91q-97 113 -97 244t94 234l-94 86l-2 2l-2 2l2 2l1 1l98 101l2 2l2 2l2 -2l2 -2l88 -94q111 94 244.5 94t251.5 -99l92 99l2 2
l2 2l2 -2l2 -2l96 -101l1 -1l2 -2l-2 -2l-2 -2l-96 -89q97 -108 97 -241.5t-93 -236.5l92 -88l2 -2l2 -2l-2 -2zM795 385.5q81 77.5 81 188t-81 189t-195.5 78.5t-195.5 -78.5t-81 -187.5t81 -188t195.5 -79t195.5 77.5z" />
    <glyph glyph-name="yen" unicode="&#xa5;" horiz-adv-x="1116" 
d="M508 1108q-41 0 -41 -26q0 -19 14 -42v-1l222 -426l154 346h1q29 57 29 92q0 57 -81 57h-30h-2h-3v2v3v91v2v3h3h2h341h3h2v-3v-2v-91v-3v-2h-2h-3h-24q-51 0 -74 -29q-24 -30 -70 -140l-159 -373h160h2h3v-2v-3v-90v-3v-2h-3h-2h-187v-114h187h2h3v-2v-3v-92v-3v-2h-3
h-2h-187v-41q0 -82 10 -99q10 -16 99 -16h32h2h3v-2v-3v-89v-2v-3h-3h-2h-502h-2h-3v3v2v89v3v2h3h2h31q74 0 91 12q16 11 16 60v84h-188h-2h-3v2v3v92v3v2h3h2h188v114h-188h-2h-3v2v3v90v3v2h3h2h150l-225 471q-24 48 -37 60q-12 11 -47 11h-33h-2h-3v2v3v91v2v3h3h2h388
h2h3v-3v-2v-91v-3v-2h-3h-2h-40z" />
    <glyph glyph-name="brokenbar" unicode="&#xa6;" horiz-adv-x="311" 
d="M312 645h-152h-2h-3v3v2v552v2v3h3h2h152h2h3v-3v-2v-552v-2v-3h-3h-2zM312 -184h-152h-2h-3v2v3v551v2v3h3h2h152h2h3v-3v-2v-551v-3v-2h-3h-2z" />
    <glyph glyph-name="section" unicode="&#xa7;" horiz-adv-x="839" 
d="M641 754q204 -144 204 -282q0 -103 -69.5 -174t-167.5 -71h-15q91 -70 130 -124q42 -58 42 -145t-75 -151q-74 -64 -180 -64t-179 57q-74 57 -74 136q0 20 7 37.5t21 32.5q29 28 70.5 28t68.5 -25q28 -25 28 -55t-8 -48q-8 -17 -22 -31q-12 -13 -12 -19q0 -13 27 -26
q29 -14 73 -14q43 0 79 32q35 31 35 76t-29 83q-30 39 -122 115l-131 106q-102 84 -144 151q-43 69 -43 156q0 88 67.5 152.5t166.5 64.5h19q-67 60 -97 92q-67 72 -67 169t71 160t176.5 63t178.5 -57t73 -134q0 -41 -28.5 -70t-70 -29t-68.5 24q-27 25 -27 52t11 49
q11 21 21 35q9 14 9 16q0 14 -26 26q-27 13 -70 13q-42 0 -75.5 -31t-33.5 -70t22 -72q22 -35 75 -85zM676.5 322q32.5 34 32.5 80q0 91 -153 215q-90 71 -146 71q-55 0 -87.5 -32.5t-32.5 -78.5q0 -47 23 -82q23 -37 93 -98q120 -109 195 -109q43 0 75.5 34z" />
    <glyph glyph-name="dieresis" unicode="&#xa8;" horiz-adv-x="706" 
d="M326 1087.5q30 -30.5 30 -72.5t-30 -71.5t-70.5 -29.5t-70.5 31t-30 71.5t30 71t70.5 30.5t70.5 -30.5zM682 1087.5q30 -30.5 30 -72.5t-29.5 -71.5t-70 -29.5t-71 31t-30.5 71.5t30.5 71t70.5 30.5t70 -30.5z" />
    <glyph glyph-name="copyright" unicode="&#xa9;" horiz-adv-x="1370" 
d="M1376 557q0 -119 -48.5 -228t-130.5 -187q-41 -39 -90 -70t-105.5 -54.5t-116 -35t-121.5 -11.5q-123 0 -236 46.5t-194.5 125t-130 187t-48.5 227.5t48.5 228t130 187.5t194.5 125t236.5 46.5t237 -46.5t195.5 -125t130.5 -187.5t48.5 -228zM1282 557q0 134 -69.5 247.5
t-188.5 179.5t-259 66t-259 -66t-188 -179.5t-69 -247.5t69 -247t188 -179t259 -66t259 66t188.5 179t69.5 247zM1085 460q-17 -115 -93 -177.5t-213.5 -62.5t-236 92.5t-98.5 233.5t104 241t246 100q51 0 88 -13q35 -12 85 -47l33 50l1 1v1h2h1h65h3h2v-3v-2v-257v-3v-2h-2
h-3h-57h-2h-2v2l-1 1q-30 92 -54 128q-53 79 -155 79q-180 0 -180 -277q0 -132 47 -197q47 -63 146 -63q171 0 207 186l1 2v3l2 -1h3l57 -9h2l3 -1l-1 -2v-3z" />
    <glyph glyph-name="ordfeminine" unicode="&#xaa;" horiz-adv-x="730" 
d="M672 797l46 13h1q17 0 17 -24q0 -22 -36 -44t-76 -22q-73 0 -102 74q-79 -83 -197 -83q-77 0 -123 33q-47 34 -47 102q0 69 82 114q78 43 274 73v33q0 53 -26 75t-75 22t-76 -10q-24 -8 -25 -20l21 -49v-1v-1q0 -24 -21 -39q-19 -14 -50 -14t-52 18t-21 48q0 57 67 94
q65 36 168 36t159 -35q57 -35 57 -129v-201q0 -62 35 -63zM511 933v39q-128 -20 -175 -46q-46 -25 -46 -64q0 -40 23 -60t71 -20t88 36q39 35 39 115zM654 537h-461h-3h-2v3v2v79v3v2h2h3h461h2h3v-2v-3v-79v-2v-3h-3h-2z" />
    <glyph glyph-name="guillemotleft" unicode="&#xab;" horiz-adv-x="742" 
d="M590 404q80 -144 119 -220t39 -90q0 -11 -8 -19.5t-15 -8.5h-7q-8 0 -21 16q-12 15 -14 18l-5 6.5t-21.5 26t-38 45.5t-63 76.5t-87.5 106.5q-22 28 -33 40l-1 1l-2 2l2 1l1 2l182 224q65 79 80 95q16 18 27 18t18 -10q6 -9 6 -18q0 -8 -12 -35q-13 -26 -30 -59
t-37.5 -72t-37.5 -70t-30 -54zM312 404q80 -144 119 -219q39 -76 38 -91q0 -11 -8 -19.5t-18 -9.5q-12 -1 -26 17q-12 16 -14 17v1l-213 261q-22 28 -34 39l-1 2l-2 2l2 1l1 2l247 304v0q31 33 41 33q12 0 19 -10q6 -9 6 -17q0 -6 -0.5 -10t-2 -10t-4.5 -11q-2 -5 -6 -13
t-8 -15t-10.5 -19t-12 -22t-14.5 -26t-17 -31z" />
    <glyph glyph-name="logicalnot" unicode="&#xac;" horiz-adv-x="1056" 
d="M1062 643v-392v-3v-2h-2h-3h-153h-2h-3v2v3v233h-739h-2h-3v2v3v154v3v2h3h2h897h3h2v-2v-3z" />
    <glyph glyph-name="uni00AD" unicode="&#xad;" horiz-adv-x="635" 
d="M635 308h-475h-2h-3v2v3v160v3v2h3h2h475h3h2v-2v-3v-160v-3v-2h-2h-3z" />
    <glyph glyph-name="registered" unicode="&#xae;" horiz-adv-x="1386" 
d="M1342.5 788q49.5 -111 49.5 -252t-83 -278.5t-226 -217t-310.5 -79.5t-309.5 79.5t-225 217t-83 278.5t49 252t131.5 190.5t197 127t240 47.5t240.5 -47.5t197.5 -127t132 -190.5zM1227.5 305.5q70.5 114.5 70.5 233.5t-41.5 212t-112 160.5t-168 107t-203.5 39.5
t-203.5 -39.5t-168 -107t-111.5 -160.5t-41 -212t70 -233.5t191 -182.5q61 -33 126.5 -50t137.5 -17q142 0 262.5 67.5t191 182zM1028 315q31 0 35 75v3v2h3h2h55h3h2v-3v-2q-1 -87 -33 -128q-33 -42 -99 -42q-67 0 -102 34.5t-43 114.5l-4 43q-9 70 -42 99t-96 29h-43v-207
q0 -20 10 -25q11 -6 60 -6h19h3h2v-2v-3v-57v-2v-3h-2h-3h-333h-2h-3v3v2v57v3v2h3h2h19q50 0 62 6q10 4 10 25v458q0 20 -10 24q-11 5 -62 5h-19h-2h-3v2v3v58v3v2h3h2h351q132 0 205 -42q75 -43 75 -124q0 -126 -191 -162q41 -15 65 -39q29 -30 48 -88l16 -51
q13 -44 20 -57q6 -10 17 -10zM755 606q134 0 134 109q0 56 -29 80q-29 25 -93 25h-51q-37 0 -45 -3q-5 -2 -5 -15v-196h89z" />
    <glyph glyph-name="macron" unicode="&#xaf;" horiz-adv-x="756" 
d="M757 959h-597h-2h-3v3v2v105v3v2h3h2h597h3h2v-2v-3v-105v-2v-3h-2h-3z" />
    <glyph glyph-name="degree" unicode="&#xb0;" horiz-adv-x="686" 
d="M692 887q0 -113 -77.5 -190.5t-190.5 -77.5t-191 78.5t-78 190.5t80.5 189.5t193 77.5t188 -77.5t75.5 -190.5zM531 782.5q43 42.5 43 104.5t-43 105t-106 43t-108 -43t-45 -104t45 -104.5t108 -43.5t106 42.5z" />
    <glyph glyph-name="plusminus" unicode="&#xb1;" horiz-adv-x="1105" 
d="M1106 468h-367v-206v-2v-3h-3h-2h-152h-2h-3v3v2v206h-367h-2h-3v2v3v153v2v3h3h2h367v372v3v2h3h2h152h2h3v-2v-3v-372h367h2h3v-3v-2v-153v-3v-2h-3h-2zM1106 -5h-896h-2h-3v3v2v153v3v2h3h2h896h2h3v-2v-3v-153v-2v-3h-3h-2z" />
    <glyph glyph-name="uni00B2" unicode="&#xb2;" horiz-adv-x="701" 
d="M707 712l-22 -239v-3v-2h-3h-2h-520h-2h-3v2v3v43v2l1 1q18 21 48 57q40 48 210 208q125 118 125 217q0 58 -34 89.5t-91 31.5t-99 -28q-39 -27 -40 -59q2 -3 15 -11q58 -29 58 -68q0 -37 -22 -56t-60 -19q-39 0 -67 33q-27 32 -27 83q0 85 77 142q75 56 187.5 56
t186.5 -57q75 -57 75 -137t-45 -134t-151 -126q-99 -67 -185 -141h224q45 0 57.5 9t21.5 51l13 53l1 2v2h2h2h64h3h2v-3v-2z" />
    <glyph glyph-name="uni00B3" unicode="&#xb3;" horiz-adv-x="689" 
d="M424 808l-74 -2q-42 0 -41.5 41.5t45.5 41.5q19 0 24 -1q36 -2 39 -2q54 -2 80 26.5t26 89.5q0 120 -104 120q-39 0 -75 -16q-33 -14 -34 -28q2 -4 19 -23q21 -24 21 -48t-22 -43t-57 -19t-59.5 22.5t-24.5 57.5q0 73 71 122q69 48 176 48t172 -49q66 -49 66 -122
q0 -71 -37 -109q-33 -35 -96 -65q72 -20 112 -64q44 -48 44 -131q0 -84 -79 -142q-78 -58 -197 -58t-191 49q-73 50 -73 127q0 44 26.5 72t64.5 28q39 0 63 -21q25 -21 25 -48t-13 -42q-12 -14 -31 -24q-17 -10 -22 -14q3 -16 41 -32q44 -19 88 -19q139 0 139 138.5
t-112 138.5z" />
    <glyph glyph-name="acute" unicode="&#xb4;" horiz-adv-x="534" 
d="M522 1176q18 -22 18 -64q0 -43 -43 -76l-265 -205l-1 -1h-2h-69h-5h-5l3 4l3 4l233 294q53 67 83.5 67t49.5 -23z" />
    <glyph glyph-name="mu" unicode="&#xb5;" horiz-adv-x="1161" 
d="M831 116q-26 -37 -54.5 -65.5t-60.5 -47.5q-66 -40 -145 -40q-121 0 -195 96q0 -53 3 -71q3 -22 29 -105q26 -84 26 -134q0 -51 -26 -88q-27 -38 -71 -38t-73 36q-28 35 -28 79q0 55 28 148q27 92 27 139v568q0 52 -12 66q-11 13 -55 13h-64h-2h-3v2v3v82v2v3h2h3l315 18
h2h3v-2v-3v-503q0 -68 4 -90q5 -22 21 -46q33 -49 101 -49q225 0 225 307v200q0 50 -12 63q-11 13 -55 13h-86h-2h-3v2v3v82v2v3h2h3l337 18h2h3v-2v-3v-575q0 -77 17 -96q16 -19 83 -19h42h2h3v-3v-2v-82v-2v-3h-2h-3l-326 -13h-2h-3v2v3v129z" />
    <glyph glyph-name="paragraph" unicode="&#xb6;" horiz-adv-x="1071" 
d="M565 -131q0 2 1 2q1 16 1 96v562h-49q-178 0 -270.5 87.5t-92.5 251.5q0 165 82 255q82 91 234 91h601h2h3v-2v-3v-72v-2v-3h-2h-3q-72 -3 -89 -15q-15 -12 -15 -57v-1093q0 -81 1 -96q2 -13 10 -22q12 -13 93 -20h3h2v-3v-2v-70v-2v-3h-3h-2h-631h-3h-2v3v2v70v2v3h2h3
h7q91 0 110 20zM424 802q0 -198 129 -198h14v528q-79 -2 -110 -43q-33 -43 -33 -153v-134zM833 -169v1301h-131v-1301h131z" />
    <glyph glyph-name="periodcentered" unicode="&#xb7;" horiz-adv-x="395" 
d="M401 415q0 -51 -35.5 -87t-87 -36t-87.5 36.5t-36 87t36 87t87 36.5t87 -36.5t36 -87.5z" />
    <glyph glyph-name="cedilla" unicode="&#xb8;" horiz-adv-x="524" 
d="M486 -125q44 -34 44 -96t-61 -105q-59 -43 -147 -43t-164 33l-2 1l-2 1v3l1 2l23 61l1 2l1 2l2 -1h3q60 -20 101 -20t66 18q24 18 24 45q0 29 -20 46q-21 17 -48 17q-28 0 -62 -8h-1h-1l-15 3l-3 1h-3l1 3l1 3l74 172l1 1l1 2h1h2h58h4h3l-1 -3l-1 -4l-38 -105q37 3 46 3
q68 0 111 -34z" />
    <glyph glyph-name="uni00B9" unicode="&#xb9;" horiz-adv-x="600" 
d="M601 471h-441h-2h-3v3v2v69v3v2h3h2h71q69 0 76 6.5t7 55.5v386q0 39 -6.5 45t-47.5 6h-98h-2h-3v3v2v65v3v2h3h2q77 0 146 20q68 19 95 49l1 1l1 1h1h1h52h3h2v-3v-2q-8 -98 -8 -169v-407v-30q0 -20 6.5 -27t74.5 -7h64h3h2v-2v-3v-69v-2v-3h-2h-3z" />
    <glyph glyph-name="ordmasculine" unicode="&#xba;" horiz-adv-x="662" 
d="M668 963q0 -111 -72.5 -181t-185.5 -70t-184 72t-71 182.5t75 184.5t183 74t181.5 -75.5t73.5 -186.5zM414 1163q-118 0 -118 -195t116 -195t116 204q0 91 -30 139q-30 47 -84 47zM644 537h-462h-2h-3v3v2v79v3v2h3h2h462h2h3v-2v-3v-79v-2v-3h-3h-2z" />
    <glyph glyph-name="guillemotright" unicode="&#xbb;" horiz-adv-x="741" 
d="M221 711l247 -304l1 -1l1 -2l-1 -2l-1 -1l-247 -301q-23 -34 -43 -34q-23 0 -23 30q0 25 157 308q-157 287 -157 304q0 36 23 36q21 0 43 -33zM499 711l247 -304l1 -1l1 -2l-1 -2l-1 -1l-247 -301q-23 -34 -37 -34q-28 0 -28 28q0 25 157 310q-157 288 -158 304v0
q0 36 23 36q21 0 43 -33z" />
    <glyph glyph-name="onequarter" unicode="&#xbc;" horiz-adv-x="1451" 
d="M1315 1179l-852 -1182l-1 -1v-1h-2h-1h-102h-5h-5l3 4l3 4l852 1182l1 1v1h2h1h102h5h5l-3 -4zM1452 164h-123v-61q0 -22 9 -25q12 -5 84 -6h3h2v-3v-2v-67v-2v-3h-3h-2h-335h-3h-2v3v2v67v3v2h2h3h19q60 0 73 5q10 4 10 26v61h-290h-3h-2v2v3v70v2l1 1l370 467l1 1l1 1
h1h1h62h3h2v-3v-2q-7 -98 -7 -201v-255h123h2h3v-2v-3v-76v-3v-2h-3h-2zM601 473h-441h-2h-3v3v2v67v3v2h3h2h71q60 0 72 8q11 8 11 54v385q0 39 -6.5 45t-47.5 6h-98h-2h-3v2v3v63v2v3h3h2q77 0 146 20q68 19 95 49l1 1l1 1h1h1h52h3h2v-3v-2q-8 -97 -8 -169v-405
q0 -47 10 -55q11 -8 71 -8h64h3h2v-2v-3v-67v-2v-3h-2h-3zM1189 250v250l-196 -250h196z" />
    <glyph glyph-name="onehalf" unicode="&#xbd;" horiz-adv-x="1510" 
d="M1301 1180l-848 -1183l-1 -1v-1h-2h-1h-103h-5h-5l3 4l3 4l856 1183l1 1v1h2h1h95h5h5l-3 -4zM601 478h-441h-2h-3v2v3v67v2v3h3h2h71q60 0 72 8q11 8 11 53v382q0 38 -6.5 44t-47.5 6h-98h-2h-3v2v3v63v2v3h3h2q78 0 147 20q67 19 94 50l1 1l1 1h1h1h52h3h2v-3v-2
q-8 -97 -8 -168v-403q0 -47 10 -54q11 -8 71 -8h64h3h2v-3v-2v-67v-3v-2h-2h-3zM1516 236l-22 -236v-3v-2h-3h-2h-520h-3h-2v3v2v41v2l1 1q109 130 203 212q93 81 137 144q43 63 43 122q0 58 -33.5 90t-90.5 32t-99 -28q-39 -27 -40 -59q2 -3 15 -11q57 -29 57 -68
q0 -37 -22 -56t-61 -19q-38 0 -66 33q-27 32 -27 83q0 85 77 142q75 56 187.5 56t186.5 -56q75 -57 75 -137q0 -79 -46 -133q-45 -54 -150 -125q-98 -66 -185 -141h224q45 0 57.5 9t21.5 50l13 53l1 2v2h2h2h64h3h2v-3v-2z" />
    <glyph glyph-name="threequarters" unicode="&#xbe;" horiz-adv-x="1491" 
d="M1373 1176l-873 -1179l-1 -1v-1h-2h-1h-93h-5h-5l3 4l3 4l864 1179l1 1v1h2h1h102h5h5l-3 -4zM1492 164h-123v-61q0 -22 9 -25q12 -5 84 -6h3h2v-3v-2v-67v-2v-3h-3h-2h-334h-2h-3v3v2v67v3v2h3h2h18q60 0 73 5q10 4 10 26v61h-290h-3h-2v2v3v70v2l1 1l369 464l1 1l1 1h1
h1h63h3h2v-3v-2q-7 -98 -7 -200v-253h123h2h3v-2v-3v-76v-3v-2h-3h-2zM419 1119q-39 0 -75 -15q-33 -14 -34 -28q2 -4 19 -24q21 -24 21 -48t-22 -43q-22 -18 -57 -18t-59.5 22.5t-24.5 57.5q0 73 71 121q69 48 177 48t173 -48q66 -49 66 -122q0 -71 -38 -110
q-34 -35 -97 -64q72 -20 112 -63q45 -48 45 -129q0 -83 -80 -141q-78 -57 -197.5 -57t-190.5 48q-73 49 -73 126q0 43 26.5 70.5t64.5 27.5q39 0 63 -20q25 -20 25 -47t-13 -42q-13 -14 -32 -24q-18 -10 -21 -15q2 -15 41 -32q43 -18 100 -18q56 0 92 36.5t36 105.5
q0 133 -113 133l-74 -2q-42 0 -41.5 41t35.5 41q29 0 34 -1l39 -2q54 -2 80.5 26.5t26.5 89.5q0 119 -105 119zM1229 250v253l-197 -253h197z" />
    <glyph glyph-name="questiondown" unicode="&#xbf;" horiz-adv-x="907" 
d="M913 -207q0 -112 -102 -184q-101 -71 -257 -71q-155 0 -252 81t-97 212q0 88 42 151q42 62 152 150q108 87 131 138t23 174v2v3h3h2h84h2h3v-3v-2v-52q0 -100 -15 -139t-18 -46q-2 -9 -6 -16.5t-10 -17.5q-7 -10 -12 -18t-19 -25q-13 -16 -23 -30q-25 -32 -78 -100
q-51 -66 -51 -164t49 -149.5t124 -51.5t122 24q45 24 45 53q0 6 -12 24q-41 61 -41 99q-1 38 28 65.5t74 27.5q44 0 77 -39q32 -38 32 -96zM692 785q36 -37 36 -89t-36 -88.5t-88 -36.5t-88 36.5t-36 88.5t36 89t88 37t88 -37z" />
    <glyph glyph-name="Agrave" unicode="&#xc0;" horiz-adv-x="1352" 
d="M1352 0h-2h-3h-521h-2h-3v2v3v89v2v3h3h2h71q47 0 75 11q26 10 26 26q0 8 -13 40l-91 209h-440l-55 -136q-16 -41 -16 -65q0 -85 132 -85h35h2h3v-3v-2v-89v-3v-2h-3h-2h-445h-3h-2v2v3v89v2v3h2h3h23q60 0 88 29q30 30 74 138l389 938v1l1 2h2h1h70h2h2v-2l1 -1
l430 -1005q28 -68 49 -84q20 -16 78 -16h32h3h2v-3v-2v-89v-3v-2zM671 933l-180 -440h363zM905 1250h-7h-7h-83h-1h-1l-323 153l-1 1q-53 29 -53 71q0 27 23 45t51 18t49 -11q21 -10 58 -40l284 -228l6 -5z" />
    <glyph glyph-name="Aacute" unicode="&#xc1;" horiz-adv-x="1352" 
d="M1352 0h-2h-3h-521h-2h-3v2v3v89v2v3h3h2h71q47 0 75 11q26 10 26 26q0 8 -13 40l-91 209h-440l-55 -136q-16 -41 -16 -65q0 -85 132 -85h35h2h3v-3v-2v-89v-3v-2h-3h-2h-445h-3h-2v2v3v89v2v3h2h3h23q60 0 88 29q30 30 74 138l389 938v1l1 2h2h1h70h2h2v-2l1 -1
l430 -1005q28 -68 49 -84q20 -16 78 -16h32h3h2v-3v-2v-89v-3v-2zM671 933l-180 -440h363zM925 1538q37 0 59 -18q24 -18 24 -45q0 -42 -54 -71v-1l-323 -153v0h-2v0v0h-83h-8h-7l6 4l5 5l284 228q62 51 99 51z" />
    <glyph glyph-name="Acircumflex" unicode="&#xc2;" horiz-adv-x="1352" 
d="M1352 0h-2h-3h-521h-2h-3v2v3v89v2v3h3h2h71q47 0 75 11q26 10 26 26q0 8 -13 40l-91 209h-440l-55 -136q-16 -41 -16 -65q0 -85 132 -85h35h2h3v-3v-2v-89v-3v-2h-3h-2h-445h-3h-2v2v3v89v2v3h2h3h23q60 0 88 30q30 31 74 142l389 965v1l1 2h2h1h70h2h2v-2l1 -1
l430 -1034q28 -70 49 -87q20 -16 78 -16h32h3h2v-3v-2v-89v-3v-2zM671 952l-180 -459h363zM1048 1291h-6h-6h-75h-1l-2 1l-240 149l-242 -149l-1 -1h-1h-73h-6h-7l5 4l4 5l253 248h1l1 1h1h1h129h1h1l1 -1v0l254 -248l4 -5z" />
    <glyph glyph-name="Atilde" unicode="&#xc3;" horiz-adv-x="1353" 
d="M1354 0h-2h-3h-530h-2h-3v2v3v89v2v3h3h2h75q49 0 78 11q28 10 28 25q0 7 -15 40l-97 205h-436l-54 -133q-15 -39 -15 -64q0 -84 127 -84h34h2h3v-3v-2v-89v-3v-2h-3h-2h-439h-3h-2v2v3v89v2v3h2h3h23q60 0 87 28q29 30 72 139l385 932v2l1 2h2h1h71h2h2v-2l1 -2
l436 -1000q29 -68 49 -84q20 -15 80 -15h32h3h2v-3v-2v-89v-3v-2zM665 923l-180 -430h362zM1006 1499v-3v-2q-10 -95 -62 -154q-53 -60 -129 -60q-34 0 -61 10q-27 9 -87 40q-59 30 -94 30q-59 0 -76 -76l-1 -2v-2h-2h-2h-53h-3h-3l1 3v3q18 90 63 143q46 54 94 54
q46 0 70 -9q24 -8 94 -44q68 -35 95 -35q25 0 47 28q24 29 31 72v2v2h3h2h68h2h3z" />
    <glyph glyph-name="Adieresis" unicode="&#xc4;" horiz-adv-x="1399" 
d="M1400 0h-2h-3h-541h-2h-3v2v3v89v2v3h3h2h79q53 0 84 11q29 11 29 20q0 13 -15 46l-100 209h-477l-55 -136q-16 -41 -16 -65q0 -85 141 -85h38h2h3v-3v-2v-89v-3v-2h-3h-2h-457h-3h-2v2v3v89v2v3h2h3h24q63 0 92 29q31 30 77 138l405 932v2l1 2h2h1h71h2h2v-2l1 -1
l447 -1000q29 -68 50 -84q20 -16 82 -16h33h3h2v-3v-2v-89v-3v-2zM695 924l-201 -431h392zM491 1463q30 30 71.5 30t72 -30t30.5 -71t-30.5 -70.5t-71.5 -29.5t-71.5 30.5t-30.5 70.5t30 70zM852.5 1463q30.5 30 71 30t70.5 -30t30 -71t-29.5 -70.5t-70.5 -29.5t-71.5 30.5
t-30.5 70.5t30.5 70z" />
    <glyph glyph-name="Aring" unicode="&#xc5;" horiz-adv-x="1369" 
d="M1370 0h-2h-3h-530h-2h-3v2v3v89v2v3h3h2h75q49 0 78 11q28 10 28 21q0 13 -14 44l-90 206h-459l-54 -135q-16 -40 -16 -63q0 -84 132 -84h34h2h3v-3v-2v-89v-3v-2h-3h-2h-444h-3h-2v2v3v89v2v3h2h3h23q61 0 90 30q30 30 75 139l394 949v1l1 2h2h1h72h2h2v-2l1 -1
l436 -1017q29 -68 49 -85q20 -16 80 -16h32h3h2v-3v-2v-89v-3v-2zM680 940l-190 -450h378zM600 1551q54 51 128.5 51t128 -51t53.5 -123.5t-53.5 -122.5t-129 -50t-128.5 50.5t-53 122.5t54 123zM655.5 1361q29.5 -28 73 -28t72.5 27t29 67t-30 68t-72 28t-72 -28t-30 -67
t29.5 -67z" />
    <glyph glyph-name="AE" unicode="&#xc6;" horiz-adv-x="1776" 
d="M1777 452v-3v-2l-38 -442v-3v-2h-3h-2h-1027h-2h-3v2v3v89v2v3h3h2h31q101 0 120 10t23 21q4 13 4 39v271h-394l-117 -202q-24 -42 -24 -75q0 -64 111 -64h33h3h2v-3v-2v-89v-3v-2h-2h-3h-389h-3h-2v2v3v88v2v2l2 1h2q43 8 73 36q31 28 72 98l414 719q22 39 22 80
q0 39 -25 55q-26 17 -108 17h-45h-2h-3v3v2v91v3v2h3h2h1209h2h3v-2v-3l26 -426v-2v-3h-2h-3h-82h-2h-2l-1 2v2q-25 141 -56 195t-58 76.5t-69 35.5q-74 24 -216 24h-42q-68 0 -85 -13q-18 -13 -18 -61v-358h42q101 0 150 50t55 164v3v2h2h3h89h3h2v-2v-3v-541v-2v-3h-2h-3
h-89h-3h-2v2v3q-3 117 -32.5 158.5t-70.5 54.5q-42 14 -108 14h-36v-400q0 -44 25 -58t93 -14h61q155 0 239 47q75 43 118 164q20 54 38 138l1 2v2h2h2h82h3h2zM849 1075l-304 -522h340v516q0 23 -3 28q-2 3 -8 3q-11 0 -25 -25z" />
    <glyph glyph-name="Ccedilla" unicode="&#xc7;" horiz-adv-x="1218" 
d="M1000 976q-45 75 -121.5 118.5t-165.5 43.5q-352 0 -352 -555q0 -264 92 -391q46 -64 116.5 -95.5t165.5 -31.5q314 0 385 366l1 2v3l2 -1h3l89 -13h2l3 -1l-1 -2v-3q-30 -215 -161 -334q-131 -118 -341 -118q-36 0 -70 3l-28 -73q41 3 48 3q69 0 112 -32
q44 -33 44 -92.5t-63 -100.5q-61 -41 -155 -41t-161 33l-2 1l-2 1l1 2l1 2l24 61l1 2l1 2l2 -1h3q63 -20 104 -20t65 17q23 17 23 43.5t-20 42.5t-49 16q-30 0 -63 -10h-1l-1 -1l-1 1l-1 1l-12 9l-2 1l-2 1l1 2l1 2l64 141q-141 23 -251 111q-110 89 -169 220t-59 292
t81.5 310.5t221.5 236.5q141 88 305 88q91 0 158 -26q64 -25 156 -95l63 102v1l1 1h2h1h99h2h3v-3v-2v-488v-2v-3h-3h-2h-84h-2h-2v2l-1 2q-54 174 -99 249z" />
    <glyph glyph-name="Egrave" unicode="&#xc8;" horiz-adv-x="1229" 
d="M1230 455v-3v-2l-39 -445v-3v-2h-3h-2h-1081h-3h-2v2v3v89v2v3h2h3h30q100 0 123 12q22 12 22 59v864q0 48 -22 59q-23 12 -123 12h-30h-3h-2v3v2v91v3v2h2h3h1083h2h3v-2v-3v-427v-2v-3h-3h-2h-82h-2h-2l-1 2v2q-25 142 -55 195.5t-57 75.5q-28 22 -71 36
q-72 25 -220 25h-90q-68 0 -86 -13q-17 -12 -17 -61v-357h36q119 0 173 50t60 166v3v2h2h3h90h3h2v-3v-2v-543v-3v-2h-2h-3h-90h-3h-2v2v3q-5 150 -67 191q-55 37 -173 37h-29v-403q0 -45 24 -59q26 -14 95 -14h116q102 0 169 17q65 18 110 61t71 106q26 64 46 168v2l1 2h2
h2h84h3h2zM889 1264h-8h-8h-93h-1h-1l-325 139q-66 30 -66 72q0 27 23 45t53 18q49 0 114 -49l299 -216l7 -4z" />
    <glyph glyph-name="Eacute" unicode="&#xc9;" horiz-adv-x="1229" 
d="M1230 455v-3v-2l-39 -445v-3v-2h-3h-2h-1081h-3h-2v2v3v89v2v3h2h3h30q100 0 123 12q22 12 22 59v864q0 48 -22 59q-23 12 -123 12h-30h-3h-2v3v2v91v3v2h2h3h1083h2h3v-2v-3v-427v-2v-3h-3h-2h-82h-2h-2l-1 2v2q-25 142 -55 195.5t-57 75.5q-28 22 -71 36
q-72 25 -220 25h-90q-68 0 -86 -13q-17 -12 -17 -61v-357h36q119 0 173 50t60 166v3v2h2h3h90h3h2v-3v-2v-543v-3v-2h-2h-3h-90h-3h-2v2v3q-5 150 -67 191q-55 37 -173 37h-29v-403q0 -45 24 -59q26 -14 95 -14h116q102 0 169 17q65 18 110 61t71 106q26 64 46 168v2l1 2h2
h2h84h3h2zM906 1538q38 0 61 -18t23 -45q0 -43 -51 -71l-1 -1l-335 -139h-1h-1h-84h-8h-8l7 5l6 4l291 216q63 49 101 49z" />
    <glyph glyph-name="Ecircumflex" unicode="&#xca;" horiz-adv-x="1229" 
d="M1230 455v-3v-2l-39 -445v-3v-2h-3h-2h-1081h-3h-2v2v3v89v2v3h2h3h30q100 0 123 12q22 12 22 59v864q0 48 -22 59q-23 12 -123 12h-30h-3h-2v3v2v91v3v2h2h3h1083h2h3v-2v-3v-427v-2v-3h-3h-2h-82h-2h-2l-1 2v2q-25 142 -55 195.5t-57 75.5q-28 22 -71 36
q-72 25 -220 25h-90q-68 0 -86 -13q-17 -12 -17 -61v-357h36q119 0 173 50t60 166v3v2h2h3h90h3h2v-3v-2v-543v-3v-2h-2h-3h-90h-3h-2v2v3q-5 150 -67 191q-55 37 -173 37h-29v-403q0 -45 24 -59q26 -14 95 -14h116q102 0 169 17q65 18 110 61t71 106q26 64 46 168v2l1 2h2
h2h84h3h2zM1031 1281h-6h-6h-74h-1l-1 1l-253 150l-252 -150l-1 -1h-2h-83h-6h-7l5 4l5 5l273 249l1 1h2h129h1h1l2 -1l264 -249l5 -5z" />
    <glyph glyph-name="Edieresis" unicode="&#xcb;" horiz-adv-x="1229" 
d="M1230 455v-3v-2l-39 -445v-3v-2h-3h-2h-1081h-3h-2v2v3v89v2v3h2h3h30q100 0 123 12q22 12 22 59v864q0 48 -22 59q-23 12 -123 12h-30h-3h-2v3v2v91v3v2h2h3h1083h2h3v-2v-3v-427v-2v-3h-3h-2h-82h-2h-2l-1 2v2q-25 142 -55 195t-57 75q-28 23 -71 37q-72 25 -220 25
h-90q-68 0 -86 -13q-17 -12 -17 -61v-358h36q119 0 173 50t60 166v3v2h2h3h90h3h2v-2v-3v-543v-2v-3h-2h-3h-90h-3h-2v2v3q-5 149 -67 191q-55 37 -173 37h-29v-403q0 -44 24 -58q26 -14 95 -14h116q102 0 169 17q65 18 110 61t71 106t46 168v2l1 2h2h2h84h3h2zM454 1463
q30 30 72 30t72 -30t30 -71t-30.5 -70.5t-71.5 -29.5t-71.5 30.5t-30.5 70.5t30 70zM801.5 1463q30.5 30 71.5 30t71.5 -30t30.5 -71t-31 -70.5t-72.5 -29.5t-71 30.5t-29.5 70.5t30.5 70z" />
    <glyph glyph-name="Igrave" unicode="&#xcc;" horiz-adv-x="692" 
d="M693 0h-3h-2h-579h-3h-2v2v3v89v2v3h2h3h34q120 0 136 24q9 13 9 47v864q0 27 -4 40q-3 12 -18 19q-25 12 -123 12h-34h-3h-2v3v2v91v3v2h2h3h579h2h3v-2v-3v-91v-2v-3h-3h-2h-33q-71 0 -99 -5q-27 -4 -36 -18q-9 -13 -9 -48v-864q0 -57 35 -64q34 -7 109 -7h33h2h3v-3
v-2v-89v-3v-2zM598 1274h-8h-8h-84h-1h-1l-346 160q-50 23 -50 52q0 28 24 42q23 14 51 14q49 0 113 -47l297 -212l6 -4z" />
    <glyph glyph-name="Iacute" unicode="&#xcd;" horiz-adv-x="692" 
d="M689 0h-3h-2h-579h-3h-2v2v3v89v2v3h2h3h33q119 0 136 24q9 13 9 47v864q0 48 -21 59q-23 12 -124 12h-33h-3h-2v3v2v91v3v2h2h3h579h2h3v-2v-3v-91v-2v-3h-3h-2h-34q-99 0 -122 -12q-22 -11 -22 -59v-864q0 -48 22 -59q23 -12 122 -12h34h2h3v-3v-2v-89v-3v-2zM608 1542
q38 0 61 -14q24 -15 24 -37q0 -34 -50 -57l-347 -160v0h-1h-1h-83h-8h-8l7 5l6 4l297 212q64 48 103 47z" />
    <glyph glyph-name="Icircumflex" unicode="&#xce;" horiz-adv-x="773" 
d="M742 0h-2h-3h-589h-2h-3v2v3v89v2v3h3h2h34q121 0 136 24q9 13 9 47v864q0 27 -4 40q-3 12 -18 19q-25 12 -123 12h-34h-2h-3v3v2v91v3v2h3h2h589h3h2v-2v-3v-91v-2v-3h-2h-3h-33q-70 0 -99 -5q-27 -4 -36 -18q-9 -13 -9 -48v-864q0 -57 35 -64q34 -7 109 -7h33h3h2v-3
v-2v-89v-3v-2zM789 1281h-7h-6h-74h-1l-1 1l-257 150l-257 -150l-1 -1h-2h-71h-6h-6l4 4l5 5l253 249h1l2 1h1h153h1h1l2 -1l257 -249l4 -5z" />
    <glyph glyph-name="Idieresis" unicode="&#xcf;" horiz-adv-x="710" 
d="M711 0h-3h-2h-601h-3h-2v2v3v89v2v3h2h3h33q119 0 136 24q9 13 9 47v864q0 48 -21 59q-23 12 -124 12h-33h-3h-2v3v2v91v3v2h2h3h601h2h3v-2v-3v-91v-2v-3h-3h-2h-38q-111 0 -137 -12q-25 -11 -25 -59v-864q0 -48 25 -59q26 -12 137 -12h38h2h3v-3v-2v-89v-3v-2z
M133.5 1463q29.5 30 70.5 30t70.5 -30t29.5 -71t-29.5 -70.5t-70 -29.5t-70.5 30.5t-30 70.5t29.5 70zM513 1463q30 30 71 30t70.5 -30t29.5 -71t-30 -70.5t-70.5 -29.5t-70.5 30.5t-30 70.5t30 70z" />
    <glyph glyph-name="Eth" unicode="&#xd0;" horiz-adv-x="1348" 
d="M1088 1125q129 -79 195 -216q66 -136 66 -308q0 -291 -164 -446t-487 -155h-593h-3h-2v2v3v89v2v3h2h3h32q118 0 134 24q9 13 9 46v402h-175h-3h-2v3v2v90v2v3h2h3h175v363q0 26 -4 38q-3 11 -18 19q-24 12 -121 12h-32h-3h-2v3v2v91v3v2h2h3h560q294 0 423 -79zM596 99
h115q202 0 289 115q88 116 88 385t-95 387q-94 117 -308 117h-89q-61 0 -76 -14t-15 -70v-348h299h3h2v-3v-2v-90v-2v-3h-2h-3h-299v-389q0 -56 15 -69q15 -14 76 -14z" />
    <glyph glyph-name="Ntilde" unicode="&#xd1;" horiz-adv-x="1438" 
d="M1439 1106h-2h-3q-62 -3 -97 -14q-34 -11 -55 -42q-22 -31 -29 -81t-7 -137v-851v-3v-2h-2h-3h-79h-2h-1l-1 1v1l-750 985v-591q0 -130 16 -176t37 -62q43 -32 131 -35h3h2v-3v-2v-89v-3v-2h-3h-2h-485h-3h-2v2v3v88v3v2h2h3q89 3 122.5 26.5t43.5 54.5q22 63 22 190v686
q-21 28 -53 39q-33 11 -96 11h-41h-3h-2v3v2v91v3v2h2h3h357h2h1l1 -2l666 -870v498q0 129 -17 176q-16 47 -39 63q-47 31 -140 34h-3h-2v3v2v91v3v2h2h3h498h2h3v-2v-3v-90v-3v-2zM805 1290q-27 9 -87 40q-59 30 -93 30q-58 0 -77 -76v-2l-1 -2h-2h-2h-52h-3h-3v3l1 3
q17 90 63 143q46 54 93 54q46 0 71 -9q24 -8 93 -44q68 -35 95 -35q24 0 48 28q24 29 31 72v2v2h2h3h67h3h3v-3l-1 -2q-9 -95 -62 -154q-53 -60 -129 -60q-34 0 -61 10z" />
    <glyph glyph-name="Ograve" unicode="&#xd2;" horiz-adv-x="1329" 
d="M963.5 1186.5q113.5 -49.5 193 -134t126.5 -202.5t47 -251.5t-47 -251.5t-127.5 -202t-195 -132.5t-265.5 -48.5q-152 0 -294 83q-141 83 -221 229t-80 320.5t76 319.5t220 232q144 88 327 88q127 0 240.5 -49.5zM715.5 65q176.5 0 264.5 129q89 130 89 406
q0 536 -349 536q-180 0 -269 -129q-90 -130 -90 -406t90 -406q88 -130 264.5 -130zM903 1274h-7h-8h-84h-1v0l-323 141l-1 1q-53 29 -53 72q0 27 23 46q22 18 50 18q46 0 109 -50l283 -219l6 -5z" />
    <glyph glyph-name="Oacute" unicode="&#xd3;" horiz-adv-x="1329" 
d="M963.5 1186.5q113.5 -49.5 193 -134t126.5 -202.5t47 -251.5t-47 -251.5t-127.5 -202t-195 -132.5t-265.5 -48.5q-152 0 -294 83q-141 83 -221 229t-80 320.5t76 319.5t220 232q144 88 327 88q127 0 240.5 -49.5zM715.5 65q176.5 0 264.5 129q89 130 89 406
q0 536 -349 536q-180 0 -269 -129q-90 -130 -90 -406t90 -406q88 -130 264.5 -130zM923 1552q37 0 59 -18q23 -19 23 -46q0 -42 -54 -72l-1 -1l-322 -141h-1h-1v0v0h-83h-8h-7l6 4l6 5l283 219q63 50 100 50z" />
    <glyph glyph-name="Ocircumflex" unicode="&#xd4;" horiz-adv-x="1329" 
d="M963.5 1186.5q113.5 -49.5 193 -134t126.5 -202.5t47 -251.5t-47 -251.5t-127.5 -202t-195 -132.5t-265.5 -48.5q-152 0 -294 83q-141 83 -221 229t-80 320.5t76 319.5t220 232q144 88 327 88q127 0 240.5 -49.5zM715.5 65q176.5 0 264.5 129q89 130 89 406
q0 536 -349 536q-180 0 -269 -129q-90 -130 -90 -406t90 -406q88 -130 264.5 -130zM1046 1287h-7h-6h-75h-1l-1 1l-240 149l-243 -149l-1 -1h-1h-73h-6h-7l5 4l4 5l254 248v0l1 1h1h1h128h1h1l1 -1v0l255 -248l4 -5z" />
    <glyph glyph-name="Otilde" unicode="&#xd5;" horiz-adv-x="1332" 
d="M965.5 1186.5q113.5 -49.5 193.5 -134t127 -202.5t47 -273q0 -156 -79.5 -302t-220.5 -228q-142 -83 -315.5 -83t-315.5 83t-222 229t-80 299q0 152 45.5 268.5t125 203t198 138t251 51.5t246 -49.5zM717 65q177 0 266 129q89 130 89 406q0 536 -350 536
q-181 0 -270 -129q-91 -130 -91 -406t90 -406q89 -130 266 -130zM751 1301q-27 9 -87 40q-59 30 -93 30q-58 0 -77 -76l-1 -2v-2h-2h-2h-53h-3h-3l1 3v3q18 91 64 144q46 54 94 54q46 0 69 -8q24 -8 94 -45q69 -36 95 -36t49 29t30 72v2l1 2h2h2h68h3h2v-3v-2
q-9 -95 -62 -155t-130 -60q-34 0 -61 10z" />
    <glyph glyph-name="Odieresis" unicode="&#xd6;" horiz-adv-x="1376" 
d="M995.5 1186.5q117.5 -49.5 201.5 -134.5q83 -84 131.5 -202t48.5 -251.5t-48.5 -251.5t-132.5 -202q-42 -42 -93 -75t-110 -57q-118 -49 -275 -49q-158 0 -305 83t-230 229t-83 320.5t79 319.5t228 232q150 88 339 88q132 0 249.5 -49.5zM744 1136q-192 0 -287 -129
q-96 -130 -96 -404q0 -538 377.5 -538t377.5 535.5t-372 535.5zM488 1484q30 30 71.5 30t71.5 -30t30 -71.5t-30 -71t-71 -29.5t-71.5 30.5t-30.5 71t30 70.5zM848 1484q30 30 71.5 30t72 -30t30.5 -71.5t-30.5 -71t-71.5 -29.5t-71.5 30.5t-30.5 71t30 70.5z" />
    <glyph glyph-name="multiply" unicode="&#xd7;" horiz-adv-x="833" 
d="M835 151l-93 -90l-2 -2l-2 -1l-2 1l-1 2l-266 252l-264 -252l-2 -2l-2 -1l-2 1l-1 2l-94 90l-2 2l-2 2l2 1l2 2l259 258l-259 258l-2 2l-2 1l2 2l2 2l94 91l1 2l2 1l2 -1l2 -2l264 -253l266 253l1 2l2 1l2 -1l2 -2l93 -91l1 -2l2 -2l-2 -1l-1 -2l-258 -258l258 -258l1 -2
l2 -1l-2 -2z" />
    <glyph glyph-name="Oslash" unicode="&#xd8;" horiz-adv-x="1354" 
d="M1307 1277l-3 -4l-160 -208q216 -192 216 -481q0 -146 -73.5 -291t-213.5 -237q-71 -46 -153 -69t-175 -23q-184 0 -346 131l-184 -230v-1l-1 -1h-1h-2h-101h-5h-5l3 4l4 4l225 278q-93 87 -147 206q-56 122 -56 245.5t45.5 238.5t124.5 202q80 88 195 140.5t245 52.5
q180 0 338 -117l117 162l1 1l1 1h1h1h102h5h6zM391 581q0 -193 48 -305l559 739q-91 117 -258 117q-169 0 -259 -139q-90 -140 -90 -412zM482 205q94 -140 267 -140q350 0 350 557q0 206 -54 326z" />
    <glyph glyph-name="Ugrave" unicode="&#xd9;" horiz-adv-x="1461" 
d="M1462 1115h-2h-3q-61 -3 -96 -13q-34 -11 -55 -43t-29 -82q-8 -51 -8 -140v-380q0 -129 -31.5 -223.5t-94.5 -153.5q-127 -117 -375 -117q-307 0 -428 157q-63 82 -63 208v710q0 36 -9 48q-16 24 -134 24h-29h-3h-2v2v3v92v3v2h2h3h576h2h3v-2v-3v-92v-3v-2h-3h-2h-33
q-100 0 -124 -12q-22 -11 -22 -60v-598q0 -184 71 -274t246 -90q277 0 323 268v0q13 59 13 131v365q0 88 -7 139q-7 49 -29 81q-22 31 -55 42q-34 10 -97 13h-2h-3v3v2v87v3v2h3h2h490h3h2v-2v-3v-87v-2v-3zM973 1272h-8h-7h-82h-1v0l-323 143v1q-53 29 -53 72q0 27 22 46
q22 18 51 18q45 0 107 -50l282 -221l6 -5z" />
    <glyph glyph-name="Uacute" unicode="&#xda;" horiz-adv-x="1461" 
d="M1462 1115h-2h-3q-61 -3 -96 -13q-34 -11 -55 -43t-29 -82q-8 -51 -8 -140v-380q0 -129 -31.5 -223.5t-94.5 -153.5q-127 -117 -375 -117q-307 0 -428 157q-63 82 -63 208v710q0 36 -9 48q-16 24 -134 24h-29h-3h-2v2v3v92v3v2h2h3h576h2h3v-2v-3v-92v-3v-2h-3h-2h-33
q-100 0 -124 -12q-22 -11 -22 -60v-598q0 -184 71 -274t246 -90q277 0 323 268v0q13 59 13 131v365q0 88 -7 139q-7 49 -29 81q-22 31 -55 42q-34 10 -97 13h-2h-3v3v2v87v3v2h3h2h490h3h2v-2v-3v-87v-2v-3zM995.5 1552q37.5 0 59.5 -18q22 -19 22 -46q0 -42 -54 -72v-1
l-322 -143v0h-1h-1h-82h-7h-7l5 4l6 5l282 221q62 50 99.5 50z" />
    <glyph glyph-name="Ucircumflex" unicode="&#xdb;" horiz-adv-x="1461" 
d="M1462 1115h-2h-3q-61 -3 -96 -13q-34 -11 -55 -43t-29 -82q-8 -51 -8 -140v-380q0 -129 -31.5 -223.5t-94.5 -153.5q-127 -117 -375 -117q-307 0 -428 157q-63 82 -63 208v710q0 36 -9 48q-16 24 -134 24h-29h-3h-2v2v3v92v3v2h2h3h576h2h3v-2v-3v-92v-3v-2h-3h-2h-33
q-100 0 -124 -12q-22 -11 -22 -60v-598q0 -184 71 -274t246 -90q277 0 323 268v0q13 59 13 131v365q0 88 -7 139q-7 49 -29 81q-22 31 -55 42q-34 10 -97 13h-2h-3v3v2v87v3v2h3h2h490h3h2v-2v-3v-87v-2v-3zM1117 1287h-6h-6h-74h-2l-1 1l-239 150l-242 -150l-1 -1h-2h-76
h-6h-6l4 4l5 5l256 249h1v1h1h1h129h1h1l1 -1v0l252 -249l5 -5z" />
    <glyph glyph-name="Udieresis" unicode="&#xdc;" horiz-adv-x="1510" 
d="M1511 1115h-2h-3q-62 -3 -97 -13q-34 -11 -55 -43q-22 -32 -29 -82q-7 -51 -7 -140v-380q0 -129 -33 -223q-33 -95 -100 -153.5t-165 -88t-228 -29.5q-323 0 -449 157q-66 82 -66 208v710q0 36 -9 48q-16 24 -134 24h-29h-3h-2v2v3v92v3v2h2h3h597h2h3v-2v-3v-92v-3v-2
h-3h-2h-36q-113 0 -139 -12q-25 -11 -25 -60v-598q0 -184 76 -274q77 -90 266 -90q202 0 284 112q76 105 76 287v365q0 88 -7 139q-7 49 -30 81q-23 31 -59 42q-37 10 -103 13h-2h-3v3v2v87v3v2h3h2h501h2h3v-2v-3v-87v-2v-3zM560.5 1484q30.5 30 72 30t71 -30t29.5 -71.5
t-29.5 -71t-70.5 -29.5t-72 30.5t-31 71t30.5 70.5zM919.5 1484q29.5 30 71.5 30t72 -30t30 -71.5t-30 -71t-71.5 -29.5t-71.5 30.5t-30 71t29.5 70.5z" />
    <glyph glyph-name="Yacute" unicode="&#xdd;" horiz-adv-x="1356" 
d="M1357 1105h-3h-2h-27q-71 0 -112 -33q-42 -33 -101 -138l-250 -434v-330q0 -28 3 -40q3 -11 18 -19q23 -12 124 -12h44h3h2v-3v-2v-89v-3v-2h-2h-3h-606h-2h-3v2v3v89v2v3h3h2h44q122 0 138 24q9 13 9 47v312l-364 551q-28 44 -52.5 58t-77.5 14h-37h-3h-2v3v2v91v3v2h2
h3h539h2h3v-2v-3v-91v-2v-3h-3h-2h-99q-61 0 -61 -27q0 -15 19 -42l298 -436l211 355q29 46 29 83q0 35 -28 51q-29 16 -99 16h-39h-3h-2v3v2v91v3v2h2h3h477h2h3v-2v-3v-91v-2v-3zM965 1542q39 0 62 -14q24 -15 24 -37q0 -34 -51 -57l-351 -160v0h-2v0v0h-84h-8h-8l6 5l7 4
l301 212q65 48 104 47z" />
    <glyph glyph-name="Thorn" unicode="&#xde;" horiz-adv-x="1211" 
d="M510 954h111q298 0 444 -85q147 -86 147 -246t-154 -246q-153 -85 -452 -85h-96v-123q0 -26 3 -38q4 -12 19 -20q24 -12 123 -12h34h2h3v-3v-2v-89v-3v-2h-3h-2h-584h-3h-2v2v3v89v2v3h2h3h33q71 0 100 5q28 5 37 19t9 49v861q0 27 -4 39q-3 12 -18 19q-25 12 -124 12
h-33h-3h-2v3v2v91v3v2h2h3h584h2h3v-2v-3v-91v-2v-3h-3h-2h-34q-99 0 -120 -10q-19 -9 -22 -20q-3 -13 -3 -39v-80zM510 387h73q220 0 302 53t82 183.5t-76 182.5q-76 53 -262 53h-39q-58 0 -69 -10.5t-11 -65.5v-396z" />
    <glyph glyph-name="germandbls" unicode="&#xdf;" horiz-adv-x="1031" 
d="M614 732q155 0 155 202q0 204 -169 204q-84 0 -130 -58t-46 -164v-911v-3v-2h-3h-2h-314h-3h-2v2v3v69v2v3h2h3h23q91 0 99 23q5 13 5 50v670q0 115 15 173q14 59 58.5 114t122.5 87q79 32 175 32q164 0 260 -81t96 -215q0 -88 -47 -147q-43 -56 -143 -103
q263 -94 263 -362q0 -157 -85 -255q-42 -49 -97 -73q-55 -25 -124 -25q-104 0 -166 45t-62 109q0 124 109 123q44 0 74 -27q31 -27 31 -60q0 -32 -9 -55q-9 -22 -9 -30q0 -22 27 -22q44 0 72 74q29 76 29 220q0 142 -56 218q-56 74 -180 81q-30 1 -42 11q-13 10 -13 32
q0 46 83 46z" />
    <glyph glyph-name="agrave" unicode="&#xe0;" horiz-adv-x="1117" 
d="M960 141q15 -27 52 -27q3 0 34 9q32 10 50 10q21 0 21 -39q0 -38 -61 -77q-60 -39 -131 -39q-72 0 -116 36q-41 33 -66 108q-69 -82 -156 -123t-193 -41q-134 0 -214 63t-80 168q0 145 140 227q138 80 488 137v66q0 111 -49 152q-49 42 -133 42t-134 -21q-47 -20 -48 -44
q2 -6 19 -39q19 -40 19 -71q0 -33 -34 -61q-33 -27 -86 -27q-54 0 -89 33.5t-35 90.5q0 106 115 175q114 68 288 68q186 0 280 -59q104 -66 104 -244v-376q0 -69 15 -97zM685 189q29 43 36 75t7 113v79q-305 -49 -368 -127q-32 -41 -32 -104t42 -102t104 -39t121.5 31
t89.5 74zM715 992h-6h-6h-80h-1h-1l-313 185q-50 29 -50 69q0 38 21.5 59t48.5 21q25 0 47 -12q21 -12 57 -47l274 -266l5 -5z" />
    <glyph glyph-name="aacute" unicode="&#xe1;" horiz-adv-x="1117" 
d="M960 141q15 -27 52 -27q3 0 34 9q32 10 50 10q21 0 21 -39q0 -38 -61 -77q-60 -39 -131 -39q-72 0 -116 36q-41 33 -66 108q-69 -82 -156 -123t-193 -41q-134 0 -214 63t-80 168q0 145 140 227q138 80 488 137v66q0 111 -49 152q-49 42 -133 42t-134 -21q-47 -20 -48 -44
q2 -6 19 -39q19 -40 19 -71q0 -33 -34 -61q-33 -27 -86 -27q-54 0 -89 33.5t-35 90.5q0 106 115 175q114 68 288 68q186 0 280 -59q104 -66 104 -244v-376q0 -69 15 -97zM685 189q29 43 36 75t7 113v79q-305 -49 -368 -127q-32 -41 -32 -104t42 -102t104 -39t121.5 31
t89.5 74zM745 1314q21 12 48 12t49.5 -21t22.5 -59q0 -40 -53 -69l-321 -184v-1h-2v0h-79h-6h-6l4 4l5 5l280 266q38 35 58 47z" />
    <glyph glyph-name="acircumflex" unicode="&#xe2;" horiz-adv-x="1117" 
d="M960 141q15 -27 52 -27q3 0 34 9q32 10 50 10q21 0 21 -39q0 -38 -61 -77q-60 -39 -131 -39q-72 0 -116 36q-41 33 -66 108q-69 -82 -156 -123t-193 -41q-134 0 -214 63t-80 168q0 145 140 227q138 80 488 137v66q0 111 -49 152q-49 42 -133 42t-134 -21q-47 -20 -48 -44
q2 -6 19 -39q19 -40 19 -71q0 -33 -34 -61q-33 -27 -86 -27q-54 0 -89 33.5t-35 90.5q0 106 115 175q114 68 288 68q186 0 280 -59q104 -66 104 -244v-376q0 -69 15 -97zM685 189q29 43 36 75t7 113v79q-305 -49 -368 -127q-32 -41 -32 -104t42 -102t104 -39t121.5 31
t89.5 74zM885 999h-5h-5h-78h-2l-2 1l-236 190l-230 -190l-1 -1h-2h-78h-5h-5l3 4l3 4l249 314l1 1v1h2h1h121h1h2v-1l1 -1l259 -314l3 -4z" />
    <glyph glyph-name="atilde" unicode="&#xe3;" horiz-adv-x="1117" 
d="M961 141q15 -27 51 -27q3 0 34 9q32 10 50 10q21 0 21 -39q0 -38 -61 -77q-60 -39 -131 -39q-72 0 -116 36q-41 33 -66 108q-69 -82 -156 -123t-193 -41q-134 0 -214 63t-80 168q0 145 140 227q138 80 488 137v66q0 111 -49 153t-133 42t-134 -21q-47 -21 -48 -45
q2 -6 19 -39q19 -39 19 -71t-34 -60q-33 -28 -86.5 -28t-88.5 33.5t-35 90.5q0 106 115 175q114 69 288 69q186 0 280 -59q104 -66 104 -244v-376q0 -69 16 -98zM685 189q29 43 36 75t7 113v79q-305 -49 -368 -127q-32 -41 -32 -104t42 -102t104 -39t121.5 31t89.5 74z
M900 1272l-1 -3v-3q-11 -105 -71 -170q-61 -65 -150 -65q-40 0 -72 11t-101 46q-67 33 -110 33q-68 0 -89 -86l-1 -2v-2h-2h-2h-75h-3h-3l1 3v3q19 103 73 163q55 61 130 61q35 0 63 -10q28 -9 113 -51q84 -41 116 -41q31 0 59 31q29 32 37 78v2l1 2h2h2h77h3h3z" />
    <glyph glyph-name="adieresis" unicode="&#xe4;" horiz-adv-x="1117" 
d="M961 141q15 -27 51 -27q3 0 34 9q32 10 50 10q21 0 21 -39q0 -38 -61 -77q-60 -39 -131 -39q-72 0 -116 36q-41 33 -66 108q-69 -82 -156 -123t-193 -41q-134 0 -214 63t-80 168q0 145 140 227q138 80 488 137v66q0 111 -49 153t-133 42t-134 -21q-46 -21 -48 -45
q3 -6 24 -38q25 -40 25 -72t-35 -60t-91 -28t-92.5 33.5t-36.5 90.5q0 106 115 175q114 69 288 69q186 0 280 -59q104 -66 104 -244v-376q0 -69 16 -98zM685 189q29 43 36 75t7 113v79q-305 -49 -368 -127q-32 -41 -32 -104t42 -102t104 -39t121.5 31t89.5 74zM290 1240
q34 34 79 34q46 0 81 -34t35 -81.5t-34.5 -80t-80.5 -32.5t-80 34t-34 80t34 80zM668.5 1240q34.5 34 81 34t81 -34t34.5 -81.5t-34.5 -80t-81 -32.5t-81 34t-34.5 80t34.5 80z" />
    <glyph glyph-name="aring" unicode="&#xe5;" horiz-adv-x="1128" 
d="M971 141q15 -27 52 -27q3 0 34 9q32 10 49 10q22 0 22 -39q0 -38 -61 -77q-60 -39 -131 -39q-72 0 -116 36q-41 33 -66 108q-139 -164 -355 -164q-135 0 -217 63t-82 168q0 146 143 227q141 80 496 137v66q0 111 -50 152q-51 42 -138 42t-138 -21q-48 -20 -49 -44
q2 -6 19 -39q19 -40 19 -71q0 -33 -34 -61q-33 -27 -86 -27q-54 0 -89 33.5t-35 90.5q0 106 116 175q115 68 292 68q299 0 365 -153q25 -61 25 -150v-376q0 -69 15 -97zM695 188q30 43 37 75t7 114v79q-313 -49 -378 -127q-33 -41 -33 -104t43 -102q44 -39 107 -39
q64 0 126 31t91 73zM417.5 1294.5q59.5 58.5 144 58.5t144.5 -58.5t60 -142t-60 -141.5t-144.5 -58t-144 58.5t-59.5 141.5t59.5 141.5zM482 1074q33 -33 80 -33t80 32.5t33 78.5t-33.5 79t-79.5 33t-79.5 -33t-33.5 -78.5t33 -78.5z" />
    <glyph glyph-name="ae" unicode="&#xe6;" horiz-adv-x="1571" 
d="M1573 242l-1 -2l-1 -2q-69 -143 -171 -211q-51 -35 -113 -52t-135 -17q-91 0 -178 29q-86 29 -144 80q-9 7 -68 69q-18 -23 -37 -42q-20 -21 -40 -38t-40.5 -31t-41.5 -24q-84 -43 -211 -43t-209 60q-83 61 -83 163q0 195 237 283q76 29 141 43q63 15 222 42v81
q0 103 -39.5 145t-120.5 42q-82 0 -129 -21q-46 -19 -46 -45q0 -8 18 -35q19 -30 19 -71q0 -42 -34 -71q-33 -28 -87 -28t-88.5 34.5t-34.5 91.5q0 105 113 177q112 72 276 72q106 0 189 -32q80 -31 123 -85q125 117 292 117q95 0 177 -41q81 -40 133 -109
q108 -144 108 -317v-35v-3v-2h-3h-2h-644q5 -147 48 -212q79 -118 225 -117q96 0 163.5 44t128.5 148l1 2l1 2l2 -1l2 -1l77 -34l2 -2zM659 177q28 42 34 74q7 32 7 120v93q-196 -33 -263 -67q-109 -61 -109 -164q0 -66 39 -108.5t98 -42.5q60 0 113 27t81 68zM1252 518
q45 0 59 13q14 12 14 49q0 107 -51 172q-51 64 -137 64q-133 0 -187 -158q-26 -66 -27 -140h329z" />
    <glyph glyph-name="ccedilla" unicode="&#xe7;" horiz-adv-x="911" 
d="M913 259l-1 -2l-1 -3q-64 -155 -157 -226q-92 -71 -235 -72l-29 -63q42 5 51 5q78 0 128 -39q48 -39 48 -108.5t-67 -118.5q-68 -49 -169 -49q-100 0 -180 36l-2 2l-3 1l1 2l2 2l33 68v2l1 2l3 -1h2q57 -20 103 -20t72 18q25 18 25 45q0 28 -21 46q-22 18 -48 18
q-27 0 -69 -9h-1h-1l-15 3l-3 1h-3l1 3l1 3l65 158q-156 27 -249 151q-95 126 -95 327q0 200 128 340t334 140q139 0 231 -68q94 -68 94 -170q0 -61 -39 -99t-98 -38t-97 30q-40 31 -40 69q0 37 10 56q10 18 30 39q18 20 18 33q0 12 -29 28q-31 16 -73 16q-105 0 -168 -101
q-64 -102 -64 -266q0 -165 69 -258t188 -93q75 0 128 43q53 44 99 145l1 2l1 2l3 -1h2l80 -29l2 -1z" />
    <glyph glyph-name="egrave" unicode="&#xe8;" horiz-adv-x="992" 
d="M994 243l-1 -2l-1 -2q-63 -140 -168 -211q-105 -70 -254 -70q-213 0 -342 127q-128 127 -128 338.5t130 355.5q131 139 329 139t316 -140q117 -140 117 -361v-3v-2h-2h-3h-647q1 -161 73 -244q73 -83 186 -83q115 0 182 45q67 44 127 149l1 2l1 3l2 -1l2 -1l75 -36l2 -2z
M676 516q46 0 61 13q14 12 14 49q0 107 -53 172q-52 64 -140.5 64t-152.5 -82q-63 -81 -64 -216h335zM724 992h-7h-6h-80h-1h-1l-317 185q-51 30 -51 69q0 38 22 59t49 21q26 0 47 -12q20 -12 58 -47l278 -266l4 -5z" />
    <glyph glyph-name="eacute" unicode="&#xe9;" horiz-adv-x="992" 
d="M994 243l-1 -2l-1 -2q-63 -140 -168 -211q-105 -70 -254 -70q-213 0 -342 127q-128 127 -128 338.5t130 355.5q131 139 329 139t316 -140q117 -140 117 -361v-3v-2h-2h-3h-647q1 -161 73 -244q73 -83 186 -83q115 0 182 45q67 44 127 149l1 2l1 3l2 -1l2 -1l75 -36l2 -2z
M676 516q46 0 61 13q14 12 14 49q0 107 -53 172q-52 64 -140.5 64t-152.5 -82q-63 -81 -64 -216h335zM751 1314q21 12 47 12q27 0 49 -21t22 -59q0 -39 -52 -69l-319 -184v-1h-2v0v0h-80h-7h-6l5 4l4 5l281 266q38 35 58 47z" />
    <glyph glyph-name="ecircumflex" unicode="&#xea;" horiz-adv-x="992" 
d="M994 243l-1 -2l-1 -2q-63 -140 -168 -211q-105 -70 -254 -70q-213 0 -342 127q-128 127 -128 338.5t130 355.5q131 139 329 139t316 -140q117 -140 117 -361v-3v-2h-2h-3h-647q1 -161 73 -244q73 -83 186 -83q115 0 182 45q67 44 127 149l1 2l1 3l2 -1l2 -1l75 -36l2 -2z
M676 516q46 0 61 13q14 12 14 49q0 107 -53 172q-52 64 -140.5 64t-152.5 -82q-63 -81 -64 -216h335zM889 999h-5h-5h-79h-2l-1 1l-234 190l-231 -190l-1 -1h-2h-79h-5h-5l3 4l3 4l252 314l1 1v1h2h1h122h1h1l1 -1l1 -1l255 -314l3 -4z" />
    <glyph glyph-name="edieresis" unicode="&#xeb;" horiz-adv-x="982" 
d="M984 243l-1 -2l-1 -2q-63 -140 -166 -211q-104 -70 -251 -70q-211 0 -338 127t-127 338.5t129 355.5q130 139 326 139q195 0 311 -140t116 -361v-3v-2h-2h-3h-637q1 -161 71 -244q72 -83 183 -83q113 0 180 45q66 44 124 149l1 2l1 3l2 -1l2 -1l75 -36l2 -2zM668 516
q44 0 59 13q14 12 14 49q0 107 -51 172q-51 64 -137.5 64t-149.5 -82q-61 -81 -62 -216h327zM294 1240q34 34 80 34q47 0 82 -34t35 -81.5t-35 -80t-82 -32.5q-46 0 -80 34t-34 80t34 80zM665 1240q35 34 81 34t80 -34t34 -81.5t-34.5 -80t-80.5 -32.5q-47 0 -81 34t-34 80
t35 80z" />
    <glyph glyph-name="igrave" unicode="&#xec;" horiz-adv-x="665" 
d="M665 0h-3h-2h-517h-3h-2v2v3v79v2v3h2h3h23q87 0 108 14q20 13 20 66v509q0 55 -14 71q-13 15 -63 15h-96h-3h-2v3v2v92v3v2h2h3l381 20h2h3v-2v-3v-710q1 -38 8 -54q15 -28 121 -28h24h2h3v-3v-2v-79v-3v-2zM570 989h-7h-6h-80h-1l-1 1l-321 184q-54 30 -54 68t22.5 59
t50.5 21q27 0 49 -13q22 -12 58 -46l280 -265l5 -5z" />
    <glyph glyph-name="iacute" unicode="&#xed;" horiz-adv-x="685" 
d="M649 0h-3h-2h-517h-3h-2v2v3v79v2v3h2h3h24q87 0 108 14q19 13 19 66v509q0 55 -13 71q-13 15 -63 15h-97h-3h-2v3v2v92v3v2h2h3l382 20h2h3v-2v-3v-710q0 -38 7 -54q15 -28 122 -28h23h2h3v-3v-2v-79v-3v-2zM507 1263q61 59 97 59t58.5 -21t22.5 -59q0 -39 -53 -68
l-320 -184l-1 -1h-1h-81h-6h-7l5 4l5 5z" />
    <glyph glyph-name="icircumflex" unicode="&#xee;" horiz-adv-x="728" 
d="M684 0h-2h-3h-517h-2h-3v2v3v79v2v3h3h2h24q88 0 108 14q19 13 19 66v509q0 55 -14 71q-13 15 -63 15h-96h-2h-3v3v2v92v3v2h3h2l382 20h3h2v-2v-3v-710q0 -38 8 -54q14 -28 121 -28h23h3h2v-3v-2v-79v-3v-2zM738 996h-5h-5h-69h-2l-1 1l-235 190l-240 -190l-1 -1h-2h-68
h-5h-5l3 4l3 4l241 313l1 1l1 1h1h1h136h1h2v-1l1 -1l241 -313l3 -4z" />
    <glyph glyph-name="idieresis" unicode="&#xef;" horiz-adv-x="763" 
d="M721 0h-3h-2h-565h-3h-2v2v3v79v2v3h2h3h26q101 0 124 14q22 13 22 66v509q0 55 -15 70.5t-73 15.5h-111h-2h-3v3v2v92v3v2h2h3l413 15h2h3v-2v-3v-706q0 -54 22 -67q23 -14 126 -14h26h2h3v-3v-2v-79v-3v-2zM134 1217q34 34 79.5 34t79.5 -34t34 -81t-34 -79.5
t-79.5 -32.5t-79.5 34t-34 79.5t34 79.5zM570 1217q34 34 79 34t79.5 -34t34.5 -81t-34.5 -79.5t-80.5 -32.5t-79 34t-33 79.5t34 79.5z" />
    <glyph glyph-name="eth" unicode="&#xf0;" horiz-adv-x="994" 
d="M527 1204q249 -172 359 -352q110 -181 110 -407q0 -134 -58.5 -245.5t-160.5 -175.5q-51 -32 -108 -48t-120 -16q-124 0 -228 64q-102 64 -160.5 174.5t-58.5 241.5q0 200 128 339q127 139 316 139q32 0 76 -8q-48 58 -78 88q-33 33 -142 133l-243 -130l-2 -1l-2 -2l-2 2
l-1 2l-49 74l-1 3l-2 2l2 1l3 1l213 109l-190 112l-3 1l-2 2l2 2l1 2l56 72l1 2l2 1l1 -1h2q126 -53 248 -123l235 132l2 1l2 2l1 -2l2 -2l48 -67l1 -2l2 -3l-2 -1l-3 -1zM459.5 87.5q38.5 -23.5 89.5 -23.5q102 0 156 96q54 97 54 278.5t-54 279.5q-54 96 -153 96
q-213 0 -213 -376q0 -182 55 -279q27 -48 65.5 -71.5z" />
    <glyph glyph-name="ntilde" unicode="&#xf1;" horiz-adv-x="1243" 
d="M466 881v-3v-149q128 187 312 187q89 0 162 -40q73 -39 106 -97t40 -101q8 -42 8 -141v-366q0 -41 6 -56q10 -26 112 -26h26h2h3v-3v-2v-79v-3v-2h-3h-2h-509h-3h-2v2v3v79v2v3h2h3h27q106 0 114 22q8 17 8 58v366q0 123 -41 177q-22 27 -59 44.5t-86 17.5
q-48 0 -105.5 -37.5t-89 -99t-31.5 -207.5v-261q0 -65 24 -71q33 -9 98 -9h26h3h2v-3v-2v-79v-3v-2h-2h-3h-509h-3h-2v2v3v79v2v3h2h3h27q87 0 100.5 12t15.5 24q2 13 2 44v504q0 55 -14 70q-13 16 -63 16h-68h-3h-2v2v2v92v3v2h2h3l355 23h3h3v-2zM1003 1258l-1 -3v-3
q-11 -104 -72 -168q-62 -65 -149 -65q-39 0 -71 11q-31 11 -100 46q-68 33 -111 33q-67 0 -88 -86l-1 -2v-2h-2h-2h-76h-3h-3l1 3v3q19 101 74 161q54 61 131 61q34 0 61 -10q27 -9 112 -50q83 -40 114 -40t60 31t37 76v2l1 2h2h2h78h3h3z" />
    <glyph glyph-name="ograve" unicode="&#xf2;" horiz-adv-x="994" 
d="M547.5 918q189.5 0 318.5 -140q128 -140 128 -338q0 -131 -58.5 -241.5t-160.5 -174.5q-25 -16 -52.5 -28t-56.5 -20q-57 -16 -119 -16q-125 0 -228 64q-102 64 -160.5 173.5t-58.5 239.5q0 203 129 342t318.5 139zM457.5 87.5q38.5 -23.5 89.5 -23.5q102 0 156 96
q54 97 54 278.5t-54 279.5q-54 96 -153 96q-213 0 -213 -376q0 -182 54 -279q28 -48 66.5 -71.5zM711 992h-6h-6h-80h-2v0l-318 185q-50 29 -51 68q0 39 22 60t49 21q26 0 47 -12t58 -47l278 -266l5 -5z" />
    <glyph glyph-name="oacute" unicode="&#xf3;" horiz-adv-x="994" 
d="M547.5 918q189.5 0 318.5 -140q128 -140 128 -338q0 -131 -58.5 -241.5t-160.5 -174.5q-25 -16 -52.5 -28t-56.5 -20q-57 -16 -119 -16q-125 0 -228 64q-102 64 -160.5 173.5t-58.5 239.5q0 203 129 342t318.5 139zM457.5 87.5q38.5 -23.5 89.5 -23.5q102 0 156 96
q54 97 54 278.5t-54 279.5q-54 96 -153 96q-213 0 -213 -376q0 -182 54 -279q28 -48 66.5 -71.5zM678 1267q62 59 97.5 59t56.5 -21t21 -59q0 -40 -50 -69l-318 -184v0l-2 -1v0h-1h-80h-6h-6l4 4l5 5z" />
    <glyph glyph-name="ocircumflex" unicode="&#xf4;" horiz-adv-x="994" 
d="M547.5 918q189.5 0 318.5 -140q128 -140 128 -338q0 -131 -58.5 -241.5t-160.5 -174.5q-25 -16 -52.5 -28t-56.5 -20q-57 -16 -119 -16q-125 0 -228 64q-102 64 -160.5 173.5t-58.5 239.5q0 203 129 342t318.5 139zM457.5 87.5q38.5 -23.5 89.5 -23.5q102 0 156 96
q54 97 54 278.5t-54 279.5q-54 96 -153 96q-213 0 -213 -376q0 -182 54 -279q28 -48 66.5 -71.5zM875 1000h-5h-5h-79h-2l-1 1l-233 190l-233 -190l-1 -1h-2h-77h-5h-5l3 4l3 4l252 313v1l1 1h1h2h123h1h1l1 -1l1 -1l253 -313l3 -4z" />
    <glyph glyph-name="otilde" unicode="&#xf5;" horiz-adv-x="994" 
d="M550 919q123 0 226 -65q101 -64 159.5 -174.5t58.5 -240.5t-58.5 -240.5t-160.5 -174.5q-25 -16 -52.5 -28t-56.5 -20q-57 -16 -119 -16q-125 0 -228 64q-102 64 -160.5 173.5t-58.5 239.5q0 203 129 342q129 140 321 140zM457.5 87.5q38.5 -23.5 89.5 -23.5
q102 0 156 96q54 97 54 279t-54 280q-54 96 -153 96q-213 0 -213 -377q0 -182 54 -279q28 -48 66.5 -71.5zM890 1272l-1 -3v-3q-11 -105 -71 -170t-149 -65q-39 0 -70 11t-101 46q-69 33 -113 33q-66 0 -87 -86l-1 -2v-2h-2h-2h-76h-3h-3l1 3v3q19 102 73 163t130 61
q34 0 62 -10q28 -9 113 -51q84 -41 117 -41q32 0 59 31q28 32 37 78v2l1 2h2h2h76h3h3z" />
    <glyph glyph-name="odieresis" unicode="&#xf6;" horiz-adv-x="994" 
d="M550 919q123 0 226 -65q101 -64 159.5 -174.5t58.5 -240.5t-58.5 -240.5t-160.5 -174.5q-25 -16 -52.5 -28t-56.5 -20q-57 -16 -119 -16q-125 0 -228 64q-102 64 -160.5 173.5t-58.5 239.5q0 203 129 342q129 140 321 140zM457.5 87.5q38.5 -23.5 89.5 -23.5
q102 0 156 96q54 97 54 279t-54 280q-54 96 -153 96q-213 0 -213 -377q0 -182 54 -279q28 -48 66.5 -71.5zM281 1240q34 34 79 34q47 0 82 -34t35 -81.5t-35.5 -80t-82.5 -32.5q-46 0 -79 34t-33 80t34 80zM658 1240q35 34 81 34t80 -34t34 -81.5t-34 -80t-80 -32.5t-81 34
t-35 80t35 80z" />
    <glyph glyph-name="divide" unicode="&#xf7;" horiz-adv-x="1199" 
d="M1199 379h-3h-2h-1039h-3h-2v3v2v177v3v2h2h3h1039h2h3v-2v-3v-177v-2v-3zM575 910.5q42 41.5 100 41.5t100 -41.5t42 -100.5t-42 -99.5t-101 -40.5t-100 40.5t-41 99.5t42 100.5zM575 236q42 41 100 41t100 -41t42 -100t-42 -100q-14 -13 -30 -22t-33.5 -13.5
t-37.5 -4.5q-59 0 -100 40.5t-41 99.5t42 100z" />
    <glyph glyph-name="oslash" unicode="&#xf8;" horiz-adv-x="994" 
d="M152 -179l2 3l130 240q-184 141 -184 384q0 197 126 335q127 137 313 137q93 0 182 -48l102 187v2l1 1h2h1h107h4h4l-2 -4l-2 -3l-133 -239q88 -67 138 -170q51 -104 51 -220q0 -204 -123.5 -335t-321.5 -131q-103 0 -178 39l-101 -179v-2l-1 -1h-2h-1h-108h-4h-4z
M337 428q0 -132 32 -227l300 564q-52 51 -120 51q-212 0 -212 -388zM427 115q47 -51 118 -51q212 0 212 398q0 123 -31 217z" />
    <glyph glyph-name="ugrave" unicode="&#xf9;" horiz-adv-x="1257" 
d="M1257 0h-2h-3l-372 -15h-2h-3v2v3v151q-63 -90 -132 -132q-75 -45 -171 -45q-194 0 -278 122q-24 32 -32 72q-8 39 -8 113v403q0 60 -13 75q-13 14 -64 14h-72h-3h-2v3v2v92v3v2h2h3l358 20h3h3v-2v-3v-566q0 -76 5 -102q6 -25 24 -50v0q39 -56 118 -56q259 0 259 347
v224q0 56 -14 71q-14 16 -64 16h-99h-2h-3v2v2v92v3v2h3h2l387 20h2h3v-2v-3v-647q0 -87 19 -108q19 -22 95 -22h48h2h3v-3v-2v-93v-2v-3zM831 989h-7h-6h-79h-1l-2 1l-314 184q-54 30 -54 69q0 38 22.5 59t49.5 21q26 0 48 -12q21 -12 57 -47l277 -266l4 -5z" />
    <glyph glyph-name="uacute" unicode="&#xfa;" horiz-adv-x="1257" 
d="M1257 0h-2h-3l-372 -15h-2h-3v2v3v151q-63 -90 -132 -132q-75 -45 -171 -45q-194 0 -278 122q-24 32 -32 72q-8 39 -8 113v403q0 60 -13 75q-13 14 -64 14h-72h-3h-2v3v2v92v3v2h2h3l358 20h3h3v-2v-3v-566q0 -76 5 -102q6 -25 24 -50v0q39 -56 118 -56q259 0 259 347
v224q0 56 -14 71q-14 16 -64 16h-99h-2h-3v2v2v92v3v2h3h2l387 20h2h3v-2v-3v-647q0 -87 19 -108q19 -22 95 -22h48h2h3v-3v-2v-93v-2v-3zM856 1311q21 12 47 12q27 0 49.5 -21t22.5 -60t-52 -68l-316 -184l-1 -1h-1h-79h-7h-6l5 4l4 5l277 266q37 35 57 47z" />
    <glyph glyph-name="ucircumflex" unicode="&#xfb;" horiz-adv-x="1257" 
d="M1257 0h-2h-3l-372 -15h-2h-3v2v3v151q-63 -90 -132 -132q-75 -45 -171 -45q-194 0 -278 122q-24 32 -32 72q-8 39 -8 113v403q0 60 -13 75q-13 14 -64 14h-72h-3h-2v3v2v92v3v2h2h3l358 20h3h3v-2v-3v-566q0 -76 5 -102q6 -25 24 -50v0q39 -56 118 -56q259 0 259 347
v224q0 56 -14 71q-14 16 -64 16h-99h-2h-3v2v2v92v3v2h3h2l387 20h2h3v-2v-3v-647q0 -87 19 -108q19 -22 95 -22h48h2h3v-3v-2v-93v-2v-3zM996 996h-5h-5h-81h-1l-2 1l-230 190l-233 -190l-2 -1h-2h-78h-5h-5l3 4l3 4l253 314l1 1l1 1h1h1h122h1h1l1 -1l1 -1l254 -314l3 -4z
" />
    <glyph glyph-name="udieresis" unicode="&#xfc;" horiz-adv-x="1257" 
d="M1257 0h-2h-3l-372 -15h-2h-3v2v3v151q-63 -90 -132 -132q-75 -45 -171 -45q-194 0 -278 122q-24 32 -32 72q-8 39 -8 113v403q0 60 -13 75q-13 14 -64 14h-72h-3h-2v3v2v92v3v2h2h3l359 16h2h3v-2v-3v-562q0 -75 5 -101q6 -26 24 -51v0q39 -56 118 -56q259 0 259 347
v224q0 57 -14 71.5t-66 14.5h-102h-2h-3v3v2v92v3v2h3h2l392 16h2h3v-2v-3v-643q0 -87 19 -108q19 -22 95 -22h48h2h3v-3v-2v-93v-2v-3zM401 1217q35 34 81 34t80.5 -34t34.5 -81t-34.5 -79.5t-81 -32.5t-81 34t-34.5 79.5t35 79.5zM779.5 1217q34.5 34 80 34t80.5 -34
t35 -81t-35 -79.5t-81.5 -32.5t-80 34t-33.5 79.5t34.5 79.5z" />
    <glyph glyph-name="yacute" unicode="&#xfd;" horiz-adv-x="1147" 
d="M350 -211v-1l-15 -58q1 -11 33 -11q36 0 95 62q60 63 114 164l31 59l-329 695q-26 56 -54 78q-27 21 -73 21h-26h-2h-3v2v3v79v2v3h3h2h480h2h3v-3v-2v-79v-3v-2h-3h-2h-40q-48 0 -66 -10t-18 -27q0 -19 11 -44l207 -480l172 421q18 44 18 77q0 63 -98 63h-32h-2h-3v2v3
v79v2v3h3h2h382h2h3v-3v-2v-79v-3v-2h-3h-2h-23q-53 0 -81 -30q-29 -30 -66 -118l-225 -530q-66 -156 -104 -230q-149 -289 -361 -289q-78 0 -130 42t-52 100t38 92q37 33 92 33q54 0 86 -22q34 -22 34 -57zM859 1310q20 12 47 12q26 0 47 -20.5t21 -58.5q0 -39 -49 -68
l-307 -183l-1 -1h-1h-80h-6h-6l4 4l5 5l271 263q36 35 55 47z" />
    <glyph glyph-name="thorn" unicode="&#xfe;" horiz-adv-x="1135" 
d="M577 877q66 43 161 43q168 0 283 -139q114 -139 114 -343t-115 -342q-116 -138 -293 -138q-94 0 -157 40q-56 36 -104 114v-332q0 -54 22 -68q23 -15 114 -15h26h3h2v-3v-2v-79v-3v-2h-2h-3h-523h-3h-2v2v3v79v2v3h2h3h27q102 0 112 27q6 14 6 57v1410q0 58 -13 74
t-64 16h-68h-3h-2v3v2v96v2v3h2h3l356 19h3h2v-2v-3v-648q51 84 111 124zM525 177q61 -92 161 -92t156 95q56 97 56 265.5t-55 257.5q-55 87 -156 87t-162 -95q-62 -97 -62 -260.5t62 -257.5z" />
    <glyph glyph-name="ydieresis" unicode="&#xff;" horiz-adv-x="1202" 
d="M350 -211v-1l-15 -58q1 -11 36 -11q40 0 105 62q66 63 125 164l34 59l-347 695q-27 56 -56 78q-30 21 -79 21h-27h-2h-3v2v3v79v2v3h3h2h508h2h3v-3v-2v-79v-3v-2h-3h-2h-45q-54 0 -75 -11q-20 -10 -20 -27q0 -18 12 -43l222 -481l186 422q21 48 21 79q0 61 -112 61h-35
h-2h-3v2v3v79v2v3h3h2h409h3h2v-3v-2v-79v-3v-2h-2h-3h-24q-55 0 -86 -30q-32 -31 -70 -118l-236 -531q-70 -156 -111 -229q-157 -289 -378 -289q-81 0 -136 41q-56 42 -56 101q0 58 38 92q37 33 92 33q54 0 86 -22q34 -22 34 -57zM424.5 1230q34.5 34 80 34t80.5 -34
t35 -81t-35 -80.5t-81.5 -33.5t-80 34.5t-33.5 80.5t34.5 80zM835 1230q35 34 80.5 34t80 -34t34.5 -81t-34 -80.5t-80 -33.5t-81 34.5t-35 80.5t35 80z" />
    <glyph glyph-name="dotlessi" unicode="&#x131;" horiz-adv-x="649" 
d="M492 170q0 -38 7 -54q15 -27 122 -27h23h2h3v-3v-2v-79v-3v-2h-3h-2h-517h-3h-2v2v3v79v2v3h2h3h24q87 0 108 14q19 13 19 66v506q0 55 -13 70t-63 15h-97h-3h-2v3v2v92v3v2h2h3l382 20h2h3v-2v-3v-707z" />
    <glyph glyph-name="OE" unicode="&#x152;" horiz-adv-x="1806" 
d="M1807 453v-3v-2l-38 -443v-3v-2h-3h-2h-1036q-144 0 -247 35q-102 36 -190 120t-139.5 206t-51.5 248t42.5 234t121.5 188.5t202 126.5t275 46h1004h2h3v-2v-3l27 -427v-2v-3h-2h-3h-84h-2h-2l-1 2v2q-28 147 -57 198t-55.5 73t-68.5 36q-71 25 -217 25h-45
q-68 0 -85 -13t-17 -61v-358h33q115 0 160 48q47 49 53 168v3v2h2h3h89h3h2v-2v-3v-542v-3v-2h-2h-3h-89h-3h-2v2v3q-3 105 -14 128q-11 25 -22 41q-10 16 -26 25q-15 9 -38 17q-40 15 -119 15h-27v-400q0 -44 24 -58q25 -14 93 -14h65q97 0 161 16q62 16 108 57
q81 74 124 277l1 2v2h2h2h84h3h2zM903 966q-8 35 -35 67q-58 70 -182 70q-325 0 -325 -502t327 -502q64 0 115 23t73 59q22 37 28 81q7 44 7 139v439q0 90 -8 126z" />
    <glyph glyph-name="oe" unicode="&#x153;" horiz-adv-x="1656" 
d="M1658 244l-1 -2l-1 -2q-124 -282 -420 -282q-111 0 -206 42q-91 42 -151 114q-130 -156 -331 -156q-204 0 -326 134t-122 345q0 133 58.5 244.5t160.5 175.5q103 64 215 64t204 -48q89 -45 145 -125q136 173 335 173q202 0 320 -140t118 -362v-3v-2h-2h-3h-649
q1 -168 75 -248q74 -81 185 -81t180 46t130 150l1 2l1 2l2 -1l2 -1l75 -36l2 -2zM391 155q54 -94 156 -94q213 0 213 389q0 178 -55 273q-54 94 -154 94q-214 0 -214 -386q0 -180 54 -276zM1336 518q46 0 61 13q15 12 15 49q0 107 -53 172q-52 65 -140 65t-149 -80
q-61 -78 -67 -219h333z" />
    <glyph glyph-name="circumflex" unicode="&#x2c6;" horiz-adv-x="822" 
d="M696 1035l-208 179l-209 -179h-117l224 329h202l224 -329h-116z" />
    <glyph glyph-name="ring" unicode="&#x2da;" horiz-adv-x="522" 
d="M527 1076q0 -71 -56 -119q-56 -47 -111 -47q-54 0 -87.5 11.5t-60.5 32.5q-57 46 -57 117q0 72 55 121q53 47 128 47t130 -46q59 -48 59 -117zM423 1075q0 33 -24 52q-24 20 -60 20t-60 -21q-23 -20 -23 -52q0 -33 24 -51t60 -18t60 19q23 18 23 51z" />
    <glyph glyph-name="tilde" unicode="&#x2dc;" horiz-adv-x="792" 
d="M155 1030q44 249 208 249q55 0 116 -39q59 -39 88 -56q29 -16 54 -16t42 9t29 24q21 26 39 85l1 2v2h2h2h56h3h2v-3v-2q-6 -107 -67 -183q-63 -78 -147 -78q-56 0 -119 38q-61 38 -91 55q-29 17 -56 17q-63 0 -97 -107l-1 -1v-2h-2h-2h-55h-3h-3l1 3v3z" />
    <glyph glyph-name="anusvaraabove" unicode="&#xd00;" horiz-adv-x="503" 
d="M325 945q-38 0 -70.5 15t-56 40t-37 58t-13.5 70t13 70.5t36.5 59t56 40.5t71.5 15t71.5 -15t56 -40.5t36.5 -59t13 -70.5t-13 -70.5t-36.5 -58.5t-56 -39.5t-71.5 -14.5zM301 1229q-21 0 -39 -8t-31.5 -22t-21 -32t-7.5 -39q0 -43 28 -73t71 -30q21 0 39 8t31 22.5
t20.5 33t7.5 39.5t-7.5 39t-20.5 32t-31 22t-39 8z" />
    <glyph glyph-name="mlchandrabindu" unicode="&#xd01;" horiz-adv-x="63" 
d="M178 1260q0 -35 -25 -60t-60 -25t-59.5 25t-24.5 60t25 60t60 25t59.5 -25t24.5 -60zM56 935q-68 0 -134 17t-118.5 52t-84.5 87.5t-32 124.5q0 25 4 51.5t18 55.5h214q-14 -26 -18 -44t-4 -37q0 -38 13.5 -68t37.5 -50.5t57.5 -31.5t73.5 -11q43 0 80 12.5t64.5 35
t43 55t15.5 73.5q0 12 -2.5 27t-10.5 39h135q8 -29 10.5 -53.5t2.5 -47.5q0 -71 -30.5 -124.5t-81.5 -89.5t-117 -54.5t-136 -18.5z" />
    <glyph glyph-name="anusvara" unicode="&#xd02;" horiz-adv-x="817" 
d="M822 274q0 -69 -27.5 -126.5t-73.5 -99t-106.5 -64.5t-127.5 -23t-127 24t-104 66.5t-70 100.5t-26 126q0 69 27 127t72.5 100t106 66t127.5 24t126.5 -25t104.5 -68t71.5 -101.5t26.5 -126.5zM632 278q0 37 -15.5 68.5t-41.5 54.5t-59 36t-69 13q-35 0 -68.5 -12.5
t-60 -35.5t-42.5 -54.5t-16 -68.5t15.5 -68t41.5 -54t59.5 -35.5t68.5 -12.5t68.5 12.5t60 35t42.5 53.5t16 68z" />
    <glyph glyph-name="visarga" unicode="&#xd03;" horiz-adv-x="585" 
d="M590 708q0 -47 -17 -82.5t-46.5 -59.5t-68 -36.5t-82.5 -12.5q-43 0 -82 12.5t-69 36.5t-47.5 59.5t-17.5 82.5q0 44 19 78q19 33 49.5 56t68.5 34t78 11t78 -11t68.5 -34t49.5 -56q19 -34 19 -78zM590 188q0 -47 -17 -82.5t-46.5 -59.5t-67.5 -37q-10 -3 -20 -5t-21 -4
q-20 -3 -42 -3q-43 0 -82 12.5t-69 36.5t-47.5 59.5t-17.5 82.5q0 44 19 78q19 33 49.5 56t68.5 34t78 11t78 -11t68.5 -34t49.5 -56q19 -34 19 -78zM435 714q0 18 -8 33t-21 26t-29.5 16.5t-33.5 5.5t-33.5 -6t-29.5 -16.5t-21 -25.5t-8 -33q0 -19 7.5 -34t20 -25.5
t29 -15.5t34.5 -5t36 5q17 5 29.5 15.5t20 25t7.5 34.5zM435 194q0 18 -8 33t-21 26t-29.5 16.5t-33.5 5.5t-33.5 -6t-29.5 -16.5t-21 -25.5t-8 -33q0 -19 7.5 -34t20 -25.5t29 -15.5t34.5 -5t36 5q17 5 29.5 15.5t20 25t7.5 34.5z" />
    <glyph glyph-name="vedicanusvara" unicode="&#xd04;" horiz-adv-x="889" 
d="M626 240h-143v542h143v-542zM899 366q0 -89 -28.5 -160t-79.5 -120t-121 -75t-154 -26q-85 0 -155.5 28.5t-121 80.5t-78.5 125t-28 162q0 13 0.5 23.5t3.5 34.5l158 -27q-2 -18 -2.5 -26t-0.5 -15q0 -59 20 -107.5t55.5 -83t83 -53t103.5 -18.5q57 0 104 19.5t80.5 55
t51.5 85.5t18 111v9t-1 18l86 22q1 -13 2.5 -21t2 -15t1 -13t0.5 -14z" />
    <glyph glyph-name="ml_a" unicode="&#xd05;" horiz-adv-x="2359" 
d="M2364 407q0 -81 -20 -158q-19 -78 -61 -139q-43 -62 -109 -99.5t-158 -37.5q-67 0 -121.5 28t-92 75t-58 106t-20.5 122q0 76 29 137.5t77.5 107.5t112.5 75q61 27 127 38q-38 60 -96 89q-62 31 -137 31q-35 0 -81 -12t-87 -35t-69 -56q-28 -32 -28 -73v-606v-2v-3h-2h-3
h-206h-3h-2v3v2v577q0 59 -31 98q-32 40 -80 64q-49 23 -105 33q-46 8 -87 10q20 -14 37 -29q25 -22 42.5 -48t28.5 -56t11 -64q0 -33 -10.5 -60t-27.5 -49t-40 -39q-20 -16 -42 -29q27 -16 48 -33q24 -20 40 -43.5t24 -52.5t8 -67q0 -54 -19 -98.5t-52.5 -75.5t-79 -48
t-98.5 -17q-87 0 -156 30t-118 83q-48 53 -74 124.5t-26 155.5q0 119 48 226q46 100 131 173q-20 1 -39 2h-52q-77 0 -142.5 -32t-113.5 -85.5t-75 -122.5t-27 -143q0 -50 11.5 -105t35 -104.5t58.5 -91.5q35 -41 82 -65l5 -2l4 -2l-4 -2l-5 -2l-68 -36l-1 -1l-1 -1l-1 1h-1
q-58 27 -102 76q-44 48 -73.5 107.5t-44 125t-14.5 126.5q0 115 39 210.5t108.5 164t165.5 106.5t210 38q109 0 209 -42q106 42 219 42q60 0 113.5 -9t101.5 -30t89 -55q38 -32 73 -79q30 43 68 74q42 33 91 55.5t103 33t107 10.5q107 0 200 -41.5t161 -112.5t107 -165.5
t39 -200.5zM2153 406q0 50 -13 98q-12 46 -35 90q-50 -7 -98 -23q-50 -16 -88.5 -45.5t-62.5 -72.5t-24 -101q0 -34 11.5 -72t33 -69t51.5 -52q31 -20 69 -20q46 0 76 27q31 28 48 68q18 41 25 88q7 46 7 84zM977 211q0 26 -14 44q-14 19 -36 32q-23 12 -49 18t-48 6h-60h-2
h-3v3v2v122v2v3h3h2h50q25 0 53 7t51 21.5t38 35.5q15 22 15 50q0 69 -35 115q-35 45 -99 68q-48 -25 -84 -62q-38 -37 -63.5 -83t-39 -98t-13.5 -106q0 -47 11 -95q12 -48 36 -86q25 -38 63 -62t93 -24q21 0 44 4q23 5 43 15t32 27t12 41z" />
    <glyph glyph-name="ml_aa" unicode="&#xd06;" horiz-adv-x="2639" 
d="M2644 197q0 -112 -40.5 -209t-111.5 -168t-168.5 -112t-210.5 -41q-89 0 -173 24t-157 77l-2 1l-1 2l1 1l1 2l41 77l1 3l1 2l2 -1l2 -2q53 -26 110 -39.5t116 -13.5q90 0 166 35t131.5 95t86.5 139t31 166q0 98 -46 181q-43 78 -124 122q24 -78 24 -156t-21.5 -151.5
t-65.5 -131t-109 -92.5t-151 -35q-66 0 -120 24t-92 65.5t-58.5 97.5t-20.5 120q0 80 27 146t75 115.5t113 81.5q62 29 134 41q-43 57 -101 87q-61 31 -137 31q-36 0 -79.5 -12t-80.5 -34q-38 -22 -63 -55q-24 -33 -24 -74v-606v-2v-3h-2h-3h-206h-3h-2v3v2v577q0 59 -28 99
q-27 39 -71 63q-44 23 -96 33q-44 8 -86 10q20 -14 37 -29q25 -22 43 -47.5t28.5 -55.5t10.5 -65q0 -34 -10.5 -61t-27.5 -48.5t-40 -38.5q-20 -16 -42 -29q27 -16 48 -33q24 -20 40 -43.5t24 -52.5t8 -67q0 -54 -19 -98.5t-52.5 -75.5t-79 -48t-98.5 -17q-86 0 -155.5 30
t-118 82t-74.5 123.5t-26 155.5q0 118 48 225q46 100 131 174q-18 1 -36 3q-24 1 -48 1q-78 0 -145 -31.5t-116 -84.5t-76.5 -122t-27.5 -145q0 -50 11.5 -105t35 -104.5t58.5 -91.5q35 -41 82 -65l5 -2l5 -2l-5 -2l-5 -3l-68 -29h-1h-1h-1h-1q-58 27 -102 75t-73.5 107
t-44 124t-14.5 126q0 114 39.5 208.5t109 162.5t165.5 106t209 38q109 0 209 -42q106 42 220 42q61 0 112 -9t93.5 -30.5t79.5 -56.5q34 -32 69 -80q27 44 62 75q38 33 83 54.5t95 31.5t104 10q142 0 253 -70q108 -69 174 -193q88 -16 161 -55q75 -39 129.5 -99t85.5 -138
t31 -170zM2115 385q0 50 -8 98q-8 46 -24 92q-55 -4 -103 -21q-50 -17 -88.5 -49.5t-60.5 -79t-22 -106.5q0 -33 9.5 -65.5t27.5 -58t46 -41.5q27 -16 64 -16q45 0 75 24q31 24 50 61q18 38 26 81t8 81zM977 211q0 26 -14 44q-14 19 -36 32q-23 12 -49 18t-48 6h-60h-2h-3v3
v2v122v2v3h3h2h50q24 0 52 7t51 21q24 14 39 35q15 22 15 50q0 70 -36 113q-35 43 -98 68q-48 -25 -84 -61q-38 -37 -63.5 -83t-39 -98t-13.5 -105q0 -47 11 -95q12 -48 36 -86q25 -38 63 -62q38 -23 93 -23q21 0 44 4q23 5 43 15t32 27t12 41z" />
    <glyph glyph-name="ml_i" unicode="&#xd07;" horiz-adv-x="1758" 
d="M1763 435q0 -83 -21 -165q-20 -82 -64 -147q-43 -66 -112 -106q-34 -21 -75 -31t-89 -10h-942q-14 0 -35 -2q-22 -3 -42 -10q-19 -7 -33 -19q-13 -11 -13 -28q0 -19 13 -31q13 -14 32 -21q19 -8 41 -11q21 -3 37 -3h1280h2h3v-3v-2v-164v-2v-3h-3h-2h-1297q-48 0 -93 11
q-45 10 -81 34t-58 62.5t-22 93.5q0 52 21.5 91t57 65t80.5 38q44 12 91 12h788q78 0 138 25t101.5 70t63 107.5t21.5 137.5q0 61 -17 125t-51 116q-35 51 -87 84q-51 32 -121 32q-35 0 -67 -9q-31 -10 -54 -28.5t-36.5 -47t-13.5 -66.5v-500v-2v-3h-2h-3h-200h-3h-2v3v2
v457q0 46 -26 79q-26 34 -65 56q-40 22 -86 33t-85 11q-62 0 -120 -13q-57 -13 -104 -41.5t-80 -73.5q-28 -38 -43 -89q10 21 25 38q22 26 50 43t60 25.5t66 8.5q59 0 108 -21t83.5 -57t53.5 -86t19 -108q0 -61 -23 -112.5t-62 -89t-91.5 -58.5t-112.5 -21
q-67 0 -122.5 27.5t-95 73t-61.5 105t-22 123.5q0 111 44.5 201t118.5 153.5t171.5 98t202.5 34.5q109 0 196 -41q84 -39 146 -126q49 79 121 122q77 45 175 45q102 0 182 -41.5t134.5 -110.5t83 -157t28.5 -183zM571 394q0 26 -7.5 53.5t-21.5 49.5q-15 21 -37 35
q-21 13 -51 13q-31 0 -52 -13t-35 -34t-21 -48t-7 -53t7.5 -54t21.5 -50q15 -22 37 -36q21 -14 52 -14q30 0 51.5 13.5t35.5 34.5q13 22 20 49.5t7 53.5z" />
    <glyph glyph-name="ml_ii" unicode="&#xd08;" horiz-adv-x="3187" 
d="M3192 469q0 -118 -44.5 -209.5t-120 -154t-174.5 -95.5q-50 -16 -103 -24t-108 -8q-40 0 -88.5 6.5t-98 20t-96.5 34.5q-48 22 -85 52.5t-61 69.5q-24 40 -27 91v2v3h2h3h114h2h3v-2v-3q1 -28 16 -51q16 -24 40 -41q25 -19 55.5 -32.5t62.5 -22t62 -13t54 -4.5
q85 0 153.5 28.5t117.5 79.5t75 121t26 153q0 54 -14 111.5t-43 104.5t-73 77q-45 30 -107 30q-33 0 -63 -9.5t-52.5 -28t-35.5 -45.5t-13 -62v-261v-3v-2h-3h-2h-214h-2h-3v2v3v204q0 38 -9 77q-10 38 -29 68q-20 29 -50.5 47.5t-74.5 18.5q-62 0 -103.5 -26t-67.5 -68
q-25 -42 -37 -94q-11 -53 -11 -106q0 -60 20 -117l1 -3l1 -3l-3 -1h-4l-91 -7h-1h-2l-1 1l-1 2q-14 37 -19 75q-6 39 -6 77q0 90 24 163t71 124t117.5 79t163.5 28q86 0 152 -32q62 -31 113 -96q24 33 55 57q33 25 71.5 41t80 23t83.5 7q94 0 169 -38.5t126.5 -102.5
t79 -146t27.5 -170zM1764 434q0 -83 -21 -164q-20 -82 -64 -147q-44 -66 -112 -106q-35 -21 -75.5 -31t-88.5 -10h-943q-14 0 -35 -2q-22 -3 -42 -10q-19 -7 -33 -19q-13 -11 -13 -28q0 -19 13 -31q13 -14 32 -21q19 -8 41 -11q21 -3 37 -3h1281h3h2v-3v-2v-164v-2v-3h-2h-3
h-1297q-48 0 -93 11q-46 10 -82 34q-36 23 -58 62t-22 94q0 52 21.5 91t57 65t80.5 38q44 12 91 12h789q78 0 138 24.5t101.5 69.5t63 107.5t21.5 137.5q0 61 -17 125t-51.5 115t-86.5 84q-51 32 -121 32q-35 0 -67 -9q-31 -10 -54 -28.5t-36.5 -47t-13.5 -66.5v-498v-2v-3
h-3h-2h-202h-2h-3v3v2v456q0 46 -25 79q-26 34 -65 56q-40 22 -85.5 33t-84.5 11q-62 0 -120 -13q-57 -13 -104.5 -41.5t-80.5 -73.5q-28 -37 -43 -88q10 21 25 38q22 26 50 43t60 25.5t66 8.5q59 0 108 -21t83.5 -57t53.5 -86t19 -108q0 -61 -23 -112.5t-62 -89
t-91.5 -58.5t-112.5 -21q-67 0 -122.5 27.5t-95 73t-61.5 105t-22 123.5q0 112 44.5 202t119 153t172 97t202.5 34q109 0 196 -41q84 -39 146 -126q49 79 121 122q77 45 174 45q103 0 183 -41.5t134.5 -110t83 -157t28.5 -183.5zM571 394q0 26 -7.5 53.5t-21.5 49.5
q-15 21 -37 35q-21 13 -51 13q-31 0 -52 -13t-35 -34t-21 -48t-7 -53t7.5 -54t21.5 -50q15 -22 37 -36q21 -14 52 -14q30 0 51.5 13.5t35.5 34.5q13 22 20 49.5t7 53.5z" />
    <glyph glyph-name="ml_u" unicode="&#xd09;" horiz-adv-x="1287" 
d="M1292 445q0 -103 -35.5 -190t-98.5 -150t-150 -98.5t-190 -35.5h-363q-15 0 -38 -2t-45 -8q-21 -6 -35 -19q-14 -12 -14 -32q0 -21 14 -33q15 -13 35 -20q21 -7 44 -9t39 -2h806h3h2v-2v-3v-166v-3v-2h-2h-3h-820q-52 0 -100 9q-48 8 -84 31q-37 23 -58.5 63.5
t-21.5 101.5q0 38 13.5 75t37.5 65.5t58 46.5t74 18h395q73 0 132 28t101.5 75.5t65 110.5t22.5 133q0 79 -30 145.5t-82 114.5t-121 74.5t-146 26.5q-69 0 -130 -10q-61 -11 -112.5 -36.5t-93.5 -68.5q-22 -23 -40 -52q0 1 1 2q22 25 50 42t60.5 26t65.5 9q61 0 109.5 -22
t82 -60t51.5 -89.5t18 -109.5q0 -64 -22.5 -115.5t-61.5 -87.5t-92 -55.5t-115 -19.5q-69 0 -125.5 21.5t-97 61t-63 95.5t-22.5 125q0 119 47 210t126 152t180.5 91.5t211.5 30.5q107 0 209 -31t181.5 -92.5t128 -151.5t48.5 -208zM578 426q0 28 -7 56q-8 27 -23 48.5
t-38 34.5t-55 13q-31 0 -55 -13t-39.5 -33.5t-24 -48t-8.5 -56.5t8.5 -56.5t25.5 -48.5t41 -34t55 -13q32 0 54 13t37 34q14 22 21.5 49t7.5 55z" />
    <glyph glyph-name="ml_uu" unicode="&#xd0a;" horiz-adv-x="2724" 
d="M2729 469q0 -118 -44.5 -209.5t-120 -154t-174.5 -95.5q-50 -16 -103 -24t-108 -8q-40 0 -88.5 6.5t-98 20t-96.5 34.5q-48 22 -85 52.5t-61 69.5q-24 40 -27 91v2v3h2h3h114h2h3v-2v-3q1 -28 16 -51q16 -24 40 -41q25 -19 55.5 -32.5t62.5 -22t62 -13t54 -4.5
q85 0 153.5 28.5t117.5 79.5t75 121t26 153q0 54 -14 111q-14 56 -43 102q-29 45 -74 74q-44 29 -106 29q-33 0 -63 -8q-30 -9 -53 -26q-22 -16 -35 -42t-13 -62v-261v-3v-2h-2h-3h-214h-3h-2v2v3v204q0 39 -9 76q-10 37 -29.5 65t-50 45.5t-74.5 17.5q-62 0 -103.5 -25
t-67.5 -65q-25 -41 -37 -92q-11 -52 -11 -105q0 -60 20 -117l1 -3l1 -3l-3 -1h-4l-91 -7h-1h-2l-1 1l-1 2q-14 37 -19 75q-6 39 -6 77q0 90 24 162q24 73 71 124t118 79q70 27 163 27q86 0 152 -35q63 -34 113 -98q51 70 126 101q77 32 164 32q94 0 168.5 -38t126.5 -102
t79.5 -145.5t27.5 -169.5zM1292 444q0 -103 -35.5 -190t-98.5 -150t-150 -99q-44 -17 -91.5 -26t-98.5 -9h-363q-15 0 -38 -2t-45 -8q-21 -6 -35 -19q-14 -12 -14 -32q0 -22 13 -34q15 -13 36 -19q21 -7 43 -9q23 -2 40 -2h806h3h2v-3v-2v-166v-2v-3h-2h-3h-820
q-52 0 -100 9q-48 8 -84 31q-37 23 -58.5 63.5t-21.5 101.5q0 38 13.5 75t37.5 65.5t58 46.5t74 18h395q74 0 133 28t101 76t64.5 111t22.5 133q0 79 -30 145.5t-82 114.5t-121 74.5t-146 26.5q-70 0 -131 -10q-60 -11 -111.5 -36.5t-92.5 -69.5q-21 -22 -39 -49
q21 24 49 41t60.5 26t65.5 9q61 0 109.5 -22t82 -60t51.5 -89.5t18 -109.5q0 -64 -22.5 -115.5t-61.5 -87.5t-92 -55.5t-115 -19.5q-69 0 -125.5 21.5t-97 61t-63 95.5t-22.5 125q0 120 47 211t126 152t180.5 91.5t211.5 30.5q108 0 209.5 -31t181.5 -92.5t128 -152
t48 -208.5zM578 425q0 28 -7 56q-8 27 -23 48.5t-38 34.5t-55 13q-31 0 -55 -13t-39.5 -33.5t-24 -48t-8.5 -56.5t8.5 -56.5t25.5 -48.5t41 -34t55 -13q32 0 54 13t37 34q14 22 21.5 49t7.5 55z" />
    <glyph glyph-name="ml_r" unicode="&#xd0b;" horiz-adv-x="1510" 
d="M1515 -63q0 -71 -35 -122q-34 -51 -91 -86q-56 -36 -126 -57q-70 -22 -142 -34t-140 -16t-118 -4q-51 0 -123 3q-71 3 -149 14t-155 32q-77 20 -138 56q-61 35 -100 87q-38 52 -38 126q0 58 24 101q23 42 62 72q39 29 87 47q39 14 79 22q-124 41 -186 133q-66 98 -66 239
q0 74 20 141.5t61 120t102 83.5t141 31q58 0 108.5 -19.5t88.5 -54.5t60 -84.5t22 -108.5q0 -61 -18 -112.5t-52 -88.5t-83.5 -57.5t-112.5 -20.5q-37 0 -69 12t-59 32.5t-48 47.5q-16 20 -30 42v-1q0 -73 28 -122.5t74 -80.5q46 -32 106 -50q61 -18 125.5 -26t128.5 -10
q63 -1 116 -1q46 0 102.5 4t115 15t113.5 30t97 51q42 31 68 75q25 43 25 104v14q-15 -23 -33 -44q-24 -27 -52.5 -47t-61.5 -33q-33 -12 -70 -12q-63 0 -113.5 20.5t-86.5 57t-55.5 88t-19.5 113.5q0 55 21.5 103.5t58 84.5t85 57.5t102.5 21.5q85 0 150 -28t109.5 -78
t67.5 -119t23 -150q0 -148 -76 -242q-69 -86 -196 -126q41 -8 83 -21q52 -16 94 -46t68 -73q27 -45 27 -106zM1316 650q0 27 -9 55t-25 50t-40 37q-23 14 -53 14t-50 -13q-21 -13 -35 -33.5t-21 -46.5q-7 -27 -7 -53q0 -32 5 -61q6 -28 20 -50t36.5 -35.5t59.5 -13.5
q30 0 51 13q22 14 37 35q15 22 23 49t8 53zM582 660q0 26 -6 52q-7 26 -20 47q-14 21 -34 34t-50 13q-26 0 -49 -12q-23 -13 -40.5 -33t-27.5 -45t-10 -50q0 -30 6 -59t20 -53t37 -39q22 -15 56 -15q36 0 58.5 13.5t35.5 35.5q13 23 19 51q5 29 5 60zM1283 -90q0 34 -23 60
q-24 26 -62 45q-39 19 -87 32.5t-96 21t-89.5 11t-67.5 3.5q-30 0 -84 -1t-117 -6t-129 -15q-66 -11 -119 -30t-87 -49q-32 -28 -32 -69q0 -39 27 -67q28 -29 72 -49q45 -20 100 -33t110 -20.5t101.5 -10t75.5 -2.5q28 0 77 2.5t105 10t115 20.5q58 13 106 33q46 20 76 49
q28 27 28 64z" />
    <glyph glyph-name="ml_l" unicode="&#xd0c;" horiz-adv-x="1852" 
d="M1857 379q0 -75 -16 -146q-16 -72 -54 -129q-37 -57 -98 -91q-30 -18 -66.5 -26.5t-79.5 -8.5q-64 0 -116 23q-51 23 -87 63q-36 39 -56 93t-20 115q0 59 21 114t58 97t88.5 67.5t113.5 25.5t114 -29q43 -23 73 -63q-11 59 -39 107q-34 58 -84.5 99.5t-114 64
t-132.5 22.5q-36 0 -79 -7q-42 -8 -80 -26q-37 -17 -62 -46q-24 -29 -24 -72v-588v-2v-3h-3h-2h-197h-3h-2v3v2v578q0 44 -26 74q-26 31 -65 50q-40 19 -84.5 28t-80.5 9q-68 0 -132.5 -22.5t-115 -64t-83.5 -99.5q-28 -49 -37 -108q30 41 72 64q51 29 114 29
q62 0 113.5 -25.5t88.5 -67.5t57.5 -97t20.5 -114q0 -62 -19.5 -115.5t-55.5 -92.5q-18 -20 -39.5 -36t-47.5 -27q-51 -23 -115 -23q-87 0 -148 34.5t-98 91.5q-37 56 -53 128q-16 71 -16 147q0 118 37 218t105 172.5t165.5 114t217.5 41.5q53 0 103 -5t95.5 -20t86.5 -43
q39 -26 74 -66q56 74 126 104q72 30 166 30q120 0 216.5 -41.5t164 -115t104 -173.5t36.5 -216zM1722 282q0 29 -8.5 56.5t-24 47.5t-39 32.5t-55.5 12.5q-35 0 -62 -12t-46.5 -33.5t-29.5 -50.5t-10 -62q0 -31 9 -59.5t27 -50.5t43.5 -35t58.5 -13t58 15q26 15 43 38.5
t26.5 54t9.5 59.5zM571 273q0 33 -10 62t-29.5 50.5t-47 33.5t-62.5 12q-31 0 -54.5 -12t-39 -32t-24 -47t-8.5 -56t9.5 -59.5t26.5 -54.5t43 -40q25 -15 58 -15t59 13t43.5 34.5t26.5 50.5t9 60z" />
    <glyph glyph-name="ml_e" unicode="&#xd0e;" horiz-adv-x="2244" 
d="M2249 276q0 -216 -88 -389t-276 -286l-2 -1l-1 -1l-1 1l-1 1l-102 53l-4 1l-3 2l3 2l3 3q66 53 113 118.5t76.5 138.5t43 153t13.5 164q0 57 -10 119t-30.5 121t-50.5 113q-31 53 -74 93.5t-97 64t-121 23.5q-96 0 -165.5 -29t-117.5 -79.5t-78 -117.5
q-30 -68 -46.5 -143.5t-22.5 -155.5q-5 -77 -5 -151h271v566v2v3h2h3h203h2h3v-3v-2v-802q0 -53 -17.5 -100t-48.5 -82t-76 -55.5t-100 -20.5q-90 0 -156 31.5t-109.5 86t-63.5 127.5q-20 70 -21 150h-537h-2h-3v3v2v18v1v2l1 1h2q68 38 106 96q39 58 39 136q0 45 -16 81
t-44 61t-66 38t-81 13q-50 0 -90.5 -18t-69 -49.5t-44 -74t-15.5 -90.5q0 -26 6 -52.5t17.5 -49.5t30 -41t43.5 -29l4 -2l3 -2l-3 -2l-3 -3l-62 -53l-1 -1l-2 -1l-1 1l-2 1q-73 48 -110 118t-37 157q0 85 28.5 153t78.5 114.5t120 71.5t154 25q69 0 138 -20.5t124.5 -61
t90.5 -99.5q35 -60 35 -137q0 -64 -23 -119q-21 -49 -63 -89h254q0 93 10 188q10 99 34.5 192t66.5 175q41 82 105 144t152 98t205 36q136 0 243.5 -54t182 -144.5t114 -208t39.5 -244.5zM1476 -107v102h-271q1 -32 6 -69q6 -40 22 -74q15 -34 42 -57q27 -22 69 -22
q57 0 95 30q37 30 37 90z" />
    <glyph glyph-name="ml_ee" unicode="&#xd0f;" horiz-adv-x="2219" 
d="M2224 509q0 -40 -13 -82.5t-37 -80.5t-56 -69q-27 -26 -60 -41q40 -20 70 -42q33 -26 53.5 -58t29.5 -72q10 -39 10 -90q0 -73 -22 -137t-63 -111.5t-101.5 -75.5t-136.5 -28q-63 0 -118 28h-1l-2 1v1v1l-23 144l-1 5v4l4 -2l4 -1q35 -16 77 -16q37 0 64 17t45.5 43.5
t28 60.5t9.5 67q0 34 -10 69.5t-29 64.5q-19 28 -48 46t-68 18h-40h-2h-3v3v2v152v2v3h3h2h39q35 0 61 15t43.5 39.5t27 56t9.5 62.5q0 73 -30 123q-31 50 -80 82t-111 47q-63 14 -126 14q-99 0 -168.5 -29.5t-116 -80t-72.5 -117.5q-27 -68 -41 -144.5t-18 -156.5
q-3 -78 -3 -152h272v566v2v3h2h3h203h2h3v-3v-2v-802q0 -60 -20 -107t-56 -78.5t-85 -48t-107 -16.5q-79 0 -140 35q-61 34 -102 90t-61 126q-20 67 -21 136h-537h-2h-3v3v2v18v1v2l1 1h2q66 38 105 97q40 59 40 135q0 45 -16 81t-44 61t-66 38t-81 13q-50 0 -90.5 -18
t-69 -49.5t-44 -74t-15.5 -90.5q0 -26 6 -52.5t17.5 -49.5t30 -41t43.5 -29l4 -2l3 -2l-3 -2l-3 -3l-62 -53l-1 -1l-2 -1l-1 1l-2 1q-74 46 -110 120q-37 75 -37 161q0 84 29.5 150.5t80.5 112.5t120.5 70.5t150.5 24.5q69 0 138 -20.5t124.5 -61t90.5 -99.5q35 -60 35 -137
q0 -63 -25 -119q-22 -49 -62 -89h255q0 102 8 202q8 103 30.5 196.5t64.5 172.5q41 80 107 138.5t160.5 92t223.5 33.5q61 0 124 -11.5t122.5 -35t111.5 -58.5t91 -81.5t61.5 -105t22.5 -128.5zM1476 -108v103h-272q1 -31 6 -68q7 -41 23 -75q16 -35 43 -59q27 -23 68 -23
q58 0 95 31q37 30 37 91z" />
    <glyph glyph-name="ml_ai" unicode="&#xd10;" horiz-adv-x="3413" 
d="M3418 276q0 -216 -88 -389t-276 -286l-2 -1l-1 -1l-1 1l-1 1l-102 53l-4 1l-3 2l3 2l3 3q66 53 113 118.5t76.5 138.5t43 153t13.5 164q0 57 -10 119t-30.5 121.5t-50.5 113.5q-31 53 -74 93.5t-97 64t-121 23.5q-96 0 -165 -29.5t-117.5 -80t-77.5 -117.5
q-30 -68 -47 -144t-23 -155q-5 -77 -5 -151h271v567v3v2h3h2h203h3h2v-2v-3v-803q0 -53 -17.5 -100t-48.5 -82t-76 -55.5t-100 -20.5q-90 0 -156 31.5t-109.5 86t-63.5 127.5q-20 70 -21 150h-537h-3h-2v3v2v18v1v2l1 1h2q68 38 106 96q39 58 39 136q0 45 -16 81t-44 61
t-66 38t-81 13q-50 0 -90.5 -18t-69 -49.5t-44 -74t-15.5 -90.5q0 -26 6 -52.5t17.5 -49.5t30 -41t43.5 -29l4 -2l3 -2l-3 -2l-3 -3l-62 -53l-1 -1l-2 -1l-1 1l-2 1q-73 48 -110 118t-37 157q0 85 28.5 153t78.5 114.5t120 71.5t154 25q69 0 138 -20.5t124.5 -61t90.5 -99.5
q35 -60 35 -137q0 -64 -23 -119q-21 -49 -63 -89h254q0 93 10 188q10 98 34.5 191.5t66.5 175.5q42 83 105.5 145t151.5 98t205 36q91 0 169 -24.5t142.5 -68.5t114.5 -105t84 -133.5t51.5 -154t17.5 -166.5zM1199 438q0 -74 -22 -142.5t-61.5 -128.5t-93.5 -108.5
t-118 -82.5l-1 -1l-1 -1l-2 1l-1 1l-78 52l-3 2l-3 2l3 2l3 2q43 32 75.5 74.5t53 91t31 101t10.5 105.5q0 79 -23.5 146.5t-69 117t-110 77.5t-145.5 28q-73 0 -139 -24.5t-117.5 -69t-83.5 -106.5q-28 -54 -36 -117q14 19 29 35q24 24 51.5 42.5t58.5 29t65 10.5
q64 0 115.5 -25t87.5 -67t56 -97t20 -115q0 -62 -19.5 -115.5t-55 -93t-87 -62.5t-115.5 -23q-87 0 -147.5 34.5t-96.5 91.5q-37 56 -53 128t-16 147q0 117 36.5 217t104.5 173t165 114.5t217 41.5q107 0 201 -35t164 -99t110.5 -154t40.5 -200zM2645 -107v102h-271
q1 -32 6 -69q6 -40 22 -74q15 -34 42 -57q27 -22 69 -22q57 0 95 30q37 30 37 90zM565 274q0 31 -11.5 59.5t-32 50.5t-48 35t-59.5 13t-56 -11t-41 -31t-25.5 -46t-8.5 -56t10 -61.5t28.5 -56t45.5 -40.5q25 -15 59 -15q30 0 55 14q26 14 45 36.5t29 51t10 57.5z" />
    <glyph glyph-name="ml_o" unicode="&#xd12;" horiz-adv-x="1287" 
d="M1292 222q0 -73 -24.5 -120.5t-67.5 -76.5q-42 -28 -99 -39q-56 -11 -119 -11q-35 0 -70 4t-69 15l-1 1h-1l-1 2v1l-23 124l-1 5l-1 4l5 -2l4 -1q51 -21 107 -21q32 0 61 6q28 7 49 21q20 14 32 37.5t12 59.5q0 28 -17 48t-42 33q-26 13 -55 19t-53 6h-62h-2h-3v3v2v142
v2v3h3h2h59q30 0 53 11t39.5 30t25 44.5t8.5 53.5q0 37 -16 64q-17 28 -44 47q-27 21 -63 34q-35 13 -72.5 21t-73 11t-63.5 3q-78 0 -152 -23t-132 -66.5t-97 -108.5q-33 -56 -43 -127q31 41 74 65q51 29 114 29q62 0 114 -25.5t89.5 -68t58 -98t20.5 -114.5
q0 -62 -19.5 -116.5t-56 -94.5t-88.5 -63t-116 -23q-88 0 -148.5 34.5t-97.5 92.5q-37 57 -53 129t-16 148q0 141 46 245t128 172t194 102q111 33 244 33q47 0 103.5 -4t114 -15.5t111.5 -32.5t97 -53q43 -33 68.5 -79.5t25.5 -109.5q0 -38 -13.5 -73t-35.5 -65.5t-52 -53.5
q-25 -20 -52 -33q28 -11 52 -24q30 -17 52.5 -40.5t35.5 -54.5t13 -70zM575 271q0 31 -12 60t-32.5 51.5t-48 35.5t-59.5 13q-46 0 -76 -29q-31 -29 -46 -70q-3 -8 -8 -21q-4 -13 -4 -21q0 -11 4 -22q4 -13 7 -24q8 -26 18 -51q10 -23 25.5 -41t37.5 -29q21 -11 52 -11
t57 14t45 36.5t29.5 51t10.5 57.5z" />
    <glyph glyph-name="ml_oo" unicode="&#xd13;" horiz-adv-x="2130" 
d="M2135 461q0 -90 -22 -178q-21 -88 -68 -158q-46 -70 -120 -113q-37 -21 -81 -32t-96 -11q-66 0 -126 24.5t-105.5 67t-73.5 100t-30 123.5v2v3h2h3h89h2h2l1 -2v-2q12 -71 61 -114t122 -43q59 0 102 33t71 83q27 50 40 109t13 109.5t-10 109.5q-10 58 -35 109t-67 84
q-41 33 -103 33q-45 0 -81 -18t-62 -48t-40 -69.5t-14 -81.5q0 -4 2 -7l3 -4l3 -4h-5h-5h-89h-2h-2l-1 2v2l-2 10q-1 6 -1 11q0 71 25 133t69 107.5t105.5 72t133.5 26.5q95 0 168.5 -41t123.5 -108t75 -150.5t25 -169.5zM1292 222q0 -73 -24.5 -120.5t-67.5 -76.5
q-42 -29 -99 -40q-56 -11 -119 -11q-35 0 -70 4.5t-68 14.5l-2 1h-1l-1 2v1l-23 127l-1 5l-1 4l5 -2l4 -1q26 -11 53 -18t54 -7q32 0 61 6q28 7 49 21q20 14 32 38t12 60q0 28 -17 48t-42 33q-26 13 -55.5 19.5t-52.5 6.5h-62h-2h-3v3v2v142v2v3h3h2h60q30 0 53.5 10.5
t39.5 29t24 44.5t8 55q0 37 -16 64q-17 28 -44 47q-27 21 -63 34q-35 13 -72.5 21t-73 11t-63.5 3q-78 0 -152 -23t-132 -66.5t-97 -108.5q-33 -56 -43 -127q31 41 74 65q51 29 114 29q62 0 114 -25.5t89.5 -68t58 -98t20.5 -114.5q0 -62 -19.5 -116.5t-55.5 -94.5
t-88 -63.5t-117 -23.5q-88 0 -148.5 34.5t-97.5 92.5q-37 57 -53 129t-16 148q0 141 46 245t127.5 172.5t193.5 102.5q112 33 245 33q47 0 103.5 -4t114 -15.5t111.5 -32.5t97 -53q43 -33 68.5 -79.5t25.5 -109.5q0 -40 -13 -75t-35 -64.5t-52 -51.5q-25 -19 -54 -34
q28 -10 52 -24q30 -17 52.5 -41t36 -55t13.5 -69zM575 271q0 31 -12 60t-32.5 51.5t-48 35.5t-59.5 13q-46 0 -76 -29q-31 -29 -46 -70q-3 -8 -8 -21q-4 -13 -4 -21q0 -11 4 -22q4 -13 7 -24q8 -26 18 -51q10 -23 25.5 -41t37.5 -29q21 -11 52 -11t57 14t45 36.5t29.5 51
t10.5 57.5z" />
    <glyph glyph-name="ml_au" unicode="&#xd14;" horiz-adv-x="2600" 
d="M2601 469q0 -119 -40.5 -211.5t-109 -156t-159.5 -95.5q-91 -33 -191 -33q-37 0 -81 6.5t-89 20.5t-88 35q-43 22 -77 53t-56 71q-22 41 -25 92v6l-1 2v3h3h3h5h102h5h3h2v-2v-3v-5q1 -27 14 -49q14 -22 35 -40q22 -18 49 -31.5t55 -21.5q29 -8 55.5 -12.5t47.5 -4.5
q75 0 135.5 28t104 78t66.5 119q23 70 23 152q0 54 -12 110q-12 55 -38 101q-26 44 -65 72t-93 28q-29 0 -55 -8q-25 -8 -45 -24q-19 -16 -30.5 -41t-11.5 -60v-261v-5v-2v-3h-2h-3h-5h-192h-5h-3h-2v3v2v5v204q0 39 -9 75q-8 36 -25 64q-18 27 -44 44q-26 16 -64 16
q-53 0 -89 -24q-37 -24 -59 -63q-23 -41 -33 -91q-10 -51 -10 -104q0 -59 17 -116l2 -6l1 -3l1 -3h-3h-3l-6 -1l-82 -7h-4h-2l-2 -1l-1 2v2l-1 4q-13 37 -18 76q-6 38 -6 77q0 90 22 163q22 74 65 126t108 80t149 28q80 0 140 -36q55 -32 99 -92q45 66 110 96q71 32 151 32
q86 0 155 -39q68 -38 115 -103q48 -64 72 -147q25 -83 25 -171zM1292 222q0 -73 -24.5 -120.5t-67.5 -76.5q-42 -28 -99 -39q-56 -11 -119 -11q-35 0 -70 4t-69 15l-1 1h-1l-1 2v1l-23 124l-1 5l-1 4l5 -2l4 -1q51 -21 107 -21q32 0 61 6q28 7 49 21q20 14 32 37.5t12 59.5
q0 28 -17 48t-42 33q-26 13 -55 19t-53 6h-62h-2h-3v3v2v142v2v3h3h2h60q30 0 53.5 11t39.5 30t24 44.5t8 54.5q0 37 -16 64q-17 29 -44 48q-27 21 -62 34t-72.5 21.5t-73 11.5t-64.5 3q-79 0 -153 -23.5t-132 -67.5t-96 -109q-34 -57 -43 -128q31 41 74 65q51 29 114 29
q62 0 114 -25.5t89.5 -68t58 -98t20.5 -114.5q0 -62 -19.5 -116.5t-56 -94.5t-88.5 -63t-116 -23q-88 0 -148.5 35t-97.5 92t-53 130q-16 72 -16 148q0 141 46 245t127.5 172.5t193.5 102.5t245 34q47 0 103.5 -4.5t114 -16t111.5 -31.5q54 -21 97 -54t68 -79
q26 -47 26 -110q0 -39 -13 -74.5t-35 -66t-52 -53.5q-25 -19 -53 -33q28 -10 52 -23q30 -17 52.5 -41t35.5 -55.5t13 -69.5zM575 271q0 31 -12 60t-32.5 51.5t-48 35.5t-59.5 13q-46 0 -76 -29q-31 -29 -46 -70q-3 -8 -8 -21q-4 -13 -4 -21q0 -11 4 -22q4 -13 7 -24
q8 -26 18 -51q10 -23 25.5 -41t37.5 -29q21 -11 52 -11t57 14t45 36.5t29.5 51t10.5 57.5z" />
    <glyph glyph-name="k1" unicode="&#xd15;" horiz-adv-x="1688" 
d="M1693 256q0 -53 -17.5 -103t-49.5 -88q-16 -20 -36 -35.5t-43 -26.5q-46 -24 -102 -24q-43 0 -82 10q-40 9 -74 34l-1 1h-1v1v2l-10 108v4l-1 4l4 -2l4 -2q20 -9 40.5 -14.5t41.5 -5.5q35 0 59 16q25 16 42 41q16 25 24.5 56t8.5 61q0 34 -13.5 63.5t-37 51t-54 33.5
t-63.5 12h-61q0 -50 -8 -101q-7 -55 -23.5 -108t-43.5 -101q-26 -48 -64 -85q-18 -18 -39.5 -32.5t-46.5 -25.5q-49 -21 -111 -21q-43 0 -83 6t-75 22.5t-63 44.5q-23 24 -40 61q-27 -62 -77 -97q-27 -18 -59.5 -27.5t-70.5 -9.5q-64 0 -119.5 18.5t-97.5 53.5t-66 87
t-24 119q0 103 40.5 162t105.5 89t144 38q77 8 155 8q1 71 18 136q18 68 57 120t98.5 83t141.5 31t143 -31t102.5 -83t65.5 -119q23 -66 30 -137h130q65 0 120 -22t95.5 -61.5t63.5 -94.5t23 -120zM1079 554q-1 42 -13 80q-12 41 -36.5 71.5t-61 49t-84.5 18.5
q-49 0 -83 -19t-54 -50q-21 -31 -31 -71q-9 -38 -10 -79h373zM1079 453h-373q-1 -12 -2 -23q-1 -13 -1 -27q0 -44 6 -95q6 -52 24 -96t52 -74q33 -29 89 -29q43 0 75 16.5t54 43.5q22 28 36 63q14 36 22.5 75.5t12.5 78.5q4 35 5 67zM605 282v171h-61q-40 0 -74.5 -12.5
t-60.5 -36t-41 -56.5t-15 -74q0 -31 8 -61t24 -53t41 -37t59 -14q37 0 60 15t37 40q13 25 18 56t5 62z" />
    <glyph glyph-name="k2" unicode="&#xd16;" horiz-adv-x="1631" 
d="M1631 -5h-774h-3h-2v3v2v66v1v1l1 1l1 1q79 66 113 144.5t34 181.5q0 79 -22.5 149t-66 121.5t-108 81t-148.5 29.5q-70 0 -133.5 -23.5t-113.5 -65.5t-83 -101q-28 -50 -38 -109q32 42 76 65q53 29 117 29q63 0 116 -25t91.5 -66.5t60 -97t21.5 -116.5q0 -63 -21 -117
t-58 -93q-18 -20 -41 -35t-49 -27q-53 -22 -117 -22q-89 0 -150.5 34t-100.5 91q-39 56 -56 128t-17 150q0 120 37 221.5t105.5 174.5t166.5 114.5t221 41.5q107 0 202 -33.5t166 -95.5t113 -151t42 -201q0 -107 -45 -200q-42 -87 -117 -153h372v802v2v3h3h2h203h3h2v-3v-2
v-896v-2v-3h-2h-3zM583 269q0 32 -11 60.5t-31 50t-47.5 34t-60.5 12.5q-32 0 -56.5 -11.5t-42 -31t-25.5 -45.5q-9 -27 -9 -57q0 -32 9.5 -62.5t28 -53.5t45.5 -38q26 -14 61 -14q33 0 58.5 12.5t43.5 34t27.5 50t9.5 59.5z" />
    <glyph glyph-name="k3" unicode="&#xd17;" horiz-adv-x="1469" 
d="M1474 496q0 -84 -18.5 -163.5t-57.5 -147.5t-98 -121.5t-139 -87.5h-2l-1 -1l-2 1l-1 2l-51 56l-2 2l-2 3l3 1l3 2q59 26 103 67.5t72.5 93.5t43 112t14.5 122q0 53 -14.5 110.5t-43.5 104.5q-30 47 -75 78q-45 30 -106 30q-56 0 -93 -27q-36 -27 -58 -69
q-21 -43 -30 -93q-8 -51 -8 -98v-202q0 -68 -31 -122q-30 -54 -79 -92q-25 -19 -52.5 -33t-58.5 -24q-61 -20 -123 -20q-95 0 -171 40t-128 106t-80 149.5t-28 171.5q0 78 15 149.5t48 133.5t84.5 113t123.5 87l2 1l1 1l2 -1l1 -2l48 -62l2 -2l1 -3l-2 -1l-3 -1
q-108 -62 -154 -152q-46 -91 -46 -213q0 -56 15.5 -117.5t46.5 -112.5q32 -50 80 -83q48 -32 113 -32q52 0 87 23q34 23 55 60q20 38 29 83q9 46 9 90v190q0 74 33 136q32 61 85 104t120 67t137 24q86 0 157 -37q70 -37 120 -98t77 -138t27 -158z" />
    <glyph glyph-name="k4" unicode="&#xd18;" horiz-adv-x="2320" 
d="M2320 -5h-1327h-3h-2v3v2v319h-487h-3h-2v3v2v60v2v2h2l2 1q64 14 101 55.5t37 108.5q0 37 -15 64.5t-39.5 45.5t-57 27.5t-65.5 9.5q-40 0 -73 -13t-57 -37.5t-37.5 -57.5t-13.5 -72q0 -95 83 -147l2 -1l3 -2l-2 -2l-2 -2l-57 -60l-2 -2l-1 -1l-2 1l-2 1
q-67 44 -103 104q-37 60 -37 141q0 72 27.5 130.5t74 99.5t108.5 63t131 22t129 -18q60 -19 105.5 -56t71.5 -92.5t26 -129.5q0 -50 -21 -91q-18 -35 -49 -63h225v104q0 199 100.5 303.5t301.5 104.5q119 0 208 -33t148 -96t89 -154t30 -207v-113v-2v-3h-3h-2h-669v-225h921
v803v3v2h2h3h203h2h3v-2v-3v-897v-2v-3h-3h-2zM1757 415v70q0 153 -77.5 233t-232.5 80q-70 0 -119 -20q-48 -20 -78.5 -57.5t-44.5 -90.5t-14 -118v-97h566z" />
    <glyph glyph-name="ng" unicode="&#xd19;" horiz-adv-x="1787" 
d="M1792 235q0 -73 -35 -124q-36 -51 -90 -82q-54 -32 -119 -46t-126 -14q-55 0 -107.5 14t-99.5 41h-2l-1 1v2v1l1 125v6v5l4 -4l4 -3q35 -32 80 -44q46 -13 93 -13q31 0 62 7q31 8 54.5 24t38.5 41q15 24 15 60q0 33 -14 58t-36.5 42.5t-51.5 26.5t-59 9h-84h-3h-2v2v3
v119v3v2h3h2q17 -1 33.5 -2t33.5 -1q37 0 69 6q32 7 56 23q24 15 38.5 42t14.5 68q0 40 -23 69q-24 30 -59 50q-36 19 -77 29t-74 10q-32 0 -70 -7q-37 -8 -71 -25q-33 -17 -55 -43t-22 -63v-653v-2v-3h-3h-2h-191h-3h-2v3v2v589q0 47 -22 81q-23 35 -58.5 59t-79 36
t-84.5 12q-67 0 -132.5 -21t-118 -60.5t-88.5 -96.5q-30 -47 -40 -105q31 41 74 64q53 29 116 29q64 0 117 -25.5t91 -68.5t59 -99t21 -117q0 -63 -20 -118t-57 -95q-18 -20 -41 -36t-49 -27q-53 -23 -118 -23q-89 0 -150.5 33.5t-100.5 90.5q-38 56 -54 129q-17 72 -17 150
q0 121 38.5 221.5t109 172.5t170 112.5t221.5 40.5q54 0 100.5 -8.5t88 -27t77.5 -48.5q34 -27 68 -67q33 44 69 73q39 30 84 48t94 24q50 7 106 7q39 0 84.5 -7t90.5 -21.5t86 -37.5q42 -22 74 -52.5t51 -70.5q20 -40 20 -88q0 -38 -15 -71q-15 -32 -39.5 -58t-55.5 -44
q-26 -15 -53 -24q30 -13 56 -31q32 -21 55.5 -48.5t37.5 -62.5t14 -78zM584 280q0 32 -12.5 60.5t-33.5 51t-49.5 35.5t-60.5 13t-56 -11.5t-40.5 -31.5t-24.5 -47t-8 -57q0 -31 9.5 -62.5t26.5 -56t44 -40.5q25 -16 60 -16q32 0 58 14q27 14 46.5 37t30 52t10.5 59z" />
    <glyph glyph-name="ch1" unicode="&#xd1a;" horiz-adv-x="1586" 
d="M1586 -5h-1421h-3h-2v3v2v89v3v2h2h3h447q41 0 78.5 13t65.5 37.5t44.5 59.5t16.5 78q0 33 -9 64q-10 31 -28 53.5t-45.5 36t-63.5 13.5q-26 0 -54.5 -9.5t-52 -26.5t-38.5 -40t-15 -52q0 -43 20 -84l1 -3l2 -4h-4h-4h-109h-2h-1l-1 1v2q-15 27 -23 57t-8 61q0 65 29 116
q29 49 75.5 83t104.5 51t117 17q70 0 129.5 -21t102 -60t66.5 -96t24 -129q0 -74 -37 -132q-32 -50 -83 -86h468v815v3v2h2h3h203h2h3v-2v-3v-909v-2v-3h-3h-2z" />
    <glyph glyph-name="ch2" unicode="&#xd1b;" horiz-adv-x="2191" 
d="M2196 414q0 -76 -19 -152t-60 -137.5t-105 -99.5q-32 -20 -69.5 -29.5t-81.5 -9.5q-69 0 -128.5 23t-103.5 65t-69.5 100t-25.5 128q0 71 16 135.5t49.5 118.5t84.5 96q46 38 107 64q-33 10 -65 15q-40 6 -81 6q-79 0 -143 -30.5t-109.5 -82.5t-70 -120t-24.5 -143
q0 -98 39 -169t117 -127l1 -1h1v-2v-1v-57v-4v-2v-3h-2h-3h-1286h-3h-2v3v2v89v3v2h2h3h447q41 0 78.5 13t65.5 37.5t44.5 59.5t16.5 78q0 33 -9 64q-10 31 -28 53.5t-45.5 36t-63.5 13.5q-25 0 -53 -8.5t-52 -24.5t-40 -38q-15 -23 -15 -50q0 -43 19 -80l2 -3l2 -4h-4h-4
h-109h-1h-2l-1 1v2q-15 26 -23 55.5t-8 59.5q0 64 30 114q29 49 77 81q47 32 104.5 48t114.5 16q69 0 129.5 -20.5t105.5 -59.5t71 -96t26 -130q0 -37 -11 -70t-31 -61.5t-47 -52.5q-20 -18 -42 -34h390q-68 64 -100 143q-35 85 -35 183q0 109 36 201.5t100.5 159t155.5 104
t202 37.5q114 0 212.5 -35.5t170.5 -101t113.5 -159.5t41.5 -212zM1982 405q0 73 -23 141q-23 66 -74 117q-51 -14 -92 -41q-42 -29 -71 -69t-45 -89.5t-16 -103.5q0 -37 10 -75q10 -37 30.5 -66.5t50.5 -48.5t72 -19q43 0 73 26t49 65t28 83q8 44 8 80z" />
    <glyph glyph-name="ch3" unicode="&#xd1c;" horiz-adv-x="1539" 
d="M1544 145q0 -46 -22 -78q-21 -32 -54 -52t-73 -29.5t-78 -9.5q-35 0 -74.5 9t-72.5 28q-34 19 -57 49t-23 73q0 21 10 40q6 12 14 23q-80 -34 -163 -70q-91 -40 -184.5 -74t-187.5 -56q-95 -22 -191 -22q-43 0 -83.5 12t-73 37t-52 61t-19.5 83q0 50 20 87q19 36 51 62
t75 43q42 16 86 24.5t88 12t81 3.5h474q53 0 104.5 15.5t92 44.5t65.5 73t25 103q0 42 -14 75t-39 56.5t-59 35.5t-75 12q-39 0 -71.5 -14.5t-56 -39.5t-36.5 -58.5t-13 -71.5v-163v-3v-2h-2h-3h-194h-3h-2v2v3q0 36 1 71.5t1 70.5q0 67 -13 109q-12 40 -40 62
q-28 21 -73 29q-46 7 -112 7q-48 0 -96 -13q-33 -10 -62 -27q6 3 12 4q18 4 39 4q32 0 62 -14t52.5 -37t36 -53t13.5 -62q0 -44 -13.5 -82t-39 -66t-62 -44t-82.5 -16q-45 0 -83 14t-66 39t-44 62t-16 83q0 87 40 147t103 97q62 38 138 54t149 16q42 0 84.5 -6.5t82.5 -20.5
t76 -37q32 -21 60 -51q19 28 45 49q29 23 63 38t71 21.5t72 6.5q71 0 140 -16q69 -15 124 -50t89 -92.5t34 -139.5q0 -59 -20.5 -105.5t-55 -80.5t-79.5 -58t-95 -38t-102.5 -20.5t-99.5 -6.5h-517q-27 0 -66 -5q-40 -5 -76 -18t-62 -36q-25 -22 -25 -57q0 -22 15 -39
q16 -17 39 -27q24 -11 50 -16.5t44 -5.5q71 0 154 18q84 18 169 44t167.5 56t151.5 53q19 7 43.5 15t49 15t48.5 11q25 5 45 5q41 0 81 -11.5t72.5 -35t52.5 -57.5q20 -35 20 -81zM1411 154q0 22 -10 37t-25 25q-16 10 -36 15t-39 5q-16 0 -36.5 -5t-38.5 -14
q-18 -10 -30 -24q-11 -14 -11 -33q0 -18 12 -31t30 -21q19 -9 39 -13t35 -4q14 0 33 4t37 12q17 8 29 20q11 11 11 27zM423 602q0 41 -18 66q-18 24 -62 24q-17 0 -31 -7q-15 -8 -26 -20.5t-17 -28t-6 -32.5t5.5 -33.5t16.5 -29.5t26 -21q14 -8 32 -8q44 0 62 24
q18 25 18 66z" />
    <glyph glyph-name="ch4" unicode="&#xd1d;" horiz-adv-x="2738" 
d="M2743 441q0 -97 -26 -181q-27 -84 -79 -147t-130 -100q-39 -18 -84 -27t-97 -9q-49 0 -97.5 10.5t-92.5 33t-80 54.5q-33 30 -57 70q-45 -80 -119 -123q-39 -22 -82.5 -33.5t-91.5 -11.5q-60 0 -117 19t-102.5 54t-73 86t-27.5 116v272q0 65 -30 118q-30 54 -78 92.5
t-108 59.5t-120 21q-30 0 -58 -4q-23 -3 -47 -10q52 -33 95 -78q46 -49 78.5 -107t50 -123t17.5 -133q0 -72 -21 -140.5t-63 -122.5q-41 -54 -103 -87t-141 -33q-75 0 -133.5 31.5t-98.5 83t-61 116.5t-21 134q0 63 12.5 126t38.5 121t64 108q35 47 82 84q-20 6 -40 8
q-25 3 -51 3q-84 0 -151 -31.5t-114.5 -85.5t-73 -125.5t-25.5 -151.5q0 -53 12 -105.5t35 -100t57 -88.5t79 -72l3 -2l3 -2l-3 -2l-4 -2l-66 -38l-1 -1l-1 -1l-1 1l-2 1q-55 35 -99.5 83.5t-75.5 106t-47 121t-16 130.5q0 104 34.5 194.5t97.5 157.5t151 106t195 39
q118 0 219 -56q57 28 117 44q62 16 127 15h8q49 0 104 -10.5t108.5 -30.5t102.5 -50t86 -70t60 -89q22 -50 22 -109v-277q0 -33 10 -64.5t29.5 -55.5t47.5 -39t63 -15q37 0 72 11t61 32.5t42 52t16 70.5v610v3v2h3h2h183h3h2v-2v-3v-534q0 -47 20 -87q21 -40 55 -69.5
t76.5 -46t87.5 -16.5q72 0 115 32q43 33 66 84t31 113q7 62 7 120q0 121 -55 210.5t-161 146.5l-3 1l-2 1l1 3l2 2l44 64l1 1l1 2l2 -1h2q76 -31 136.5 -78.5t103 -109t65 -135t22.5 -155.5zM998 396q0 49 -12 99.5t-34.5 97.5t-55.5 87q-32 37 -73 64q-43 -31 -75 -72
q-34 -42 -56.5 -91t-34 -102.5t-11.5 -106.5q0 -38 9 -79q10 -41 30 -74q21 -32 52 -53q32 -21 76 -21q48 0 83 23q35 24 58 60q22 37 33 82t11 86z" />
    <glyph glyph-name="nj" unicode="&#xd1e;" horiz-adv-x="2450" 
d="M2455 445q0 -74 -19.5 -144.5t-56.5 -132.5t-90 -112.5t-120 -82.5h-1h-1h-1h-1l-102 36l-4 2l-4 1l3 3l4 3q43 33 76.5 81.5t55 103.5t32.5 113.5t11 111.5q0 95 -34 166.5t-92 119t-136 70.5q-79 24 -168 24q-26 0 -51 -3q-20 -2 -41 -8q52 -35 94 -80
q46 -49 77.5 -107t48 -123t16.5 -134q0 -76 -23.5 -144.5t-67 -120t-107 -82t-143.5 -30.5q-76 0 -137 28.5t-103 77t-64.5 113.5t-22.5 138q0 65 13.5 128t40 120t66.5 107q36 46 84 83q-49 14 -96 14q-36 0 -79.5 -11t-81.5 -32q-38 -22 -63 -54t-25 -74v-614v-2v-3h-2h-3
h-204h-3h-2v3v2v609q0 42 -27 73t-67 51q-41 20 -86.5 29.5t-80.5 9.5q-70 0 -135.5 -23.5t-117.5 -66t-87 -102.5q-29 -50 -38 -110q31 42 74 65q53 29 116 29q62 0 115 -24.5t91 -65.5t60 -95.5t22 -115.5q0 -63 -21 -116t-58 -91.5t-89.5 -60.5t-116.5 -22
q-89 0 -150.5 33.5t-100.5 90.5q-38 56 -54 129q-17 72 -17 150q0 121 38.5 222t109 173.5t170 113.5t221.5 41q51 0 102.5 -7t99 -24.5t89.5 -45.5q39 -26 71 -66q27 39 63 65q39 28 85 45.5t95 25t96 7.5q116 0 218 -54q57 27 118 40q63 14 127 14q73 0 145 -12.5t138 -39
t122.5 -65.5t97.5 -93t65 -121.5t24 -149.5zM1754 391q0 50 -12.5 100.5t-36 96.5t-57.5 85q-33 37 -75 63q-44 -29 -78 -69q-35 -42 -58.5 -91t-36 -102.5t-12.5 -106.5q0 -41 10 -82t31 -73t54 -52q32 -20 79 -20q50 0 85 23q36 23 60 59q23 36 35 81t12 88zM584 265
q0 31 -12.5 58.5t-34.5 48.5t-50 33t-59 12t-55 -10.5t-40.5 -29.5t-25 -44t-8.5 -55q0 -31 9.5 -61t27.5 -53t44 -37t59 -14q30 0 56.5 12.5t46 34t31 49t11.5 56.5z" />
    <glyph glyph-name="t1" unicode="&#xd1f;" horiz-adv-x="1022" 
d="M1027 282q0 -79 -37 -137t-95 -96t-128.5 -56t-138.5 -18q-65 0 -127 5q-63 5 -121 21t-112 46t-102 80l-1 1l-2 2l2 2l2 2l63 61l1 1l2 2l2 -2l1 -1q32 -29 76 -48q45 -19 94 -30.5t98.5 -16.5t91.5 -5q34 0 79 5q45 6 85 22q40 15 68 43q27 27 27 70q0 36 -25 57
q-26 23 -63 34q-37 12 -77 16t-67 4q-38 0 -75 -2t-74 -2q-58 0 -114 15q-56 14 -100.5 46t-71.5 79q-28 48 -28 114q0 86 33.5 149t89.5 104t128 60q72 20 150 20q64 0 126 -5q63 -5 121.5 -21t112.5 -46t102 -80l1 -1l2 -2l-2 -2l-2 -2l-67 -62l-1 -1l-2 -2l-2 2l-1 1
q-33 28 -72 47t-81 31t-86 17t-86 5q-34 0 -83 -6t-94 -22q-44 -16 -76 -45q-31 -28 -31 -72q0 -40 20 -63q20 -24 51 -36t67 -16q36 -3 68 -3q29 0 57 1q28 2 57 2q66 0 132 -11q66 -10 118 -40q53 -29 85 -81.5t32 -133.5z" />
    <glyph glyph-name="t2" unicode="&#xd20;" horiz-adv-x="1119" 
d="M1124 453q0 -104 -37 -191.5t-101.5 -150.5t-153 -98.5t-191.5 -35.5q-102 0 -190 32.5t-152.5 92t-101.5 144.5t-37 190q0 103 34 193t96 156.5t149.5 104.5t193.5 38q104 0 193.5 -34.5t155.5 -97t104 -150t38 -193.5zM914 440q0 68 -26.5 126.5t-71.5 101.5t-105 67.5
t-127 24.5q-69 0 -127.5 -22t-101.5 -63t-67 -98t-24 -128q0 -70 23.5 -129t66.5 -103t101.5 -68.5t128.5 -24.5q67 0 127 23.5t105 65.5t71.5 100t26.5 127z" />
    <glyph glyph-name="t3" unicode="&#xd21;" horiz-adv-x="2100" 
d="M2105 443q0 -95 -26 -180q-25 -85 -77 -149.5t-129 -102.5q-39 -19 -84 -28.5t-97 -9.5q-102 0 -178 44q-71 41 -124 120q-23 -42 -53 -72q-33 -32 -73.5 -53t-87.5 -30t-96 -9q-82 0 -150 26t-116.5 73.5t-75.5 114.5t-27 150v201q0 44 -6 84q-7 40 -25 71t-49.5 49.5
t-82.5 18.5q-63 0 -110 -31q-46 -31 -76 -79t-45 -106.5t-15 -112.5q0 -62 10 -120q10 -57 33.5 -108t63 -92t98.5 -68l3 -2l4 -2l-3 -2l-3 -3l-59 -57l-1 -1l-1 -1l-2 1h-1q-74 34 -127.5 84t-88.5 112t-51.5 134.5t-16.5 150.5q0 84 28 167.5t79.5 151t124.5 109.5
q74 42 166 42q79 0 143 -22t108 -63.5t68 -104.5q24 -62 24 -142v-186q0 -55 10 -110q11 -54 36 -99q25 -43 67 -70.5t107 -27.5q33 0 69 10t66 29q29 20 48 49q19 28 19 66v640v3v2h3h2h197h3h2v-2v-3v-541q0 -46 13.5 -86.5t39.5 -70.5t63.5 -47.5t85.5 -17.5q69 0 117 34
q47 33 76 86t42 116t13 121q0 56 -15 110t-43 100.5t-69 84.5t-92 62l-3 2l-3 1l2 3l2 2l53 65l1 2l2 1l1 -1l2 -1q144 -71 215.5 -196t71.5 -283z" />
    <glyph glyph-name="t4" unicode="&#xd22;" horiz-adv-x="2242" 
d="M2247 573q0 -132 -27 -241t-89 -187.5t-162 -121.5q-49 -22 -110 -32.5t-132 -10.5q-57 0 -108 7q-51 6 -97 24.5t-85 49.5q-37 29 -69 75q-26 -40 -58.5 -68.5t-72.5 -48.5q-40 -19 -85 -29t-93 -10q-88 0 -154 30.5t-110 84t-66 125.5q-22 71 -22 153v209
q0 36 -10.5 68.5t-31.5 57t-50.5 39t-67.5 14.5q-63 0 -110 -29q-47 -30 -79 -76q-31 -47 -47.5 -104.5t-16.5 -112.5q0 -61 13 -118t39.5 -106t67.5 -88.5t98 -65.5l3 -2l3 -1l-2 -3l-2 -2l-53 -67l-1 -2l-1 -1l-2 1h-2q-72 32 -127 82.5t-92.5 113t-56.5 135t-19 150.5
q0 84 28 166.5t79.5 148.5t124.5 107q74 41 165 41q89 0 153.5 -27.5t107 -77t61.5 -118.5q20 -69 20 -153v-195q0 -54 9 -100q9 -45 31 -78q22 -32 61 -50.5t100 -18.5q35 0 71 12.5t64.5 35t47.5 54.5q18 31 18 69v623v2v3h3h2h197h3h2v-3v-2v-582q0 -62 21 -100t56 -60
q36 -21 83 -29q47 -7 101 -7q153 0 245 79q86 73 101 215q-29 -41 -69 -65q-50 -30 -111 -30q-62 0 -113 25.5t-87.5 68t-57 97.5t-20.5 114q0 61 19.5 115t55.5 94t87.5 63.5t114.5 23.5q83 0 142.5 -26t98 -73t55.5 -112q17 -64 17 -142zM2112 620q0 30 -9 60.5t-25.5 54
t-42.5 38.5q-25 15 -59 15q-31 0 -56 -14q-26 -14 -45 -37t-29.5 -51t-10.5 -57q0 -31 12 -59.5t32.5 -51t48 -35.5t59.5 -13t55 12.5t38.5 33.5t23.5 48t8 56z" />
    <glyph glyph-name="nh" unicode="&#xd23;" horiz-adv-x="2456" 
d="M2461 446q0 -85 -24.5 -158t-69 -133.5t-108 -106t-140.5 -75.5h-1h-1h-1l-1 1l-88 44l-4 2l-5 2l4 2l4 2q57 33 97 77t65.5 97t37.5 112t12 122q0 56 -16.5 118t-48.5 113q-33 51 -81 85q-49 33 -114 33q-35 0 -71 -9t-64.5 -28t-46.5 -48q-18 -28 -18 -69v-629v-2v-3
h-2h-3h-203h-2h-3v3v2v544q0 45 -16 85t-44.5 71t-67.5 49t-85 18q-32 0 -67 -7t-65 -22q-29 -16 -48 -42q-19 -25 -19 -62v-634v-2v-3h-3h-2h-207h-3h-2v3v2v590q0 47 -28 81t-70 56t-90 32.5t-87 10.5q-97 0 -169 -26q-71 -25 -120.5 -75t-77.5 -122q-27 -67 -38 -151
q12 37 33 64q24 31 56 50.5t71 28.5t82 9q61 0 110.5 -24.5t84 -65.5t53.5 -94.5t19 -111.5q0 -63 -23.5 -113.5t-63.5 -86.5t-94 -56q-55 -19 -114 -19q-78 0 -136.5 32t-97.5 84.5t-57 119.5q-19 67 -19 137q0 133 39 239.5t112 181.5t179 115.5t240 40.5q57 0 110 -8
q52 -8 98.5 -29t84.5 -56q36 -32 64 -81q50 85 127 126q81 43 183 43q52 0 100 -8t89.5 -28t76.5 -52q32 -29 59 -72q43 80 113 121q74 44 169 44q100 0 184 -39t144.5 -104.5t94.5 -153t34 -184.5zM582 256q0 33 -9 62q-9 30 -27 51t-44.5 33t-61.5 12q-63 0 -101.5 -38
t-38.5 -101q0 -64 36 -101.5t100 -37.5q25 0 51.5 8.5t47 24t34.5 38.5q13 21 13 49z" />
    <glyph glyph-name="th1" unicode="&#xd24;" horiz-adv-x="1680" 
d="M1685 404q0 -147 -70.5 -258.5t-202.5 -175.5l-1 -1h-1h-1h-1l-100 39l-4 2l-4 1l4 3l3 3q41 34 73.5 76.5t54 90.5t32.5 100.5t11 105.5q0 91 -27 169t-79 135t-126 89t-169 32q-31 0 -61 -5q-25 -4 -50 -11q52 -35 95 -81q46 -49 79 -107.5t50.5 -124t17.5 -134.5
q0 -75 -22.5 -143t-65 -121.5t-104.5 -85t-142 -31.5q-77 0 -137 30t-100.5 80.5t-62 115.5t-21.5 137q0 65 14 129t41.5 122.5t67.5 109.5q36 48 84 85q-51 14 -100 14q-86 0 -154 -32.5t-116.5 -87.5t-74 -128.5t-25.5 -154.5q0 -55 12 -108t35.5 -101.5t58 -90.5
t80.5 -74l3 -2l3 -2l-3 -2l-3 -2l-67 -39l-2 -1l-1 -1l-1 1l-2 1q-57 36 -102.5 85.5t-76.5 108t-47.5 123.5t-16.5 133q0 107 35 200t98.5 161t153.5 107.5t200 39.5q62 0 121 -15q57 -15 109 -46q60 31 123 46q65 15 132 15q116 0 217 -37.5t175.5 -105.5t117.5 -165
t43 -216zM1015 389q0 50 -11.5 101t-33.5 98.5t-55 87.5q-32 38 -74 66q-44 -32 -78 -72q-35 -43 -58.5 -93t-36 -104t-12.5 -108q0 -40 9 -82q10 -41 30 -75q21 -33 53 -55q32 -21 79 -21q49 0 85 24q35 25 58 62t34 83t11 88z" />
    <glyph glyph-name="th2" unicode="&#xd25;" horiz-adv-x="1551" 
d="M1551 -5h-1386h-3h-2v3v2v897v3v2h2h3h204h3h2v-2v-3v-803h264v417q0 99 39.5 176.5t106 130.5t151.5 81t177 28q89 0 169.5 -26t141.5 -76t97 -124t36 -169v-532v-2v-3h-2h-3zM1345 94v390q0 63 -23 117.5t-63.5 95t-95 63t-117.5 22.5q-75 0 -129.5 -25.5t-89.5 -70
t-53 -104.5q-17 -61 -17 -130v-358h588z" />
    <glyph glyph-name="th3" unicode="&#xd26;" horiz-adv-x="1058" 
d="M1063 244q0 -72 -33 -124q-33 -51 -86 -83q-52 -32 -116 -46q-63 -15 -124 -15q-108 0 -202 58h-1l-1 1v2v1l1 116v5v6l4 -4l4 -3q34 -28 79 -41t89 -13q32 0 62 8q30 9 53 25q22 16 35.5 42t13.5 62q0 32 -13 58t-34.5 44t-50 28t-58.5 10h-120h-3h-2v3v2v118v2v3h2h3
h55q31 0 62 3.5t60 10.5q28 8 50 22q22 15 35.5 37t13.5 57q0 38 -22 67q-23 29 -58 49q-35 19 -75 28.5t-72 9.5q-91 0 -154 -40q-64 -40 -105 -103q-40 -63 -60 -142q-19 -80 -19 -158q0 -87 18 -173q19 -86 45 -170l1 -2v-3h-2l-3 -1l-90 -22h-2l-2 -1l-1 2l-1 3
q-14 47 -28.5 94t-25.5 95t-18 97.5t-7 99.5q0 116 34 217.5t98.5 178t159.5 120.5t218 44q38 0 82 -7t87.5 -21.5t83.5 -36.5t71 -52t50 -68q19 -39 19 -85q0 -39 -14 -70.5t-37 -56t-54 -41.5q-25 -13 -53 -23q66 -32 110 -83q48 -56 48 -141z" />
    <glyph glyph-name="th4" unicode="&#xd27;" horiz-adv-x="1567" 
d="M1572 441q0 -90 -28.5 -173t-81.5 -148t-129 -104q-38 -19 -81 -29t-91 -10q-99 0 -175 36q-72 35 -120 120q-22 -40 -51 -68q-32 -31 -70.5 -50.5t-83 -28.5t-92.5 -9q-94 0 -170 41q-77 41 -129 108q-53 67 -81.5 151.5t-28.5 172.5q0 167 82 286t233 186h1l2 1l1 -1
l1 -1l69 -59l3 -2l2 -2l-2 -2l-3 -2q-52 -35 -87.5 -81t-57 -98t-31 -110.5t-9.5 -118.5q0 -52 14 -111.5t43 -109.5t74 -82t106 -32q36 0 74 12t68 33.5t50 54.5q19 31 19 71v620v2v3h2h3h195h2h3v-3v-2v-542q0 -44 10 -84t31.5 -70t55.5 -48t83 -18q66 0 114 34t80 87
q31 53 46.5 116.5t15.5 119.5q0 58 -14 113t-41 102.5t-67.5 86t-93.5 63.5l-3 2l-4 2l3 2l3 3l54 50l1 1l1 1l2 -1l1 -1q70 -36 121.5 -87t86.5 -112.5t52 -132.5t17 -148z" />
    <glyph glyph-name="n1" unicode="&#xd28;" horiz-adv-x="1643" 
d="M1648 446q0 -82 -25.5 -154t-70.5 -132.5t-108 -106.5t-136 -75h-2l-1 -1l-1 1l-1 1l-68 60l-3 2l-2 3l3 1l2 2q53 33 89.5 76t59 93.5t33 106.5t10.5 117q0 63 -16 125q-16 61 -49 109q-32 48 -83.5 78t-122.5 30q-34 0 -67 -10t-57.5 -29.5t-39.5 -48t-15 -65.5v-629
v-2v-3h-3h-2h-201h-3h-2v3v2v541q0 41 -14.5 79t-41 67.5t-62.5 47t-79 17.5q-70 0 -123.5 -27t-90 -72.5t-55 -105.5t-18.5 -125q0 -62 13 -121t40.5 -109t70.5 -90t103 -65l4 -2l3 -2l-3 -2l-3 -3l-58 -49l-1 -1l-1 -1l-2 1h-1q-146 70 -216.5 193t-70.5 282
q0 97 32.5 183t90.5 150.5t140.5 102.5t182.5 38q48 0 94.5 -12t87 -36t72.5 -60q28 -32 44 -73q47 85 119 132q77 49 181 49q103 0 185 -38.5t139.5 -104t88.5 -153t31 -185.5z" />
    <glyph glyph-name="n2" unicode="&#xd29;" horiz-adv-x="1762" 
d="M1767 443q0 -82 -25.5 -154.5t-70.5 -133.5t-108 -107t-136 -75h-2l-1 -1l-2 1l-1 2l-68 74l-2 2l-2 2l3 2l2 1q53 32 89.5 74.5t59 93t33 106t10.5 115.5q0 63 -16 124t-49 109q-32 47 -83.5 76t-122.5 29q-73 0 -111 -40.5t-38 -112.5v-630v-2v-3h-2h-3h-201h-2h-3v3v2
v545q0 58 -18 100.5t-50.5 71t-77.5 42.5q-46 14 -101 14q-70 0 -136 -23.5t-118 -66t-87 -102.5q-29 -50 -38 -111q30 42 74 65q52 29 116 29q62 0 115 -24.5t91 -65.5t60 -95.5t22 -115.5q0 -63 -21 -116t-58 -91.5t-89.5 -60.5t-116.5 -22q-88 0 -149.5 34t-100.5 91
q-38 56 -55 128t-17 150q0 120 38.5 221t109 173.5t170 113t221.5 40.5q54 0 104 -6q49 -6 93.5 -23.5t81.5 -48.5q33 -29 61 -75q18 42 44 70q29 31 66 49.5t81 25.5q43 8 90 8q103 0 186 -38t140.5 -103.5t89 -153t31.5 -186.5zM304 324q-3 -9 -8 -21q-4 -12 -4 -20
q0 -10 4 -21q4 -12 7 -23q8 -26 19 -49q10 -23 26 -41q16 -17 38 -26.5t53 -9.5q30 0 56.5 12.5t46 34t31 49t11.5 56.5q0 32 -12.5 59.5t-34.5 48t-50 32.5t-59 12q-46 0 -77 -26t-47 -67z" />
    <glyph glyph-name="p1" unicode="&#xd2a;" horiz-adv-x="1708" 
d="M1708 -5h-1119h-3h-2v3v2v56v2v1l2 1l1 1q62 24 99.5 77t37.5 120q0 44 -15.5 79.5t-42.5 60t-64 37.5t-80 13q-48 0 -90.5 -16t-74.5 -45.5t-50.5 -70t-18.5 -90.5q0 -58 29 -105.5t77 -78.5l2 -1l3 -2l-2 -2l-3 -3l-58 -55l-1 -1l-1 -1l-2 1l-2 1q-36 22 -67.5 53
t-54.5 67.5t-35.5 78t-12.5 86.5q0 85 32 150.5t87 110.5t126.5 68.5t150.5 23.5q75 0 144 -20t122.5 -61.5t85.5 -103t32 -143.5q0 -61 -29 -113q-25 -46 -63 -82h654v815v3v2h2h3h201h2h3v-2v-3v-909v-2v-3h-3h-2z" />
    <glyph glyph-name="p2" unicode="&#xd2b;" horiz-adv-x="2076" 
d="M2076 -5h-1479h-3h-2v3v2v43v2v1l1 1l2 1q59 27 93.5 81t34.5 120q0 45 -16 82t-44 63.5t-66 40.5t-82 14q-49 0 -90.5 -16.5t-72.5 -46.5t-48 -71t-17 -90q0 -56 28.5 -105t76.5 -78l2 -1l3 -2l-2 -2l-3 -3l-57 -55l-1 -1l-1 -1l-2 1l-2 1q-37 22 -68 52.5t-53.5 67
t-35 78t-12.5 86.5q0 85 31.5 150.5t85 110.5t124.5 68.5t151 23.5q73 0 142 -20t124 -61t88 -102t33 -141q0 -61 -30 -114q-26 -46 -63 -84h326v447q0 92 37.5 164t99.5 121.5t141.5 75t165.5 25.5q94 0 178.5 -30t148 -85.5t101 -134.5t37.5 -177v-500v-2v-3h-3h-2z
M1869 94v358q0 71 -17 131q-18 60 -54 103.5t-91 68t-130 24.5q-63 0 -114.5 -23t-88.5 -63t-57.5 -94t-20.5 -115v-390h573z" />
    <glyph glyph-name="p3" unicode="&#xd2c;" horiz-adv-x="2224" 
d="M2224 -5h-844h-2h-3v3v2v56v2v1l2 1l1 1q55 23 91 65q37 43 59 96t32 112q9 58 9 113q0 63 -16 124q-16 60 -49 107t-84 76t-122 29t-115 -40t-44 -113v-630v-2v-3h-3h-2h-207h-3h-2v3v2v545q0 58 -18.5 101t-52 71t-80.5 42t-102 14q-70 0 -135.5 -22t-118 -63.5
t-87.5 -100.5q-29 -49 -40 -109q32 42 75 65q53 29 117 29q63 0 116 -25t91.5 -66.5t60 -97t21.5 -116.5q0 -63 -20.5 -117t-57.5 -93q-19 -20 -42 -35t-49 -27q-53 -22 -117 -22q-88 0 -150 34t-101 91q-38 56 -55 128t-17 150q0 121 39 221.5t109.5 173t170 113
t221.5 40.5q59 0 108 -9q50 -8 92.5 -28t80.5 -52q36 -31 71 -73q51 82 118 123q71 43 173 43q100 0 181 -34t138.5 -93.5t89 -142.5t31.5 -181q0 -57 -11.5 -113.5t-35 -108t-59.5 -95.5q-31 -37 -72 -66h411v803v3v2h2h3h203h2h3v-2v-3v-897v-2v-3h-3h-2zM582 269
q0 34 -11 62.5t-31 49.5t-48 32.5t-63 11.5q-32 0 -56.5 -11.5t-41 -31t-25 -46.5t-8.5 -57q0 -31 9.5 -61t28 -53t44.5 -38q26 -14 60 -14q33 0 59.5 12.5t45 34t28 49.5t9.5 60z" />
    <glyph glyph-name="p4" unicode="&#xd2d;" horiz-adv-x="1108" 
d="M1113 185q0 -41 -19 -73q-19 -30 -50 -53t-70 -39q-20 -7 -40 -13t-40 -11q-40 -9 -79.5 -13t-69.5 -4q-87 0 -172.5 10t-170.5 30l-2 1h-1l-1 2v1l-17 104l-1 4v4l4 -1l3 -1q133 -32 264 -32q13 0 37 1t52.5 4.5t58.5 8.5q29 6 53 15q23 9 38 22q14 12 14 28
q0 18 -13 32t-32 23t-40.5 13.5t-37.5 4.5q-38 0 -77 -3q-39 -4 -78 -4t-76 14t-66 39t-47 59q-18 35 -18 76q0 39 18 71q17 32 45.5 54.5t63.5 35t71 12.5q25 0 50 -4t49.5 -9t48.5 -9t49 -4q14 0 30.5 5.5t30 15t22.5 21.5q9 13 9 28q0 43 -28 70q-28 28 -68 44
q-41 16 -87 22q-45 6 -78 6q-98 0 -169.5 -35t-118.5 -95t-70 -140q-23 -81 -23 -171q0 -87 19 -171q19 -85 42 -170v-2l1 -3h-2l-3 -1l-91 -22h-2l-3 -1v2l-1 3q-25 95 -44 191q-20 96 -20 197q0 127 35 229q36 103 105 175.5t169.5 111.5t230.5 39q63 0 135 -15.5
t133 -49.5q62 -34 103 -88q42 -54 42 -131q0 -41 -14 -73.5t-38.5 -55t-58.5 -34.5t-74 -12q-24 0 -48 4t-48 10q-23 5 -46 9t-47 4q-15 0 -34.5 -3.5t-37.5 -10.5q-17 -7 -29 -20q-12 -11 -12 -28q0 -21 10 -36q11 -15 26 -25q16 -9 36 -14q20 -4 38 -4q46 0 90 7
q46 7 92 7q38 0 73 -14.5t62 -39.5t43.5 -59t16.5 -73z" />
    <glyph glyph-name="m1" unicode="&#xd2e;" horiz-adv-x="1181" 
d="M1181 -5h-1016h-3h-2v3v2v406q0 136 26 233q25 98 85 162t156 95q96 30 237 30q127 0 224 -29q99 -29 164.5 -90t99.5 -155t34 -224v-428v-2v-3h-2h-3zM975 93v329q0 88 -12 160q-12 71 -46 122q-33 51 -94 79q-54 26 -141 29q63 -37 96 -90q39 -61 39 -145
q0 -80 -35 -154q-36 -74 -91 -137.5t-121 -114.5q-58 -44 -115 -78h520zM619 603q0 31 -9 61.5t-26 54.5t-42.5 38.5t-60.5 14.5q-43 0 -74 -17q-32 -17 -54.5 -45t-36.5 -64q-14 -37 -22.5 -77t-11.5 -79.5t-3 -72.5v-319q63 43 122 93q62 53 111 116.5t78 136.5t29 159z
" />
    <glyph glyph-name="y1" unicode="&#xd2f;" horiz-adv-x="1686" 
d="M1691 501q0 -112 -30 -207q-31 -94 -90.5 -164t-148.5 -109.5t-207 -39.5q-57 0 -114 12q-56 12 -110 31q-135 -45 -252 -45q-121 0 -227 36t-184 104q-78 69 -123 168.5t-45 226.5q0 79 21 152.5t64 131t107.5 92.5t151.5 35q48 0 88 -15t71.5 -41.5t55.5 -61.5
q20 -31 35 -68q48 93 132 138q89 48 196 48q74 0 134.5 -30t103 -79.5t65.5 -114.5t23 -135q0 -151 -71 -274q-67 -117 -187 -195q8 -1 14 -1q14 -1 28 -1q90 0 161 31.5t121 86.5t76.5 129.5t26.5 161.5q0 103 -34 192t-114 157l-2 2l-2 1l2 2l1 2l55 64l2 2l1 2l2 -2l2 -1
q105 -84 153 -187t48 -237zM1201 486q0 47 -10 99q-11 51 -35 93t-62 68q-39 27 -95 27t-95 -25q-40 -26 -66 -66q-26 -41 -38 -91t-12 -98q0 -58 15 -111.5t43 -100t69 -83.5q40 -37 91 -61q96 56 145 146q50 91 50 203zM862 83q-51 31 -93 71q-48 44 -83 96.5t-54 113
t-19 128.5q0 40 -6 87t-24 87q-17 40 -49 67q-31 26 -81 26t-82 -25q-33 -26 -52 -65t-27 -85t-8 -87q0 -99 37.5 -178t102 -134t149 -84t178.5 -29q32 0 62 3q24 2 49 8z" />
    <glyph glyph-name="r3" unicode="&#xd30;" horiz-adv-x="1149" 
d="M1154 408q0 -73 -17 -149q-16 -76 -53 -139q-37 -64 -98 -104q-30 -20 -67 -30t-80 -10q-70 0 -128.5 25t-100.5 69t-65.5 103.5t-23.5 128.5q0 71 14.5 135t46 118t80.5 97q45 39 107 65q-30 13 -63 20q-40 8 -80 8q-81 0 -143.5 -32.5t-105.5 -86t-65 -124t-22 -144.5
q0 -99 41 -181.5t119 -142.5l2 -2l3 -2l-2 -2l-3 -2l-57 -49l-1 -1l-2 -1l-1 1l-2 1q-121 76 -174 185q-53 110 -53 250q0 108 33 202.5t94.5 164.5t150.5 110.5t202 40.5q116 0 211 -38.5t162.5 -107t104 -164.5t36.5 -212zM954 390q0 73 -22 142q-22 68 -71 121
q-51 -12 -91 -40q-41 -29 -69 -68.5t-42.5 -88.5t-14.5 -101q0 -37 10 -75.5t29 -69.5q20 -30 50 -50t73 -20q40 0 68 26q29 27 46 66q18 39 26 82t8 76z" />
    <glyph glyph-name="rh" unicode="&#xd31;" horiz-adv-x="1093" 
d="M1098 437q0 -83 -24.5 -156.5t-69 -134t-108.5 -106t-141 -70.5h-2l-2 -1l-1 2l-1 1l-46 76l-2 3l-1 2l2 1l3 1q47 24 83.5 59.5t62 79t39 93.5t13.5 101q0 66 -21 132t-60.5 118t-97.5 85q-57 33 -129 33q-74 0 -132 -33q-58 -34 -98.5 -87t-62 -120.5t-21.5 -134.5
q0 -56 14 -110t41 -100t67.5 -83t93.5 -59l3 -2l3 -1l-2 -3l-2 -2l-45 -49l-2 -2l-1 -1l-1 1h-2q-75 34 -129 82t-89.5 108.5t-52.5 132t-17 150.5q0 102 34 191t95 154.5t147 103t191 37.5t192 -38.5t149 -105t96 -156.5t34 -192z" />
    <glyph glyph-name="l3" unicode="&#xd32;" horiz-adv-x="1562" 
d="M1562 -5h-1397h-3h-2v3v2v466q0 101 29.5 186t85.5 145.5t137.5 94.5t186.5 34q97 0 184 -27t153 -80.5t105 -133t39 -183.5v-178v-2v-3h-2h-3h-704v-225h993v802v2v3h2h3h193h2h3v-3v-2v-896v-2v-3h-3h-2zM971 415v84q0 70 -27.5 124.5t-74 92t-107.5 57t-126 19.5
t-114 -20.5t-83 -57.5t-51 -88q-17 -52 -17 -114v-97h600z" />
    <glyph glyph-name="lh" unicode="&#xd33;" horiz-adv-x="1258" 
d="M1263 201q0 -61 -23 -108.5t-62.5 -80t-90.5 -49.5t-109 -17h-528q-17 0 -38 -3q-22 -4 -41 -13q-19 -8 -32 -22t-13 -34q0 -19 12 -31q14 -13 33 -20q19 -8 41 -11q21 -3 37 -3h790h3h2v-3v-2v-158v-2v-3h-2h-3h-804q-48 0 -92 11q-45 11 -80 36t-56.5 63t-21.5 92
q0 53 19.5 93t53 67t77.5 40t94 13h413q30 0 66 9t67 26q31 18 50 45q20 27 20 63q0 20 -6.5 40.5t-17.5 37.5q-12 16 -29 27q-16 10 -38 10h-83h-3h-2v2v3v148v3v2h2h3h75q22 0 40 12q18 13 31 31.5t20 42t7 43.5q0 56 -32 93t-80 59t-103 31t-100 9q-69 0 -140 -14
t-134 -44q-62 -31 -109 -81q-36 -38 -56 -88q9 14 19 25q23 25 52 41.5t61.5 25t66.5 8.5q60 0 109.5 -22t84 -60t53.5 -89.5t19 -109.5q0 -63 -22.5 -114.5t-61.5 -88t-92 -56.5t-115 -20q-69 0 -125 23.5t-95.5 65t-61.5 99t-22 124.5q0 131 47.5 227.5t128.5 159
t188 92.5t228 30q43 0 98 -7.5t112 -24t111 -41.5q54 -26 96 -60q42 -35 68 -80q26 -46 26 -101q0 -76 -39 -136q-35 -54 -100 -78q63 -26 99 -70q40 -48 40 -128zM562 392q0 26 -8 53.5t-22.5 48.5t-37.5 35q-21 13 -51 13q-26 0 -47 -11q-21 -12 -36 -30t-23 -41.5
t-8 -47.5q0 -29 6 -59t19 -55q14 -25 36 -40q23 -15 56 -15q30 0 51 13q23 13 37 34t21 48t7 54z" />
    <glyph glyph-name="zh" unicode="&#xd34;" horiz-adv-x="1157" 
d="M1162 616q0 -70 -26.5 -127.5t-71 -101.5t-102.5 -75q-54 -29 -113 -46q10 -22 15 -44q6 -26 6 -53q0 -50 -29 -86t-71 -59t-90.5 -33.5t-89.5 -10.5q-50 0 -92 8q-42 7 -77.5 25.5t-65.5 49t-55 75.5l-1 1l-1 2l1 1l1 2l53 53l3 2l3 3l1 -4l2 -3q8 -24 28 -42
q21 -18 47 -29.5t54 -17.5t51 -6q21 0 45 4q23 4 44 14q20 9 34 26q13 16 13 40q0 35 -15 65q-54 0 -111 9q-59 9 -115 28.5t-106 49.5t-88 71t-60.5 94t-22.5 119q0 52 15 97t42 83.5t64 70t81 54.5l2 1l2 1l1 -1l1 -2l53 -75l1 -2l2 -2l-2 -1l-2 -2q-52 -43 -76 -102
q-24 -60 -24 -126q0 -67 26.5 -117t70.5 -83.5t101 -50.5q52 -15 108 -17q-46 57 -70 122q-26 71 -26 150q0 69 23.5 126t64.5 97.5t98.5 63t126.5 22.5q67 0 125.5 -23t101 -64t67.5 -98.5t25 -125.5zM1038 598q0 32 -10 64.5t-28.5 58.5t-46.5 42q-27 16 -63 16t-66 -14.5
t-52 -39.5t-34.5 -57t-12.5 -66q0 -71 21 -136q21 -63 68 -116q45 10 85 30q41 21 72 53.5t49 74t18 90.5z" />
    <glyph glyph-name="v1" unicode="&#xd35;" horiz-adv-x="1554" 
d="M1554 -5h-811h-3h-2v3v2v79v2v1l1 1h2q45 24 78.5 61t55.5 82t33 94.5t11 98.5q0 69 -24 128t-67 103t-102 69t-128 25q-73 0 -131 -30t-99 -79t-62.5 -113.5t-21.5 -132.5q0 -57 15 -109.5t43 -96.5t70 -79t95 -56l3 -2l3 -1l-2 -2l-2 -3l-47 -60l-1 -2l-1 -1l-2 1h-2
q-150 66 -223 187t-73 283q0 105 36.5 192.5t100.5 150.5t152.5 98.5t192.5 35.5q103 0 192 -34.5t154 -97t102 -149.5t37 -192q0 -108 -44 -203q-41 -88 -117 -155h389v797v3v2h3h2h194h2h3v-2v-3v-891v-2v-3h-3h-2z" />
    <glyph glyph-name="z1" unicode="&#xd36;" horiz-adv-x="1672" 
d="M1677 411q0 -73 -18 -149q-17 -76 -55 -139q-38 -64 -99 -104q-30 -21 -67 -31t-80 -10q-70 0 -128 26t-99 71t-64 105t-23 128q0 72 15 136.5t47.5 119t83.5 96.5q47 39 111 65q-32 18 -66 27q-40 10 -81 10q-62 0 -109 -24.5t-78 -65t-47 -94t-16 -110.5v-200
q0 -67 -31 -121q-30 -53 -79 -90.5t-109.5 -58t-121.5 -20.5q-94 0 -168.5 40t-126.5 106t-80 149t-28 170q0 77 15.5 148t48.5 133.5t84 114t121 87.5l2 1l1 1l2 -1l1 -2l47 -63l2 -2l1 -3l-2 -1l-3 -1q-103 -60 -150 -154t-47 -211q0 -56 15.5 -116.5t46.5 -110.5
q32 -50 80 -82t112 -32q52 0 85 22q33 21 53 57q20 37 29 83q8 47 10 95t1 93q-2 46 -2 81q0 57 20 105t53 86.5t77.5 67t94.5 48t102 29t101 9.5q115 0 210 -37.5t163 -104.5t105.5 -162t37.5 -210zM1472 396q0 71 -23 140q-22 67 -67 121q-51 -12 -91 -39
q-40 -28 -68 -67.5t-43 -88.5t-15 -101q0 -36 10 -74t29 -69q20 -30 50 -50t71 -20q40 0 68 26t45 64q18 39 26 82t8 76z" />
    <glyph glyph-name="sh" unicode="&#xd37;" horiz-adv-x="1990" 
d="M1990 -5h-1386h-2h-3v3v2v56v2v1l1 1h2q64 32 90 84q25 52 25 122q0 44 -15.5 78t-43 57.5t-64 35.5t-78.5 12q-50 0 -90.5 -16t-70 -45.5t-45.5 -70.5t-16 -90q0 -58 24 -105t71 -80l2 -2l3 -2l-2 -2l-3 -2l-62 -55l-1 -1l-1 -1l-2 1l-2 1q-77 47 -119 120.5t-42 164.5
q0 84 30.5 149.5t82.5 110t122.5 68t150.5 23.5q74 0 142 -20.5t120.5 -62t83.5 -103t31 -141.5q0 -62 -24 -111q-21 -43 -58 -83h439v244q-62 1 -123 24q-64 24 -115.5 66t-83.5 100q-33 58 -33 126q0 58 23.5 108.5t63 87t91.5 58t109 21.5q90 0 144 -26t83 -72
q28 -46 36 -110t8 -139q0 -34 -2 -68q-2 -30 -3 -61q71 21 132 64q65 46 117 107t91 132t63 142l1 1v2h2h2h104h2h3v-3v-2v-896v-2v-3h-3h-2zM1794 94v482q-59 -74 -135 -133q-81 -63 -181 -89v-260h316zM1280 451v211q0 52 -27 82t-81 30q-24 0 -42 -11q-20 -12 -32 -30
q-13 -19 -20.5 -42t-7.5 -44q0 -46 18 -80q18 -35 48 -60t69 -39q36 -13 75 -17z" />
    <glyph glyph-name="s1" unicode="&#xd38;" 
d="M2154 399q0 -84 -25.5 -160.5t-74 -135.5t-118.5 -94q-36 -18 -76 -26.5t-85 -8.5q-79 0 -151 20q-73 19 -128.5 60.5t-88.5 105t-33 151.5v210q0 52 -11 102q-12 50 -37 88t-66 61t-101 23q-36 0 -72.5 -13t-65.5 -36.5t-48 -56.5q-18 -32 -18 -71v-617v-3v-2h-3h-2
h-202h-2h-3v2v3v547q0 47 -14 87t-40.5 68.5t-64.5 44.5t-87 16q-59 0 -105 -31q-47 -31 -80.5 -78t-51.5 -104.5t-18 -109.5q0 -65 13 -126t40.5 -112.5t72 -93t107.5 -67.5l3 -2l4 -1l-3 -3l-2 -2l-56 -58l-2 -2l-1 -1l-2 1h-1q-77 37 -132.5 89t-92 115.5t-53.5 138
t-17 158.5q0 92 31 174t86.5 143.5t134 97t174.5 35.5q101 0 182 -48q77 -45 131 -123q49 79 122 124q77 47 175 47q75 0 143 -20t120 -61t82.5 -102t30.5 -143v-217q0 -49 12 -94q13 -44 38 -77t64 -53t92 -20q67 0 113.5 27t76.5 71q29 44 43 100q14 57 14 115
q0 65 -15.5 125.5t-46 112t-76.5 92.5t-107 66l-3 2l-3 1l2 3l2 2l56 61l2 2l1 1l1 -1h2q82 -37 141.5 -90t98 -119.5t56.5 -144.5t18 -165z" />
    <glyph glyph-name="h1" unicode="&#xd39;" horiz-adv-x="2109" 
d="M2114 444q0 -84 -23.5 -158.5t-68 -135.5t-109 -105t-146.5 -67h-1l-2 -1l-1 2l-1 1l-58 96l-2 3l-1 2l2 1l3 2q45 20 81 54t61 76.5t38.5 91t13.5 97.5q0 72 -23 133.5t-66 106.5t-102.5 70t-133.5 25q-67 0 -126.5 -26t-104.5 -70.5t-71 -104t-26 -126.5
q0 -126 64 -212.5t185 -124.5l1 -1h2v-2v-2v-69v-2v-3h-3h-2h-930h-2h-3v3v2v43v2v2h2l2 1q33 10 59.5 30t45.5 46.5t30 58.5t11 66q0 44 -15 79t-41.5 60.5t-63 39t-79.5 13.5q-46 0 -86 -15t-69.5 -42.5t-46 -66.5t-16.5 -86q0 -59 28.5 -108.5t78.5 -80.5l2 -1l3 -2
l-2 -2l-3 -3l-62 -55l-1 -1l-1 -1l-2 1l-2 1q-37 23 -68.5 53.5t-54.5 67t-35.5 78.5t-12.5 88q0 82 32.5 145t87 106.5t124.5 66t146 22.5q68 0 137.5 -19.5t126.5 -58.5t93 -98t36 -136q0 -62 -30 -116q-27 -47 -66 -84h449q-79 64 -124 150q-49 93 -49 203
q0 107 40.5 195t110 151t162 98t195.5 35q108 0 197 -35t152.5 -98t98.5 -152t35 -197z" />
    <glyph glyph-name="rh_half" unicode="&#xd3a;" horiz-adv-x="846" 
d="M161 173l136 669q9 47 35 74q27 28 79 28q18 0 35.5 -0.5t35.5 -0.5h3h4l-1 -3l-1 -3q-4 -14 -14 -53.5t-25 -95.5t-32 -122.5t-35 -134.5t-34.5 -133t-29.5 -116.5t-21 -84.5q-7 -33 -7 -38q0 -15 9 -26q9 -10 25 -10q102 0 202 8q100 9 202 9q28 0 51 -11.5t39 -30.5
t25 -44t9 -51v-2v-3h-2h-3l-228 -3q-12 0 -17 -9q-6 -9 -6 -21l-4 -262q0 -22 -8 -36q-7 -15 -21 -22q-12 -7 -29 -9t-35 -2q-14 0 -27 5.5t-23 15t-16 22t-6 26.5l11 265q1 17 -9 21q-6 3 -13 4.5t-15 1.5h-106q-38 0 -64 13t-42 36t-22 52t-6 63v7q0 4 1 7z" />
    <glyph glyph-name="verticalbarvirama" unicode="&#xd3b;" horiz-adv-x="368" 
d="M155 1557q-1 5 0 10v8q0 21 7.5 49.5t21.5 54.5t34 45q21 19 47 19q29 0 50 -22q20 -20 33 -49q13 -28 19 -59.5t6 -52.5q0 -3 -1 -7v-6v-1l-57 -537v-2l-1 -2h-2h-2h-97h-2h-3v2v3z" />
    <glyph glyph-name="circularvirama" unicode="&#xd3c;" horiz-adv-x="184" 
d="M500 1053q0 -71 -56 -119q-56 -47 -111 -47q-54 0 -87.5 11.5t-60.5 32.5q-57 46 -57 117q0 72 55 121q53 47 128 47t130 -46q59 -48 59 -117zM396 1052q0 33 -24 52q-24 20 -60 20t-60 -21q-23 -20 -23 -52q0 -33 24 -51t60 -18t60 19q23 18 23 51z" />
    <glyph glyph-name="avagraha" unicode="&#xd3d;" horiz-adv-x="1153" 
d="M1170 1113q0 -30 -7 -64.5t-23 -63.5q-15 -30 -41 -50t-64 -20q-33 0 -59 16q-25 15 -41.5 39t-23.5 54q-8 29 -8 58q0 23 5 44q3 17 11 34q-14 -4 -26 -16q-17 -18 -31 -45t-26 -60q-11 -33 -20 -65.5t-15.5 -60.5t-9.5 -44q-22 -107 -38 -215t-31 -216t-30.5 -216
t-36.5 -215q-9 -43 -21 -99q-12 -55 -30.5 -114t-44.5 -115q-26 -57 -61 -101q-35 -45 -80 -72q-46 -28 -104 -28q-88 0 -133.5 43.5t-45.5 132.5q0 31 10.5 59t29.5 48.5t45.5 32.5t59.5 12q26 0 49 -9t39.5 -25t26.5 -38.5t10 -48.5q0 -34 -20 -62q15 6 27 22q19 24 32 55
q13 33 22 65q9 33 14 52q26 93 41.5 185t28.5 187q11 81 21.5 162.5t22.5 162.5q6 41 14.5 96.5t20.5 118t28 129.5t38 131t52 121q29 57 66 99q37 43 83 68q47 26 104 26q43 0 75 -14.5t53.5 -40.5t31.5 -60t10 -75z" />
    <glyph glyph-name="a2" unicode="&#xd3e;" horiz-adv-x="868" 
d="M869 466q0 -89 -22 -176q-21 -87 -67 -156q-46 -70 -119 -113q-37 -21 -81 -32t-95 -11q-70 0 -129.5 28.5t-103.5 76t-70 109.5t-28 129v2v3h2h3h89h2h2l1 -2v-2q5 -38 19 -72q13 -33 36 -58.5t54 -41.5q31 -15 71 -15q59 0 101 33q43 33 70 83t40 108.5t13 107.5
q0 34 -4.5 71.5t-14 74.5t-25.5 71t-40 60q-23 26 -55 41t-73 15q-47 0 -83.5 -20t-61 -53t-37.5 -75t-13 -84q0 -5 1 -7l3 -4l2 -4h-4h-5h-88h-2h-2l-1 2v2l-2 10q-1 6 -1 11q0 71 24 135.5t67 113t103.5 77t134.5 28.5q95 0 168 -41q72 -41 121.5 -107t74.5 -149.5
t25 -168.5z" />
    <glyph glyph-name="i1" unicode="&#xd3f;" horiz-adv-x="428" 
d="M431 -4h-187h-2h-3v2v3v968q0 32 -14 61t-37.5 50.5t-53 34t-61.5 12.5q-37 0 -64 -17q-27 -18 -44.5 -45t-24.5 -60.5t-3 -66.5v-3l1 -3h-3h-3l-88 -2h-2h-3v2v3l-2 26q-1 13 -1 26q0 64 22 116t61 88t92 56t115 20q58 0 113 -19t99 -53.5t71 -84.5t27 -112v-997v-3v-2
h-2h-3z" />
    <glyph glyph-name="i2" unicode="&#xd40;" horiz-adv-x="463" 
d="M464 1062l-8 -1061v-3v-2h-3h-2h-196h-2h-3v2v3l-1 1045q0 41 -11 75q-11 33 -33 57t-54 37.5t-74 13.5q-24 0 -49 -5q18 -3 37 -9q33 -9 62 -27t47 -45q19 -27 19 -63t-17 -62t-43.5 -43t-58 -25t-61.5 -8q-40 0 -77.5 11.5t-67.5 34.5t-48 57t-18 78q0 60 30 103
q31 44 77 72t100.5 41t104.5 13q63 0 125 -18.5t112.5 -56t81.5 -91.5t31 -124zM98 1113q0 16 -10 29t-26 22q-16 8 -33 13q-9 2 -17 3t-15 1q-31 0 -50 -16t-19 -48q0 -18 7 -32.5t19 -25t27 -16t32 -5.5q15 0 30 5.5t27.5 15.5t20.5 24q7 14 7 30z" />
    <glyph glyph-name="u1" unicode="&#xd41;" horiz-adv-x="730" 
d="M727 -172q0 -62 -22.5 -109t-61.5 -79t-90 -48.5t-109 -16.5t-109.5 16.5t-91 48.5t-63 79t-23.5 109q0 48 18 88t48.5 69t71.5 48q40 18 84 26q43 26 75 62q33 37 54.5 81t32.5 93t11 98q0 59 -15.5 116t-46 104.5t-76 81t-107.5 47.5l-2 1h-2v2v1l-23 195v4l-1 3h4
l3 -1q97 -17 172.5 -58.5t127.5 -104.5t79 -145t27 -180q0 -62 -9 -120t-30.5 -110.5t-56.5 -98.5q-32 -42 -79 -78q37 -9 71 -24q40 -19 70.5 -47.5t49.5 -66.5q19 -39 19 -86zM529 -150q0 26 -11 49.5t-30 41t-43 27.5q-23 11 -49 11q-27 0 -50.5 -10t-41.5 -27.5t-28 -41
t-10 -50.5q0 -58 36 -92t94 -34q27 0 51.5 9t42.5 25.5t28.5 40t10.5 51.5z" />
    <glyph glyph-name="u2" unicode="&#xd42;" horiz-adv-x="817" 
d="M822 -199q0 -68 -28.5 -122t-75.5 -91t-106.5 -56.5t-122.5 -19.5t-122.5 19.5t-106.5 56.5t-75.5 90.5t-28.5 121.5q0 61 24 110t64 84t93 56q51 21 107 26q39 26 69 61t49.5 76.5t30 87t10.5 91.5q0 59 -15.5 116.5t-45.5 105t-76 81t-108 47.5h-2l-1 1l-1 2v1l-28 195
v4l-1 3h3l4 -1q98 -17 173.5 -58.5t128 -104t80 -144.5t27.5 -181q0 -60 -9 -116t-29.5 -107t-54.5 -97q-31 -41 -75 -77q43 -11 84 -30q46 -22 82.5 -55.5t59.5 -77.5t23 -98zM498 -89q0 24 -13 44q-12 20 -34 29q-12 5 -23 5q-16 0 -28 -6q-13 -7 -22.5 -18t-14.5 -25
t-5 -29t5 -29t14.5 -25t22.5 -18q12 -6 28 -6q15 0 28 6.5t22.5 17.5t14.5 25t5 29zM641 -168q0 33 -14 63v-1q0 -36 -13 -67t-36 -53.5t-54 -35.5t-67 -13q-35 0 -66 12.5t-54 34t-36.5 51.5t-13.5 66q0 27 11 51q1 3 3 6q-14 -15 -25 -34q-21 -36 -21 -80q0 -39 16 -71
q17 -32 44 -55t62 -35.5t72 -12.5q36 0 70.5 12.5t62 36t43.5 55.5t16 70z" />
    <glyph glyph-name="r1" unicode="&#xd43;" horiz-adv-x="961" 
d="M961 -103q0 -65 -19.5 -112t-53 -79.5t-78.5 -52.5q-44 -20 -94 -31t-103 -14q-53 -4 -103 -4q-28 0 -64.5 3.5t-75 12t-76.5 22.5q-37 14 -67 34q-30 21 -48 50q-19 30 -19 68q0 33 15 59q14 24 37 42t54 31q29 12 60.5 19t62 10t54.5 3q76 0 149 -24q73 -25 128 -79
l1 -2l2 -2l-2 -1l-1 -2l-41 -53l-2 -3l-2 -2l-2 2l-2 3q-14 18 -36 31q-21 13 -45 21t-49.5 11.5t-48.5 3.5q-17 0 -39 -3q-22 -4 -41 -12t-32 -22t-13 -34q0 -25 16 -40q18 -17 42 -25q25 -9 52 -12t47 -3q55 0 98 10q42 10 70 33t42 62q15 39 15 97q0 36 -18 68
q-19 32 -48 63q-29 30 -61 61q-34 32 -63 65q-29 34 -48 73q-20 39 -20 85v538v2v3h3h2h177h3h2v-3v-2v-511q0 -50 21 -92q20 -43 51 -81q32 -39 68 -73q37 -35 68 -70q32 -34 53 -68q22 -36 22 -74z" />
    <glyph glyph-name="r2" unicode="&#xd44;" horiz-adv-x="976" 
d="M666 -244q0 -26 -13 -44q-14 -18 -34 -29q-8 -4 -17 -8q19 3 35 7q49 12 81.5 39.5t48.5 72.5q17 46 17 113q0 41 -16 75t-41 66t-54 62q-29 31 -54 64t-42 71t-17 84v536v3v2h2h3h170h3h2v-2v-3v-509q0 -50 17 -92t42.5 -79t55.5 -72q31 -35 57 -70q25 -34 43 -72
t18 -81q0 -73 -18 -125.5t-50.5 -88.5t-76.5 -58q-43 -22 -94.5 -33.5t-108.5 -15.5t-116 -4q-48 0 -108 8t-114 30q-54 23 -91 63q-37 41 -37 105q0 55 28 91t69 57t90 29q49 9 92 9q83 0 164 -26t143 -82l2 -2l2 -1l-2 -2l-1 -2l-51 -68l-2 -3l-2 -2l-2 2l-2 3
q-16 20 -38 34q5 -7 8 -14q9 -17 9 -38zM454 -266l1 3q0 7 1 13v13q0 12 -4 25q-3 9 -16 9q-15 0 -21 -10q-7 -10 -7 -25q0 -5 1 -11q2 -6 3 -12l1 -6l-46 -2l-1 3q-9 17 -9 34q0 41 27 59q26 18 63 18q16 0 31 -6q12 -5 23 -13q14 10 29 14q12 4 25 5q-8 1 -16 3
q-28 4 -55 4q-20 0 -45 -4t-46 -14q-22 -10 -37 -27q-14 -16 -14 -40q0 -31 19 -49q19 -20 47 -30q27 -11 58 -14q-3 1 -4 1q-18 8 -30 21q-13 13 -14 33v5h36zM474 -268v-3q0 -6 5 -10q6 -5 13 -7q8 -3 17 -4t15 -1q12 0 24.5 3t22.5 8q9 6 15 15t6 23q0 17 -11.5 28.5
t-28.5 11.5q-25 0 -25 -25q0 -9 1 -17q2 -9 2 -17v-3v-2h-2h-3h-51z" />
    <glyph glyph-name="e1" unicode="&#xd46;" horiz-adv-x="1194" 
d="M1199 438q0 -74 -22 -142.5t-61.5 -128.5t-93.5 -108.5t-118 -82.5l-1 -1l-1 -1l-2 1l-1 1l-78 52l-3 2l-3 2l3 2l3 2q43 32 75.5 74.5t53 91t31 101t10.5 105.5q0 79 -23.5 146.5t-69 117t-110 77.5t-145.5 28q-73 0 -139 -24.5t-117.5 -69t-83.5 -106.5
q-28 -54 -36 -117q14 19 29 35q24 24 51.5 42.5t58.5 29t65 10.5q64 0 115.5 -25t87.5 -67t56 -97t20 -115q0 -62 -19.5 -115.5t-55 -93t-87 -62.5t-115.5 -23q-87 0 -147.5 34.5t-96.5 91.5q-37 56 -53 128t-16 147q0 117 36.5 217t104.5 173t165 114.5t217 41.5
q107 0 201 -35t164 -99t110.5 -154t40.5 -200zM565 274q0 31 -11.5 59.5t-32 50.5t-48 35t-59.5 13t-56 -11t-41 -31t-25.5 -46t-8.5 -56t10 -61.5t28.5 -56t45.5 -40.5q25 -15 59 -15q30 0 55 14q26 14 45 36.5t29 51t10 57.5z" />
    <glyph glyph-name="e2" unicode="&#xd47;" horiz-adv-x="986" 
d="M990 220q0 -32 -10 -61q-9 -28 -26 -53q-17 -24 -39 -44q-21 -20 -45 -34q-26 -17 -54 -28.5t-58 -16.5q-59 -12 -118 -12q-97 0 -185 32q-88 33 -153 94q-66 61 -104 151q-39 90 -38 205q-1 116 37 206t103 151t152 94q86 32 186 32q52 0 113 -14q62 -14 115 -46
q52 -32 88 -83q37 -52 36 -125q0 -48 -15 -84q-16 -36 -43 -60q-26 -24 -63 -37q-35 -12 -76 -12q-39 0 -76 11q-36 12 -65 34q-28 24 -45 59q-17 36 -17 85q0 27 9 52q9 24 23 46q14 20 32 38q11 10 23 20q-12 4 -24 5q-20 3 -43 3q-48 0 -96 -34t-79 -89q-30 -55 -47 -121
q-18 -73 -18 -131q0 -64 19 -141q20 -79 48 -120q35 -52 87 -84t108 -32q20 0 42 7q-11 6 -21 13q-18 14 -34 33q-14 18 -23 42q-9 23 -9 51q0 48 18 85q18 36 48 61q30 23 67 36t76 13q43 0 79 -11q36 -13 62 -37t40 -62q14 -40 13 -87zM894 689q0 22 -9 39
q-10 19 -24.5 33t-33.5 23q-16 8 -32 13q-35 -22 -51 -58q-17 -41 -17 -88q0 -15 6 -28t16.5 -23t23.5 -15q12 -6 25 -6q49 0 72 27q24 28 24 83zM894 226q0 43 -24 65q-25 22 -62 22q-33 0 -57 -23q-24 -22 -24 -62q0 -44 18 -75q18 -28 50 -48q17 5 33 15q19 11 33.5 27
t23.5 37q9 20 9 42z" />
    <glyph glyph-name="ai1" unicode="&#xd48;" horiz-adv-x="2334" 
d="M2339 438q0 -74 -22 -142.5t-61.5 -128.5t-93.5 -108.5t-118 -82.5l-1 -1l-1 -1l-2 1l-1 1l-78 52l-3 2l-3 2l3 2l3 2q43 32 75.5 74.5t53 91t31 101t10.5 105.5q0 79 -23.5 146.5t-69 117t-110 77.5t-145.5 28q-73 0 -139 -24.5t-117.5 -69t-83.5 -106.5
q-28 -54 -36 -117q14 19 29 35q24 24 51.5 42.5t58.5 29t65 10.5q64 0 115.5 -25t87.5 -67t56 -97t20 -115q0 -62 -19.5 -115.5t-55 -93t-87 -62.5t-115.5 -23q-87 0 -147.5 34.5t-96.5 91.5q-37 56 -53 128t-16 147q0 117 36.5 217t104.5 173t165 114.5t217 41.5
q107 0 201 -35t164 -99t110.5 -154t40.5 -200zM1199 438q0 -74 -22 -142.5t-61.5 -128.5t-93.5 -108.5t-118 -82.5l-1 -1l-1 -1l-2 1l-1 1l-78 52l-3 2l-3 2l3 2l3 2q43 32 75.5 74.5t53 91t31 101t10.5 105.5q0 79 -23.5 146.5t-69 117t-110 77.5t-145.5 28
q-73 0 -139 -24.5t-117.5 -69t-83.5 -106.5q-28 -54 -36 -117q14 19 29 35q24 24 51.5 42.5t58.5 29t65 10.5q64 0 115.5 -25t87.5 -67t56 -97t20 -115q0 -62 -19.5 -115.5t-55 -93t-87 -62.5t-115.5 -23q-87 0 -147.5 34.5t-96.5 91.5q-37 56 -53 128t-16 147
q0 117 36.5 217t104.5 173t165 114.5t217 41.5q107 0 201 -35t164 -99t110.5 -154t40.5 -200zM1705 274q0 31 -11.5 59.5t-32 50.5t-48 35t-59.5 13t-56 -11t-41 -31t-25.5 -46t-8.5 -56t10 -61.5t28.5 -56t45.5 -40.5q25 -15 59 -15q30 0 55 14q26 14 45 36.5t29 51
t10 57.5zM565 274q0 31 -11.5 59.5t-32 50.5t-48 35t-59.5 13t-56 -11t-41 -31t-25.5 -46t-8.5 -56t10 -61.5t28.5 -56t45.5 -40.5q25 -15 59 -15q30 0 55 14q26 14 45 36.5t29 51t10 57.5z" />
    <glyph glyph-name="o1" unicode="&#xd4a;" horiz-adv-x="2563" 
d="M2568 182q0 -69 -29 -126t-76.5 -97.5t-109 -62.5t-127.5 -22h-1726q-66 0 -127 22.5t-108.5 62.5t-76 97t-28.5 126v700q0 69 28.5 126.5t75.5 98.5t108.5 63.5t127.5 22.5h1726q65 0 126.5 -23t109.5 -64t77 -98.5t29 -125.5v-700zM2446 288v494q0 66 -27.5 119.5
t-73.5 91.5t-104.5 58.5t-120.5 20.5h-1514q-62 0 -120.5 -20.5t-104 -58.5t-72.5 -91.5t-27 -119.5v-494q0 -65 28 -117t73.5 -89t104 -57t118.5 -20h1514q61 0 120 19.5t104.5 56.5t73.5 89t28 118zM2326 523q0 -77 -14 -150q-13 -73 -48 -130t-95.5 -91.5t-151.5 -34.5
q-56 0 -107 10t-90 35q-40 25 -63 68.5t-23 107.5q0 9 0.5 17.5t1.5 18.5v2l1 2h2h2h79h2h2l1 -2v-2q9 -62 37.5 -89t92.5 -27q61 0 96 23.5t53 62.5q18 38 23 87q4 49 4 98q0 37 -4 84q-5 47 -20 88t-44 69q-28 27 -76 27q-45 0 -74 -13.5t-47 -37.5q-17 -23 -27 -56
q-9 -33 -14 -73v-2l-1 -2h-2h-2h-79h-3h-2v3v2v4q0 70 14 123q13 53 44.5 89t82.5 55q51 18 125 18q89 0 151 -30t101 -82t55 -122q17 -69 17 -150zM1665 414h-224h-3h-2v2v3v107v2v3h2h3h224h3h2v-3v-2v-107v-3v-2h-2h-3zM1376 510q0 -67 -25 -126t-64.5 -109.5t-90.5 -92
t-102 -74.5l-1 -1l-2 -1l-1 1h-1l-94 43l-4 2l-4 2l4 3l3 2q81 57 128 136q46 78 46 179q0 69 -28 126t-75 97.5t-108 62.5t-127 22q-74 0 -135 -25t-107 -69.5t-76 -105.5q-29 -59 -40 -129l2 -2q17 27 37 52q23 28 51.5 48.5t60.5 33.5q33 13 71 13q51 0 97 -21t80 -56.5
t54.5 -82t20.5 -97.5q0 -53 -19.5 -94.5t-52 -70t-77.5 -44t-95 -15.5q-75 0 -134 20q-59 21 -109 80q-35 42 -54 94.5t-19 108.5q0 103 36.5 192.5t100.5 154.5t152.5 102.5t192.5 37.5q57 0 116.5 -11t116 -33.5t106.5 -55t87.5 -76.5t59.5 -99.5t22 -121.5zM779 365
q0 27 -10.5 49t-28.5 38.5t-41.5 25.5t-49.5 9q-25 0 -49.5 -8t-43.5 -22t-31 -36q-12 -21 -12 -48q0 -23 10 -45t27 -40t39 -29q21 -11 44 -11q26 0 52.5 7.5t47 21.5t33.5 37q13 21 13 51z" />
    <glyph glyph-name="o2" unicode="&#xd4b;" horiz-adv-x="2355" 
d="M2360 185q0 -69 -28.5 -126t-75.5 -97t-108.5 -62t-127.5 -22h-1520q-66 0 -127.5 22t-108.5 62t-75.5 97t-28.5 126v698q0 69 28.5 126.5t75.5 98t108.5 63t127.5 22.5h1520q65 0 126.5 -22.5t109 -63.5t76 -98t28.5 -126v-698zM2259 261v520q0 66 -28 120t-73.5 92
t-105 58.5t-121.5 20.5h-1317q-63 0 -121.5 -20.5t-104 -58.5t-72.5 -92t-27 -120v-520q0 -65 28 -117q28 -53 73.5 -90t104 -57t119.5 -20h1317q61 0 120 19.5t105 56.5t75 90q28 52 28 118zM2101 520q0 -77 -14 -150q-13 -74 -48 -131q-34 -57 -94 -92t-151 -35
q-59 0 -110 11q-51 10 -89 36q-39 27 -61 71t-22 110q0 8 0.5 17t1.5 19v2l1 2h2h2h76h2h2l1 -2v-2q7 -36 18 -60q11 -23 28 -35.5t42 -18.5q26 -5 62 -5q53 0 84 26t47 66t21 87q4 47 4 89q0 25 -2 54.5t-7.5 59.5t-15.5 57q-10 28 -27 49q-16 21 -39.5 33.5t-55.5 12.5
q-46 0 -74 -13q-28 -12 -44 -35q-17 -23 -26 -55q-9 -33 -15 -73v-2l-1 -2h-2h-2h-76h-3h-2v3v2v6q0 70 14 122q14 53 45.5 89t82.5 55q51 18 124 18q90 0 151.5 -30t99.5 -83t54 -123t16 -150zM1443 429h-226h-3h-2v3v2v105v3v2h2h3h226h3h2v-2v-3v-105v-2v-3h-2h-3z
M1148 331q0 -40 -16 -71t-43 -54q-26 -23 -61 -40q-34 -16 -70.5 -25.5t-73 -14t-67.5 -4.5q-96 0 -174 25q-79 25 -134 74.5t-85.5 124t-30.5 173.5q0 94 29.5 167t83.5 122.5t130 75.5q75 25 167 25q32 0 70 -4t76 -13.5t74 -25.5t63.5 -39.5t44.5 -55.5q17 -33 17 -74
q0 -80 -42 -120.5t-122 -40.5q-39 0 -74 8t-62 27q-28 19 -44 49t-16 74q0 40 20 73q17 29 47 50q-12 7 -23 9q-15 2 -33 2q-69 0 -111.5 -28t-67.5 -72q-24 -45 -33 -101t-9 -113t9 -113t33 -101q25 -44 67.5 -71.5t111.5 -27.5q28 0 54 10q-29 17 -46 42q-19 29 -19 69
t16 68.5t43 47.5q26 18 59 26t69 8q32 0 62 -8q31 -8 56 -26t40 -44.5t15 -62.5zM1062 699q0 44 -23.5 66.5t-65.5 30.5q-12 -5 -21 -14q-10 -11 -16.5 -25t-10 -29t-3.5 -27q0 -34 14 -59q14 -23 51 -23q40 0 57 21q18 21 18 59zM1062 331q0 15 -6.5 26.5t-17 19t-24.5 12
t-27 4.5q-33 0 -49 -17t-16 -50q0 -30 13 -56q12 -24 39 -38q40 9 64 32t24 67z" />
    <glyph glyph-name="au1" unicode="&#xd4c;" horiz-adv-x="1358" 
d="M1361 469q0 -119 -40.5 -211.5t-109 -156t-159.5 -95.5q-91 -33 -191 -33q-37 0 -81 6.5t-89 20.5t-88 35q-43 22 -77 53t-56 71q-22 41 -25 92v6l-1 2v3h3h3h5h102h5h3h2v-2v-3v-5q1 -27 14 -49q14 -22 35 -40q22 -18 49 -31.5t55 -21.5q29 -8 55.5 -12.5t47.5 -4.5
q75 0 135.5 28t104 78t66.5 119q23 70 23 152q0 54 -12 110q-12 55 -38 101q-26 44 -65 72t-93 28q-29 0 -55 -8q-25 -8 -45 -24q-19 -16 -30.5 -41t-11.5 -60v-261v-5v-2v-3h-2h-3h-5h-192h-5h-3h-2v3v2v5v204q0 39 -9 75q-8 36 -25 64q-18 27 -44 44q-26 16 -64 16
q-53 0 -89 -24q-37 -24 -59 -63q-23 -41 -33 -91q-10 -51 -10 -104q0 -59 17 -116l2 -6l1 -3l1 -3h-3h-3l-6 -1l-82 -7h-4h-2l-2 -1l-1 2v2l-1 4q-13 37 -18 76q-6 38 -6 77q0 90 22 163q22 74 65 126t108 80t149 28q80 0 140 -36q55 -32 99 -92q45 66 110 96q71 32 151 32
q86 0 155 -39q68 -38 115 -103q48 -64 72 -147q25 -83 25 -171z" />
    <glyph glyph-name="xx" unicode="&#xd4d;" horiz-adv-x="41" 
d="M362 1198q0 -67 -27.5 -118.5t-73.5 -86.5t-104 -52t-119 -17t-119 16t-105 50t-75.5 84.5t-28.5 118.5q0 24 4 49t16 47v2l1 1h1h2h195h4h5l-2 -4l-3 -4q-16 -27 -16 -60q0 -69 42 -108t109 -39q36 0 66.5 11t53 32.5t35.5 50.5t13 66q0 26 -10 48l-1 4l-2 3h4h4h115h2
h2v-2l1 -2q6 -22 8.5 -44.5t2.5 -45.5z" />
    <glyph glyph-name="dotreph" unicode="&#xd4e;" horiz-adv-x="0" 
d="M-710 1194q0 -2 -5 -15l-5 -15q-6 -17 -15 -36q-9 -21 -21 -37q-13 -17 -30 -28q-18 -11 -41 -11q-28 0 -48 15q-19 15 -33 36q-13 22 -24 46q-10 24 -18 43v1v1v79v1v1l1 1v1q23 22 52 43q30 22 65 22q36 0 67 -22q30 -21 53 -43l1 -1l1 -1v-1v-1v-79z" />
    <glyph glyph-name="para" unicode="&#xd4f;" horiz-adv-x="1695" 
d="M966 -331q-131 0 -242 28.5t-201 80t-158 124t-114 161t-69.5 190.5t-23.5 212q0 52 4.5 100.5t14.5 96.5t26.5 97t40.5 101l75 -82q-33 -80 -46 -155.5t-13 -158.5q0 -132 42 -247.5t125.5 -201.5t208 -135.5t289.5 -49.5q163 0 279.5 49t190.5 133.5t108.5 197
t33.5 239.5q0 39 -6 82.5t-18.5 85t-33 79.5t-49 67t-67 46t-87.5 17q-33 0 -59 -13t-44 -35t-27.5 -51t-9.5 -60v-666h-176v577q0 48 -8.5 91.5t-30 75.5t-59 51t-95.5 19q-62 0 -112.5 -26.5t-88 -69t-61 -96t-32.5 -107.5q26 37 62.5 58.5t81.5 21.5q60 0 103.5 -32
t71.5 -79.5t41 -102.5t13 -100t-11.5 -98t-38.5 -98.5t-70 -75.5t-106 -30q-56 0 -96 21t-68.5 55.5t-46 79t-27 91t-13 92t-3.5 81.5q0 59 9.5 124.5t30 129.5t53.5 122t80 102.5t109.5 71t142.5 26.5q48 0 92.5 -7.5t81.5 -27t66 -52.5t47 -84q17 37 40.5 68t52.5 54
t64 36t76 13q75 0 133 -22t101 -59.5t73 -87.5t48 -106.5t26 -116.5t8 -116q0 -105 -19 -205t-58 -188.5t-98.5 -163t-141 -128.5t-185.5 -84t-232 -30zM578 447q-24 0 -43.5 -15t-33 -37t-20.5 -47t-7 -45q0 -23 6 -54.5t19.5 -60t35 -48t51.5 -19.5q28 0 50 17t36 42
t21.5 53t7.5 50q0 24 -8 52.5t-24 53.5t-38.5 41.5t-52.5 16.5z" />
    <glyph glyph-name="m1cil" unicode="&#xd54;" horiz-adv-x="1126" 
d="M159 0v447q0 61 5 126t21 127t46.5 116t81.5 93q-25 46 -43 89.5t-32 87.5t-25 91t-22 100h190q7 -45 15.5 -84t17.5 -75t19.5 -71.5t21.5 -73.5q22 6 45.5 8.5t48.5 2.5q65 0 121.5 -32.5t98.5 -83t66 -111t24 -116.5q0 -69 -26.5 -131t-70.5 -121q75 -85 163.5 -162.5
t197.5 -152.5v-74h-964zM512 838h-14.5t-13.5 -2q31 -81 67.5 -155t82.5 -146q17 62 17 127q0 33 -8.5 64.5t-26 56t-43.5 40t-61 15.5zM682 302q-50 -57 -105.5 -106t-109.5 -91h457q-66 47 -125.5 96t-116.5 101zM375 767q-27 -30 -44.5 -69t-27.5 -80t-14 -82t-4 -76
v-365q45 31 88 67t82 76t72 83.5t59 90.5q-63 84 -116 172t-95 183z" />
    <glyph glyph-name="y1cil" unicode="&#xd55;" horiz-adv-x="1640" 
d="M1572 1101q-24 22 -47 32t-50 10q-32 0 -59.5 -12.5t-48 -35t-32.5 -54.5t-12 -70q0 -21 7.5 -43.5t21.5 -48.5q14 -25 31 -52t35 -57t35 -63t30.5 -70t22 -78.5t8.5 -87.5q0 -117 -33 -208.5t-94 -154.5t-147.5 -95.5t-192.5 -32.5q-42 0 -82 11t-78 30
q-45 -16 -90.5 -28.5t-92.5 -12.5q-113 0 -213 39t-174.5 112t-117.5 178.5t-43 239.5q0 74 18 150.5t55.5 139t95.5 102t137 39.5q39 0 73 -16t63.5 -43t53 -62t40.5 -73q21 46 52 82t68 61t78.5 38t84.5 13q67 0 120.5 -34.5t91.5 -89.5t58.5 -122.5t20.5 -133.5
q0 -162 -67.5 -285.5t-201.5 -203.5q19 -5 37 -7t38 -2q76 0 139 29.5t108 81.5t70 123t25 153q0 42 -9.5 79t-25.5 71t-36.5 65.5t-42.5 62.5t-42.5 62t-37.5 65q-17 35 -26.5 72t-9.5 79q0 54 20 97.5t53 74t76 47t90 16.5q30 0 56.5 -5t51 -17.5t47.5 -33t46 -51.5z
M903 826q-48 0 -83 -28t-58.5 -71.5t-35 -96.5t-11.5 -102q0 -57 12 -112.5t35.5 -104.5t58 -90t78.5 -71q45 25 78 65.5t54.5 90t32.5 104.5t11 111q0 47 -8.5 100.5t-29 99t-53.5 75.5t-81 30zM560 528q0 40 -6.5 89t-22.5 92t-43.5 72t-69.5 29t-70.5 -28t-46 -69.5
t-25.5 -90t-8 -89.5q0 -102 32.5 -182t89.5 -135.5t134.5 -84.5t167.5 -29q23 0 46 1.5t46 7.5q-50 31 -91.5 78.5t-71 103.5t-45.5 116.5t-16 118.5z" />
    <glyph glyph-name="zhcil" unicode="&#xd56;" horiz-adv-x="1375" 
d="M840 136q-75 0 -154.5 7.5t-155.5 25.5t-144 49t-119.5 78t-81.5 112.5t-30 151.5q0 93 34 164.5t106 134.5l93 -83q-44 -48 -62.5 -96t-18.5 -108q0 -71 24 -121.5t65.5 -85.5t96 -56t116 -32.5t126.5 -15t126 -3.5q45 0 89 5.5t86 17.5q43 13 80.5 32.5t65.5 47.5
t44 63.5t16 80.5q0 40 -8.5 78.5t-26.5 69t-45 49t-64 18.5q-39 0 -69 -15.5t-50 -42t-30.5 -60.5t-10.5 -71t8 -69.5t21.5 -62.5t31 -59t37.5 -59q14 -23 28.5 -45.5t28.5 -47.5q15 -29 27 -60t18 -66q12 -70 -19.5 -124.5t-86.5 -91.5t-121.5 -56.5t-124.5 -19.5
q-92 0 -163.5 32.5t-120.5 90.5t-74.5 136t-25.5 170q0 61 12.5 121.5t33.5 118t47.5 112.5t53.5 106t53.5 96.5t46.5 85.5q21 41 33 73t12 55q0 71 -38.5 109.5t-98.5 38.5q-48 0 -88 -26t-63 -77l-72 32q10 57 34 101.5t58 75.5t76.5 47t90.5 16t91 -16.5t76 -47.5t52 -75
t19 -99q0 -50 -14 -98t-37 -96t-51.5 -95t-58.5 -95t-58.5 -97.5t-51 -100.5t-36 -104.5t-13.5 -109.5q0 -66 15 -130t46 -114t78.5 -81t112.5 -31q37 0 74.5 18t66 45t43.5 60t9 64q-8 38 -20 74t-31 71q-16 30 -33 56t-34 50q-17 25 -32.5 49.5t-27.5 52t-19 58.5t-7 69
q0 63 19.5 121t57 101.5t92 69.5t124.5 26q80 0 141.5 -31.5t103.5 -83t63.5 -118.5t21.5 -137q0 -88 -37.5 -152.5t-98.5 -109t-139 -70.5t-159 -35q-51 -6 -101 -6z" />
    <glyph glyph-name="au2" unicode="&#xd57;" horiz-adv-x="1356" 
d="M1361 469q0 -119 -40.5 -211.5t-109 -156t-159.5 -95.5q-91 -33 -191 -33q-37 0 -81 6.5t-89 20.5t-88 35q-43 22 -77 53t-56 71q-22 41 -25 92v6l-1 2v3h3h3h5h102h5h3h2v-2v-3v-5q1 -27 14 -49q14 -22 35 -40q22 -18 49 -31.5t55 -21.5q29 -8 55.5 -12.5t47.5 -4.5
q75 0 135.5 28t104 78t66.5 119q23 70 23 152q0 54 -12 110q-12 55 -38 101q-26 44 -65 72t-93 28q-29 0 -55 -8q-25 -8 -45 -24q-19 -16 -30.5 -41t-11.5 -60v-261v-5v-2v-3h-2h-3h-5h-192h-5h-3h-2v3v2v5v204q0 39 -9 75q-8 36 -25 64q-18 27 -44 44q-26 16 -64 16
q-53 0 -89 -24q-37 -24 -59 -63q-23 -41 -33 -91q-10 -51 -10 -104q0 -59 17 -116l2 -6l1 -3l1 -3h-3h-3l-6 -1l-82 -7h-4h-2l-2 -1l-1 2v2l-1 4q-13 37 -18 76q-6 38 -6 77q0 90 22 163q22 74 65 126t108 80t149 28q80 0 140 -36q55 -32 99 -92q45 66 110 96q71 32 151 32
q86 0 155 -39q68 -38 115 -103q48 -64 72 -147q25 -83 25 -171z" />
    <glyph glyph-name="arakaani" unicode="&#xd58;" horiz-adv-x="1884" 
d="M1528 -20q-88 0 -154 45t-111 123q-35 -76 -97.5 -120t-141.5 -44q-36 0 -69 13t-60.5 35.5t-50.5 52t-39 63.5q-38 -73 -100.5 -118.5t-141.5 -45.5q-61 0 -109.5 23t-85.5 61t-63 88t-43 103t-24.5 106.5t-7.5 99.5q0 66 12.5 138.5t40.5 141.5t72.5 129.5t107.5 102.5
l68 -62q-52 -31 -88 -78.5t-58.5 -103t-33 -114.5t-10.5 -113q0 -50 11 -111t37 -114t67.5 -88.5t103.5 -35.5q37 0 63.5 19.5t42.5 49t23.5 64.5t7.5 67v552h167v-586q0 -29 9 -61.5t26 -61t41.5 -47t56.5 -18.5q40 0 70 17.5t49.5 46t29 64.5t9.5 72v574h166v-580
q0 -34 11.5 -69t32.5 -63t51 -46t68 -18q48 0 84 26t61 67.5t40.5 94.5t24.5 107t12 104t3 87q0 60 -8.5 124.5t-28 125.5t-50.5 116.5t-75 96.5t-102.5 65.5t-133.5 24.5q-64 0 -135 -26l-46 110q46 19 88.5 27.5t85.5 8.5q101 0 184 -28t148 -76.5t112.5 -115t78.5 -144
t46 -161.5t15 -169q0 -53 -5.5 -119t-20.5 -135t-40.5 -134.5t-65.5 -116.5t-96 -82t-132 -31z" />
    <glyph glyph-name="aramaa" unicode="&#xd59;" horiz-adv-x="1481" 
d="M1290 406h-280v-179q0 -50 -16 -95.5t-45 -80t-70 -55.5t-91 -21q-59 0 -103.5 26.5t-75 70t-46 99t-15.5 113.5q0 56 16 103.5t45 82t70 54t92 19.5h64v3q0 62 -17.5 113.5t-51 89t-83.5 58t-116 20.5q-84 0 -139.5 -37.5t-88.5 -98t-46.5 -137t-13.5 -155.5
q0 -108 28 -201.5t101 -171.5l-61 -57q-105 91 -150.5 208t-45.5 255q0 105 22.5 204t72.5 175t130.5 122t196.5 46q102 0 182 -32.5t135 -91t84 -138.5t30 -174h83q-21 52 -21 109q0 46 16 86.5t44 70.5t67 47.5t86 17.5q48 0 84.5 -19t62 -51.5t38.5 -75t13 -89.5
q0 -45 -12.5 -87t-36.5 -74.5t-58.5 -52t-79.5 -19.5zM1244 741q-18 0 -33 -8.5t-25.5 -22.5t-16.5 -31.5t-6 -36.5q0 -18 6 -35.5t16.5 -31t25 -22t32.5 -8.5t33.5 8t26 21.5t16.5 30.5t6 35t-6 36.5t-16.5 32.5t-25.5 23t-33 9zM843 406h-91q-24 0 -41 -11t-28 -29
t-16 -41t-5 -48t5 -52t16 -50t28.5 -38t41.5 -15q22 0 39 10.5t28 28.5t17 41t6 48v156z" />
    <glyph glyph-name="muunnukaani" unicode="&#xd5a;" horiz-adv-x="1488" 
d="M741 2v81q60 49 113.5 107.5t93 126.5t62.5 145t23 161q0 29 -6.5 60t-20 56.5t-34 42t-48.5 16.5q-41 0 -71 -16t-49.5 -45t-27.5 -69t-5 -87h-123q1 49 -6 89.5t-25 70t-47.5 46t-72.5 16.5q-60 0 -103 -31t-70.5 -80.5t-40 -111t-12.5 -123.5q0 -56 10 -114t31 -112
t52.5 -101.5t74.5 -80.5l-59 -68q-57 43 -99.5 101.5t-70 125.5t-41.5 139.5t-14 144.5q0 91 22 178t66.5 155t112 109.5t159.5 41.5q66 0 116 -29.5t96 -89.5q39 45 77 69t78 35q42 12 85.5 13.5t86.5 1.5q125 0 209 -37.5t135 -108t72.5 -170.5t21.5 -224v-434h-751z
M1316 450q0 74 -9.5 144t-36.5 125q-26 54 -78 92q-43 32 -114 29q57 -45 86.5 -107.5t29.5 -131.5q0 -79 -26.5 -149t-68.5 -131.5t-95 -115.5t-106 -102h418v347z" />
    <glyph glyph-name="orumaa" unicode="&#xd5b;" horiz-adv-x="1449" 
d="M1027 -21q-97 0 -175 40.5t-133 110t-84.5 161t-29.5 193.5q0 48 7 100.5t23.5 103t44 95t68.5 77.5h-409v-854h-184v955h788v-88q-42 -27 -72 -67.5t-49.5 -88.5t-28.5 -101t-9 -105q0 -69 20 -133t56.5 -112.5t88.5 -77.5t115 -29q65 0 116 34t86 88.5t53.5 123
t18.5 137.5q0 60 -13 115t-38.5 102.5t-63.5 86t-87 64.5l49 71q69 -38 119 -90t81.5 -115.5t46.5 -137t15 -154.5q0 -103 -29.5 -195t-84 -161t-132.5 -109t-174 -40z" />
    <glyph glyph-name="rantumaa" unicode="&#xd5c;" horiz-adv-x="2282" 
d="M1916 -19q-71 0 -129.5 32t-100.5 84.5t-65.5 121t-23.5 142.5v220q0 44 -9.5 84t-29 70.5t-48 48.5t-65.5 18q-45 0 -79.5 -25t-57 -64.5t-34 -89t-11.5 -98.5v-183q0 -72 -22 -138.5t-63.5 -116.5t-102 -80t-136.5 -30q-80 0 -137 34t-94.5 89t-55 124t-17.5 139v216
q0 39 -9.5 79t-27.5 72.5t-45 52.5t-61 20q-51 0 -89 -31.5t-63 -80.5t-38 -108.5t-14 -114.5q-1 -64 6.5 -123.5t27 -113t52 -101t80.5 -87.5l-64 -55q-63 45 -106.5 100t-70.5 118t-39 134t-12 149t20.5 158t62.5 156q20 38 46 70.5t57.5 56t68.5 37t79 13.5
q68 0 124 -30.5t96 -81t62 -115.5t22 -135v-232q0 -47 9.5 -96t30.5 -89t54 -65.5t80 -25.5q49 0 82 27t52 69t27 93.5t8 99.5v199q0 71 21 139.5t60.5 122.5t96.5 87t128 33q65 0 123 -26t101.5 -71t68.5 -106t25 -131v-187q0 -54 8 -108t26.5 -97.5t49.5 -70.5t78 -27
q56 0 99 35.5t72.5 90t44.5 119t15 122.5q0 62 -8.5 116.5t-28.5 101.5t-52.5 88.5t-80.5 78.5l52 75q64 -47 108.5 -102t71.5 -118.5t39 -135t12 -151.5q0 -83 -23.5 -171t-69 -160t-112 -118t-152.5 -46z" />
    <glyph glyph-name="muunnumaa" unicode="&#xd5d;" horiz-adv-x="2986" 
d="M2658 -24q-55 0 -106 24.5t-90 68t-62.5 102t-23.5 126.5v213q0 51 -7 102.5t-24.5 93.5t-46.5 68.5t-74 26.5q-47 0 -83 -22t-61 -60.5t-38 -90.5t-13 -111v-223q0 -73 -21 -131.5t-59.5 -100t-92 -64t-118.5 -22.5q-80 0 -138 31t-95 84t-54.5 125t-17.5 153v212
q0 48 -8 88.5t-25.5 70.5t-45 46.5t-67.5 16.5q-48 0 -78 -21t-46.5 -56.5t-22 -83.5t-5.5 -102v-217q0 -78 -23.5 -142t-65 -109.5t-97.5 -70.5t-121 -25q-36 0 -72 10.5t-69 31.5t-61.5 52.5t-49.5 73.5q-40 -85 -101 -126.5t-131 -41.5q-65 0 -115.5 38.5t-95.5 111.5
l95 84q29 -46 60.5 -66.5t69.5 -20.5q30 0 60.5 11t55 33t40 55t15.5 76v651h167v-568q0 -46 10.5 -88t30 -74.5t48.5 -51.5t67 -19q37 0 66.5 19.5t49.5 52.5t30.5 76.5t10.5 90.5v216q0 78 17 146t51.5 119t88 80.5t125.5 29.5q68 0 123 -23.5t93.5 -68t59 -108.5
t20.5 -145v-195q0 -53 6 -111.5t24 -107.5t50 -80.5t83 -31.5q42 0 74 22.5t54 59.5t33 84t11 97v220q0 81 21 152t60.5 123.5t96.5 82.5t128 30q62 0 117.5 -26t97.5 -72.5t66.5 -109.5t24.5 -138v-201q0 -48 7 -95.5t24 -86t45 -62t69 -23.5q52 0 91 34t65 87t39 117
t13 124q0 127 -39 220.5t-131 160.5l46 75q63 -41 106 -95.5t70 -118.5t39 -137t12 -152q0 -87 -21.5 -176t-63.5 -162t-104 -119t-143 -46z" />
    <glyph glyph-name="naalumaa" unicode="&#xd5e;" horiz-adv-x="1999" 
d="M1732 424q-59 0 -110 20t-88 57t-58 89.5t-21 118.5q0 45 15.5 87.5t44.5 77.5h-194v-218q0 -44 -12 -86t-36 -74.5t-59 -52t-80 -19.5h-116v-196q0 -49 -16 -94.5t-45.5 -80t-70.5 -55t-91 -20.5q-59 0 -104 26.5t-75.5 70t-46 98.5t-15.5 113q0 55 15.5 105.5t45 88.5
t70.5 60.5t92 22.5h65v4q1 60 -19.5 107t-57 79.5t-86 50t-106.5 17.5q-77 0 -131.5 -33.5t-89.5 -89.5t-51.5 -128.5t-16.5 -150.5q0 -106 28.5 -203.5t101.5 -174.5l-62 -59q-53 45 -90 98.5t-60.5 113t-34.5 124.5t-11 133q0 105 26.5 199.5t79.5 166.5t132.5 114
t184.5 42q84 0 161.5 -29t137.5 -82.5t96 -129t38 -169.5l74 3q18 1 33 10.5t26 24.5t17 34.5t6 40.5v283h545v-56q-49 -23 -75.5 -69.5t-26.5 -103.5q0 -36 10 -65.5t29 -51.5t45.5 -34t59.5 -12q36 0 66 14.5t52.5 40t35 60t12.5 75.5q0 50 -20 92t-62 71l51 61
q63 -47 95 -112t32 -140q0 -69 -21.5 -125.5t-59.5 -96t-90.5 -61.5t-113.5 -22zM850 424h-91q-24 0 -41 -13.5t-28 -34.5t-16.5 -46.5t-5.5 -50.5q0 -24 5 -51t16 -49.5t28.5 -37t42.5 -14.5q22 0 39 10.5t28 28t17 40t6 46.5v172z" />
    <glyph glyph-name="archaic_ii" unicode="&#xd5f;" horiz-adv-x="2339" 
d="M2054 -20q-58 0 -108 21t-86.5 58t-57 86.5t-20.5 105.5q0 57 22 107t59.5 87t88 58t107.5 21t107.5 -22t87.5 -59.5t58.5 -88t21.5 -107.5q0 -58 -22.5 -107t-60.5 -84.5t-89 -55.5t-108 -20zM1434 -21q-77 0 -136 28t-100 73.5t-62 104t-21 120.5q0 64 12.5 125
t41.5 114.5t75.5 97t114.5 72.5q-32 13 -67 18.5t-72 5.5q-83 0 -146 -33t-105 -86.5t-63.5 -121.5t-21.5 -138q0 -98 41.5 -176.5t127.5 -144.5l-69 -56q-64 39 -108 86t-71.5 101.5t-40 115.5t-12.5 127q0 100 31 191.5t91.5 161.5t150.5 112t208 42q122 0 218 -39.5
t162.5 -108.5t101.5 -162.5t35 -201.5q0 -44 -6.5 -93t-21.5 -96.5t-39.5 -91t-59.5 -76t-82 -52t-107 -19.5zM421 -20q-90 0 -155.5 46t-97.5 120q-20 49 -20 105q0 57 22 107t59.5 87t88.5 58t108 21t107 -22t87 -59.5t58.5 -88t21.5 -107.5q0 -58 -22.5 -107t-60.5 -84.5
t-88.5 -55.5t-107.5 -20zM2023 397q-32 0 -60 -11.5t-49 -31.5t-33.5 -46t-12.5 -56t12 -56.5t32.5 -46t48.5 -31t60 -11.5q31 0 59 11.5t49.5 31t34 45.5t12.5 56t-12 56.5t-33 46.5t-49 31.5t-59 11.5zM1458 651q-54 -13 -95 -42t-68.5 -69t-41.5 -87.5t-14 -97.5
q0 -35 9.5 -73.5t29 -70t50.5 -52t74 -20.5q42 0 70.5 27t46 66t25 82.5t7.5 75.5q0 70 -21 138.5t-72 122.5zM389 397q-32 0 -60 -11.5t-49 -31.5t-33.5 -46t-12.5 -56t12 -56.5t32.5 -46t48.5 -31t60 -11.5q31 0 59 11.5t49.5 31t34 45.5t12.5 56t-12 56.5t-33 46.5
t-49 31.5t-59 11.5z" />
    <glyph glyph-name="ml_rr" unicode="&#xd60;" horiz-adv-x="1589" 
d="M1594 -67q0 -55 -22 -98q-21 -42 -56.5 -73.5t-81.5 -53.5q-45 -22 -94.5 -37t-98.5 -23q-49 -9 -91 -15q-61 -8 -122.5 -14t-123.5 -6q-51 0 -126 3t-157.5 13.5t-164.5 31.5q-82 20 -147 56q-66 35 -107 87q-42 53 -42 128q0 61 28 105q27 44 71 73t97 45q41 12 82 20
q-132 41 -202 130q-76 97 -76 249q0 78 25 147.5t71.5 121t112 82t147.5 30.5q59 0 111.5 -19t90.5 -54t60.5 -85t22.5 -111q0 -66 -20.5 -118t-58 -88.5t-90.5 -56t-118 -19.5q-39 0 -73 12t-63 32t-53 48q-18 20 -33 43v-2q0 -76 30.5 -126.5t80.5 -83.5q51 -33 116 -51
q66 -18 135 -26t136 -9t121 -1q88 0 182 12t176 42q45 16 81 37q37 21 63 50t40.5 67t14.5 88v6q-18 -25 -38 -46q-26 -28 -56.5 -48.5t-65.5 -32t-75 -11.5q-64 0 -118.5 19.5t-93.5 56t-61.5 88.5t-22.5 118q0 57 21.5 106t58.5 85t86.5 57t106.5 21q85 0 156 -27.5
t121.5 -77t78.5 -119.5t28 -156q0 -152 -77 -247q-71 -87 -201 -128q41 -8 83 -21q53 -16 96 -46q44 -29 71 -73q28 -45 28 -107zM1393 657q0 30 -11 58.5t-30.5 50.5t-46 35t-58.5 13q-31 0 -55.5 -12t-41 -32t-25 -47t-8.5 -56q0 -35 7 -66q8 -30 24.5 -51t43 -33
t65.5 -12q32 0 57 12.5t43 33.5t27 48.5t9 57.5zM618 667q0 27 -7.5 54t-21.5 48q-14 20 -36.5 32.5t-53.5 12.5q-27 0 -52 -12t-44 -32t-30 -45q-12 -25 -12 -52q0 -31 7 -61q8 -30 24 -54t40 -38.5t59 -14.5q38 0 62.5 13t38.5 35t20 51q6 30 6 63zM1383 -71q0 35 -18 61
q-19 25 -47 43t-61 30q-33 11 -63 19q-60 16 -121 28q-60 11 -123 11q-32 0 -88 -1t-120.5 -6.5t-131.5 -16.5q-66 -12 -119 -33t-87 -53q-33 -31 -33 -76q0 -42 28 -73q29 -31 75 -53t103 -37q58 -14 114.5 -21.5t106.5 -10.5t81 -3q30 0 78.5 3t105 11t114.5 21
q57 14 103 36q46 21 75 51q28 30 28 70zM1328 -70q0 -37 -21 -64t-54 -45q-32 -19 -73 -30q-40 -12 -80 -18.5t-77.5 -9t-62.5 -2.5q-14 0 -41.5 1t-60.5 4.5t-67 10.5q-35 6 -64 16q-28 11 -47 26q-20 16 -20 37v17v3v2h2h3h72h3h2v-2v-3v-14q0 -4 10 -8q12 -5 30.5 -9.5
t42 -7.5t44.5 -5t38 -3t24 -1q16 0 39.5 2t50.5 6.5t53 12.5t47 19q20 12 33 28q12 16 12 36q0 25 -16 42q-16 18 -40 30q-24 11 -51 16.5t-48 5.5h-38q-18 -1 -32 -6t-22.5 -16.5t-8.5 -34.5q0 -16 0.5 -32t2.5 -31v-3l1 -3h-3h-3h-155h-3h-2v3v2q0 37 -1 62q-2 23 -12 37
q-9 14 -30 20q-23 6 -64 6q-24 0 -50 -5q-25 -5 -46 -16q-21 -12 -34 -30q-14 -19 -14 -46q0 -5 2 -11l4 -12l1 -4l1 -3h-4h-3h-65h-1h-1l-1 1l-1 1q-14 16 -14 35q0 48 27 79t67 48t85 23q45 7 81 7q52 0 101 -13q47 -12 88 -44q39 31 85 45q48 15 99 15q23 0 53 -4t61 -12
t61 -21q30 -14 53 -32.5t37 -42.5q15 -25 15 -55z" />
    <glyph glyph-name="ml_ll" unicode="&#xd61;" horiz-adv-x="2208" 
d="M2213 201q0 -112 -40 -209q-41 -98 -112 -170t-168.5 -113.5t-210.5 -41.5q-89 0 -173.5 24t-157.5 77l-2 1l-1 2l1 1l1 2l41 77l1 3l1 2l2 -1l2 -2q53 -26 110 -39.5t116 -13.5q91 0 167 35.5t131.5 96.5t86.5 140.5t31 167.5q0 47 -11.5 93.5t-34 87t-55.5 73.5
q-28 29 -66 51q11 -35 16 -71q6 -42 6 -84q0 -78 -21.5 -152.5t-66 -134t-109.5 -95.5q-33 -18 -71 -27t-81 -9q-67 0 -121 24.5t-91.5 66t-58 98.5t-20.5 121q0 79 27 145.5t74 116.5t112 82q61 31 132 43q-48 61 -113 93q-68 33 -150 33q-37 0 -75 -10
q-37 -10 -66.5 -30.5t-48.5 -50.5q-18 -30 -18 -72v-632v-2v-3h-2h-3h-213h-2h-3v3v2v545q0 115 -62 171.5t-175 56.5q-71 0 -136.5 -23t-117.5 -66t-87 -103q-29 -51 -39 -112q32 41 76 65q52 30 115 30q62 0 115 -24.5t91 -65.5t60 -95.5t22 -115.5q0 -63 -21 -116
t-58 -91.5t-89.5 -60.5t-116.5 -22q-88 0 -149.5 34t-100.5 91q-38 56 -55 128t-17 150q0 121 39 221.5t109.5 173t170 113t221.5 40.5q55 0 104 -8q48 -7 91 -26t80 -50q35 -29 67 -71q55 76 133 114q81 41 179 41q146 0 266 -65q118 -64 189 -194q87 -16 160 -56
q75 -40 129 -100t84.5 -138t30.5 -170zM1683 389q0 103 -35 196q-55 -4 -103 -22q-50 -18 -87.5 -52t-59 -81.5t-21.5 -106.5q0 -33 9.5 -66.5t27.5 -59.5t46 -43q27 -16 64 -16q46 0 76 25q31 25 49 63t26 81q8 44 8 82zM584 265q0 32 -12.5 59.5t-34.5 48t-50 32.5t-59 12
q-46 0 -77 -26q-31 -27 -47 -68q-3 -8 -8 -21q-4 -12 -4 -19q0 -11 3 -21l8 -22v-1q8 -26 19 -49q10 -23 26 -41q16 -17 38 -26.5t53 -9.5q30 0 56.5 12.5t46 34t31 49t11.5 56.5z" />
    <glyph glyph-name="l1" unicode="&#xd62;" horiz-adv-x="23" 
d="M-600 -58q74 76 225 76t262 -90t111 -259.5t-132 -225.5q-44 -18 -94 -18q-96 0 -158.5 51.5t-62.5 137.5t63.5 140.5t138.5 54.5t126 -37q-40 97 -170 126q-41 9 -69 9q-109 0 -158 -43q-18 -15 -18 -39v-360v-3v-2h-2h-3h-159h-2h-3v2v3v354q0 43 -58.5 65.5
t-106.5 22.5q-147 0 -225 -84q-21 -22 -32 -51q51 37 104 37q96 0 159.5 -54.5t63.5 -141t-61 -137.5t-134 -51t-117 18q-134 56 -134 235q0 222 206 306q83 34 181 34q174 0 259 -76zM-144.5 -443.5q25.5 25.5 25.5 63t-23 58t-61.5 20.5t-66.5 -22t-28 -60t26.5 -61.5
t64 -23.5t63 25.5zM-1103 -442.5q25 -26.5 62.5 -26.5t63.5 22t26 62.5t-28.5 61.5t-66 21t-60 -20t-22.5 -57t25 -63.5z" />
    <glyph glyph-name="l2" unicode="&#xd63;" horiz-adv-x="23" 
d="M-835 -75q79 91 228 91t255 -85q35 -29 63 -70q119 -21 203 -96.5t84 -194.5q0 -149 -115 -241.5t-258.5 -92.5t-259.5 68q76 -52 3 5l41 60q54 -36 2 3q101 -33 160 -33q117 0 201 72.5t84 183t-92 165.5q9 -39 9 -85q0 -104 -70 -180.5t-171 -76.5t-164 55.5t-63 149.5
t69 156t165 81q-62 57 -157.5 57t-132.5 -48q-13 -17 -13 -41v-390v-2v-3h-2h-3h-166h-3h-2v3v2v337q0 129 -146.5 129t-225.5 -85q-20 -22 -32 -50q81 63 190 22q82 -30 118 -103q19 -37 19 -80q0 -84 -59 -136.5t-130.5 -52.5t-113.5 20q-122 58 -122 246t166 280
q91 51 186 51t151.5 -18.5t103.5 -72.5zM-448 -445q55 39 55 149q0 41 -22 96q-114 -9 -157 -90q-15 -28 -15 -56t7 -47q23 -66 86 -66q27 0 46 14zM-1349 -391q18 -83 89 -83q56 0 85 50q8 15 8 40.5t-41.5 60t-86 12.5t-54.5 -80z" />
    <glyph glyph-name="ml_0" unicode="&#xd66;" horiz-adv-x="926" 
d="M931 452q0 -85 -28.5 -156.5t-79 -123.5t-122 -81.5t-156.5 -29.5t-156 29.5t-122 81.5t-79 123.5t-28 156.5t28 157t78.5 124.5t121.5 82t157 29.5t157 -30t121.5 -82t79 -124t28.5 -157zM741 452q0 53 -15.5 100.5t-45 83t-73 56.5t-99.5 21t-101 -20.5t-77.5 -56
t-49.5 -83t-17 -101.5t17.5 -101t49.5 -82.5t77 -56t101 -20.5t99.5 21t73 56t45 82.5t15.5 100.5z" />
    <glyph glyph-name="ml_1" unicode="&#xd67;" horiz-adv-x="1349" 
d="M1349 -5h-914q-38 0 -66 -22t-28 -62q0 -28 12 -46q11 -17 30 -27q20 -10 43 -14q24 -3 48 -3q21 0 42 1t42 1h2h3v-3v-2v-135v-3v-2h-3h-2h-147q-50 0 -95 15.5t-80 44.5t-55.5 70.5t-20.5 94.5q0 52 20 92.5t53.5 68t77.5 42.5t93 15h27v351q0 104 31.5 195t91 159
t145.5 107.5t194 39.5q107 0 193 -41t145 -110t91 -160.5t32 -193.5v-468v-2v-3h-2h-3zM1141 121v323q0 66 -16 132t-50 118q-35 51 -88.5 83t-129.5 32q-75 0 -127 -32t-85 -82q-33 -51 -48 -115q-15 -65 -15 -130v-329h559z" />
    </font>
</defs>
</svg>
